<svg width="219" height="177" xmlns="http://www.w3.org/2000/svg" xmlns:xlink="http://www.w3.org/1999/xlink"><svg width="172.08" height="78.91" viewBox="-1 -1 172.08 78.91" y="60.35" xmlns="http://www.w3.org/2000/svg"><g data-name="Layer 2"><g data-name="Layer 1" fill="#fff"><path d="M87.59 51.77c0 .05-.08.07-.1.12a2 2 0 00-.07.26c0 .11 0 .21-.08.31a2.27 2.27 0 00-.06.25 1.88 1.88 0 01-.2.62c-.11.17-.23.34-.34.52s0 .16 0 .26a.59.59 0 01-.1.17.88.88 0 00-.2.35 1.46 1.46 0 01-.1.52c0 .06-.08.09-.11.15a1.9 1.9 0 01-.23.39c0 .05-.12.09-.17.15a1.08 1.08 0 00-.08.19c-.09.16-.2.31-.29.46s-.06.16-.12.25a1 1 0 00-.07.3 11.24 11.24 0 01-.38 1.16c-.15.41-.3.82-.46 1.23s-.25.62-.38.94a6 6 0 01-.34.83c-.06.12-.11.24-.16.36a3.14 3.14 0 01-.24.39c-.07.13-.12.27-.2.4a.23.23 0 00-.07.15.53.53 0 010 .18 1.42 1.42 0 00-.18.56 1.2 1.2 0 01-.06.33.54.54 0 000 .11.71.71 0 000 .21 1 1 0 01-.11.41 4.59 4.59 0 01-.24.5 1.15 1.15 0 00-.2.5c0 .35-.37.51-.53.77 0 .08-.07.17-.11.25a.6.6 0 00-.06.11 1.74 1.74 0 00-.14.4 1.47 1.47 0 01-.23.74 1.58 1.58 0 00-.2.36c-.06.15-.08.31-.15.47s-.14.19-.17.29a.83.83 0 01-.06.21c-.06.11-.13.23-.18.34a3.75 3.75 0 01-.24.44s-.15.14-.14.18.41-.08.3.06h.13c0 .08-.15.1-.2.12a.65.65 0 00-.27.15 1.91 1.91 0 00-.29.59.43.43 0 00-.07.26h.07c0 .12-.11.14-.17.21a1.86 1.86 0 00-.29.62 2.28 2.28 0 00-.11.45 2.17 2.17 0 01-.08.43.64.64 0 01-.15.37c-.09.09-.23.17-.27.29a.44.44 0 01-.18.25.74.74 0 00-.19.16.87.87 0 01-.27.33 1.58 1.58 0 00-.22.23 1.23 1.23 0 01-.46.32c-.07 0-.06 0 0 .11s.22.23.31.32l.36.34.81.78.47.46s.15.18.2.18c2.06.13 3.5-3.49 4.19-4.87s9.63-23.35 11.25-27 6.13-15.59 10.51-25.86 4.69-14.4 4.32-15.72-3.35-3.37-6.1-3.44-6.88.6-28.46 12.11l-.94.5a5.14 5.14 0 01-.77.28c-.48.18-.68.81-1.07 1.11a1.77 1.77 0 01-.9.22 1.91 1.91 0 00-.76.29c-.36.2-.76.33-1.09.56a4.4 4.4 0 00-.83.84 1.58 1.58 0 01-1 .39 1.24 1.24 0 00-.87.58 2.37 2.37 0 01-.49.59 1.81 1.81 0 01-1 .18 1.7 1.7 0 00-1 .43 10.5 10.5 0 01-1 .57c-.25.14-.36.36-.58.53a2.88 2.88 0 00-.52.4c-.4.55 0 1-.78 1.3a1.73 1.73 0 01-.93 0c-.2-.06-.49-.24-.71-.15s-.13.15-.19.22a2.14 2.14 0 01-.8.6 6.33 6.33 0 00-1.22.44c-.27.18-.53.39-.81.56a6.52 6.52 0 00-1.25 1 4.72 4.72 0 01-1.25 1 7.85 7.85 0 00-1.16.74.92.92 0 01-.9.28c-.73-.1-.79.61-1.19 1.07-.21.24-.38.22-.68.25a1 1 0 00-.74.35 3.29 3.29 0 01-1.08.68 6.46 6.46 0 00-1.05.53c-.87.52-1.79 1-2.64 1.53-1.18.77-2.35 1.55-3.51 2.35l-1.11.77 12-2.57c3.29-2.53 18.57-11.41 32.2-18.64s19.42-8 20.43-8-.75 6.84-1.68 8.29-.19 1.44-.7 1.86a1.55 1.55 0 00-.36 1.29c-.76.68-.48 1.12-.68 1.63a11.34 11.34 0 00-1 2.53c-.16 1-1.31 1.8-1.31 2.54a5 5 0 01-.59 1.86c-.2.5.19.67-.23 1.06a16.82 16.82 0 00-2 4.39 19.44 19.44 0 01-1.9 4.72c-.76 1.3-.17 1.12-.51 1.62a8.89 8.89 0 00-.76 1.51 7.08 7.08 0 00-.34.91 3.88 3.88 0 00-.3.91.41.41 0 010 .19v.25c0 .08-.07.11-.07.21v.25a1.12 1.12 0 01-.12.32c-.05.12 0 .23-.09.35a1.56 1.56 0 01-.38.54 1.13 1.13 0 00-.33.5 3.22 3.22 0 00-.2.67 5.52 5.52 0 00-.16.54 1.85 1.85 0 01-.08.46 2 2 0 00-.24.51 2.13 2.13 0 01-.34 1c-.08.1-.21.18-.29.3s-.1.19-.15.26a3.45 3.45 0 01-.2.32s-.08.09-.08.13v.06c0 .06-.09.27-.08.44.21 0-.1.34-.13.4-.1.22-.19.45-.3.67s-.25.39-.37.58c-.22.36-.44.72-.63 1.1a8.23 8.23 0 00-.49 1.09 1.33 1.33 0 00-.09.21 1.15 1.15 0 000 .26.64.64 0 01-.07.27.44.44 0 00-.06.32c0 .07.06 0 0 .14a2.09 2.09 0 00-.08.23 1.08 1.08 0 010 .19zM53.17 27.28c-.08 0-.06.11-.06.11l-.18.21h-.37c-.15 0-.07-.09.08-.15s0-.12 0-.12v-.1c.05-.1 0 0 .13 0H53c.12 0 0 0 .16-.05s.14.05.06.1zm2.9-1.5h-.27l-.07.05-.06-.07a.11.11 0 01.13-.11.41.41 0 01.18 0h.09s.06 0 0 .06zm.67-.62h-.11c-.05 0 0-.09 0-.09h.12zm.38-.31l-.09.06c-.09.06-.05 0-.07 0s0 0 0-.06h.23c.11 0 0 .06-.07.06zm17-8.93h-.11c-.11 0 0 0 0 0v-.09c0-.04.07 0 .1 0s0 .07 0 .07l-.07.05zm.7-.59v-.05a.06.06 0 01.08 0v.05zm.43-.41h-.1.09c.03 0 0 0 0 0a.1.1 0 00.06 0 .17.17 0 01-.09 0zm9-5.37s0 .09-.11.1-.06.06-.12.09-.15-.13 0-.19a.28.28 0 01.18 0zm1.09-.64a1.25 1.25 0 01-.43.07c-.23 0 0 0-.08-.06s0-.07.08-.06.08 0 .24-.06.32.1.19.11z"/><path d="M6.51 58.68a1.48 1.48 0 00.46.49 6.7 6.7 0 001.69 1c1.58.42 3.42-1.5 4.59-2.46s2.52-2 3.79-3c3.26-2.55 6.57-5 9.92-7.42 5.55-4 11.18-7.84 16.87-11.6 0 0 15.18-2.54 23-3.83s25.42-3.39 28.66.25l.78-1.16s-2.61-4.65-8-4.65-19.22.95-36.71 4.07-32.68 6.43-37.71 7.31-5.93 1.14-8.56 1.44-4.54.26-5.29.82a.58.58 0 00.36.52c.39.23 0 .53.49 1.16s.93.6 1.21 1.19.64.53 2.13.34A46.1 46.1 0 0013.13 42c4.55-1.2 17.87-3.78 19.56-4 0 0-8.87 6.24-11.75 8.44-2.21 1.7-4.41 3.42-6.61 5.14l-4.18 3.27c-1.3 1-2.58 2.43-4.12 2.95.25.39.32.66.48.92zm96.21-15.49c0 .12-.13.21-.13.32s-.1.24-.15.29a3 3 0 00-.28.68 1 1 0 010 .17c0 .08-.11.14-.14.22a.25.25 0 000 .12v.06c0 .06-.06.1-.09.13a1.57 1.57 0 00-.15.32c0 .09-.2.2-.06.27a2.22 2.22 0 01-.2.48c-.07.12-.24.28-.23.42s.05.08 0 .19-.16.17-.19.28 0 .07 0 .11-.17.24-.22.35a6.22 6.22 0 01-.32.56 3.54 3.54 0 00-.16.34 1.45 1.45 0 01-.28.36 2.82 2.82 0 00-.26.44c0 .07-.14.2-.11.29s.06 0 .07.06-.1.21-.12.28a1.66 1.66 0 01-.06.21c0 .11-.28.28-.23.41s0 .13 0 .19-.07.09-.09.14v.1c0 .11-.1.2-.13.31a.89.89 0 000 .15 4.05 4.05 0 01-.12.5 7 7 0 01-.66 1.27c-.11.2-.17.43-.26.63s-.3.43-.42.66a3.91 3.91 0 00-.31.76c-.08.27-.1.56-.19.82s-.13.37-.2.55-.24.5-.35.75-.17.42-.27.62a6.82 6.82 0 00-.5 1.37c-.33 1.26-.59 1.66-.65 2.15s-.46.89-.35 1.34c0 .06 0 .17.07.21s.2 0 .21.13.19 0 .25.16 0 .11.06.17a4.62 4.62 0 00.37.5 3 3 0 00.32.39c.29.31.61.59.91.91.7.73 1.37 0 1.72-.56s1.84-5.92 2.77-7.85 4.73-11 5.23-12 3.2-7.76 3.82-9.48a6.86 6.86 0 00.55-3.81c-.23-.86-1.6-1.53-2.77-1.81s-1.14.13-1.08.8a7.08 7.08 0 01-.62 2.08 2.52 2.52 0 00-.22 1.38c.09.35-.38.78-.77 1.42s-.13.79 0 1.08-.49.83-.63 1.32-.52.22-.63.62-.17.65-.27 1a6.59 6.59 0 01-.25.75c-.11.22-.3.39-.39.62v.15a.34.34 0 00.22 0c-.07.15.28 0 .28.19s-.09.16 0 .15c0 .15-.34.23-.45.29a1.62 1.62 0 00-.32.32 6.26 6.26 0 01-.45.57s-.07.17-.1.25a1.82 1.82 0 00-.11.46zM170.07 8c-.09-.5-.19-.33-.06-.72s-.25-.73-.39-.94 0-.17-.12-.55-.22-.2-.55-.39 0-.29 0-.29c-.23-.69-2.39-2.5-4.06-3.24s-5.73-.35-6.36-.14-2.89.49-3.51.71a19.87 19.87 0 01-2.25.59c-.51.09-1.88.85-2.73 1.13s-3.59 1.62-4.18 2a10.64 10.64 0 01-1.62 1c-.32 0-.41.33-.68.61s-.36.1-.58.18-.41.36.13.49-1.05.87-1.27 1-.24 0-.21-.31-.8.31-1.22.69a28 28 0 00-2.33 2.29c-.33.48.2.89-.13 1a3.53 3.53 0 00-1.22 1.15c-.17.32-.71.08-.8.43s-.54.7-1 1.09-.35 0-.7.46a3.79 3.79 0 01-.94 1c-.14.06-.14.31 0 .63s-.45.51-.72.63a.77.77 0 00-.45.59c0 .19-.13.17-.54.41s-.15.5-.36.66a12.39 12.39 0 00-1.47 1.64 14.37 14.37 0 00-.75 1.62 1.47 1.47 0 01-.42.52v.25a5.73 5.73 0 00-.5.74c-.06.18.42.29.27.37s-.49-.08-.55.41-.21.23-.44.36-2.55 3.4-2.91 3.9-1.75 3-2 3.46-.69.37-.87.64.19.25 0 .57-.58.44-.78 1.1-.28.67-.51.86 0 .64-.21.74 0 .5-.06.71-.26.06-.47.08-.25.35-.27.55a.82.82 0 01-.24.62.79.79 0 00-.34.65c0 .25-.18.75-.35.8s-.13 0-.4.59a2.31 2.31 0 01-.45.71s0 .33-.06.74-.18.54-.43.43-.33.34-.3.77a.86.86 0 01-.36.84c-.25.22-.13.9-.18 1.26s-.21.11-.48.22-.33.79-.37 1.08-.14 0-.39.14 0 .35-.18.6a2.21 2.21 0 00-.44.73c-.12.38-.13.52-.25.66s-.06.35-.11.57 0 0-.22.35 0 .6-.26 1a1.2 1.2 0 00-.24.84c0 .27-.36.68-.66.93s-.45.9-.68 1.38.08.52-.22 1-.08.69-.45 1-.47 1.17-.54 1.23-.08.4-.18.65a4.3 4.3 0 01-.36 1.11 4.05 4.05 0 00-.64 1.62c0 .41-.13.07-.15.38s.12.32-.29.81a2.34 2.34 0 00-.38.92c0 .16-.1.32-.13.48s0 .37-.06.55-.19.45-.24.68a.72.72 0 01-.1.24 1.1 1.1 0 00-.08.57v.42c0 .46-.16.91-.22 1.37a4.66 4.66 0 01-.52 1.62c-.4.86.26 1.45.67 2a6.49 6.49 0 011.13 1.78c.3.8 2.25.16 2.35-.22a14 14 0 00.31-2.26c0-.27.32-.75.32-1s.06-1 .06-1.69.39-2.06.53-3.07a30.23 30.23 0 011-3.63c.18-.6 1.44-3.32 1.59-3.81s.43-1.2.46-1.28a9.94 9.94 0 00.36-1c.15-.52 1.33-2.73 1.46-3s1-2.15 1.17-2.5.3-.9.72-1.78.38-.79.36-.89-.06-.33.09-.45a2.68 2.68 0 00.42-1c.17-.54 3-5.23 3.17-5.69s.3-.46.46-.81.13-.63.27-1a6.18 6.18 0 011-1.32c.15-.13.14-.27.21-.43a1 1 0 00.11-.41 1.38 1.38 0 01.12-.49c.1-.28.25-.16.46-.36a6.84 6.84 0 00.68-1.2c.27-.51 1.29-1.85 1.62-2.45a20.28 20.28 0 011.38-2.25 24.94 24.94 0 002-2.6c.7-1.11 4.19-5.65 5-6.52a67.91 67.91 0 016.34-6.43 43.38 43.38 0 017.24-4.4 7.71 7.71 0 012.24-1c1.1-.22 5.69-2.17 9.3-2.34s3.83.24 4 .4 0 1.26-.15 1.75-.72 1.74-.77 1.93-.25.19-.24.61.08.68-.21.81a1.81 1.81 0 00-.79.69c-.17.31 0 .7-.15.95s-.65.62-.65.89-.39.5-.55.85-.41.24-.65.25-.29.6-.41.92a3.51 3.51 0 01-.54.79s.41 0-.07.06-.74.64-.93.7-.23.46-.42.66-1 .38-1 .86a1 1 0 01-.72.83c-.27.05-1.33 1.3-1.62 1.62s-2.85 2.44-3.09 2.7a11.05 11.05 0 00-1.14 1.12c-.13.24-2 1.42-2.27 1.71a12.26 12.26 0 00-1.34 1 24.08 24.08 0 01-2.36 2.07 6.2 6.2 0 00-1.2 1A16.68 16.68 0 01142.9 32a11 11 0 01-1.47 1.22c-.46.22-.76.85-1.25 1.06s-1.77 1.26-2.22 1.45-.38.27-.55.51-.31.27-.64.36a13.33 13.33 0 00-2.1 1.52c-.26.25-1.7 1.58-2 1.74a3.06 3.06 0 00-.78.6c-.18.24-.3 0-.42.31a1.25 1.25 0 01-.42.6L130 42.44c-.16.16-.93 1.19-1.15 1.22s-.14.43-.33.58-.57.87-.83 1.14-.16.38-.16.62-.15.11-.31.38-.72 1.53-.82 1.74a1.83 1.83 0 00-.24.66c-.09.39-.17.21-.26.51s.09.34.23.39 0 .19 0 .25-.18.38 0 .51-.16.13-.3.5a4.79 4.79 0 00.27 1.65 3.57 3.57 0 01.3 1.15c0 .55.54.89.69 1.36a4 4 0 00.55 1.3c.3.39.33.85.66 1.09s.33.22.36.61.33.38.42.57a10.07 10.07 0 001.56 1.79c.25.09.27.12.35.31s1.44 1.69 1.92 1.71-.09-.21.72.49 6.47 3 7.52 3.32 2.54.47 3.14.61a1.9 1.9 0 001.45-.17c.69-.25 1.45.43 2.4.58a22.59 22.59 0 004.7-.34c.32-.13.23-1 .23-1h-.92c-.43 0-.39-.31-1.22-.83s-3.77-.78-4.43-.76-3.78-.43-9.09-2.83-5.55-3.48-7.13-6.65.13-6.26 1.76-8.3 4.31-4.46 8.87-7.81S154.48 28 159.48 23.56a46.16 46.16 0 008.89-10.38 11.5 11.5 0 001.7-5.18zm-20.69 57.53l.33-.13c.32-.14.21 0 .32 0s0 0 .09.18-.18.07-.31.17 0 .34-.16.32-.14-.13-.45-.42 0-.13.18-.17z"/></g></g></svg><svg width="218.96" height="35.15" viewBox="-1 -1 218.96 35.15" xmlns="http://www.w3.org/2000/svg"><g data-name="Layer 2"><g data-name="Layer 1" fill="#fff"><path d="M200.14 1.07h-15.95c-.36 0-.67.05-1 .05h-.79a24.68 24.68 0 00-2.58 0h-10.71a2.06 2.06 0 01-.43 0 9.88 9.88 0 00-1.22 0h-1.86a3.12 3.12 0 01-.43 0 7.59 7.59 0 00-1.65 0 3.63 3.63 0 01-.57 0h-2.16c-.88 0-1.77.05-2.66 0H84.61a5.11 5.11 0 01-.78-.05 4.87 4.87 0 00-1 0c-.36 0-.71.06-1.07.06H61.27c-.71 0-1.49-.05-2.23 0s-1.44 0-2.16 0H52.5a1.41 1.41 0 01-.29 0 7.33 7.33 0 00-1.93 0c-.64-.08-1.29 0-1.93-.07a2.82 2.82 0 00-.58 0 3.53 3.53 0 01-.86 0 11.61 11.61 0 00-2.5 0 2.1 2.1 0 01-.5 0 11.05 11.05 0 00-2.3 0 11 11 0 01-1.15 0 2.94 2.94 0 00-.42 0 4.15 4.15 0 01-1.22 0 3.7 3.7 0 00-1.15 0 3.63 3.63 0 01-1.14 0 2.17 2.17 0 00-.36 0h-2.8c-.74.08-1.49 0-2.23 0h-2.08a27.48 27.48 0 00-3 0 1.38 1.38 0 01-.29 0 13.9 13.9 0 00-2.58 0 4.65 4.65 0 01-1.29 0 3 3 0 00-.94 0 .88.88 0 01-.28 0c-.81-.09-1.63 0-2.44 0H4.64c-.91 0-2.1.13-3.15.08-.43.05-.86.01-1.29-.04A.22.22 0 010 .9.35.35 0 01.33.43a5.62 5.62 0 01.58 0h3.16A5.45 5.45 0 005.14.36a3.55 3.55 0 01.65 0h2.22a7.36 7.36 0 011.15 0A10.5 10.5 0 0011 .35a2.8 2.8 0 01.5 0 3.54 3.54 0 00.86 0 2.75 2.75 0 01.64 0 3.47 3.47 0 00.72 0 4.91 4.91 0 01.86 0 6.3 6.3 0 001.15 0 .5.5 0 01.21 0A3 3 0 0017 .34a4.7 4.7 0 01.65 0h.86a4.56 4.56 0 01.64 0 8 8 0 001.29.06h.57a3.12 3.12 0 01.43 0 10.39 10.39 0 002.23 0 5.08 5.08 0 01.78 0 5.16 5.16 0 001.36 0 2.18 2.18 0 01.51 0 13.33 13.33 0 001.79.07h1.44a13.05 13.05 0 012.5 0h6.33c.5 0 1-.06 1.5 0s1 0 1.51 0A1.81 1.81 0 0042 .35a.66.66 0 01.55 0 .51.51 0 00.28 0 3.71 3.71 0 011 0h1.15a7.24 7.24 0 001.86 0 2.9 2.9 0 01.93 0 12.87 12.87 0 001.86.08 1.54 1.54 0 00.43 0 2.59 2.59 0 011 0 6.21 6.21 0 001.22.08h6.03a3.1 3.1 0 00.43 0A5.53 5.53 0 0160 .35h.72A9.14 9.14 0 0062 .33a7.8 7.8 0 011.87 0 4 4 0 00.5 0 11.35 11.35 0 011.43 0 1.41 1.41 0 00.35 0 2.77 2.77 0 01.5 0 2 2 0 00.64 0 7.8 7.8 0 011.87 0 4.86 4.86 0 001.57 0 1 1 0 01.43 0 2.12 2.12 0 00.71 0q.36 0 .72-.06h36.94c.46 0 .91 0 1.37-.05a3.17 3.17 0 01.43 0 8.92 8.92 0 001.79 0 1.68 1.68 0 01.5 0 8.68 8.68 0 001.38.05h4.23a4.64 4.64 0 00.65 0 3.35 3.35 0 011 0 1 1 0 00.43 0 2 2 0 01.78 0 .38.38 0 00.15 0 10.73 10.73 0 011.5 0l1.58-.07h.36c.86.09 1.72-.06 2.58 0l1 .06a1.42 1.42 0 00.29 0c.84-.06 1.67.06 2.51 0s1.72 0 2.58 0h6.9a.34.34 0 01.14 0c.6.1 1.2 0 1.8 0a2.62 2.62 0 00.28 0h1.15a23.32 23.32 0 002.51 0h1.94c.4 0 .81 0 1.22.06a11 11 0 001.72 0 1.45 1.45 0 01.36 0A5.63 5.63 0 00154 .2h1.36a11.26 11.26 0 012 .05 1.72 1.72 0 00.64 0 2.76 2.76 0 01.86 0 2.48 2.48 0 00.72 0 4.17 4.17 0 01.71 0h4.79a4.18 4.18 0 001 0 3.1 3.1 0 01.43 0h16.72a4.35 4.35 0 00.72 0 3.72 3.72 0 011 0 5.46 5.46 0 001.51 0 .88.88 0 01.28 0 6.18 6.18 0 001.36 0 5.54 5.54 0 011.15 0 2.11 2.11 0 00.71 0 5.25 5.25 0 01.79-.06h11.99c.62 0 1.24.06 1.86 0s1.25 0 1.87 0h2c.66 0 1.15 0 1.72.06a4.13 4.13 0 00.5 0A13.59 13.59 0 01213 0h.21a11 11 0 011.79.1.93.93 0 00.29 0 8.15 8.15 0 011.21 0 .78.78 0 01.21 0 .43.43 0 01.3.39.43.43 0 01-.24.42 1.54 1.54 0 01-.7.14h-15.88zm-51.66 26.51h.52v-4.91s.34.57.6 1l2.61 3.94h.55V21.9h-.51v4.92s-.28-.51-.57-.93l-2.61-4h-.58v5.68zm5.32 0h.54V21.9h-.54v5.68zm1.59 0h.53v-2l1-1 2.24 3h.64l-2.52-3.37 2.38-2.31H159l-3.07 3v-3h-.53v5.68zm5 0h4v-.49h-3.41v-2.22h3.05v-.46h-3.05v-2.05h3.32v-.46h-3.86v5.68zm7.92.1c1.19 0 2-.65 2-1.66 0-1.19-.91-1.46-2-1.68s-1.54-.39-1.54-1.07.52-1 1.39-1a1.34 1.34 0 011.48 1.22h.52a1.8 1.8 0 00-2-1.67c-1.13 0-1.9.6-1.9 1.51s.74 1.31 1.79 1.51c1.22.25 1.75.44 1.75 1.24s-.62 1.2-1.45 1.2a1.56 1.56 0 01-1.78-1.51H166a2 2 0 002.3 1.95zm2.79-.1h.53v-2.47h1.63c1.19 0 1.8-.58 1.8-1.62a1.55 1.55 0 00-.39-1.1 1.73 1.73 0 00-1.34-.49h-2.23v5.68zm.53-2.93v-2.29h1.64c.82 0 1.25.41 1.25 1.14s-.38 1.15-1.3 1.15zm6.58 2.56c-1.36 0-2.08-1.1-2.08-2.48s.72-2.48 2.08-2.48 2.1 1.11 2.1 2.48-.73 2.48-2.1 2.48zm0 .48a2.69 2.69 0 002.65-3 2.66 2.66 0 10-5.29 0 2.68 2.68 0 002.64 3zm3.45-.11h.53V25h1.73c.83 0 1.17.28 1.22 1.27s.08 1.18.21 1.27h.57c-.1-.08-.21-.31-.25-1.22s-.23-1.31-.82-1.51a1.29 1.29 0 001-1.37 1.45 1.45 0 00-1.62-1.53h-2.53v5.68zm.53-3v-2.22H184c.86 0 1.18.41 1.18 1.12s-.42 1.11-1.25 1.11zm5.93 3h.53v-5.21h1.92v-.47h-4.37v.47h1.92v5.21zm4.92.1c1.19 0 2-.65 2-1.66 0-1.19-.91-1.46-2-1.68s-1.54-.39-1.54-1.07.53-1 1.39-1a1.34 1.34 0 011.48 1.22h.52a1.8 1.8 0 00-2-1.67c-1.13 0-1.89.6-1.89 1.51s.73 1.31 1.78 1.51c1.22.25 1.75.44 1.75 1.24s-.62 1.2-1.45 1.2a1.56 1.56 0 01-1.78-1.51h-.53a2 2 0 002.3 1.95zm3.73-.1h.56l1.11-4.14c.1-.37.22-.92.22-.92s.12.56.23.92l1.08 4.14h.54L202 21.9h-.53l-1 3.83c-.1.42-.26 1.12-.26 1.12s-.16-.69-.27-1.1l-1-3.85h-.57l-1 3.86c-.11.4-.27 1.09-.27 1.09s-.15-.7-.26-1.12l-1-3.83h-.54l1.51 5.68zm5.89 0h3.95v-.49h-3.41v-2.22h3.05v-.46h-3.05v-2.05h3.33v-.46h-3.87v5.68zm4.35 0h.54l.67-1.79h2.47l.66 1.79h.57l-2.16-5.68h-.6L207 27.58zm1.37-2.23l.79-2.12c.13-.34.28-.83.28-.83s.16.51.28.83l.78 2.12zm4.11 2.23h.51V25h1.73c.83 0 1.17.28 1.21 1.27s.08 1.18.21 1.27h.57c-.1-.08-.2-.31-.24-1.22s-.23-1.31-.82-1.51a1.29 1.29 0 00.95-1.37A1.44 1.44 0 00215 21.9h-2.54v5.68zm.54-3v-2.22h1.89c.86 0 1.17.41 1.17 1.12s-.42 1.11-1.24 1.11zm-13.31-12.95h3.53v-.48h-2.94c.11-.75.8-1.18 1.43-1.55.8-.48 1.58-.86 1.58-1.95a1.55 1.55 0 00-1.67-1.58 1.85 1.85 0 00-1.32.5 1.83 1.83 0 00-.48 1.36h.52a1.54 1.54 0 01.35-1.07 1.17 1.17 0 01.9-.35 1.08 1.08 0 011.18 1.16c0 .79-.51 1.06-1.25 1.51s-1.8 1.05-1.83 2.45zm6.2-.34c-1 0-1.48-.93-1.48-2.39s.51-2.4 1.48-2.4 1.48.94 1.48 2.4-.49 2.39-1.48 2.39zm0 .45c1.31 0 2-1.11 2-2.84s-.78-2.84-2-2.84-2 1.08-2 2.84.73 2.84 2 2.84zm2.54-.11H212v-.48h-3c.11-.75.8-1.18 1.43-1.55.8-.48 1.58-.86 1.58-1.95a1.56 1.56 0 00-1.67-1.58 1.84 1.84 0 00-1.32.5 1.83 1.83 0 00-.48 1.36h.52a1.59 1.59 0 01.34-1.07 1.21 1.21 0 01.91-.35 1.08 1.08 0 011.17 1.16c0 .79-.5 1.06-1.24 1.51s-1.81 1.05-1.83 2.45zm6.2-.34c-1 0-1.49-.93-1.49-2.39s.52-2.4 1.49-2.4 1.48.94 1.48 2.4-.5 2.39-1.48 2.39zm0 .45c1.3 0 2-1.11 2-2.84s-.78-2.84-2-2.84-2 1.08-2 2.84.72 2.84 2 2.84zM217 32.35a.49.49 0 00-.41-.4.92.92 0 00-.29 0 11.67 11.67 0 00-1.67 0 1.68 1.68 0 01-.39 0 20.83 20.83 0 00-2.37-.05h-.3a23.65 23.65 0 00-3.15 0 4 4 0 01-.69 0c-.79 0-1.58-.06-2.37-.05H180.9a9.77 9.77 0 00-1.08.06 4 4 0 01-1 0 9.32 9.32 0 00-1.58-.06 11.68 11.68 0 01-1.87 0 1.29 1.29 0 00-.39 0 9.55 9.55 0 01-2.07 0 8.07 8.07 0 00-1.39 0 6.38 6.38 0 01-1 0h-22.94a3.84 3.84 0 00-.59 0 7.08 7.08 0 01-1.38 0H139a8.19 8.19 0 00-1 0 4.59 4.59 0 01-1 0 4.66 4.66 0 00-1.18 0 4.42 4.42 0 01-.89 0 19.57 19.57 0 00-2.76-.06h-1.88a11.67 11.67 0 01-1.87 0 2 2 0 00-.49 0 20.83 20.83 0 01-2.37 0c-.56 0-1.12-.09-1.68-.07h-2.66c-1.15 0-2.3.1-3.46.05h-1.97c-.83-.06-1.65.06-2.47 0a1.34 1.34 0 00-.2 0h-13.04c-1.18 0-2.31-.09-3.46 0h-.39l-1.34.23c-1.18-.06-2.36.09-3.55 0h-.49l-2.17.07a15.89 15.89 0 00-2.07 0h-.2a3.56 3.56 0 00-1.08 0 2.91 2.91 0 01-.59 0 5.79 5.79 0 00-1.38 0 5.18 5.18 0 01-.88 0h-5.84a16.15 16.15 0 01-2-.06 3.19 3.19 0 00-.69 0 14.55 14.55 0 01-2.47 0h-.59l-1.87.06h-50.8a8.22 8.22 0 00-1 .06 4 4 0 01-1 0 2 2 0 00-.59 0 9.18 9.18 0 01-2.16 0 13.79 13.79 0 00-2.57 0 3.7 3.7 0 01-.88 0 4 4 0 00-.69 0 2.72 2.72 0 01-.49 0c-.66-.07-1.31 0-2 0a5.34 5.34 0 01-.69-.05 13.69 13.69 0 00-2.56 0 15 15 0 01-1.77.06h-1a3.37 3.37 0 00-.55 0 .59.59 0 00-.23.05.36.36 0 00-.1.15.17.17 0 000 .14H0a.81.81 0 010 .31c0 .09 0 .18.11.23a1 1 0 00.39 0h30.38c.49 0 1 0 1.48-.07a9.08 9.08 0 011.38 0 9.76 9.76 0 001.08 0h99.67c.49 0 1-.07 1.48 0 1.22.07 2.44 0 3.65 0h3a7 7 0 00.79 0 13.13 13.13 0 012.26 0h3.16a13.46 13.46 0 011.68 0 5.86 5.86 0 00.59 0l2.08-.06h12.62c1.18-.06 2.36-.07 3.55 0h1.08c.36 0 .92-.05 1.38-.06h2.48c2.37.07 4.75.07 7.12 0 .76 0 1.52-.06 2.27 0 1 .06 2 0 3 0h29a3.11 3.11 0 001-.15.44.44 0 00.33-.45zm0-15.95c0-.19-.07-.36-.15-.4s-.08-.05-.12 0c-.21 0-.42-.08-.63 0a.26.26 0 01-.15 0 3 3 0 00-.95 0h-.11a3.46 3.46 0 00-1.2 0 .62.62 0 01-.27 0c-.3 0-.6-.06-.9-.06h-1.05a6.46 6.46 0 00-1 0 7.87 7.87 0 01-1 0h-6.28a1.51 1.51 0 00-.41.06.59.59 0 01-.37 0 1.37 1.37 0 00-.6-.06 1.71 1.71 0 01-.71 0h-.15a1.41 1.41 0 01-.79 0 1.19 1.19 0 00-.53 0 .94.94 0 01-.37 0 8.49 8.49 0 00-1 0h-7.71a.6.6 0 00-.23 0 1 1 0 01-.52 0 3 3 0 00-.41 0h-2.11a1.17 1.17 0 00-.37 0 .7.7 0 01-.38 0 .7.7 0 00-.45 0 .62.62 0 01-.33 0 2.87 2.87 0 00-1.05-.06h-.72c-.24 0-.47.1-.71 0h-.19a3 3 0 01-.9 0 2.73 2.73 0 00-.64-.07h-1a7.18 7.18 0 01-1.31 0 4 4 0 00-.6 0h-.15c-.32-.06-.63.06-.94-.05h-3.71a12.36 12.36 0 00-1.36 0c-.43 0-.87-.08-1.31 0h-.15l-.52-.06c-.45-.06-.9.09-1.35 0h-.19l-.83.07c-.26 0-.52-.12-.78 0h-.08a.53.53 0 00-.41 0 .41.41 0 01-.22 0 .8.8 0 00-.53 0 .78.78 0 01-.34 0h-2.21a2.38 2.38 0 01-.75-.06.46.46 0 00-.26 0 2.13 2.13 0 01-.94 0h-.23c-.24 0-.47.05-.71.06h-7.97c-.74 0-1.48-.05-2.22 0s-1.7 0-2.56 0h-4.55a8.51 8.51 0 00-1 0h-1a1.26 1.26 0 00-.38.06.59.59 0 01-.37 0 .31.31 0 00-.23 0 1.35 1.35 0 01-.82 0 2 2 0 00-1 0 .65.65 0 01-.34 0 .57.57 0 00-.26 0c-.06 0-.13.07-.19.05a3.14 3.14 0 00-.75 0 1.32 1.32 0 01-.26-.05 2 2 0 00-1 0 2.2 2.2 0 01-.67.06h-.38a.5.5 0 00-.21 0s-.07 0-.09.05a.54.54 0 000 .15v.68c0 .05.09 0 .15 0h11.53a3.7 3.7 0 00.57-.07 1.3 1.3 0 01.52 0 1.48 1.48 0 00.41.05 10.65 10.65 0 011.13 0h36.79a3.64 3.64 0 01.57 0c.46.08.92 0 1.39 0h1.12a1 1 0 00.3 0 1.93 1.93 0 01.86 0h.23l.34-.05h.64a1.91 1.91 0 01.63 0 .89.89 0 00.23 0c.26 0 .52-.05.79-.06s.47 0 .71 0h4.1a6.1 6.1 0 011.35 0 2.85 2.85 0 00.41 0c.18 0 .35-.05.53-.06h.93a24.54 24.54 0 002.71 0 5 5 0 01.86 0 8.58 8.58 0 001.13 0h11.02a.52.52 0 00.37-.14.67.67 0 00.12-.45z"/><path d="M134 4.27c-.05 2.36.06 4.72.08 7.08v21.14h.79v-.74a12.2 12.2 0 010-1.6V28.7a17.57 17.57 0 010-1.92v-1.13c0-1.39-.06-2.78 0-4.18v-7.55a14.05 14.05 0 000-1.45c-.06-.8-.07-1.6-.06-2.41V1.68c0-.43-.22-.84-.5-.72a.46.46 0 00-.21.42c0 1-.09 1.92-.11 2.89zM.07 25.68h3.27l1-3.6h5.75l1.06 3.6h3.37L9 8.76H5.61L.07 25.68zm6.5-11.1c.26-.9.66-2.6.66-2.6s.38 1.7.64 2.6l1.43 4.88H5.14l1.43-4.88zm9.34 11.1h3.23V8.76h-3.23v16.92zm5.7 0h3.23v-6.79h2.6a2.79 2.79 0 013.12 2.89c.13 1.82.18 3.71.58 3.9h3.09v-.16c-.56-.26-.47-2.09-.69-4.48-.2-2.06-1-3-2.43-3.41v-.07A3.86 3.86 0 0034 13.47c0-2.82-2.05-4.71-5.12-4.71h-7.3v16.92zm3.23-14.15h3.51a2.27 2.27 0 012.54 2.39c0 1.35-.87 2.32-2.62 2.32h-3.43v-4.71zM46.7 25.68h3V16c0-1.37-.14-3.5-.14-3.5s.35 2 .69 3.21l2.67 10H56l2.74-10c.33-1.23.69-3.21.69-3.21s-.13 2.13-.13 3.5v9.7h3V8.76h-4.6l-2.25 8.5c-.56 2.13-1 4.56-1 4.56s-.45-2.43-1-4.56l-2.24-8.5H46.7v16.92zm16.95 0h3.28l1-3.6h5.74l1.07 3.6h3.36L72.53 8.76H69.2l-5.55 16.92zm6.5-11.1c.27-.9.67-2.6.67-2.6h.05s.37 1.7.64 2.6l1.43 4.88h-4.21l1.42-4.88zm8.39 11.1h3.7l3.29-6.18 3.25 6.18h3.76l-5.28-8.87 4.68-8h-3.47l-2.94 5.35-2.98-5.4h-3.63l4.77 8.07-5.15 8.85zm31.34.36c4.48 0 6.1-3.51 6.1-8.69 0-5.49-2.27-8.21-6.32-8.21a5.53 5.53 0 00-5.74 5.68 5.35 5.35 0 005.45 5.7 4.32 4.32 0 003.54-1.77 6.68 6.68 0 01-1 3.81 2.56 2.56 0 01-2.21 1 2.22 2.22 0 01-2.31-1.78h-2.94c.34 2.44 2.16 4.24 5.34 4.24zm-.09-8.12a2.88 2.88 0 01-3-3.15 3 3 0 013-3.1 3 3 0 013.05 3.15 3 3 0 01-3.08 3.1zm13.89 8.14c4 0 6.37-3.31 6.37-8.47s-2.41-8.48-6.35-8.48-6.38 3.29-6.38 8.48 2.47 8.47 6.36 8.47zm0-2.74c-2.27 0-3.22-2.3-3.22-5.73s1-5.73 3.22-5.73 3.19 2.3 3.19 5.73-.92 5.73-3.19 5.73z"/></g></g></svg><svg width="112.73" height="13.49" viewBox="-1 -1 112.73 13.49" y="139.26" xmlns="http://www.w3.org/2000/svg"><g data-name="Layer 2"><path d="M0 6.43a4.26 4.26 0 014.31-4.58 4.07 4.07 0 012.5.77A3.41 3.41 0 018.12 5H5.95A1.58 1.58 0 004.3 3.65c-1.43 0-2.1 1.19-2.1 2.78S3.01 9.2 4.31 9.2a1.61 1.61 0 001.7-1.46h2.17a3.43 3.43 0 01-1 2.24 3.83 3.83 0 01-2.81 1A4.26 4.26 0 010 6.43zm8.84-.01a4.24 4.24 0 014.32-4.57 4.24 4.24 0 014.34 4.57A4.25 4.25 0 0113.16 11a4.24 4.24 0 01-4.32-4.58zm6.46 0c0-1.6-.7-2.82-2.12-2.82s-2.14 1.22-2.14 2.82.73 2.8 2.14 2.8S15.3 8 15.3 6.42zM12.88 0h2.29l-1.3 1.59h-1.52zm5.71 2h2.91l1.07 3.83c.16.55.5 2 .5 2s.34-1.45.49-2L24.67 2h2.94v8.76h-2V4.62s-.3 1.31-.4 1.63l-1.26 4.53h-1.77l-1.25-4.52c-.1-.32-.41-1.64-.41-1.64v6.16h-1.93zm10.46 0h3.94a3.3 3.3 0 012.39.81A2.84 2.84 0 0136.27 5a2.77 2.77 0 01-3 2.87h-2v2.93h-2.22zm3.81 4.11A1.1 1.1 0 0034.08 5a1.08 1.08 0 00-1.22-1.13h-1.61v2.26zM37.28 2h4.19c1.74 0 3.06.89 3.06 2.52a2.09 2.09 0 01-1.52 2.12 1.75 1.75 0 011.28 1.6c.18 1.16.06 2.26.37 2.37v.11h-2.11c-.23-.14-.2-1.17-.33-2a1.29 1.29 0 00-1.47-1.23h-1.3v3.29h-2.17zm3.8 3.87c.86 0 1.3-.4 1.3-1.07s-.42-1.09-1.25-1.09h-1.68v2.18zM48.28 2h2.23l3.16 8.76h-2.28l-.51-1.56h-3.07l-.5 1.58h-2.18zm2.09 5.62l-.62-2.1c-.14-.45-.34-1.24-.34-1.24s-.21.79-.36 1.24l-.67 2.12zM54.53 2h2.16v6.94h3.94v1.84h-6.1zm9.7 0h2.23l3.16 8.76h-2.28l-.52-1.56h-3.07l-.5 1.58h-2.17zm2.09 5.62l-.66-2.12c-.15-.45-.34-1.24-.34-1.24s-.21.79-.35 1.24l-.68 2.12zm3.74.38h2.18c.1.88.67 1.25 1.71 1.25.71 0 1.41-.26 1.41-.92s-.71-.84-1.91-1.14c-1.52-.35-3.12-.82-3.12-2.66s1.52-2.69 3.48-2.69 3.37.86 3.45 2.69h-2.12c-.08-.67-.6-1-1.41-1s-1.26.33-1.26.82.67.76 2 1.06c1.62.37 3.1.88 3.1 2.75S75.99 11 73.96 11c-2.32 0-3.85-1-3.9-3zm13.3-6h2.23l3.16 8.78h-2.28l-.51-1.58h-3.07l-.5 1.58h-2.18zm2.09 5.64l-.7-2.12c-.14-.45-.34-1.24-.34-1.24s-.21.79-.36 1.24l-.67 2.12zm10.3 2.8a4.47 4.47 0 01-2.21.55 4.23 4.23 0 01-4.29-4.57 4.33 4.33 0 118.64 0 4.78 4.78 0 01-1 3.07l1 .93-1 1.07zm-1.39-1.36l-.8-.78 1-1 .81.77a4 4 0 00.3-1.61c0-1.6-.68-2.82-2.1-2.82s-2.12 1.22-2.12 2.82.71 2.8 2.12 2.8a2.13 2.13 0 00.79-.18zm4.55-1.39V2h2.17v5.76a1.32 1.32 0 001.51 1.44 1.35 1.35 0 001.48-1.47V2h2.17v5.69c0 2-1.21 3.25-3.65 3.25s-3.68-1.2-3.68-3.25zM107.64 2h2.16v8.76h-2.16zm.79-2h2.32l-1.3 1.59h-1.52z" data-name="Layer 1" fill="#fff"/></g></svg><svg width="34.5" height="23.7" viewBox="-1 -1 34.5 23.7" x="172.08" y="60.35" xmlns="http://www.w3.org/2000/svg"><g data-name="Layer 2"><path d="M9.82 8.42H7.7l.17-3.76-1.43 3.76H4.32L7.48 0h2.3l-.27 3.6L10.85 0h2.05L9.82 8.42zm.46 0h2.11L15.48 0h-2.05l-3.15 8.43zm12.59-.89l9.63-2.36L7.6 15.33c-2.23.91-5.23 1.48-7-.54a3.31 3.31 0 01-.45-3.13c.7-2.53 2.42-4.43 4.1-6.32-.87 1.74-1.56 4.19.38 5.58a3.28 3.28 0 002.68.43l11.82-2.9h-2.89v-3c0-.14 0-.12-.08-.1a.35.35 0 00-.09.15L15 8.44h-2.17L16 0h2.1l-.82 2.22L19.19 0h6l-.57 1.6h-1.85l-.63 1.68H24l-.54 1.47h-1.87l-.76 2h2.32l-.28.77zM18.11 8L21 .38 17.92 4l.19 4zM5.13 21l-.33.72h-.4l1.41-3 1.4 3h-.39L6.48 21zm.68-1.5l-.52 1.17h1l-.52-1.17zm9.37-.66h-.37v2.89h.36V18.8zm9.74 2.9h-.45l-.86-1.23h-.16v1.19h-.36v-2.9h.44a1.62 1.62 0 01.78.14.82.82 0 01-.32 1.5l.93 1.26zm-1.47-1.53h.12c.38 0 .78-.06.78-.53s-.44-.51-.8-.51h-.09v1z" fill="#fff" data-name="Layer 1"/></g></svg><svg width="185.69" height="25.2" viewBox="-1 -1 185.69 25.2" y="35.15" xmlns="http://www.w3.org/2000/svg"><g data-name="Layer 2"><path d="M71.8 22.6h4.39l-.08-9 9.41-.08V9.77h-.57a2.61 2.61 0 01-.27.06c-.15 0-.29-.07-.44-.07h-.75c-.24 0-.46.05-.7.06h-.61c-.18 0-.34.06-.51.06H81a1.81 1.81 0 00-.39 0c-.31 0-.59.06-.9.06h-3.58v-5.2h5.28a4.82 4.82 0 00.76 0c.2 0 .55-.26.75-.17s.13.16.29.21a2.15 2.15 0 00.62 0c.18 0 .21-.2.42-.17s.19.14.31.17c.2 0 2.67-.09 2.67-.09V.97L71.61 1v2.42l.05 5.76c0 1.08.19 2.08.19 3.16v.81c0 .27.14.5.15.79a3.71 3.71 0 01-.31 1.23 2.08 2.08 0 000 .86c0 .15.12.09.09.32a4.2 4.2 0 00-.11.77v5.5zm26.32.14c5.54 0 8.36-2.77 8.32-7.4V6.21c0-.14 0-.27-.06-.41a1.87 1.87 0 01.09-.41c0-.31-.09-.6-.06-.91s0-.38 0-.57a3.71 3.71 0 000-.48V.67h-4.39v4.82a8.8 8.8 0 00.09 1.85 1.3 1.3 0 01.09.39 1.59 1.59 0 01-.06.37 2.44 2.44 0 00-.06.26v.28a1.68 1.68 0 010 .55 2.65 2.65 0 00-.05 1 6.49 6.49 0 01.05.88v4.22c0 2.24-1.27 3.88-4 3.91-2.94 0-4.07-1.54-4.09-3.78L93.78.78 89.4.82v6.59a8.06 8.06 0 000 1.1 2.59 2.59 0 00.11.37 2.69 2.69 0 010 1.13c0 .14-.06.3-.08.45a2.24 2.24 0 000 .58v4.5c0 4.69 3 7.3 8.59 7.25zm10.25-18.39l6.5-.06v1.69a2.89 2.89 0 010 .66c0 .2-.06.42-.08.63s0 .44 0 .67v14.32h4.38l-.15-17.94h1.08c.14 0 .23-.09.37-.08a3.52 3.52 0 00.56 0h.45c.48 0 1 .07 1.43.07h2.61V.62l-17.4.16v3.69zm28.11 18c5.53 0 8.35-2.76 8.31-7.39L144.66.34h-4.38V3a5 5 0 010 1v5.16c.05 1.35 0 2.7 0 4v1.73c0 2.23-1.26 3.88-4.05 3.9s-4.06-1.53-4.08-3.77L132.14.45h-4.39v5.7a17.74 17.74 0 00.07 2.19v.27a8.83 8.83 0 010 .89 3.6 3.6 0 010 .57 1.28 1.28 0 000 .39 1.09 1.09 0 010 .18v2.2a5.07 5.07 0 010 1 1.3 1.3 0 00-.07.33v.92c0 4.68 3 7.29 8.6 7.24zm15.74-18.54H157c2.33 0 3.46 1.27 3.48 3s-1.15 3-3.54 3h-4.66v-.19c0-.82-.05-1.64-.06-2.47V3.81zM148 21.94h4.38l-.07-8.68h3.54c2.72 0 4.06 1.29 4.26 3.65s.29 4.75.83 5h4.21v-.21l-.2-.15a1.53 1.53 0 01-.16-.25 3.15 3.15 0 01-.21-.8c-.15-.84-.18-1.7-.25-2.55 0-.26-.05-.51-.07-.76a6.94 6.94 0 00-.12-.9 2.84 2.84 0 01-.08-.42 1.58 1.58 0 00-.08-.61 3.2 3.2 0 00-.07-.33l-.14-.18a.39.39 0 01-.07-.26 1.76 1.76 0 000-.23.51.51 0 00-.08-.28c-.1-.12-.05-.21-.1-.34a2.81 2.81 0 00-.46-.68 3.67 3.67 0 00-1.29-.95 5.14 5.14 0 00-1-.35v-.09a5 5 0 003.92-5.27c0-3.6-2.84-6-7-6l-9.92.09v7.5c0 .95 0 2 .08 3v.57a5.5 5.5 0 01.12 1.28c0 .23-.08.46-.1.69s0 .47 0 .7-.07.53-.07.8A7.83 7.83 0 01148 16a10.3 10.3 0 000 1.11v4.79zm19.69-.17l16-.14v-3.66l-11.62.1v-5.84h2.71a8.29 8.29 0 01.87-.06 7.3 7.3 0 01.81 0 3.68 3.68 0 00.57.06h2.83c.19 0 2.31-.06 2.31 0v-3.6H172V3.79h3.24a6.89 6.89 0 00.91 0 2.74 2.74 0 01.28 0h2.73a5.7 5.7 0 00.58.06c.15 0 .29-.07.44-.09s.41 0 .61-.05a1.89 1.89 0 01.47 0 5.93 5.93 0 00.73 0h1.53V.02L167.5.14v11.21c0 .2.08.39.08.59v.44a10.16 10.16 0 000 1.56v1.07a2.23 2.23 0 000 .27v.68a1.81 1.81 0 010 .23v.64a5.36 5.36 0 00-.06.69 1.86 1.86 0 000 .26c0 .19-.13.35-.11.54s.06.28.06.44v2.79M44.46 19.44V13.6l10.11.09v-3.6L44.54 10l.05-4.84 11.52.1V1.57h-4.84a11.62 11.62 0 01-1.18 0 5.42 5.42 0 01-.57 0l-.37-.05h-8.92v21.51l16 .14v-3.66h-3.2c-.36 0-.44.06-.67.06h-2.11l-1.23-.06h-1.27a.61.61 0 00-.19 0 .47.47 0 01-.17 0h-2.73m-25.22 3.37h4.39l.08-9.53 8.5.08-.08 9.57h4.39l.18-21.6h-4.38v3.82a3.32 3.32 0 010 .63 3.13 3.13 0 000 .53v.87a3 3 0 010 .79 4.22 4.22 0 000 .87v.92L24 9.76V1.29h-4.39v5.93a3.69 3.69 0 000 .47 2.92 2.92 0 010 .51 8.23 8.23 0 000 .86v1.3M6.35 22.77h4.38l.16-17.94h6.5V1.14h-3.08a6 6 0 01-.74 0H0v3.63l6.5.06v2.89a2 2 0 000 .24v6.89a1.34 1.34 0 000 .35 1.45 1.45 0 010 .36v.23c0 .08 0 .09-.06.15a1.61 1.61 0 000 .54v6.32" data-name="Layer 1" fill="#fff"/></g></svg><svg width="26.59" height="24.51" viewBox="-1 -1 26.59 24.51" x="172.08" y="84.05" xmlns="http://www.w3.org/2000/svg"><g data-name="Layer 2"><path d="M16.12 22.51h.34a13.36 13.36 0 001.42-.1 9.9 9.9 0 001.32-.25 8.14 8.14 0 001.21-.39 6.76 6.76 0 001.08-.53 7.06 7.06 0 001-.67 7.55 7.55 0 00.79-.81 6.64 6.64 0 00.62-.94 5.87 5.87 0 00.44-1.07 7 7 0 00.25-1.19 2.25 2.25 0 000-.63.93.93 0 010-.24 2.09 2.09 0 000-.25c0-.13-.07-.28-.09-.42s-.05-.1-.06-.17 0-.22 0-.33a1.69 1.69 0 00-.07-.45c-.07-.23-.19-.45-.28-.68s-.1-.27-.17-.39a2.34 2.34 0 01-.15-.27 1.22 1.22 0 00-.07-.17c-.1-.15-.22-.27-.33-.41s-.13-.18-.21-.26-.22-.15-.31-.23l-.3-.27c-.14-.14-.28-.28-.43-.41a1.5 1.5 0 00-.42-.33l-.52-.26A14.8 14.8 0 0019 9.6c-.8-.23-1.62-.42-2.43-.61-3.2-.72-4.71-1.25-4.69-3 0-1.55 1.56-2.53 3.92-2.51s3.92 1.12 4.2 3.3h4.2C23.86 2.46 20.73 0 15.86 0a16.12 16.12 0 00-1.7.08 10.68 10.68 0 00-1.56.29 8.75 8.75 0 00-1.39.47 7.28 7.28 0 00-1.25.7 6.42 6.42 0 00-1.22 1.11l-.12.16c-.09.13-.19.25-.27.38s-.08.22-.14.32a2.8 2.8 0 00-.29.69v.27c0 .09-.09.28-.13.42s0 .13 0 .19v.23c0 .04 0 .15-.06.22s0 .19 0 .29v.37A3.1 3.1 0 007.5 7l.09.54a5.76 5.76 0 00.26 1.06 4.75 4.75 0 001 1.66 6.21 6.21 0 001.57 1.16 12.29 12.29 0 002 .8c.72.23 1.46.42 2.2.59l.28.07c3.29.78 5.34 1.23 5.33 3.34S18.21 19 16 19c-3.09 0-4.56-1.07-4.84-3.67h-4.3a8.16 8.16 0 00.33 2.14.78.78 0 00.09.27 2 2 0 00.13.18c.08.12.17.24.26.35a1.88 1.88 0 01.29.39c.06.13.09.28.16.42s.1.16.15.25a1.06 1.06 0 00.12.2c.23.26.44.55.69.79.09.09.19.15.28.24s.05.05.08.06h.05v.05a1.53 1.53 0 01.16.11c.06.06.1.13.16.19a4.8 4.8 0 00.54.32 9.31 9.31 0 001.16.52 12.13 12.13 0 002.79.63c.61.07 1.22.1 1.83.11zM0 21.88h4.39v-5.99a1.59 1.59 0 000-.49v-.19a1.34 1.34 0 010-.35v-1.55a3.09 3.09 0 010-.53c0-.23 0-.47.07-.7a5.49 5.49 0 000-.81V.31L.19.26 0 21.88z" fill="#fff" data-name="Layer 1"/></g></svg><svg width="27.36" height="23.85" viewBox="-1 -1 27.36 23.85" x="185.69" y="35.15" xmlns="http://www.w3.org/2000/svg"><g data-name="Layer 2"><path d="M7.74 21.7h4.33l.1-11.16c0-1.51-.09-3.78-.09-3.78h.06s.83 1.85 1.52 3l7.27 12h4.24v-6.34c0-.44-.09-.75-.07-1.15a19 19 0 00.11-2.92c-.06-.6-.07-1.2-.07-1.79a8.61 8.61 0 010-.88 5 5 0 00.1-.56c.06-1.85 0-3.71 0-5.56V.22L21 .18l-.1 11.35c0 1.51.09 3.75.09 3.75H21s-.8-1.86-1.49-3L12.38.11 7.93.07v4.05a14 14 0 000 2.05 2.68 2.68 0 010 .8 6.91 6.91 0 000 .91v13.8zM0 21.63h4.39V10.31a3.59 3.59 0 000-.8v-.38a1.75 1.75 0 010-.4 2.77 2.77 0 000-.65 2 2 0 010-.49V6.8a1.67 1.67 0 000-.31V0H.19v13.26a4.67 4.67 0 010 .52v1.7a11.38 11.38 0 010 1.43 5.78 5.78 0 000 .72v3.97z" fill="#fff" data-name="Layer 1"/></g></svg><svg width="58.39" height="24.07" viewBox="-1 -1 58.39 24.07" y="152.75" xmlns="http://www.w3.org/2000/svg"><g data-name="Layer 2"><path d="M40.39 21.77h.26c1.29 0 2.57-.05 3.84-.07a3.78 3.78 0 01.67 0 2 2 0 00.34.06h.7c.44 0 .87.05 1.31 0 .19 0 .35 0 .54.06s.36 0 .54 0h2.21c.57 0 1.15-.05 1.72-.07.24 0 3.87-.08 3.87-.07v-3.66l-11.62.1-.05-5.83c0-.03 2.42 0 2.65 0a1.88 1.88 0 01.41 0 2.92 2.92 0 00.59 0 7.58 7.58 0 00.83 0 4 4 0 00.47-.11 12 12 0 011.7 0h3.43v-3.6h-7.3a4.52 4.52 0 00-.5.02 7.85 7.85 0 01-.84 0h-1.47V3.76l11.52-.1V-.03h-3.03a12 12 0 00-1.47 0h-.45c-.19 0-.37.07-.56.07a1.63 1.63 0 00-.44 0c-.47.08-1 0-1.44.06a8.24 8.24 0 01-1 .07 8.48 8.48 0 00-1.41 0 6.22 6.22 0 01-1.14 0h-1.84c-.13 0-.26 0-.4-.06h-.42C41.8.1 41 .14 40.2.15v7.48c0 .22-.05.41-.05.63a1.71 1.71 0 000 .32 1.06 1.06 0 01.06.28 2.27 2.27 0 000 .45 1.32 1.32 0 01.07.3v4.26c0 .25-.05.31-.05.48 0 1.41.05 2.81.06 4.22v3.2zm-16.24-2.52v.11-6.97l8.5-.08.09 9.53h4.38V9.13a10 10 0 000-1.45 4.53 4.53 0 01-.08-.74 2.11 2.11 0 01.09-.49 3 3 0 000-.52V.24h-4.38l.07 8.47-8.5.08L24 .29l-4.4.04v8.88c0 .18-.05.32-.06.49s.11.36.17.53 0 .52 0 .76 0 .4-.05.61 0 .41 0 .61v.41a5.07 5.07 0 000 .56c0 .39.07.75.08 1.14s0 .86 0 1.29v6.33h4.39s-.05-4.79-.07-7.58M0 4.19l6.51-.06.15 17.94h4.39v-6.56a5 5 0 010-.55 2.44 2.44 0 000-.53v-1.67c0-.59-.08-1.14-.09-1.72v-.33c0-.1.05-.23.05-.35v-.75A4 4 0 0111 8.8a1.52 1.52 0 000-.6 4.21 4.21 0 010-.71v-3.4h6.51V.39h-5.44a1.15 1.15 0 01-.26 0h-1.59c-.42 0-.87.11-1.32.1-.26 0-.49-.11-.74-.11s-.7.07-1 .08c-.5 0-1 .08-1.5.08S4.42.5 3.83.48C2.56.43 1.27.47 0 .5v3.69z" fill="#fff" data-name="Layer 1"/></g></svg></svg>