<svg width="255" height="243" xmlns="http://www.w3.org/2000/svg" xmlns:xlink="http://www.w3.org/1999/xlink"><svg width="199.91" height="91.5" viewBox="-1 -1 199.91 91.5" y="123.66" xmlns="http://www.w3.org/2000/svg"><g data-name="Layer 2"><g data-name="Layer 1" fill="#fff"><path d="M101.92 60.24a1.42 1.42 0 00-.12.13 1.77 1.77 0 00-.08.31c0 .12 0 .24-.09.36s-.06.19-.08.29a2 2 0 01-.23.72c-.12.2-.27.4-.39.61s0 .18 0 .29a.55.55 0 01-.12.21 1 1 0 00-.22.41 2 2 0 01-.12.6c0 .08-.09.11-.13.18a3 3 0 01-.27.45c0 .06-.14.1-.19.17a2.14 2.14 0 00-.1.22c-.1.19-.23.36-.34.54s-.07.19-.13.29a1.39 1.39 0 00-.09.35 10.64 10.64 0 01-.44 1.35c-.17.48-.35.95-.53 1.43s-.3.73-.45 1.09a7.55 7.55 0 01-.39 1c-.07.14-.13.28-.19.41s-.18.31-.27.47-.14.31-.24.45a.29.29 0 00-.08.18.85.85 0 010 .22 1.47 1.47 0 00-.21.64 1.69 1.69 0 01-.08.39l-.06.12a1 1 0 000 .25 1.32 1.32 0 01-.13.48c-.1.19-.16.39-.27.58a1.15 1.15 0 00-.24.58c0 .41-.43.6-.62.9-.05.09-.07.2-.13.29a.76.76 0 00-.07.13 2.1 2.1 0 00-.16.46 1.62 1.62 0 01-.27.86 2.18 2.18 0 00-.24.42c-.06.18-.08.36-.16.55s-.17.22-.2.34a1.13 1.13 0 01-.08.24 3 3 0 00-.2.4 3.05 3.05 0 01-.28.5s-.17.17-.16.22.47-.09.35.06a.38.38 0 00.15 0c0 .1-.17.12-.23.14a.72.72 0 00-.32.18 2.12 2.12 0 00-.34.69.54.54 0 00-.08.3.21.21 0 00.08 0c0 .14-.12.16-.2.24a2.06 2.06 0 00-.33.72 3.16 3.16 0 00-.13.53 4.37 4.37 0 01-.09.5.75.75 0 01-.18.43c-.1.11-.26.19-.31.33a.47.47 0 01-.21.29.82.82 0 00-.22.19 1.19 1.19 0 01-.31.39 1.1 1.1 0 00-.26.27 1.75 1.75 0 01-.53.37c-.09 0-.07 0 0 .13s.25.26.36.36l.41.4 1 .91.55.53s.17.21.22.22c2.4.15 4.08-4.06 4.88-5.67s11.21-27.17 13.1-31.39 7.13-18.14 12.22-30.08 5.46-16.77 5-18.3S123.8.08 120.6 0s-8 .69-33.12 14.09l-1.09.59a7 7 0 01-.9.32c-.55.21-.79.94-1.25 1.29a2 2 0 01-1 .26 2.11 2.11 0 00-.89.34 13.53 13.53 0 00-1.26.64 5.35 5.35 0 00-1 1 1.77 1.77 0 01-1.21.44 1.51 1.51 0 00-1 .68 2.69 2.69 0 01-.56.69 2 2 0 01-1.17.2 2.06 2.06 0 00-1.23.51 11.85 11.85 0 01-1.21.66c-.29.16-.42.42-.67.62s-.44.24-.61.47c-.46.63 0 1.21-.91 1.51a1.86 1.86 0 01-1.07 0c-.24-.06-.58-.27-.84-.16-.1 0-.14.17-.21.24a2.82 2.82 0 01-.94.71 7.3 7.3 0 00-1.42.51c-.32.21-.61.45-.94.65a7.58 7.58 0 00-1.45 1.21 5.72 5.72 0 01-1.46 1.13 9.07 9.07 0 00-1.35.86 1.06 1.06 0 01-1.05.32c-.84-.11-.92.72-1.38 1.25-.24.28-.45.25-.79.29a1.17 1.17 0 00-.86.4 3.87 3.87 0 01-1.25.8 7.09 7.09 0 00-1.23.62c-1 .61-2.08 1.13-3.07 1.78-1.37.89-2.74 1.8-4.09 2.73l-1.29.89 14-3c4-3 21.79-13.28 37.64-21.69s22.53-9.31 23.7-9.27-.88 8-2 9.64-.23 1.68-.82 2.16a1.8 1.8 0 00-.42 1.51c-.88.79-.56 1.3-.79 1.89a13.38 13.38 0 00-1.14 2.95c-.2 1.2-1.53 2.09-1.53 2.95a5.67 5.67 0 01-.69 2.16c-.23.58.23.79-.26 1.24a19.26 19.26 0 00-2.32 5.11 22 22 0 01-2.2 5.49c-.88 1.51-.2 1.3-.59 1.89a10.65 10.65 0 00-.89 1.75 10.45 10.45 0 00-.4 1.06 4.37 4.37 0 00-.34 1.06.46.46 0 01-.06.23 1.6 1.6 0 000 .29c0 .1-.1.12-.09.24a2.58 2.58 0 010 .29 1.08 1.08 0 01-.13.37c-.06.13-.06.27-.11.4a1.66 1.66 0 01-.45.63 1.47 1.47 0 00-.38.59 4.12 4.12 0 00-.23.78c0 .22-.17.4-.19.62a1.7 1.7 0 01-.09.54 2.66 2.66 0 00-.28.59 2.63 2.63 0 01-.39 1.13 3.64 3.64 0 00-.34.34c-.06.1-.11.22-.17.31l-.24.37s-.09.1-.09.15v.06c0 .19-.11.33-.09.51.24 0-.12.4-.16.47-.12.26-.22.52-.35.78s-.29.45-.43.68c-.26.41-.51.84-.74 1.27a10.21 10.21 0 00-.56 1.27 1.86 1.86 0 00-.1.25 1 1 0 000 .3.75.75 0 01-.08.31c0 .1-.13.26-.08.37s.08.07 0 .18a1.17 1.17 0 00-.1.26.78.78 0 010 .22zm-40.05-28.5c-.09.06-.07.13-.07.13l-.21.24h-.42c-.19 0-.1-.09.09-.17s0-.14 0-.14l.05-.11c.06-.12 0 0 .15 0h.15c.15 0 0 0 .19-.06s.16.06.07.11zM65.24 30c-.08.05-.11 0-.21 0s0-.05-.1 0l-.08.06-.07-.06a.13.13 0 01.15-.13.51.51 0 01.22.06h.09s.08 0 0 .07zm.79-.73h-.14c-.07 0 0 0 0 0v-.11h.15zm.44-.36l-.11.08c-.11.08-.06 0-.08 0s0 0 0-.08h.27c.13 0 0 .07-.08.06zm19.8-10.39c-.08.05 0 0-.12 0s0 0 0-.11.08 0 .12 0 0 .08 0 .08l-.08.05zm.82-.68h-.06v-.06a.07.07 0 01.09 0v.06zm.5-.48c-.07 0 0 0 0 0h-.07c-.07 0 0 0 0 0h.11c.04 0 0 0 0 0a.08.08 0 00.07 0 .18.18 0 01-.1 0zM98 11.12s-.05.1-.13.11-.06.07-.13.1-.18-.14 0-.21.26 0 .21 0zm1.28-.75a1.74 1.74 0 01-.51.08c-.27 0 0 0-.09-.07s0-.08.09-.08.09-.05.28-.06.38.11.23.13z"/><path d="M7.57 68.29a1.88 1.88 0 00.54.57 8.1 8.1 0 002 1.13c1.84.49 4-1.74 5.34-2.85s2.93-2.35 4.41-3.51c3.79-3 7.65-5.82 11.54-8.62 6.46-4.65 13-9.13 19.63-13.51 0 0 17.67-3 26.75-4.45s29.58-3.94 33.36.29L112 36s-3-5.41-9.26-5.41S80.38 31.68 60 35.32s-38 7.5-43.88 8.53-6.91 1.32-10 1.67-5.29.3-6.16 1c0 0 0 .34.41.6s0 .61.58 1.35 1.08.7 1.41 1.39.74.61 2.47.39a52.72 52.72 0 0010.41-1.39c5.33-1.39 20.86-4.38 22.76-4.69 0 0-10.32 7.26-13.67 9.82-2.58 2-5.14 4-7.7 6l-4.86 3.8C10.29 65 8.81 66.61 7 67.22c.28.44.37.76.55 1.07zM131.84 24c.06.79-.27.68.38.93s1.15.07 1.29-.5.91-2.22.78-2.82a5.81 5.81 0 00-2.18-2.72c-.81-.32-1.35-.21-2.07-.46s-.74 0-.64.78-.27 1.93.13 2.22a4.34 4.34 0 011.16 1.07l.41.75s.23.28.34.43.37-.08.4.32zm-12.32 26.26c0 .14-.14.24-.15.37s-.11.28-.17.34a2.73 2.73 0 00-.32.79 1.36 1.36 0 010 .2c0 .09-.12.15-.16.25a.22.22 0 000 .14l.06.08c.06.08-.07.1-.1.14a2.53 2.53 0 00-.18.37c0 .11-.23.24-.07.32a2.31 2.31 0 01-.24.56c-.07.14-.27.32-.26.49s.06.1 0 .22-.18.2-.22.32 0 .08 0 .13-.2.28-.26.41a5.07 5.07 0 01-.37.64c-.08.13-.12.28-.19.41a1.87 1.87 0 01-.32.42 2.85 2.85 0 00-.3.51c0 .08-.16.23-.13.33s.07 0 .08.08-.11.24-.13.32a1.13 1.13 0 01-.08.24c-.06.13-.33.33-.26.49a.62.62 0 010 .23 1.43 1.43 0 01-.11.15.53.53 0 010 .12c0 .13-.11.24-.15.37s0 .1 0 .17a3.75 3.75 0 01-.13.58 8.27 8.27 0 01-.76 1.48c-.14.24-.2.5-.32.74s-.34.5-.48.76a4.52 4.52 0 00-.36.88c-.1.31-.12.65-.23 1s-.14.43-.23.63-.27.58-.41.88-.19.49-.31.73a7.38 7.38 0 00-.58 1.59c-.38 1.47-.68 1.93-.75 2.5s-.54 1-.42 1.56a.73.73 0 00.08.25c.09.08.25 0 .25.14a.26.26 0 01.3.19 1.07 1.07 0 00.07.19 3.56 3.56 0 00.43.59 3.94 3.94 0 00.36.44c.34.37.72.69 1.07 1.06.81.86 1.59 0 2-.64s2.14-6.9 3.22-9.15 5.5-12.81 6.08-14 3.73-9 4.45-11a7.91 7.91 0 00.64-4.42c-.27-1-1.86-1.79-3.22-2.11s-1.33.15-1.26.93a7.91 7.91 0 01-.73 2.42 3 3 0 00-.25 1.61c.11.4-.44.9-.89 1.64s-.15.92 0 1.26-.56 1-.73 1.54-.6.25-.73.72-.2.75-.31 1.12a7.93 7.93 0 01-.3.86c-.13.26-.35.47-.45.73 0 .05-.06.13 0 .18a.43.43 0 00.25 0c-.09.18.33 0 .33.22s-.11.19 0 .17c0 .17-.4.27-.52.34a1.52 1.52 0 00-.38.38 5.49 5.49 0 01-.52.65c0 .1-.08.2-.11.29a3.29 3.29 0 00-.14.54zm78.38-40.9c-.1-.59-.23-.39-.07-.85s-.3-.84-.45-1.08 0-.2-.14-.64-.26-.24-.65-.46 0-.34 0-.34c-.26-.8-2.78-2.9-4.72-3.76s-6.67-.41-7.41-.17-3.35.57-4.07.83a23.72 23.72 0 01-2.62.68c-.6.11-2.19 1-3.18 1.32a53.08 53.08 0 00-4.86 2.26 12.71 12.71 0 01-1.89 1.18c-.37 0-.47.39-.79.72s-.42.11-.68.2-.47.42.16.57-1.23 1-1.49 1.16-.28 0-.24-.37-.93.37-1.42.81a32.38 32.38 0 00-2.71 2.66c-.38.56.23 1-.16 1.16a4.22 4.22 0 00-1.41 1.35c-.19.36-.82.09-.93.49s-.63.81-1.13 1.27-.41-.05-.81.53a4.19 4.19 0 01-1.1 1.14c-.16.08-.16.37 0 .74s-.52.59-.84.73a.89.89 0 00-.52.69c0 .22-.16.2-.63.47s-.17.59-.42.78a14.56 14.56 0 00-1.72 1.91c-.19.35-.79 1.58-.88 1.87a1.54 1.54 0 01-.48.61v.29a6.78 6.78 0 00-.64.89c-.07.2.49.33.31.42s-.57-.09-.64.48-.25.28-.51.42-3 4-3.39 4.54-2 3.5-2.33 4-.8.42-1 .74.23.29 0 .66-.68.51-.91 1.29-.33.77-.59 1 0 .75-.25.86 0 .59-.07.83-.29.07-.54.09-.3.41-.31.65a1 1 0 01-.28.71 1 1 0 00-.4.76c0 .29-.21.88-.41.93s-.15 0-.47.68a2.39 2.39 0 01-.52.83s0 .39-.07.87-.21.62-.49.49-.39.41-.35.9a1 1 0 01-.42 1c-.3.26-.16 1-.21 1.47s-.25.13-.56.26-.38.92-.44 1.25-.15 0-.45.16 0 .41-.21.7a2.86 2.86 0 00-.51.85 2.22 2.22 0 01-.3.77c-.14.17-.07.4-.12.66s0 0-.26.41 0 .69-.3 1.12a1.5 1.5 0 00-.28 1c0 .31-.42.79-.77 1.09s-.52 1-.78 1.6.08.6-.26 1.12-.09.81-.53 1.14-.54 1.36-.63 1.43-.09.46-.21.76a4.23 4.23 0 01-.42 1.28 4.91 4.91 0 00-.73 1.9c0 .48-.16.07-.18.44s.14.37-.34.94a2.73 2.73 0 00-.44 1.07c0 .19-.11.37-.15.56s0 .43-.07.64-.22.52-.28.79a1 1 0 01-.12.28 1.23 1.23 0 00-.09.66v.49c0 .53-.19 1.06-.26 1.6a5.6 5.6 0 01-.59 1.88c-.48 1 .3 1.69.77 2.31a7.51 7.51 0 011.31 2.07c.36.94 2.62.19 2.74-.25a16.71 16.71 0 00.36-2.63c0-.31.38-.87.38-1.2s.07-1.19.07-2 .45-2.39.61-3.56A36.75 36.75 0 01132.2 71c.21-.7 1.67-3.86 1.85-4.43s.5-1.4.54-1.49.24-.57.42-1.18 1.54-3.18 1.69-3.51 1.12-2.5 1.37-2.91.35-1 .84-2.08.43-.92.42-1a.57.57 0 01.1-.53 3.08 3.08 0 00.49-1.19c.19-.63 3.46-6.09 3.69-6.62s.35-.54.52-.94.16-.74.32-1.14a7.65 7.65 0 011.2-1.55c.18-.14.16-.31.25-.49a1.17 1.17 0 00.12-.48 2 2 0 01.14-.57c.12-.33.3-.18.54-.42a7 7 0 00.79-1.4c.31-.59 1.5-2.15 1.89-2.85a22.54 22.54 0 011.62-2.68 29.66 29.66 0 002.34-3c.82-1.29 4.87-6.57 5.87-7.58s4.39-5.11 7.38-7.48a49.62 49.62 0 018.41-5.16 8.78 8.78 0 012.61-1.16c1.27-.26 6.62-2.52 10.82-2.72s4.45.27 4.66.46 0 1.47-.17 2-.84 2-.89 2.24-.3.22-.28.72.09.79-.25.93a2.11 2.11 0 00-.92.81c-.19.35 0 .81-.18 1.11s-.75.71-.75 1-.45.58-.65 1-.47.28-.75.29-.33.7-.47 1.07a4.15 4.15 0 01-.63.92s.47 0-.09.07-.85.74-1.08.81-.26.54-.49.77-1.12.45-1.19 1a1.15 1.15 0 01-.84 1 11.48 11.48 0 00-1.88 1.88c-.34.36-3.33 2.85-3.61 3.14a13.64 13.64 0 00-1.32 1.34c-.14.27-2.29 1.65-2.64 2a15.86 15.86 0 00-1.56 1.2 29.2 29.2 0 01-2.74 2.41 6.54 6.54 0 00-1.4 1.1 19.13 19.13 0 01-2 1.56 12.85 12.85 0 01-1.71 1.42c-.53.26-.88 1-1.45 1.23s-2.07 1.47-2.59 1.69-.44.32-.63.59-.37.31-.75.42a14.77 14.77 0 00-2.45 1.77c-.3.29-2 1.84-2.27 2a3.5 3.5 0 00-.91.7c-.21.28-.35 0-.49.37a1.57 1.57 0 01-.49.7c-.19.16-1.12 1-1.31 1.23s-1.08 1.38-1.35 1.41-.15.5-.38.68-.66 1-1 1.33-.19.44-.19.72-.18.12-.35.44-.84 1.78-1 2a2.12 2.12 0 00-.28.77c-.11.46-.2.24-.3.59s.1.41.26.46 0 .22 0 .29-.21.45 0 .59-.19.15-.35.59a5.45 5.45 0 00.32 1.91 4.73 4.73 0 01.35 1.35c0 .64.63 1 .8 1.58a4.64 4.64 0 00.63 1.5c.35.46.39 1 .77 1.27s.39.26.42.72.38.44.49.66a11.46 11.46 0 001.9 2.1c.29.11.31.15.4.37s1.68 2 2.24 2-.11-.24.84.57 7.53 3.5 8.75 3.87 3 .55 3.66.71a2.19 2.19 0 001.67-.2c.81-.29 1.7.5 2.8.68a26.69 26.69 0 005.47-.4c.37-.15.26-1.18.26-1.18h-1.06c-.51 0-.46-.36-1.42-1s-4.39-.9-5.15-.88-4.41-.5-10.58-3.29-6.47-4-8.3-7.75.15-7.28 2-9.65 5-5.18 10.33-9.08 15.86-12.63 21.68-17.76a54 54 0 0010.35-12.08 13.35 13.35 0 002-6zm-24.08 66.89l.38-.15c.38-.16.26 0 .38.07s0 0 .11.2-.21.08-.36.2 0 .4-.19.37-.17-.15-.53-.49 0-.15.21-.2z"/></g></g></svg><svg width="254.46" height="40.57" viewBox="-1 -1 254.46 40.57" xmlns="http://www.w3.org/2000/svg"><g data-name="Layer 2"><g data-name="Layer 1" fill="#fff"><path d="M232.89 1.25h-8.51c-.64-.05-1.28 0-1.92 0h-8.09c-.42 0-.78.06-1.17.07s-.61 0-.92-.05h-13.69c-.59 0-1.17 0-1.76.06a2.1 2.1 0 01-.5 0 11.17 11.17 0 00-1.42-.05h-1.42l-.75.05a4.13 4.13 0 01-.5 0 9.38 9.38 0 00-1.91 0 3.77 3.77 0 01-.67 0h-2.51c-1 0-2.06.06-3.09 0H98.49a5.69 5.69 0 01-.92-.06 6.52 6.52 0 00-1.17 0c-.41 0-.83.08-1.25.08H71.3c-.84 0-1.72-.06-2.59 0s-1.67 0-2.51 0h-5.43a8.08 8.08 0 00-2.25 0c-.75-.09-1.5 0-2.25-.08a3 3 0 00-.67 0 4.17 4.17 0 01-1 0 13 13 0 00-2.92 0 2.81 2.81 0 01-.58 0 13.24 13.24 0 00-2.67 0H47.1a4.17 4.17 0 00-.5 0 5.19 5.19 0 01-1.42 0 4.24 4.24 0 00-1.33 0 4.3 4.3 0 01-1.34 0 2.75 2.75 0 00-.41 0h-1.51a17 17 0 01-1.75 0c-.86.09-1.73 0-2.59 0h-2.42c-1.17 0-2.34-.06-3.51 0h-.34a15.83 15.83 0 00-3 0 5.38 5.38 0 01-1.5 0 3.62 3.62 0 00-1.09 0 1.22 1.22 0 01-.33 0 26.92 26.92 0 00-2.84-.05H5.4c-1.22 0-2.44.14-3.67.09-.5 0-1-.08-1.5-.12A.3.3 0 010 1.05.41.41 0 01.39.5h4.35A6.62 6.62 0 006 .42a3.73 3.73 0 01.75 0h2.58a8.44 8.44 0 011.33 0 12.1 12.1 0 002.17 0 2.91 2.91 0 01.59 0 4.77 4.77 0 001 0 3.16 3.16 0 01.75 0 3.29 3.29 0 00.83 0 5.58 5.58 0 011 0 6.57 6.57 0 001.33 0 .7.7 0 01.25 0 3.5 3.5 0 001.25 0 4.69 4.69 0 01.75 0h1a3.77 3.77 0 01.75 0 8.39 8.39 0 001.5.08h.67a4.13 4.13 0 01.5 0 12.36 12.36 0 002.58 0 5.65 5.65 0 01.92 0 6 6 0 001.58 0 2 2 0 01.59 0 16.08 16.08 0 002.08.08h1.68a14.15 14.15 0 012.91 0c1-.06 1.9 0 2.84 0h4.52c.58 0 1.17-.07 1.75 0a17.23 17.23 0 001.76 0 2.09 2.09 0 00.66-.07.75.75 0 01.64 0 .5.5 0 00.32 0A4.17 4.17 0 0151 .41h1.33a8.76 8.76 0 002.17 0 3.26 3.26 0 011.08 0 15.75 15.75 0 002.17.08 2.74 2.74 0 00.5 0 2.53 2.53 0 011.16 0 7.53 7.53 0 001.42.09h7.51a6.13 6.13 0 011.42 0h.83a9.42 9.42 0 001.5-.07 9.27 9.27 0 012.17 0 5.65 5.65 0 00.58 0 13.29 13.29 0 011.67 0 2 2 0 00.41-.11 2.25 2.25 0 01.58 0 2.69 2.69 0 00.75 0 8.75 8.75 0 012.17 0 6.24 6.24 0 001.83 0 1.35 1.35 0 01.49 0 3 3 0 00.84 0 7.53 7.53 0 01.83-.07h44.53a4 4 0 01.49 0 9.13 9.13 0 002.09 0 2.25 2.25 0 01.58 0 10.42 10.42 0 001.67.07h4.93a4.84 4.84 0 00.76 0 3.47 3.47 0 011.16 0 1.4 1.4 0 00.5 0 2.32 2.32 0 01.91 0 .49.49 0 00.17 0 11.39 11.39 0 011.75 0l1.84-.08h.41c1 .1 2-.07 3 0l1.16.07h.34c1-.07 1.94.07 2.92 0s2 0 3 0h8.19c.69.12 1.39 0 2.08.06a1.93 1.93 0 00.34 0h1.33c1 .06 1.95 0 2.93 0h2.25a13.63 13.63 0 011.42.07 13.36 13.36 0 002 0 1.5 1.5 0 01.42 0 7.59 7.59 0 001.58 0h1.59a14.08 14.08 0 012.34.07 2.3 2.3 0 00.74 0 3.06 3.06 0 011 0 2.57 2.57 0 00.83 0 5.91 5.91 0 01.84 0h5.6a5.09 5.09 0 001.17 0 2.75 2.75 0 01.5 0h19.4a4.66 4.66 0 00.83 0 4.58 4.58 0 011.17 0 6.41 6.41 0 001.75 0 .93.93 0 01.33 0 7.59 7.59 0 001.58 0 6.69 6.69 0 011.34.06 2.57 2.57 0 00.83 0 5.58 5.58 0 011-.65h9.62c.53 0 1.06 0 1.59.06s.94 0 1.42 0h1.33c.73 0 1.45.08 2.17 0s1.45 0 2.18 0h2.34c.66 0 1.33 0 2 .06a2.81 2.81 0 00.58 0 16 16 0 012.68 0 1.94 1.94 0 00.24 0 15 15 0 012 .06 1.22 1.22 0 00.33 0 7.39 7.39 0 011.41 0 1.11 1.11 0 01.25 0 .5.5 0 01.34.45.49.49 0 01-.27.49 2.11 2.11 0 01-.82.17h-18.5zm-60.11 30.84h.59v-5.7s.38.65.69 1.11l3 4.59h.65v-6.61h-.59v5.73s-.32-.59-.66-1.09l-3-4.64h-.67v6.61zm6.19 0h.62v-6.61H179v6.61zm1.84 0h.62v-2.33l1.19-1.16 2.61 3.49h.77l-3-3.92 2.77-2.69H185L181.43 29v-3.52h-.62v6.61zm5.78 0h4.6v-.57h-4v-2.58h3.55v-.54h-3.55V26h3.88v-.54h-4.5v6.61zm9.21.12c1.39 0 2.33-.76 2.33-1.93 0-1.39-1.06-1.7-2.35-2s-1.78-.42-1.78-1.2.61-1.21 1.62-1.21a1.56 1.56 0 011.72 1.41h.6a2.07 2.07 0 00-2.33-1.93c-1.32 0-2.21.69-2.21 1.75s.86 1.52 2.08 1.76c1.41.29 2 .51 2 1.45s-.72 1.38-1.69 1.38a1.81 1.81 0 01-2.04-1.69h-.62a2.36 2.36 0 002.67 2.26zm3.25-.12h.62v-2.88h1.89c1.39 0 2.1-.66 2.1-1.88a1.77 1.77 0 00-.46-1.28 2 2 0 00-1.55-.57h-2.6v6.61zm.62-3.4V26h1.9c1 0 1.46.48 1.46 1.33s-.44 1.34-1.51 1.34zm7.65 3c-1.58 0-2.42-1.29-2.42-2.89s.84-2.88 2.42-2.88 2.45 1.28 2.45 2.88-.85 2.89-2.45 2.89zm0 .55a3.13 3.13 0 003.09-3.44 3.1 3.1 0 10-6.16 0 3.13 3.13 0 003.07 3.44zm4-.13h.68v-3h2c1 0 1.36.32 1.42 1.47s.09 1.38.24 1.48h.67c-.13-.08-.25-.35-.29-1.41s-.27-1.53-.95-1.76a1.5 1.5 0 001.11-1.59 1.68 1.68 0 00-1.88-1.78h-2.95v6.61zm.62-3.48V26h2.2c1 0 1.37.48 1.37 1.3s-.49 1.29-1.45 1.29zm6.9 3.48h.62V26h2.22v-.55h-5.08V26h2.24v6.06zm5.72.12c1.39 0 2.33-.76 2.33-1.93 0-1.39-1.06-1.7-2.35-2s-1.79-.47-1.79-1.25.61-1.21 1.62-1.21a1.56 1.56 0 011.72 1.41h.6a2.07 2.07 0 00-2.33-1.93c-1.32 0-2.21.69-2.21 1.75s.86 1.52 2.08 1.76c1.41.29 2 .51 2 1.45s-.72 1.38-1.69 1.38a1.81 1.81 0 01-2.01-1.66h-.62a2.36 2.36 0 002.67 2.26zm4.34-.12h.65l1.3-4.82c.11-.42.25-1.07.25-1.07s.14.66.26 1.07l1.25 4.82h.63l1.8-6.61h-.62l-1.16 4.46c-.12.49-.3 1.3-.3 1.3s-.19-.8-.31-1.28l-1.21-4.48h-.66l-1.2 4.5c-.13.47-.31 1.27-.31 1.27s-.17-.81-.3-1.3l-1.15-4.46h-.64l1.76 6.61zm6.86 0h4.6v-.57h-4v-2.6H240v-.54h-3.6V26h3.87v-.54h-4.49v6.61zm5.06 0h.63l.77-2.08h2.88l.77 2.08h.66L244 25.48h-.7l-2.5 6.61zm1.59-2.59l.92-2.47c.15-.4.33-1 .33-1s.19.59.33 1l.91 2.47zm4.79 2.59h.62v-3h2c1 0 1.36.32 1.42 1.47s.09 1.38.24 1.48h.67c-.12-.08-.24-.35-.29-1.41s-.27-1.53-.95-1.76a1.49 1.49 0 001.11-1.59 1.68 1.68 0 00-1.88-1.78h-2.95v6.61zm.62-3.48V26H250c1 0 1.37.48 1.37 1.3s-.49 1.29-1.45 1.29zm-15.42-15.1h4.11V13h-3.42c.13-.88.93-1.37 1.66-1.81.94-.55 1.84-1 1.84-2.26a1.8 1.8 0 00-1.94-1.84 2.13 2.13 0 00-1.53.57 2.15 2.15 0 00-.57 1.59h.61a1.83 1.83 0 01.4-1.25 1.38 1.38 0 011.05-.41A1.26 1.26 0 01236 8.93c0 .92-.59 1.23-1.45 1.75s-2.1 1.22-2.13 2.85zm7.22-.39c-1.13 0-1.73-1.08-1.73-2.78s.6-2.79 1.73-2.79 1.72 1.09 1.72 2.79-.58 2.78-1.72 2.78zm0 .52c1.52 0 2.35-1.29 2.35-3.3s-.91-3.3-2.34-3.3-2.35 1.25-2.35 3.3.84 3.3 2.34 3.3zm2.95-.13h4.1V13h-3.42c.13-.88.94-1.37 1.67-1.81.93-.55 1.84-1 1.84-2.26a1.8 1.8 0 00-1.94-1.84 2.14 2.14 0 00-1.54.57 2.15 2.15 0 00-.56 1.59h.61a1.83 1.83 0 01.38-1.25 1.39 1.39 0 011.06-.41 1.26 1.26 0 011.37 1.36c0 .92-.59 1.23-1.45 1.75s-2.1 1.22-2.13 2.85zm7.21-.39c-1.13 0-1.73-1.08-1.73-2.78s.6-2.79 1.73-2.79 1.72 1.09 1.72 2.79-.57 2.78-1.72 2.78zm0 .52c1.52 0 2.35-1.29 2.35-3.3s-.91-3.3-2.34-3.3-2.35 1.25-2.35 3.3.84 3.3 2.34 3.3zm2.68 23.99a.6.6 0 00-.47-.48 1.32 1.32 0 00-.34 0 15.67 15.67 0 00-1.94 0 1.42 1.42 0 01-.46 0 25.42 25.42 0 00-2.76-.05h-.34a28.25 28.25 0 00-3.68 0h-.8c-.92 0-1.84-.08-2.76-.07s-2.14 0-3.22 0h-9.84c-.69 0-1.45-.06-2.18-.06h-13.16c-.42 0-.85 0-1.26.07a4.91 4.91 0 01-1.15 0 11.29 11.29 0 00-1.84-.07 14.28 14.28 0 01-2.17 0 2.36 2.36 0 00-.46 0 10.79 10.79 0 01-2.41 0 8.55 8.55 0 00-1.6 0 7.43 7.43 0 01-1.15.05h-26.7a5.3 5.3 0 00-.69 0 8.55 8.55 0 01-1.6 0h-7.71a11 11 0 00-1.15 0 4.35 4.35 0 01-1.14 0 5.79 5.79 0 00-1.38 0 4.44 4.44 0 01-1 0 22.94 22.94 0 00-3.21-.07h-2.19a12.21 12.21 0 01-2.18 0 2.74 2.74 0 00-.57 0 25.42 25.42 0 01-2.76 0c-.65 0-1.3-.1-1.95-.08h-3.1c-1.34 0-2.68.11-4 .05h-2.3c-1-.07-1.92.07-2.87 0a1.77 1.77 0 00-.23 0l-3 .05h-12.21c-1.38 0-2.68-.1-4 0a3.55 3.55 0 01-.46 0l-1.61-.07c-1.37-.07-2.75.11-4.13 0a5.46 5.46 0 00-.57 0c-.85 0-1.69.06-2.53.07a21.55 21.55 0 00-2.41 0 .93.93 0 01-.23 0 4.1 4.1 0 00-1.26 0 2.58 2.58 0 01-.68 0 6.67 6.67 0 00-1.61 0 8.78 8.78 0 01-1 0h-6.79a17.53 17.53 0 01-2.29-.08 3.57 3.57 0 00-.8 0 17.31 17.31 0 01-2.88 0h-.68c-.73 0-1.46.06-2.19.06H55.97c-2.26 0-4.52-.06-6.79 0H27.44c-1 0-2.08-.05-3.11 0s-2.07 0-3.1 0c-.38 0-.77 0-1.15.07a4.83 4.83 0 01-1.14 0 2.68 2.68 0 00-.69 0 11.09 11.09 0 01-2.51 0 16.59 16.59 0 00-3 0 4.44 4.44 0 01-1 0 4.27 4.27 0 00-.8 0 3.68 3.68 0 01-.56.06c-.77-.08-1.53 0-2.3 0a7.16 7.16 0 01-.8 0 16.49 16.49 0 00-3 0 17.82 17.82 0 01-2.07.08c-.38 0-.76 0-1.14-.05H1a3.53 3.53 0 00-.65 0 .75.75 0 00-.26 0 .41.41 0 00-.12.18v.16H0a.93.93 0 010 .37c0 .1 0 .2.12.26a1.14 1.14 0 00.45 0h35.37c.58 0 1.15 0 1.72-.08a10.8 10.8 0 011.61 0c.42 0 .84.07 1.26.06h116.02c.58 0 1.15-.08 1.72 0 1.42.09 2.84 0 4.26 0h3.45a7 7 0 00.92 0 15.4 15.4 0 012.63 0h3.69a15.87 15.87 0 012 .05h.69l2.41-.07h14.73c1.38-.07 2.76-.08 4.14 0h1.26c.42 0 1.07-.06 1.61-.07s1.15 0 1.72 0h1.15c2.76.08 5.52.07 8.28 0 .88 0 1.77-.07 2.65 0 1.15.07 2.3 0 3.45 0h33.72a3.85 3.85 0 001.12-.17.53.53 0 00.38-.52zm0-18.57c0-.21-.08-.42-.18-.47a.2.2 0 00-.13 0c-.24 0-.49-.1-.74 0a.2.2 0 01-.17 0 3.71 3.71 0 00-1.05-.05h-.13a4.13 4.13 0 00-1.4 0 1.51 1.51 0 01-.3 0 9.26 9.26 0 00-1.05-.07h-1.22a10.85 10.85 0 00-1.14 0 10.59 10.59 0 01-1.13 0h-1.45c-.25 0-.55-.06-.83-.06h-5a2 2 0 00-.48.07.7.7 0 01-.43 0 1.68 1.68 0 00-.7-.07 2.11 2.11 0 01-.83 0h-.17a1.6 1.6 0 01-.92 0 1.26 1.26 0 00-.61 0 1.06 1.06 0 01-.43.05 9.28 9.28 0 00-1.18 0h-9a.74.74 0 00-.26 0 1.26 1.26 0 01-.61 0 3.88 3.88 0 00-.48 0H218a1.57 1.57 0 00-.43 0 .66.66 0 01-.44 0 .84.84 0 00-.52 0 .65.65 0 01-.39 0 3.36 3.36 0 00-1.22-.07h-.83a1.79 1.79 0 01-.83 0h-.22a3.7 3.7 0 01-1 0 3.72 3.72 0 00-.74-.08h-1.18a8.7 8.7 0 01-1.53.05 4.12 4.12 0 00-.7 0 1 1 0 01-.17 0c-.36-.07-.73.07-1.09 0h-.09l-1.14.05h-3.06a11.75 11.75 0 00-1.57 0c-.51.05-1-.1-1.53 0a.47.47 0 01-.17 0l-.61-.07c-.53-.07-1.05.11-1.58 0a.78.78 0 00-.21 0c-.32 0-.64.06-1 .07s-.6-.13-.91 0h-.09a.62.62 0 00-.48 0 .39.39 0 01-.26 0 .91.91 0 00-.61 0 1.29 1.29 0 01-.39 0h-2.58a2.57 2.57 0 01-.87-.08.55.55 0 00-.31 0 2.5 2.5 0 01-1.09 0 1.14 1.14 0 00-.26 0c-.28 0-.55.06-.83.06h-9.28c-.86 0-1.72-.06-2.58 0s-2 0-3 0h-5.29a9.45 9.45 0 00-1.19 0h-1.17a2.13 2.13 0 00-.44.07.7.7 0 01-.43 0 .35.35 0 00-.26 0 1.65 1.65 0 01-1 0 2.44 2.44 0 00-1.14 0 .65.65 0 01-.39 0 .61.61 0 00-.3 0c-.07 0-.15.08-.22.06a3.62 3.62 0 00-.87 0 1.57 1.57 0 01-.3 0 2.45 2.45 0 00-1.14-.05 2.59 2.59 0 01-.78.08h-.44c-.08 0-.16-.05-.24 0s-.08 0-.1.05a.53.53 0 000 .18.42.42 0 000 .16v.37a.36.36 0 000 .26c.06.06.11 0 .17 0h13.51a3.72 3.72 0 00.66-.08 1.57 1.57 0 01.61 0 2 2 0 00.48.06h39.47L216 20a3.6 3.6 0 01.65 0c.54.09 1.08 0 1.62 0h1.31a1 1 0 00.35 0 2.25 2.25 0 011 0 1.11 1.11 0 00.26 0c.14 0 .27-.05.4-.05h.74a2.29 2.29 0 01.74 0 1.15 1.15 0 00.26 0l.92-.07h5.6a7.51 7.51 0 011.57 0c.16 0 .32.05.48.05s.41-.06.61-.07.44 0 .66 0a3.09 3.09 0 01.43 0 30.1 30.1 0 003.15 0 5.7 5.7 0 011 0 9.55 9.55 0 001.31 0h12.82a.69.69 0 00.43-.17.77.77 0 00.14-.53z"/><path d="M156 5c-.06 2.76.07 5.5.09 8.25v24.64h.91v-.86a16.67 16.67 0 010-1.87c0-.55.06-1.12 0-1.68a18.6 18.6 0 010-2.24v-1.31c-.05-1.62-.07-3.24 0-4.87.05-1 0-2 0-3v-5.8c0-.55 0-1.13-.05-1.68-.08-.93-.08-1.86-.08-2.8V2.02c0-.65-.25-1-.58-.83a.51.51 0 00-.24.48C156 2.72 156 3.84 156 5zM.08 29.88h3.8L5.1 25.7h6.68L13 29.88h3.91l-6.5-19.69H6.53L.08 29.88zM7.64 17c.31-1 .78-3 .78-3h.05s.44 2 .75 3l1.66 5.67H6L7.64 17zm10.88 12.88h3.75V10.19h-3.75v19.69zm6.63 0h3.75V22h3a3.24 3.24 0 013.63 3.36c.15 2.12.2 4.32.67 4.54h3.6v-.19c-.65-.3-.54-2.42-.8-5.2-.23-2.4-1.12-3.45-2.82-4v-.08a4.5 4.5 0 003.39-4.77c0-3.27-2.38-5.48-6-5.48h-8.42v19.7zm3.75-16.46H33a2.64 2.64 0 013 2.78c0 1.57-1 2.7-3.06 2.7h-4v-5.48zm25.44 16.46h3.44V18.59c0-1.59-.15-4.07-.15-4.07s.41 2.31.8 3.74l3.11 11.62h3.6l3.18-11.62c.39-1.43.81-3.74.81-3.74s-.16 2.48-.16 4.07v11.29h3.5V10.19h-5.26l-2.62 9.89c-.65 2.48-1.14 5.32-1.14 5.32h-.05s-.52-2.84-1.16-5.32l-2.62-9.89h-5.28v19.69zm19.73 0h3.81l1.22-4.18h6.68L87 29.88h3.91L84.4 10.19h-3.88l-6.45 19.69zM81.63 17c.31-1 .78-3 .78-3s.44 2 .75 3l1.66 5.67H80L81.63 17zm9.77 12.88h4.3l3.83-7.18 3.78 7.18h4.38l-6.09-10.32 5.4-9.37h-4l-3.42 6.23-3.42-6.23h-4.32l5.54 9.39-6 10.3zm36.46.42c5.21 0 7.1-4.08 7.1-10.11 0-6.39-2.64-9.56-7.36-9.56a6.44 6.44 0 00-6.68 6.61c0 4 2.75 6.64 6.35 6.64a5.05 5.05 0 004.12-2.06h.05a7.79 7.79 0 01-1.12 4.43 2.94 2.94 0 01-2.56 1.18 2.57 2.57 0 01-2.69-2.06h-3.42c.39 2.83 2.51 4.93 6.21 4.93zm-.1-9.45a3.34 3.34 0 01-3.47-3.66 3.52 3.52 0 117 0 3.45 3.45 0 01-3.57 3.61zm16.16 9.48c4.61 0 7.41-3.86 7.41-9.86s-2.8-9.86-7.38-9.86-7.44 3.82-7.44 9.86 2.88 9.86 7.41 9.86zm0-3.2c-2.65 0-3.76-2.67-3.76-6.66s1.14-6.67 3.84-6.67 3.7 2.67 3.7 6.67-1.06 6.66-3.7 6.66z"/></g></g></svg><svg width="214" height="54.09" viewBox="-1 -1 214 54.09" y="69.57" xmlns="http://www.w3.org/2000/svg"><g data-name="Layer 2"><g data-name="Layer 1"><rect width="212" height="52.09" rx="24.23"/><path d="M26 26.84c0-3.78 2.46-6.63 6.24-6.63a5.93 5.93 0 013.62 1.12 5 5 0 011.89 3.49H34.6a2.3 2.3 0 00-2.4-2c-2.06 0-3 1.72-3 4s1.17 4 3 4a2.33 2.33 0 002.46-2.11h3.14A5 5 0 0136.3 32a5.53 5.53 0 01-4.06 1.43c-3.73-.01-6.24-2.79-6.24-6.59zm12.79-.02c0-3.79 2.43-6.61 6.26-6.61s6.28 2.82 6.28 6.61-2.43 6.62-6.28 6.62-6.26-2.82-6.26-6.62zm9.34 0c0-2.3-1-4.07-3.06-4.07S42 24.52 42 26.82s1.05 4.06 3.09 4.06 3.04-1.75 3.04-4.06zm-3.49-9.29H48l-1.88 2.31h-2.2zm8.27 2.93h4.22L58.67 26c.24.8.73 2.89.73 2.89s.49-2.09.71-2.89l1.56-5.55H66v12.69h-2.91v-8.92s-.45 1.9-.59 2.36l-1.8 6.56h-2.59l-1.81-6.55c-.14-.46-.59-2.37-.59-2.37v8.92h-2.8zm15.15 0h5.71a4.78 4.78 0 013.46 1.17 4.14 4.14 0 011.28 3.12 4 4 0 01-4.29 4.15h-3v4.24h-3.2zm5.52 6a1.6 1.6 0 001.77-1.69 1.57 1.57 0 00-1.77-1.63h-2.32v3.32zm6.42-6h6.06c2.52 0 4.44 1.29 4.44 3.65a3 3 0 01-2.2 3.07v.05a2.54 2.54 0 011.84 2.32c.27 1.67.09 3.27.53 3.43v.16h-3c-.33-.2-.28-1.69-.48-2.95a1.85 1.85 0 00-2.19-1.8h-1.87v4.75H80zm5.49 5.6c1.25 0 1.88-.58 1.88-1.54s-.6-1.58-1.8-1.58h-2.44v3.12zm10.43-5.6h3.23l4.57 12.68h-3.3l-.74-2.29h-4.43l-.73 2.29h-3.16zm3 8.14l-1-3.07c-.21-.66-.49-1.79-.49-1.79s-.3 1.13-.51 1.79L96 28.6zm6.08-8.14h3.14v10h5.69v2.66H105zm14 0h3.23l4.57 12.68h-3.29l-.75-2.29h-4.43l-.73 2.29h-3.16zm3 8.14l-1-3.07c-.22-.66-.5-1.79-.5-1.79s-.3 1.13-.51 1.79l-1 3.07zm5.47.55h3.16c.14 1.27 1 1.81 2.48 1.81 1 0 2-.38 2-1.33s-1-1.23-2.77-1.65c-2.2-.52-4.52-1.19-4.52-3.85s2.2-3.9 5-3.9 4.87 1.24 5 3.9h-3.07a1.8 1.8 0 00-2-1.53c-1.1 0-1.83.48-1.83 1.19 0 .89 1 1.1 2.87 1.53 2.36.55 4.49 1.27 4.49 4s-2.27 4.13-5.19 4.13c-3.33-.01-5.55-1.45-5.62-4.3zm19.27-8.69H150l4.58 12.68h-3.3l-.75-2.29h-4.43l-.73 2.29h-3.15zm3 8.14l-1-3.07c-.21-.66-.5-1.79-.5-1.79s-.3 1.13-.52 1.79l-1 3.07zm14.97 4.04a6.43 6.43 0 01-3.2.8c-3.83 0-6.24-2.82-6.24-6.62s2.41-6.61 6.24-6.61 6.26 2.82 6.26 6.61a6.93 6.93 0 01-1.45 4.45l1.44 1.35-1.46 1.55zm-2-2l-1.16-1.12 1.46-1.5 1.17 1.12a5.7 5.7 0 00.44-2.35c0-2.3-1-4.07-3.05-4.07s-3.07 1.77-3.07 4.07 1 4.06 3.07 4.06a2.93 2.93 0 001.1-.18zm6.56-1.97v-8.21h3.14v8.32a1.9 1.9 0 002.18 2.07 2 2 0 002.15-2.13v-8.26h3.14v8.21c0 2.93-1.76 4.7-5.29 4.7s-5.32-1.74-5.32-4.7zm12.63-8.21h3.1v12.68h-3.1zm1.16-2.93h3.31l-1.88 2.31h-2.2z" fill="#fff"/></g></g></svg><svg width="39.82" height="27.25" viewBox="-1 -1 39.82 27.25" x="214" y="69.57" xmlns="http://www.w3.org/2000/svg"><g data-name="Layer 2"><path d="M11.42 9.8H9l.2-4.38L7.5 9.8H5L8.7 0h2.68l-.32 4.18L12.63 0H15l-3.58 9.8zm.54 0h2.46L18 0h-2.37L12 9.8zm14.65-1L37.82 6l-29 11.82c-2.57 1.08-6.06 1.75-8.07-.61a3.83 3.83 0 01-.53-3.64C1 10.63 3 8.41 5 6.22c-1 2-1.82 4.87.45 6.48a3.79 3.79 0 003.11.51l13.75-3.38h-3.42V6.34c0-.16-.06-.14-.09-.11a.38.38 0 00-.11.17l-1.26 3.42h-2.5L18.6 0H21l-1 2.59L22.33 0h7l-.68 1.81h-2.16l-.73 2h2.16l-.64 1.71h-2.16l-.89 2.35h2.71l-.33.9zm-5.54.57L24.4.45 20.85 4.6l.22 4.74zM6 24.39l-.39.84h-.49l1.64-3.5 1.63 3.5h-.46l-.39-.84zm.79-1.75L6.15 24h1.22l-.61-1.36zm10.9-.77h-.43v3.37h.43v-3.37zM29 25.25h-.51l-1-1.43h-.18v1.43h-.42v-3.37h.51a1.89 1.89 0 01.91.16.94.94 0 01-.38 1.74L29 25.25zm-1.7-1.78h.14c.43 0 .91-.07.91-.61s-.51-.6-.93-.6h-.12v1.21z" fill="#fff" data-name="Layer 1"/></g></svg><svg width="215.75" height="29" viewBox="-1 -1 215.75 29" y="40.57" xmlns="http://www.w3.org/2000/svg"><g data-name="Layer 2"><path d="M83.55 26.3h5.1l-.09-10.42 11-.1v-4.36h-.66a1.83 1.83 0 01-.32.07c-.18 0-.34-.08-.52-.08h-.87c-.29 0-.54.06-.81.08s-.48 0-.71 0-.39.07-.6.07h-.45a1.93 1.93 0 01-.34 0 1.68 1.68 0 00-.45-.05c-.35 0-.69.06-1 .06h-4.28l-.06-6.05h6.15a6.46 6.46 0 00.88 0c.23 0 .64-.3.87-.19s.16.19.34.24a2.48 2.48 0 00.72 0c.21 0 .24-.23.49-.2s.22.16.36.2c.23.06 3.11-.1 3.11-.1V1.14l-18 .16v9.52c0 1.25.22 2.42.22 3.67v.95c0 .32.17.58.18.92a4.42 4.42 0 01-.36 1.43 2.42 2.42 0 000 1c0 .18.14.1.1.37a5.55 5.55 0 00-.12.9v6.4zm30.63.16c6.44-.06 9.72-3.22 9.67-8.61v-10c0-.22-.05-.39-.05-.62 0-.16-.07-.32-.07-.48a2.56 2.56 0 01.1-.48c0-.36-.11-.69-.06-1.06v-.66a5.11 5.11 0 000-.55V.78h-5.1v5.65a9.1 9.1 0 00.1 2.15 2.28 2.28 0 01.11.45 1.56 1.56 0 01-.08.43c0 .1 0 .21-.06.31s0 .21 0 .32a2 2 0 010 .65 3 3 0 000 1.12 8.71 8.71 0 010 1v4.94c0 2.6-1.48 4.52-4.71 4.54-3.42 0-4.74-1.78-4.76-4.39L109.13.91 104 1v8.95a2.35 2.35 0 00.13.43 3 3 0 010 1.31c0 .17-.07.35-.1.53a3.11 3.11 0 000 .68 10.11 10.11 0 010 1.1v4.08c0 5.45 3.48 8.48 10 8.43zm11.92-21.4l7.57-.06v2a2.76 2.76 0 01.06.76c0 .24-.08.49-.1.74s0 .51 0 .77v16.57h5.1L138.77 5h1.31c.16 0 .27-.1.44-.09a4.73 4.73 0 00.65 0 4.51 4.51 0 01.52 0c.55 0 1.1.07 1.66.07h3.04V.69l-20.33.07v4.3zm32.71 21c6.44-.06 9.72-3.22 9.67-8.61L168.33.39h-5.1v3.13a6.78 6.78 0 01.06 1.19 13.54 13.54 0 000 1.56v4.45c.05 1.57 0 3.14 0 4.71v2c0 2.6-1.48 4.52-4.71 4.55-3.42 0-4.74-1.79-4.76-4.4L153.76.52h-5.1V7.2a19.65 19.65 0 00.07 2.55c0 .1 0 .21.05.31a9.12 9.12 0 010 1 4.7 4.7 0 010 .65 1.42 1.42 0 000 .46 1.34 1.34 0 010 .2v2.56a5.43 5.43 0 010 1.21 1.59 1.59 0 00-.07.38v1.07c.05 5.45 3.49 8.48 10 8.43zm18.32-21.63h5.57c2.71 0 4 1.47 4 3.52s-1.34 3.46-4.12 3.48h-5.42v-.24c0-1-.05-1.92-.06-2.88V4.42zm-4.92 21.1l5.11-.05-.09-10.1h4.12c3.17 0 4.73 1.5 5 4.25s.33 5.52 1 5.8h4.89v-.24l-.23-.17a1.49 1.49 0 01-.18-.3 3.69 3.69 0 01-.25-.92c-.17-1-.21-2-.29-3 0-.3-.06-.59-.08-.89s-.08-.7-.14-1a2.81 2.81 0 01-.09-.49 2.1 2.1 0 00-.1-.71c-.05-.13 0-.27-.08-.39s-.12-.14-.16-.21a.43.43 0 01-.08-.29 2.62 2.62 0 000-.28.58.58 0 00-.1-.32c-.11-.14-.06-.25-.12-.4a3 3 0 00-.53-.79 4.45 4.45 0 00-1.5-1.11 6 6 0 00-1.1-.4v-.11a5.79 5.79 0 004.56-6.13c0-4.18-3.3-7-8.16-6.93L172 .36v8.82a34.4 34.4 0 00.09 3.52v.66a6.22 6.22 0 01.14 1.49c0 .27-.09.54-.11.81s0 .54 0 .81-.08.61-.08.92a9.12 9.12 0 01.08 1.27 9.26 9.26 0 000 1.29v5.56zm22.92-.2l18.62-.16v-4.26l-13.56.09-.05-6.79h3.14c.35 0 .67-.07 1-.07a7.35 7.35 0 01.94 0c.24 0 .43.06.66.06h3.26c.22 0 2.69-.07 2.69 0v-4.19L200.1 10V4.37h3.78a9.2 9.2 0 001 0 3.2 3.2 0 01.33-.07h3.18c.17 0 .45.09.67.07s.34-.08.51-.1l.71-.06a2 2 0 01.54 0 8.24 8.24 0 00.86 0h1.78V-.08l-18.55.24v13c0 .24.1.46.09.69s0 .34 0 .51a11 11 0 000 1.82v1.25a1.55 1.55 0 000 .31v.66a.58.58 0 010 .14 1.17 1.17 0 010 .26 6.12 6.12 0 010 .74 7.36 7.36 0 00-.06.81v.3c0 .1-.14.41-.13.63a4.17 4.17 0 01.08.51v3.2M51.74 22.62l.06-6.79 11.75.1v-4.19l-11.76-.1.09-5.64 13.41.11V1.82h-7.7l-.44-.06H46.79v8.57a3.53 3.53 0 010 .46v16.16l18.43.05v-4.26H61.5c-.26 0-.51.08-.78.08h-2.45c-.48 0-1-.06-1.44-.07h-1.47a.54.54 0 00-.22 0 .65.65 0 01-.2 0H52m-29.33 4h5.1l.1-11.09 9.89.09-.1 11.09h5.1l.22-25.17h-5.1v4.49a4.54 4.54 0 010 .74 3.22 3.22 0 000 .62v1a3.53 3.53 0 010 .92 4.86 4.86 0 000 1v1.06l-9.89-.08L28 1.5h-5.1v6.34c0 .19.05.38.06.57a5 5 0 000 .55 2.33 2.33 0 010 .59v2.5M7.39 26.49l5.1.05.18-20.88 7.57.07V1.44h-3.58a6.33 6.33 0 01-.87 0H9.33L6 1.31H3.07L1 1.27H0v4.28l7.57.07V9a2.36 2.36 0 000 .28v8.01a2 2 0 000 .42 1.34 1.34 0 010 .4v.28a.51.51 0 01-.07.17 1.84 1.84 0 000 .62v7.31" data-name="Layer 1" fill="#fff"/></g></svg><svg width="30.62" height="28.19" viewBox="-1 -1 30.62 28.19" x="199.91" y="123.66" xmlns="http://www.w3.org/2000/svg"><g data-name="Layer 2"><path d="M18.76 26.19h.39a14.91 14.91 0 001.65-.11 13.64 13.64 0 001.55-.29 11.41 11.41 0 001.4-.45 9.21 9.21 0 001.25-.62 7.12 7.12 0 001.1-.79A7.35 7.35 0 0027 23a7 7 0 001.23-2.34 7.31 7.31 0 00.29-1.39 2.64 2.64 0 00.05-.74 1.17 1.17 0 010-.27 1.5 1.5 0 000-.3c0-.16-.07-.33-.1-.49a1.59 1.59 0 00-.07-.2 2.41 2.41 0 010-.38 2.34 2.34 0 00-.08-.53 7.83 7.83 0 00-.34-.79 4.47 4.47 0 00-.19-.46 3 3 0 01-.18-.3 1.19 1.19 0 00-.08-.2 3.56 3.56 0 00-.39-.48 2.34 2.34 0 00-.24-.31c-.1-.1-.25-.17-.36-.27l-.35-.31c-.16-.16-.32-.32-.49-.47a1.79 1.79 0 00-.49-.39l-.61-.31a18 18 0 00-2.49-.9c-.93-.27-1.88-.49-2.83-.71C15.56 9.62 13.8 9 13.82 7c0-1.8 1.82-2.95 4.57-2.92 2.6 0 4.56 1.31 4.82 3.84h4.89c-.34-5.07-4-7.88-9.64-7.93a14.59 14.59 0 00-2 .1 13.71 13.71 0 00-1.81.32A11.61 11.61 0 0013 1a7.71 7.71 0 00-1.45.82 7.19 7.19 0 00-1.42 1.28l-.13.17c-.11.15-.22.29-.31.44s-.1.25-.17.37a3 3 0 00-.33.81 2.91 2.91 0 000 .31c0 .17-.11.33-.15.49s0 .15 0 .22A.58.58 0 019 6a.88.88 0 000 .16c0 .09 0 .17-.06.26s0 .22 0 .33v.43a3.66 3.66 0 00-.08.93c0 .21.07.42.1.63A6.59 6.59 0 009.13 10a5.62 5.62 0 001.19 1.94 7.35 7.35 0 001.83 1.35 14.05 14.05 0 002.27.93c.84.26 1.7.48 2.55.69l.33.08c3.83.91 6.22 1.42 6.2 3.89s-2.32 3.22-4.92 3.19C15 22 13.28 20.83 13 17.8H8a9.57 9.57 0 00.38 2.49 1.41 1.41 0 00.1.31c0 .07.11.15.16.22s.19.27.3.39a1.85 1.85 0 01.33.46c.08.16.12.33.19.49s.12.19.18.29a1.09 1.09 0 00.14.23c.27.31.51.64.8.93.1.09.23.17.33.27a.39.39 0 00.1.08v.06a1 1 0 01.19.12 2 2 0 00.19.22 4.9 4.9 0 00.62.38 11.57 11.57 0 001.35.6 14.45 14.45 0 003.25.74 18.74 18.74 0 002.13.12zM0 25.47h5.1v-7.02a1.55 1.55 0 000-.57l-.06-.22a1.84 1.84 0 010-.41v-1.77a3.11 3.11 0 010-.61c0-.27 0-.54.09-.82a7.32 7.32 0 000-.94V.3H.22L0 25.47z" fill="#fff" data-name="Layer 1"/></g></svg><svg width="31.5" height="27.42" viewBox="-1 -1 31.5 27.42" x="215.75" y="40.57" xmlns="http://www.w3.org/2000/svg"><g data-name="Layer 2"><path d="M9 25.25h5l.12-13c0-1.76-.11-4.4-.11-4.4h.07s1 2.16 1.77 3.5l8.47 14h4.92v-.86c0-1.65 0-3.29.05-4.94v-1.68c0-.56-.11-.87-.08-1.33a22.79 22.79 0 00.12-3.4 20.86 20.86 0 01-.08-2.09 8.68 8.68 0 010-1c0-.23.1-.42.1-.65.08-2.16 0-4.32.06-6.48V.21l-5-.05-.11 13.2c0 1.76.1 4.37.1 4.37h-.07s-.93-2.16-1.73-3.54L14.4.12 9.23.08v4.71a15.85 15.85 0 000 2.39 3.62 3.62 0 010 .93 7.5 7.5 0 000 1.06v16.04zm-9-.08h5.1v-8.94c0-1.23 0-2.47.05-3.7v-.46a4.94 4.94 0 000-.94v-.43a2.5 2.5 0 010-.47 3.78 3.78 0 000-.75 1.89 1.89 0 010-.58c.06-.3 0-.62.06-.92a2.08 2.08 0 00.06-.36V0H.22v10.65c0 1.42-.06 2.83 0 4.24v3.17a13.15 13.15 0 010 1.66 5.9 5.9 0 000 .84v4.63z" fill="#fff" data-name="Layer 1"/></g></svg><svg width="67.62" height="27.68" viewBox="-1 -1 67.62 27.68" y="215.16" xmlns="http://www.w3.org/2000/svg"><g data-name="Layer 2"><path d="M47 25.34h.3c1.5 0 3-.06 4.48-.08a5 5 0 01.77 0 2.57 2.57 0 00.4.07h.8c.52 0 1 .06 1.54 0 .22 0 .4.06.62.07s.43 0 .63 0l2.57-.05c.67 0 1.34 0 2-.08.29 0 4.51-.1 4.51-.08v-4.26L52.07 21 52 14.24c0-.03 2.81 0 3.08 0a1.86 1.86 0 01.47 0 3.94 3.94 0 00.69 0c.32 0 .65.06 1 0a4.9 4.9 0 00.55-.13 13.07 13.07 0 012 0h4V9.92c0-.01-2.49.06-2.68.06H56.2a8.42 8.42 0 01-.87 0 4.22 4.22 0 00-.61-.07H52V4.28l13.33.02V.01h-3.45a12.21 12.21 0 00-1.71 0h-.52c-.22 0-.43.08-.65.08a2.24 2.24 0 00-.51 0c-.56.1-1.13 0-1.68.08s-.76.07-1.16.08A9 9 0 0054 .2a6.69 6.69 0 01-1.34 0h-2.13c-.16 0-.31-.06-.47-.07h-.49c-.94 0-1.86.06-2.8.07v8.71c0 .25-.07.48-.06.73a2.28 2.28 0 000 .37.84.84 0 01.08.32 3.13 3.13 0 000 .53 1.8 1.8 0 01.08.35v.73a8 8 0 010 .85 7.72 7.72 0 00-.06.84v2.54c0 .29-.06.36-.06.56 0 1.64.06 3.27.08 4.91v3.73zM28.1 22.4v.13-8.12l9.89-.08.01 11.08h5.11V10.58a11.78 11.78 0 000-1.68 6.25 6.25 0 01-.26-.9 3.56 3.56 0 01.09-.57 3.12 3.12 0 000-.61V.2L37.8.25l.09 9.85-9.89.09-.09-9.86h-5.1v10.34c0 .21-.06.39-.07.58s.13.41.2.62 0 .61-.05.88 0 .47-.06.71a5.46 5.46 0 000 .7v.49c0 .16-.07.42-.07.65 0 .45.09.87.1 1.32v8.88l5.1-.05s-.05-5.58-.07-8.83M0 4.87l7.57-.06.18 20.87 5.1-.05V18a3.43 3.43 0 010-.64 3.15 3.15 0 00-.06-.61V14.8c0-.68-.1-1.33-.11-2v-.38a2.7 2.7 0 00.07-.41v-.86a5.27 5.27 0 01.11-.9 1.78 1.78 0 000-.69 5.76 5.76 0 010-.83V4.76l7.57-.06V.4h-5.11a9.91 9.91 0 00-1.09 0 1 1 0 01-.3 0 2.44 2.44 0 00-.39.06h-3.02c-.3 0-.57-.13-.86-.13s-.98.2-1.39.2c-.58 0-1.15.09-1.74.1S5.14.58 4.45.55C3 .49 1.48.55 0 .58v4.29z" fill="#fff" data-name="Layer 1"/></g></svg></svg>