<svg width="162" height="127" xmlns="http://www.w3.org/2000/svg" xmlns:xlink="http://www.w3.org/1999/xlink"><svg width="103.28" height="47.8" viewBox="-1 -1 103.28 47.8" y="78.86" xmlns="http://www.w3.org/2000/svg"><g data-name="Layer 2"><g data-name="Layer 1" fill="#fff"><path d="M52.15 30.82l-.06.06a1.24 1.24 0 000 .16v.19a.66.66 0 000 .15 1 1 0 01-.12.36 3.28 3.28 0 01-.2.31v.16c0 .06 0 .07-.06.1a.47.47 0 00-.11.21 1.55 1.55 0 01-.06.31s-.05 0-.07.09a1.42 1.42 0 01-.14.23.81.81 0 00-.1.09 1.17 1.17 0 000 .11c-.05.1-.12.18-.17.28a.91.91 0 01-.07.14.58.58 0 000 .18c-.06.24-.15.47-.23.7s-.18.48-.27.72-.15.38-.23.57a3.37 3.37 0 01-.2.49 2 2 0 01-.1.21 1.88 1.88 0 01-.14.24 2.53 2.53 0 01-.12.23.18.18 0 000 .09.2.2 0 010 .11.86.86 0 00-.11.33.65.65 0 010 .2v.19a.76.76 0 01-.06.25 2.64 2.64 0 01-.15.29.86.86 0 00-.12.3c0 .21-.22.31-.31.46s0 .1-.07.15v.06c0 .08-.07.17-.08.24a.74.74 0 01-.14.44 2.25 2.25 0 00-.12.21c0 .1 0 .19-.08.29s-.09.11-.1.17 0 .08 0 .12a2.12 2.12 0 00-.11.21 1.3 1.3 0 01-.14.26s-.09.08-.08.11.24 0 .18 0h.07c0 .05-.08.05-.12.07a.43.43 0 00-.16.09 1.14 1.14 0 00-.17.35.21.21 0 000 .15c0 .07-.06.09-.1.13a1.14 1.14 0 00-.17.37 1.11 1.11 0 00-.07.26 2.34 2.34 0 010 .26.41.41 0 01-.1.22c0 .06-.13.1-.16.17a.22.22 0 01-.1.15.38.38 0 00-.12.1.59.59 0 01-.15.2.58.58 0 00-.14.13.64.64 0 01-.27.19v.07c0 .07.13.14.18.19l.22.2.48.47.28.27s.09.11.12.11c1.23.08 2.08-2.08 2.49-2.9s5.2-13.84 6.17-16 3.65-9.29 6.25-15.4 2.79-8.58 2.57-9.36A4.23 4.23 0 0061.71 0c-1.64 0-4.1.35-16.94 7.21l-.57.3a2.75 2.75 0 01-.45.17c-.29.1-.41.48-.64.66a1.11 1.11 0 01-.54.13 1.3 1.3 0 00-.45.17c-.21.12-.45.2-.65.33a2.9 2.9 0 00-.49.5.86.86 0 01-.62.23.81.81 0 00-.52.35 1.42 1.42 0 01-.29.35 1 1 0 01-.6.11 1 1 0 00-.63.26c-.2.13-.41.22-.62.34s-.21.21-.34.31-.22.12-.31.24c-.24.33 0 .62-.47.77a1 1 0 01-.55 0c-.12 0-.29-.14-.42-.09s-.08.09-.11.13a1.41 1.41 0 01-.48.36 3.73 3.73 0 00-.73.26c-.16.11-.31.23-.48.33a3.64 3.64 0 00-.74.62 3 3 0 01-.75.58 4.49 4.49 0 00-.69.44.54.54 0 01-.54.16c-.43-.05-.47.37-.7.64s-.23.14-.39.14a.6.6 0 00-.44.21 2.06 2.06 0 01-.64.41 3.68 3.68 0 00-.63.31c-.52.31-1.06.58-1.57.91l-2.09 1.4-.66.46 7.14-1.53c2.05-1.53 11.15-6.8 19.26-11.1s11.55-4.75 12.15-4.73-.45 4.08-1 4.94-.12.86-.42 1.1a.93.93 0 00-.22.77c-.45.41-.28.67-.4 1a7 7 0 00-.6 1.51c-.1.62-.78 1.07-.78 1.51a3.09 3.09 0 01-.35 1.11c-.12.3.11.4-.14.63a9.77 9.77 0 00-1.18 2.62 12.05 12.05 0 01-1.14 2.81c-.45.77-.1.66-.3 1a5.82 5.82 0 00-.45.9 4.33 4.33 0 00-.21.54 2.25 2.25 0 00-.17.54.27.27 0 010 .12.8.8 0 000 .15c0 .05-.05.06 0 .12a.76.76 0 010 .15.54.54 0 01-.16.14v.2a.86.86 0 01-.23.33.79.79 0 00-.2.3 2.34 2.34 0 00-.12.4c0 .11-.08.2-.09.32a.86.86 0 01-.05.27 2 2 0 00-.14.3 1.43 1.43 0 01-.2.58 1.45 1.45 0 00-.17.18 1.19 1.19 0 00-.09.15l-.12.19v.08c0 .03 0 0 0 0v.26c0 .09-.06.21-.08.24l-.18.4c-.06.12-.15.23-.22.35s-.26.43-.38.65a6.4 6.4 0 00-.29.65v.12a.42.42 0 000 .16.3.3 0 01-.05.16c0 .05-.06.13 0 .19s0 0 0 .09v.13a.2.2 0 010 .11zM31.66 16.24a.07.07 0 000 .07l-.1.12h-.26c-.09 0-.05-.05.05-.09s0-.07 0-.07v-.06c0-.06 0 0 .07 0h.17c.09 0 .09 0 0 0zm1.72-.89h-.16s0-.08.07-.07a.27.27 0 01.12 0zm.41-.37a.08.08 0 010-.05h.1zm.22-.19v.05c0 .05 0 0-.05 0s0 0 0-.05h.06c.05 0 0 0 0 0zm10.14-5.31h-.07c-.07 0 0 0 0 0v-.05c0-.05 0 0 .07 0zm.42-.35h-.06zm.25-.24h.06zm5.34-3.2l-.07.06c-.07.06 0 0-.07 0s-.09-.08 0-.11.13 0 .11 0zm.65-.38a1.18 1.18 0 01-.26 0c-.14 0 0 0 0 0h.14c.14 0 .19.06.12.07z"/><path d="M3.87 34.94a1.08 1.08 0 00.28.3 3.9 3.9 0 001 .57c.94.26 2-.89 2.73-1.46s1.5-1.2 2.26-1.79q2.91-2.27 5.9-4.41a308.6 308.6 0 0110.05-6.91L39.79 19c4.64-.77 15.13-2 17.07.15l.46-.69a5.75 5.75 0 00-4.74-2.77 143.47 143.47 0 00-21.86 2.42c-10.41 1.86-19.48 3.84-22.47 4.37s-3.54.67-5.1.85-2.71.16-3.15.49a.34.34 0 00.21.31c.23.14 0 .31.3.69s.55.36.72.71.38.32 1.26.2A26.81 26.81 0 007.82 25c2.71-.69 10.65-2.22 11.65-2.38 0 0-5.29 3.72-7 5-1.32 1-2.63 2-3.94 3.06L6 32.64a9.69 9.69 0 01-2.41 1.76 5.79 5.79 0 01.28.54zm63.6-22.67c0 .4-.14.34.19.47s.59 0 .66-.26a5.33 5.33 0 00.4-1.44 3 3 0 00-1.11-1.39c-.42-.16-.7-.11-1.06-.24s-.39 0-.33.41-.14 1 .07 1.13a2.43 2.43 0 01.59.55l.2.38.18.22c0 .07.19 0 .21.17zm-6.31 13.45c0 .07-.07.12-.07.19s-.06.14-.09.17a.75.75 0 00-.1.2.8.8 0 00-.07.2.41.41 0 010 .11c0 .05-.06.08-.08.13a.08.08 0 000 .07v.07a1.54 1.54 0 00-.08.19c0 .06-.13.13 0 .16a1.48 1.48 0 01-.12.29c0 .07-.14.17-.14.25v.11c0 .06-.09.11-.1.17s0 0 0 .06-.1.15-.13.22-.13.21-.19.32-.06.14-.1.21a1.12 1.12 0 01-.16.22 1.13 1.13 0 00-.16.26s-.08.12-.06.17-.06.13-.07.17a.65.65 0 010 .13c0 .06-.17.16-.14.24s0 .09 0 .12 0 .05-.06.08 0 0 0 .06-.06.12-.08.19v.09a1.36 1.36 0 01-.06.29 4.94 4.94 0 01-.39.76 2.54 2.54 0 00-.16.38c-.07.13-.18.25-.25.39a2.25 2.25 0 00-.19.45c-.05.16-.06.33-.11.49l-.12.32c-.06.16-.14.3-.21.45s-.1.25-.16.37a4 4 0 00-.3.82c-.19.75-.35 1-.38 1.28s-.28.53-.21.8v.12c0 .02.12 0 .13.08s.11 0 .14.09a1 1 0 000 .1 3.46 3.46 0 00.22.31c.06.07.12.15.19.22s.37.36.54.55c.42.43.82 0 1-.33s1.16-3.46 1.68-4.61 2.81-6.56 3.11-7.16 1.91-4.63 2.27-5.65a4 4 0 00.33-2.27c-.14-.51-1-.91-1.65-1.07s-.68.07-.64.47a4.25 4.25 0 01-.37 1.24 1.51 1.51 0 00-.13.82c.06.21-.23.47-.46.85s-.07.47 0 .64-.29.49-.37.78-.31.14-.37.38-.11.38-.17.57a2.28 2.28 0 01-.15.44c-.06.13-.17.24-.23.37s0 .07 0 .09a.2.2 0 00.13 0c0 .09.17 0 .17.11s-.06.1 0 .09-.21.13-.27.17a.73.73 0 00-.19.2c-.09.1-.17.24-.27.33 0 .05 0 .11-.06.15a1.28 1.28 0 00-.07.28zm40.11-20.93c0-.3-.12-.2 0-.43s-.15-.44-.23-.56 0-.1-.07-.33-.13-.12-.33-.23 0-.17 0-.17a6 6 0 00-2.41-1.93 8.8 8.8 0 00-3.8-.09c-.37.13-1.71.3-2.08.43a12.76 12.76 0 01-1.35.35c-.31 0-1.12.5-1.63.67a26.53 26.53 0 00-2.49 1.16 6.67 6.67 0 01-1 .6c-.19 0-.25.2-.41.37s-.21.06-.35.1-.24.22.09.29-.63.52-.77.6-.14 0-.12-.19-.47.19-.72.41a16.35 16.35 0 00-1.39 1.37c-.2.28.11.52-.08.59a2.19 2.19 0 00-.73.69c-.09.19-.42 0-.47.25s-.32.42-.58.65-.21 0-.41.27a2.43 2.43 0 01-.57.59c-.08 0-.08.18 0 .37s-.26.3-.43.38a.43.43 0 00-.26.35c0 .11-.08.1-.33.24s-.08.3-.21.4a7 7 0 00-.88 1 8 8 0 00-.44 1 .89.89 0 01-.25.31v.15a4 4 0 00-.3.44c0 .1.25.17.16.22s-.29-.05-.33.24-.12.14-.26.22-1.52 2-1.73 2.32-1 1.79-1.19 2.06-.42.22-.52.38.11.15 0 .34-.35.26-.47.65-.17.4-.3.51 0 .39-.13.44 0 .31 0 .43-.15 0-.28.05-.15.2-.16.32a.51.51 0 01-.14.37.5.5 0 00-.21.39c0 .15-.11.45-.2.48s-.09 0-.25.35A1.51 1.51 0 0170 25v.44c0 .24-.11.32-.25.26s-.2.2-.18.46a.53.53 0 01-.21.5c-.16.13-.08.53-.11.75s-.13.06-.29.13-.19.47-.22.64-.08 0-.23.08 0 .21-.11.36a1.37 1.37 0 00-.26.43 1.18 1.18 0 01-.15.4c-.07.08 0 .21-.07.34s0 0-.13.21 0 .35-.15.57a.71.71 0 00-.14.5c0 .16-.22.4-.4.55s-.27.54-.4.82 0 .31-.14.58 0 .41-.26.58-.28.7-.33.73 0 .24-.1.39-.07.46-.22.66a2.39 2.39 0 00-.37 1c0 .24-.08 0-.09.22s.07.19-.18.48a1.39 1.39 0 00-.22.55c0 .1-.06.19-.08.29s0 .22 0 .33-.11.26-.14.4a.35.35 0 01-.06.14.78.78 0 000 .34v.25c0 .28-.1.55-.13.82a2.66 2.66 0 01-.31 1c-.24.51.15.87.4 1.19a3.8 3.8 0 01.67 1c.18.49 1.34.1 1.4-.12a8.21 8.21 0 00.18-1.35c0-.16.2-.44.2-.61v-1c0-.38.23-1.22.32-1.83a18.19 18.19 0 01.58-2.16c.1-.36.86-2 .94-2.27s.26-.71.28-.76a5.16 5.16 0 00.22-.6c.09-.31.78-1.63.86-1.8s.58-1.28.7-1.49.18-.53.43-1.06.23-.47.22-.53a.28.28 0 010-.27 1.59 1.59 0 00.25-.61c.1-.32 1.77-3.11 1.89-3.39s.18-.27.27-.48.08-.37.16-.58a3.55 3.55 0 01.61-.79c.09-.08.08-.16.13-.26a.77.77 0 00.06-.24 1.07 1.07 0 01.07-.29c.07-.17.16-.1.28-.22a3.48 3.48 0 00.4-.71c.16-.3.77-1.1 1-1.46a13.54 13.54 0 01.82-1.34 13.41 13.41 0 001.2-1.55c.42-.66 2.5-3.36 3-3.88a40.89 40.89 0 013.63-3.84 25.88 25.88 0 014.31-2.62 4.69 4.69 0 011.34-.59 26.58 26.58 0 015.53-1.4c2.15-.1 2.28.14 2.39.24s0 .75-.09 1-.43 1-.46 1.15-.15.11-.14.37 0 .4-.12.48a1.05 1.05 0 00-.48.41c-.1.18 0 .42-.09.57s-.38.36-.38.52-.23.3-.33.51-.24.14-.39.15-.17.36-.24.55a2.06 2.06 0 01-.32.47s.24 0 0 0-.43.37-.55.41-.13.27-.25.39-.57.23-.61.51a.58.58 0 01-.43.5 5.79 5.79 0 00-1 1c-.17.19-1.7 1.46-1.85 1.61a7.22 7.22 0 00-.68.67c-.07.14-1.17.85-1.35 1a6.3 6.3 0 00-.79.62 14.53 14.53 0 01-1.41 1.23 3.89 3.89 0 00-.71.56 9.4 9.4 0 01-1 .8 6.42 6.42 0 01-.88.73c-.27.13-.45.51-.74.63s-1.06.75-1.32.86-.23.16-.33.3-.18.16-.38.22a7.75 7.75 0 00-1.25.9c-.15.15-1 .95-1.17 1a1.79 1.79 0 00-.46.36c-.11.14-.18 0-.25.19a.75.75 0 01-.25.35l-.67.63c-.1.1-.56.71-.69.73s-.08.25-.2.35-.34.51-.49.67-.1.23-.1.37-.09.07-.18.23-.43.91-.49 1a1.18 1.18 0 00-.14.4c-.06.23-.1.12-.15.3s0 .2.13.23 0 .12 0 .15-.11.23 0 .3-.1.08-.18.31a2.81 2.81 0 00.16 1 2.35 2.35 0 01.18.69c0 .33.32.53.41.81a2.3 2.3 0 00.33.77c.17.24.19.51.39.65s.2.13.21.37.2.22.25.34a6.6 6.6 0 00.87 1.15c.16.06.17.07.21.19s.86 1 1.14 1 0-.12.43.3a31.14 31.14 0 004.49 2c.62.19 1.51.28 1.87.37a1.1 1.1 0 00.85-.11c.42-.15.87.26 1.43.35a13.21 13.21 0 002.8-.2c.19-.08.14-.61.14-.61h-.55c-.26 0-.23-.19-.72-.5a8 8 0 00-2.64-.45 16.27 16.27 0 01-5.41-1.68c-3.16-1.43-3.31-2.07-4.25-4s.08-3.73 1-4.94a27.23 27.23 0 015.28-4.65C86.59 21.12 92 16.65 95 14a27.74 27.74 0 005.3-6.18 7 7 0 001-3.06zM89 39l.19-.08c.2-.08.13 0 .2 0s0 0 0 .1-.11 0-.18.1 0 .2-.1.19-.09-.08-.27-.25 0-.08.11-.1z"/></g></g></svg><svg width="131.19" height="21.74" viewBox="-1 -1 131.19 21.74" y="41.31" xmlns="http://www.w3.org/2000/svg"><g data-name="Layer 2"><g data-name="Layer 1" fill="#fff"><path d="M119.17.64h-4.36a8.18 8.18 0 00-1 0h-13.12a2.26 2.26 0 01-.26 0 4.34 4.34 0 00-.72 0h-1.35a4 4 0 00-1 0 1.94 1.94 0 01-.34 0h-2.87a4.56 4.56 0 00-.64 0H60.18l-3.08.1h-7.19a2.32 2.32 0 00-.59 0H31.09a4 4 0 00-1.15 0h-1.15a1.3 1.3 0 00-.34 0 2.17 2.17 0 01-.51 0 6.84 6.84 0 00-1.5 0 1.5 1.5 0 01-.3 0 6.18 6.18 0 00-1.36 0h-.69a2.09 2.09 0 00-.25 0 3 3 0 01-.73 0 1.94 1.94 0 00-.68 0 2.22 2.22 0 01-.68 0h-3.23L18 .68h-2.65a8.79 8.79 0 00-1.54 0A2.84 2.84 0 0113 .7a1.69 1.69 0 00-.55 0 .48.48 0 01-.17 0 14.22 14.22 0 00-1.46 0H2.77C2.14.68 1.51.75.89.72.63.71.37.68.12.66A.14.14 0 010 .54.22.22 0 01.2.25h2.22a2.72 2.72 0 00.64 0 1.71 1.71 0 01.39 0h1.32a5.14 5.14 0 01.68 0 6.86 6.86 0 001.11 0 1.51 1.51 0 01.3 0 2.18 2.18 0 00.51 0 1.7 1.7 0 01.39 0 1.48 1.48 0 00.42 0 2.9 2.9 0 01.51 0 3.18 3.18 0 00.69 0h.12a1.72 1.72 0 00.64 0 2.54 2.54 0 01.39 0H11a2.41 2.41 0 01.38 0 5 5 0 00.77 0h.34a2.26 2.26 0 01.26 0 5.83 5.83 0 001.32 0 2.46 2.46 0 01.47 0 3.14 3.14 0 00.81 0 .76.76 0 01.3 0 7.6 7.6 0 001.07 0h.85a8.24 8.24 0 011.49 0h5.56a1.22 1.22 0 00.34 0 .38.38 0 01.33 0 .29.29 0 00.16 0 2.41 2.41 0 01.6 0h.68a4.58 4.58 0 001.11 0 1.75 1.75 0 01.56 0 6.88 6.88 0 001.11 0 1.07 1.07 0 00.25 0 1.73 1.73 0 01.6 0 3.49 3.49 0 00.72.05h3.6a1.06 1.06 0 00.25 0 3.56 3.56 0 01.73 0h.42a5 5 0 00.77 0A4.58 4.58 0 0138 .22h.3a8 8 0 01.85 0 1.49 1.49 0 00.21 0 1 1 0 01.3 0 1.21 1.21 0 00.38 0 5.15 5.15 0 011.11 0 3 3 0 00.94 0 1.06 1.06 0 01.25 0 1.55 1.55 0 00.43 0 2 2 0 01.42 0H66a1 1 0 01.25 0 5.46 5.46 0 001.07 0 1.51 1.51 0 01.3 0 4.84 4.84 0 00.85 0H71a2.36 2.36 0 00.38 0 1.73 1.73 0 01.6 0 .7.7 0 00.25 0 1.23 1.23 0 01.47 0h.09a6.61 6.61 0 01.89 0h3.29a1 1 0 00.17 0h7.23c.35.06.71 0 1.06 0h.17a5.3 5.3 0 01.69 0 14.76 14.76 0 001.49 0h1.16a5.79 5.79 0 01.72 0 7.09 7.09 0 001 0 .5.5 0 01.21 0 3.66 3.66 0 00.81 0h.81a6.88 6.88 0 011.2 0 1.21 1.21 0 00.38 0 1.46 1.46 0 01.51 0 1.55 1.55 0 00.43 0 3 3 0 01.43 0h2.86a2.41 2.41 0 00.6 0 1.11 1.11 0 01.26 0h9.92a2.08 2.08 0 00.43 0 2.41 2.41 0 01.6 0A3.32 3.32 0 00111 0a.5.5 0 01.17 0 3.66 3.66 0 00.83 0 3.07 3.07 0 01.68 0 1.55 1.55 0 00.43 0 3.59 3.59 0 01.47 0h11.56a1.51 1.51 0 00.3 0 7.72 7.72 0 011.36 0h.2a7 7 0 011 0 .32.32 0 00.17 0 4.46 4.46 0 01.73 0 .25.25 0 01.12 0 .25.25 0 01.18.23.25.25 0 01-.14.25 1.06 1.06 0 01-.42.09h-9.46zM88.41 16.42h.31V13.5s.19.34.35.57l1.55 2.35H91V13h-.3v3s-.16-.3-.33-.56L88.76 13h-.35v3.38zm3.17 0h.32V13h-.32v3.38zm1 0h.31v-1.19l.61-.6 1.34 1.79h.38l-1.5-2L95.08 13h-.41l-1.83 1.8V13h-.31v3.38zm3 0h2.35v-.29h-2v-1.32h1.82v-.28H95.8v-1.21h2V13h-2.3v3.38zm4.72.06c.71 0 1.19-.38 1.19-1s-.55-.87-1.2-1-.92-.24-.92-.64.31-.62.83-.62a.8.8 0 01.8.78h.3a1.06 1.06 0 00-1.19-1c-.68 0-1.13.36-1.13.9s.44.78 1.07.9 1 .26 1 .74-.37.71-.87.71a.92.92 0 01-1-.9h-.32a1.21 1.21 0 001.37 1.16zm1.66-.06h.31V15h1c.71 0 1.08-.34 1.08-1a.93.93 0 00-.24-.65 1 1 0 00-.79-.29h-1.33v3.38zm.31-1.74v-1.36h1c.49 0 .75.24.75.67s-.23.69-.78.69zm3.92 1.52c-.81 0-1.24-.65-1.24-1.47s.43-1.48 1.24-1.48 1.25.66 1.25 1.48-.43 1.47-1.25 1.47zm0 .29a1.6 1.6 0 001.58-1.76 1.58 1.58 0 10-3.15 0 1.6 1.6 0 001.57 1.76zm2.06-.07h.31v-1.51h1c.5 0 .7.17.73.75s0 .71.12.76h.34c-.06 0-.12-.18-.14-.72s-.14-.78-.49-.9a.78.78 0 00.57-.82.86.86 0 00-1-.91h-1.51v3.38zm.31-1.78v-1.32h1.13c.51 0 .7.24.7.66s-.25.66-.74.66zm3.44 1.78h.32v-3.1h1.14V13h-2.6v.28H112v3.1zm2.93.06c.71 0 1.19-.38 1.19-1s-.54-.87-1.2-1-.92-.24-.92-.64.32-.62.83-.62a.78.78 0 01.88.72h.29a1.06 1.06 0 00-1.19-1c-.68 0-1.13.36-1.13.9s.44.78 1.06.9 1 .26 1 .74-.37.71-.86.71a.93.93 0 01-1.06-.9h-.32a1.21 1.21 0 001.37 1.16zm2.22-.06h.34l.66-2.46c.06-.22.13-.55.13-.55s.07.33.13.55l.64 2.46h.33l.91-3.38H120l-.6 2.28c-.06.25-.15.67-.15.67l-.16-.66-.65-2.33h-.34l-.62 2.3-.16.65s-.09-.42-.15-.67l-.6-2.28h-.33l.9 3.38zm3.51 0H123v-.29h-2v-1.32h1.82v-.28H121v-1.21h2V13h-2.3v3.38zm2.59 0h.32l.4-1.06h1.47l.4 1.06h.34l-1.3-3.42h-.36l-1.28 3.38zm.82-1.32l.47-1.27c.07-.2.16-.49.16-.49s.1.3.17.49l.47 1.27zm2.45 1.32h.31v-1.51h1c.49 0 .69.17.72.75s0 .71.12.76h.33c-.06 0-.12-.18-.14-.72s-.14-.78-.49-.9a.78.78 0 00.63-.8.86.86 0 00-1-.91h-1.51v3.38zm.31-1.78v-1.32H128c.51 0 .7.24.7.66s-.25.66-.74.66zm-7.9-7.72H121v-.28h-1.75c.06-.45.47-.7.85-.92s.94-.51.94-1.16a.92.92 0 00-1-.94 1.11 1.11 0 00-.79.29 1.11 1.11 0 00-.29.81h.31a1 1 0 01.21-.64.73.73 0 01.54-.2.64.64 0 01.7.69c0 .47-.31.63-.75.9s-1.07.62-1.08 1.45zm3.69-.2c-.58 0-.89-.55-.89-1.42s.31-1.43.89-1.43.88.56.88 1.43-.3 1.42-.88 1.42zm0 .27c.78 0 1.2-.66 1.2-1.69s-.46-1.69-1.19-1.69-1.21.64-1.21 1.69.43 1.7 1.19 1.7zm1.51-.07h2.1v-.28h-1.75c.07-.45.48-.7.85-.92s1-.51 1-1.16a.93.93 0 00-1-.94 1.09 1.09 0 00-.78.29 1.07 1.07 0 00-.29.81h.31a1 1 0 01.2-.64.75.75 0 01.54-.2.64.64 0 01.7.69c0 .47-.3.63-.74.9s-1.07.62-1.09 1.45zm3.69-.2c-.57 0-.88-.55-.88-1.42s.31-1.43.88-1.43.88.56.88 1.43-.29 1.42-.88 1.42zm0 .27c.77 0 1.2-.66 1.2-1.69s-.46-1.69-1.2-1.69-1.2.64-1.2 1.69S127 7 127.81 7zm1.37 12.27A.3.3 0 00129 19h-.18a6.55 6.55 0 00-1 0 1 1 0 01-.24 0h-1.41a1 1 0 01-.17 0 14.72 14.72 0 00-1.88 0 2.84 2.84 0 01-.41 0h-16.6a2.25 2.25 0 01-.58 0 5.92 5.92 0 00-.94 0 6.86 6.86 0 01-1.11 0 1 1 0 00-.24 0 5.62 5.62 0 01-1.24 0 3.75 3.75 0 00-.82 0H87.56a4.5 4.5 0 01-.82 0h-3.95a5.82 5.82 0 00-.59 0 2.25 2.25 0 01-.58 0 3.37 3.37 0 00-.71 0 2.27 2.27 0 01-.52 0 13 13 0 00-1.65 0h-1.13a5.88 5.88 0 01-1.11 0 2.81 2.81 0 00-.29 0 13.42 13.42 0 01-1.42 0c-.33 0-.66-.05-1 0H72.2c-.69 0-1.37.05-2.06 0h-2.61a.4.4 0 00-.11 0h-7.8c-.71 0-1.37-.05-2.06 0h-1.05c-.71 0-1.41.06-2.12 0a1.37 1.37 0 00-.29 0h-1.3a10.1 10.1 0 00-1.23 0 .25.25 0 01-.12 0 2.29 2.29 0 00-.64 0 1.37 1.37 0 01-.35 0 3.21 3.21 0 00-.82 0 2.33 2.33 0 01-.53 0h-3.47a9.31 9.31 0 01-1.18 0 1.42 1.42 0 00-.41 0 9 9 0 01-1.47 0H10.83a3.9 3.9 0 00-.59 0 2.81 2.81 0 01-.58 0 1.4 1.4 0 00-.35 0 5.57 5.57 0 01-1.29 0 8.69 8.69 0 00-1.53 0 2.35 2.35 0 01-.53 0 2.77 2.77 0 00-.41 0 1.36 1.36 0 01-.29 0H3.68a7.82 7.82 0 00-1.53 0 9.21 9.21 0 01-1 0H.56a1.79 1.79 0 00-.33 0 .28.28 0 00-.13 0 .18.18 0 00-.06.09v.08H0a.59.59 0 010 .19c0 .05 0 .1.06.13a.58.58 0 00.23 0h19.03a5.75 5.75 0 01.83 0 4.57 4.57 0 00.64 0h60.2c.72.05 1.45 0 2.17 0h1.77a3.62 3.62 0 00.47 0 7.61 7.61 0 011.35 0h2.88a2 2 0 00.35 0h38.44a2.12 2.12 0 00.57-.09.26.26 0 00.2-.27zm0-9.49c0-.12 0-.22-.09-.24a.11.11 0 00-.07 0c-.12 0-.25-.05-.38 0h-.09a1.87 1.87 0 00-.53 0h-.07a2.11 2.11 0 00-.71 0h-.16a4.89 4.89 0 00-.54 0h-.62a5.52 5.52 0 00-.58 0 5.82 5.82 0 01-.59 0H121a1.07 1.07 0 00-.25 0 .33.33 0 01-.22 0 .88.88 0 00-.36 0 1.19 1.19 0 01-.42 0h-.09a.84.84 0 01-.47 0 .55.55 0 00-.31 0 .55.55 0 01-.22 0 4.12 4.12 0 00-.61 0h-4.59a.3.3 0 00-.13 0 .82.82 0 01-.31 0h-1.5a.9.9 0 00-.23 0 .41.41 0 01-.22 0 .42.42 0 00-.27 0 .34.34 0 01-.2 0 1.85 1.85 0 00-.62 0h-.43c-.14 0-.28.06-.42 0a.2.2 0 00-.11 0 1.63 1.63 0 01-.54 0 2.45 2.45 0 00-.38 0h-.6a3.39 3.39 0 01-.78 0 2.17 2.17 0 00-.36 0h-2.8a7.3 7.3 0 00-.81 0c-.26 0-.52-.05-.78 0h-1.81c-.16 0-.31-.07-.47 0a.36.36 0 00-.25 0 .2.2 0 01-.13 0 .41.41 0 00-.31 0 .71.71 0 01-.2 0h-1.32a1.38 1.38 0 01-.45 0 .3.3 0 00-.16 0 1.28 1.28 0 01-.55 0H84.2a.85.85 0 00-.22 0 .33.33 0 01-.22 0h-.14a.82.82 0 01-.49 0 1.27 1.27 0 00-.58 0 .34.34 0 01-.2 0 .26.26 0 00-.15 0h-.11a1.36 1.36 0 00-.45 0h-.16a1.26 1.26 0 00-.58 0 1.75 1.75 0 01-.4 0 1.66 1.66 0 01-.22 0 .57.57 0 00-.13 0 .07.07 0 00-.05 0 .24.24 0 000 .09.22.22 0 000 .08 1.21 1.21 0 010 .19v.13h6.96a1.86 1.86 0 00.33 0 1.15 1.15 0 01.32 0 .66.66 0 00.24 0h22.57a1.88 1.88 0 01.34 0c.27.05.55 0 .82 0h.67a.55.55 0 00.18 0 1.3 1.3 0 01.52 0h.13a1.38 1.38 0 01.2 0h.38a1.22 1.22 0 01.38 0h3.47a4.32 4.32 0 01.8 0h.9a1.62 1.62 0 01.22 0 14.42 14.42 0 001.61 0 4.51 4.51 0 01.52 0 5 5 0 00.67 0h6.56a.3.3 0 00.22-.09.43.43 0 00.07-.26z"/><path d="M79.8 2.54v16.81h.47v-.44a7.69 7.69 0 010-1 8.17 8.17 0 000-.86v-1.14a5.14 5.14 0 000-.68V.96c0-.25-.11-.46-.27-.39a.27.27 0 00-.12.25c0 .57-.06 1.15-.07 1.72zM0 15.29h2l.62-2.14H6l.64 2.14h2L5.33 5.22h-2L0 15.29zm3.91-6.61c.16-.53.4-1.55.4-1.55s.23 1 .39 1.55l.85 2.91H3.06l.85-2.91zm5.57 6.61h1.92V5.22H9.48v10.07zm3.39 0h1.92v-4h1.55A1.66 1.66 0 0118.2 13c.08 1.08.1 2.21.34 2.32h1.84v-.1C20.05 15 20.1 14 20 12.53c-.12-1.23-.57-1.76-1.44-2A2.3 2.3 0 0020.26 8a2.77 2.77 0 00-3.05-2.8h-4.34v10.09zm1.92-8.43h2.09a1.35 1.35 0 011.51 1.43c0 .8-.51 1.38-1.56 1.38h-2V6.86zm13 8.43h1.76V9.51c0-.81-.08-2.08-.08-2.08s.22 1.18.42 1.92l1.59 5.94h1.84L35 9.35c.2-.74.41-1.92.41-1.92s-.08 1.27-.08 2.08v5.78h1.78V5.22h-2.72l-1.34 5.06c-.33 1.26-.58 2.72-.58 2.72s-.26-1.46-.59-2.72l-1.37-5.06h-2.7v10.07zm10.09 0h2l.62-2.14h3.42l.64 2.14h2L43.19 5.22h-2L37.9 15.29zm3.87-6.61c.16-.53.4-1.55.4-1.55s.22 1 .38 1.55l.85 2.91h-2.5l.84-2.91zm5 6.61H49l2-3.68 1.93 3.68h2.24L52 10l2.78-4.79h-2.1L50.93 8.4l-1.78-3.18H47L49.83 10l-3.06 5.27zm18.66.21c2.66 0 3.63-2.08 3.63-5.17 0-3.27-1.35-4.89-3.76-4.89a3.29 3.29 0 00-3.42 3.38 3.19 3.19 0 003.25 3.4 2.53 2.53 0 002.1-1.06 3.94 3.94 0 01-.57 2.27 1.52 1.52 0 01-1.31.61A1.32 1.32 0 0164 13h-1.75a2.91 2.91 0 003.18 2.52zm-.05-4.83A1.71 1.71 0 0163.6 8.8 1.77 1.77 0 0165.39 7a1.79 1.79 0 011.82 1.87 1.77 1.77 0 01-1.83 1.85zm8.27 4.85c2.36 0 3.79-2 3.79-5s-1.43-5-3.78-5-3.8 2-3.8 5 1.47 5 3.79 5zm0-1.64c-1.35 0-1.92-1.36-1.92-3.41s.57-3.41 1.92-3.41 1.9 1.37 1.9 3.41-.55 3.41-1.9 3.41z"/></g></g></svg><svg width="162" height="41.31" viewBox="-1 -1 162 41.31" xmlns="http://www.w3.org/2000/svg"><g data-name="Layer 2"><g data-name="Layer 1"><rect width="160" height="39.31" rx="18.29"/><path d="M19.6 20.26a4.67 4.67 0 014.72-5 4.42 4.42 0 012.73.85 3.72 3.72 0 011.43 2.63h-2.37a1.73 1.73 0 00-1.81-1.51c-1.55 0-2.29 1.3-2.29 3s.89 3 2.31 3a1.77 1.77 0 001.86-1.59h2.37a3.78 3.78 0 01-1.16 2.45 4.15 4.15 0 01-3.06 1.08 4.66 4.66 0 01-4.73-4.91zm9.67-.02c0-2.86 1.84-5 4.73-5a4.64 4.64 0 014.74 5c0 2.87-1.84 5-4.74 5s-4.73-2.13-4.73-5zm7.06 0c0-1.74-.77-3.07-2.32-3.07s-2.33 1.33-2.33 3.07.79 3.07 2.33 3.07 2.32-1.31 2.32-3.07zm-2.64-7h2.5L34.77 15h-1.65zm6.24 2.2h3.19l1.16 4.19c.18.6.55 2.18.55 2.18s.37-1.58.53-2.18l1.18-4.19h3.21V25h-2.13v-6.72s-.34 1.43-.44 1.78l-1.38 5h-2l-1.36-4.94c-.11-.35-.44-1.79-.44-1.79V25h-2.07zm11.44 0h4.31a3.65 3.65 0 012.61.88 3.18 3.18 0 011 2.36A3 3 0 0156 21.81h-2.22V25h-2.41zm4.16 4.5a1.21 1.21 0 001.34-1.27 1.19 1.19 0 00-1.34-1.24h-1.75v2.51zm4.84-4.5H65c1.9 0 3.34 1 3.34 2.76a2.29 2.29 0 01-1.66 2.31 1.92 1.92 0 011.32 1.8c.2 1.25.07 2.46.4 2.58V25h-2.3c-.25-.15-.21-1.27-.36-2.22a1.4 1.4 0 00-1.59-1.37h-1.41V25h-2.37zm4.15 4.23c.93 0 1.42-.44 1.42-1.17s-.46-1.19-1.37-1.19h-1.83v2.36zm7.87-4.23h2.44L78.28 25h-2.49l-.56-1.73h-3.35L71.33 25H69zm2.29 6.14L74 19.27c-.16-.5-.38-1.35-.38-1.35s-.23.85-.39 1.35l-.74 2.31zm4.54-6.14h2.37V23h4.3v2h-6.67zm10.61 0h2.43L95.72 25h-2.49l-.57-1.73h-3.34L88.77 25h-2.38zm2.29 6.14l-.73-2.31c-.16-.5-.37-1.35-.37-1.35s-.23.85-.39 1.35l-.73 2.31zm4.08.42h2.39c.1 1 .73 1.36 1.87 1.36.77 0 1.54-.28 1.54-1s-.78-.92-2.09-1.25c-1.66-.38-3.41-.89-3.41-2.9s1.66-2.94 3.8-2.94 3.68.93 3.77 2.94h-2.31a1.36 1.36 0 00-1.54-1.15c-.83 0-1.38.36-1.38.9s.74.83 2.17 1.15c1.78.41 3.38 1 3.38 3s-1.71 3.12-3.92 3.12c-2.54.01-4.21-1.12-4.27-3.23zm14.54-6.56h2.44l3.45 9.56h-2.49l-.56-1.73h-3.34l-.55 1.73h-2.39zm2.26 6.14l-.72-2.31c-.16-.5-.38-1.35-.38-1.35s-.23.85-.39 1.35l-.74 2.31zm11.31 3.05a4.82 4.82 0 01-2.41.61c-2.89 0-4.71-2.13-4.71-5s1.82-5 4.71-5 4.72 2.13 4.72 5a5.24 5.24 0 01-1.1 3.36l1.09 1-1.1 1.17zm-1.54-1.48l-.87-.84 1.1-1.14.88.84a4.21 4.21 0 00.33-1.77c0-1.74-.75-3.07-2.3-3.07s-2.31 1.33-2.31 3.07.77 3.07 2.31 3.07a2.16 2.16 0 00.86-.16zm4.98-1.51v-6.2h2.37v6.28a1.44 1.44 0 001.65 1.56 1.48 1.48 0 001.62-1.6v-6.24h2.37v6.2c0 2.21-1.33 3.54-4 3.54s-4.01-1.31-4.01-3.54zm9.54-6.2h2.37V25h-2.37zm.87-2.21h2.5L139.24 15h-1.66z" fill="#fff"/></g></g></svg><svg width="21.35" height="14.92" viewBox="-1 -1 21.35 14.92" x="131.19" y="41.31" xmlns="http://www.w3.org/2000/svg"><g data-name="Layer 2"><path d="M5.84 5H4.59l.1-2.23L3.84 5H2.57l1.88-5h1.37l-.16 2.14.8-2.14h1.22L5.84 5zm.28 0h1.26l1.83-5H8L6.12 5zm7.5-.53l5.73-1.41L4.53 9.13C3.2 9.67 1.41 10 .38 8.8A2 2 0 01.11 7a9.75 9.75 0 012.44-3.82c-.51 1-.93 2.5.23 3.32a2 2 0 001.6.26l7-1.73H9.67V3.19a.17.17 0 00-.06.08L8.92 5H7.64l1.88-5h1.24l-.48 1.32L11.43 0H15l-.34 1h-1.1l-.38 1h1.11l-.29.83h-1.15L12.4 4h1.39l-.17.46zm-2.84.29L12.49.23l-1.82 2.12.11 2.43zm-7.72 7.7l-.2.43h-.24l.84-1.79.83 1.79h-.23l-.2-.43zm.4-.89l-.31.69h.62l-.31-.69zM9 11.19h-.18v1.73H9v-1.73zm5.8 1.73h-.27l-.51-.73H14v.73h-.22V11.2H14a.94.94 0 01.47.08.49.49 0 01-.2.89l.56.75zM14 12c.22 0 .46 0 .46-.31s-.26-.31-.48-.31V12z" fill="#fff" data-name="Layer 1"/></g></svg><svg width="111.38" height="15.81" viewBox="-1 -1 111.38 15.81" y="63.05" xmlns="http://www.w3.org/2000/svg"><g data-name="Layer 2"><path d="M42.75 13.46h2.62V8.13h5.6V5.89H48.2a.91.91 0 00-.23 0 4.75 4.75 0 01-.54 0H45.3v-3.1h3.15a3.38 3.38 0 00.45 0c.12 0 .33-.15.44-.1s.08.1.18.13a1.15 1.15 0 00.37 0c.1 0 .12-.12.25-.1s.11.08.18.1h1.59V.6L42.64.58v4.88c0 .63.11 1.23.11 1.87v.49c0 .17.09.3.1.47a2.18 2.18 0 01-.15.71 1.25 1.25 0 000 .51c0 .09.07.05.06.19a2.44 2.44 0 00-.07.46v3.28zm15.68.08c3.29 0 5-1.65 5-4.4V2.31a2.58 2.58 0 000-.29V.38h-2.61V3.3a5 5 0 00.06 1.09 1 1 0 010 .24.52.52 0 010 .21 1.1 1.1 0 000 .16v.17a1.23 1.23 0 010 .33 1.87 1.87 0 000 .58 3 3 0 010 .52v2.52a2.17 2.17 0 01-2.42 2.33c-1.74 0-2.42-.92-2.43-2.25L55.84.47h-2.61v4.58c0 .07 0 .14.07.22a1.52 1.52 0 010 .67 2.56 2.56 0 00-.05.27 1.37 1.37 0 000 .35 5.33 5.33 0 010 .56v2.12c0 2.8 1.78 4.35 5.12 4.32zm6.1-10.95h3.87v1a1.71 1.71 0 010 .39v9.33h2.61L71 2.53h.65c.19 0 .13-.06.22 0h3V.33L64.51.39v2.2zm16.73 10.75c3.3 0 5-1.65 5-4.4L86.14.2h-2.61v1.62a2.5 2.5 0 010 .61 7.09 7.09 0 000 .8v5.65a2.16 2.16 0 01-2.41 2.33A2.09 2.09 0 0178.76 9L78.68.27h-2.61v3.42a9.41 9.41 0 000 1.3.88.88 0 010 .16 3.14 3.14 0 010 .53 1.93 1.93 0 010 .34.89.89 0 000 .23.41.41 0 010 .11v1.31a3.11 3.11 0 010 .61 1.42 1.42 0 000 .2 2.72 2.72 0 000 .28V9c0 2.8 1.78 4.35 5.11 4.32zm9.38-11.07h2.85c1.39 0 2.06.76 2.07 1.81s-.69 1.77-2.11 1.78h-2.78V3.89a2.46 2.46 0 000-.28V2.27zm-2.51 10.79h2.61V7.89h2.11A2.2 2.2 0 0195.34 10c.12 1.38.17 2.82.49 3h2.51v-.12l-.12-.09a.46.46 0 01-.09-.15 1.93 1.93 0 01-.13-.47c-.09-.5-.11-1-.15-1.52v-.46a4.81 4.81 0 00-.07-.53 1.11 1.11 0 010-.25.92.92 0 000-.37 1.29 1.29 0 000-.19s-.06-.07-.08-.11a.2.2 0 010-.15v-.17a.48.48 0 000-.17c-.06-.07 0-.12-.06-.2a1.6 1.6 0 00-.28-.4 2.12 2.12 0 00-.76-.57 3.51 3.51 0 00-.57-.21 3 3 0 002.33-3.14c0-2.14-1.68-3.57-4.17-3.55H88V4.7a18 18 0 000 1.8v.34a3.3 3.3 0 01.07.77v1.3a4.58 4.58 0 010 .64v3.46zM99.85 13l9.53-.08v-2.18l-6.92.06V7.32h2.06a4 4 0 01.49 0h3.35V5.18h-6V2.3h1.93a3.23 3.23 0 00.54 0h.44a10.07 10.07 0 011.1 0h1.22a1.32 1.32 0 01.28 0 3.23 3.23 0 00.44 0h.91V.1L99.74.08v7.05a2.28 2.28 0 010 .26 5.78 5.78 0 000 .93v1.13a.24.24 0 010 .08v.51a3 3 0 000 .42v.15c0 .05-.07.21-.06.32a2.34 2.34 0 000 .26v1.64m-73.21-1.26V8.1l6 .05V6.01h-6V3.12l6.86.06V.99h-1.66L31 .92h-3.43a6.94 6.94 0 01-.79 0H24v3.5a5.3 5.3 0 000 .69v.12a1.92 1.92 0 010 .24V6.6a2.43 2.43 0 000 .27v6.88l9.53.08v-2.17h-5.16a.17.17 0 01-.1 0h-1.68m-15 2h2.61L14.24 8h5.06l-.05 5.67h2.61L22 .84h-2.62v2.27a2.38 2.38 0 010 .38 1.69 1.69 0 000 .32v.51a1.47 1.47 0 010 .47 3 3 0 000 .52v.55l-5.06-.05v-5h-2.61v3.22a2.85 2.85 0 010 .29 2.62 2.62 0 000 .28 1.51 1.51 0 010 .3v1.29m-7.93 7.37h2.61L6.48 2.9h3.88V.7H8.52a3.31 3.31 0 01-.44 0H4.81L3.08.67H0v2.2h3.87V4.6a.68.68 0 000 .14.65.65 0 010 .14 2.54 2.54 0 010 .39v3.55a1.49 1.49 0 000 .21.5.5 0 010 .21v.23a1.12 1.12 0 000 .32v3.76" data-name="Layer 1" fill="#fff"/></g></svg><svg width="16.64" height="15.4" viewBox="-1 -1 16.64 15.4" x="103.28" y="93.87" xmlns="http://www.w3.org/2000/svg"><g data-name="Layer 2"><path d="M9.6 13.4h.2a6.07 6.07 0 00.85-.06 7.27 7.27 0 00.79-.14 5.88 5.88 0 00.71-.23 4.9 4.9 0 00.65-.32 3.78 3.78 0 00.56-.4 4.25 4.25 0 00.47-.48 3.39 3.39 0 00.37-.56 3 3 0 00.26-.64 4.27 4.27 0 00.15-.71 1.58 1.58 0 000-.38.49.49 0 010-.14.76.76 0 000-.15 2.27 2.27 0 00-.06-.25v-.1a1.33 1.33 0 010-.2.84.84 0 000-.27 2.83 2.83 0 00-.17-.4 2.44 2.44 0 00-.1-.24 1.19 1.19 0 01-.09-.15.49.49 0 000-.11 2.31 2.31 0 00-.2-.24l-.12-.16-.19-.13-.18-.17-.25-.24a1.22 1.22 0 00-.25-.2 3 3 0 01-.31-.15 8.39 8.39 0 00-1.27-.46c-.48-.14-1-.26-1.45-.37-1.97-.43-2.91-.74-2.9-1.79S8 2.06 9.41 2.07a2.23 2.23 0 012.47 2h2.5c-.18-2.6-2-4-4.94-4.06a8.65 8.65 0 00-1 .05 7.58 7.58 0 00-.94.16 4.66 4.66 0 00-.82.28 4.24 4.24 0 00-.75.42 3.47 3.47 0 00-.72.66l-.08.09L5 1.9c0 .06 0 .13-.08.19a1.48 1.48 0 00-.17.41 1 1 0 000 .16c0 .09-.06.17-.08.25s0 .08 0 .11v.14a.79.79 0 000 .13v.4a1.83 1.83 0 000 .47 3.06 3.06 0 000 .32 3.5 3.5 0 00.15.64 2.88 2.88 0 00.61 1 3.69 3.69 0 00.93.69 6.5 6.5 0 001.17.47c.43.14.87.25 1.31.36H9c2 .47 3.19.73 3.18 2s-1.19 1.65-2.52 1.64c-1.84 0-2.72-.64-2.88-2.19H4.22a4.94 4.94 0 00.19 1.27.76.76 0 00.06.16.44.44 0 00.08.11c0 .07.09.14.15.21a.66.66 0 01.17.23 2.5 2.5 0 01.09.25l.1.15a.37.37 0 00.07.12c.14.15.26.32.41.47l.17.14a.1.1 0 00.05 0s.06 0 .09.07a1 1 0 00.1.11 1.69 1.69 0 00.32.19 4.28 4.28 0 00.69.31 7.15 7.15 0 001.66.38 9.82 9.82 0 001.09.06zM0 13h2.61V9.42a.93.93 0 000-.29v-.11a.75.75 0 010-.21v-1.2c0-.1 0-.28.05-.42a3.85 3.85 0 000-.48V.18L.11.15 0 13z" fill="#fff" data-name="Layer 1"/></g></svg><svg width="17.1" height="15.01" viewBox="-1 -1 17.1 15.01" x="103.28" y="78.86" xmlns="http://www.w3.org/2000/svg"><g data-name="Layer 2"><path d="M4.61 12.92h2.58v-8.9s.49 1.11.9 1.79L12.46 13H15V8.5a11.25 11.25 0 000-1.74 9.57 9.57 0 010-1.07 4.51 4.51 0 010-.52c0-.12.05-.22.06-.34V.13h-2.58l-.06 6.75c0 .9.06 2.24.06 2.24S12 8 11.59 7.29L7.37.06 4.72 0v2.45a10.1 10.1 0 000 1.23 1.24 1.24 0 010 .47 4.86 4.86 0 000 .54V5a2.28 2.28 0 010 .26v7.64zM0 12.88h2.61v-6.7a1.91 1.91 0 000-.48v-.23a1.79 1.79 0 010-.23 1.28 1.28 0 000-.39 1.43 1.43 0 010-.29v-.48a1 1 0 000-.18V0H.11v5.46C.11 6.15 0 6.9.06 7.63v1.59a8.17 8.17 0 010 .86 3 3 0 000 .42v2.4z" fill="#fff" data-name="Layer 1"/></g></svg><svg width="35.58" height="15.14" viewBox="-1 -1 35.58 15.14" x="111.38" y="63.05" xmlns="http://www.w3.org/2000/svg"><g data-name="Layer 2"><path d="M24.05 13h2.44a2.71 2.71 0 01.4 0h1.72a1.82 1.82 0 00.33 0h2.31c.15 0 2.31-.05 2.31 0v-2.18l-6.92.06V7.41h1.58a1 1 0 01.24 0 2.06 2.06 0 00.35 0h.5a2.86 2.86 0 00.28-.07 5.66 5.66 0 011 0h2.06V5.2h-4.33a1.55 1.55 0 00-.31 0h-1.38V2.32l6.86-.06V.06h-1.82a5.18 5.18 0 00-.88 0h-.6a.76.76 0 00-.26 0c-.28.05-.58 0-.86 0h-.59a6 6 0 00-.84 0 4 4 0 01-.69 0h-1.09a2 2 0 01-.24 0h-1.68v4.86a1.2 1.2 0 000 .19.42.42 0 010 .16 2.44 2.44 0 000 .27 1 1 0 010 .18v.81A3 3 0 0024 7v1.3a1.36 1.36 0 000 .29V13zm-9.67-1.51v.07-4.11h5.06l.02 5.55h2.61V5.4a6.28 6.28 0 000-.87 2.18 2.18 0 010-.44A1 1 0 0122 3.8a1.61 1.61 0 000-.31V.1h-2.62l.05 5h-5.06l-.05-5h-2.61v5.39a2.89 2.89 0 010 .29c0 .13.07.21.11.32a1.71 1.71 0 010 .45v.36a2.17 2.17 0 000 .36v5.8h2.62V8.55M0 2.49h3.87L4 13.14h2.61V9.23a1.67 1.67 0 010-.32 1.75 1.75 0 000-.32v-1c0-.27 0-.67-.06-1a1.34 1.34 0 010-.2 1.33 1.33 0 000-.21v-.44a2.4 2.4 0 010-.46.73.73 0 000-.36 2.91 2.91 0 010-.42v-2h3.88V.31H7.76a5.23 5.23 0 00-.56 0H7a1.37 1.37 0 00-.19 0H5.26c-.27 0-.26-.08-.4-.08H2.28C1.52.25.76.28 0 .3v2.19z" fill="#fff" data-name="Layer 1"/></g></svg></svg>