<svg width="241" height="128" xmlns="http://www.w3.org/2000/svg" xmlns:xlink="http://www.w3.org/1999/xlink"><svg width="109" height="50.39" viewBox="-1 -1 109 50.39" y="38.37" xmlns="http://www.w3.org/2000/svg"><g data-name="Layer 2"><g data-name="Layer 1" fill="#fff"><path d="M55.1 32.57l-.07.07a1 1 0 000 .17V33a.94.94 0 000 .16 1.06 1.06 0 01-.13.39c-.06.11-.14.21-.21.33s0 .1 0 .16a.6.6 0 01-.06.11.61.61 0 00-.13.22.92.92 0 01-.06.33s-.05.05-.07.09a1.88 1.88 0 01-.14.24 1.09 1.09 0 00-.11.1l-.05.12c-.06.1-.13.19-.18.29s0 .1-.08.16a.53.53 0 000 .19c-.06.24-.16.49-.24.73s-.19.51-.29.77l-.24.59a4.71 4.71 0 01-.21.52l-.11.22a1.48 1.48 0 01-.14.25c-.05.08-.08.17-.13.25a.24.24 0 000 .1.22.22 0 010 .11.76.76 0 00-.11.35.72.72 0 01-.34.22.21.21 0 010 .07v.13a.59.59 0 01-.07.26 2.3 2.3 0 01-.15.32.56.56 0 00-.12.31c0 .22-.24.32-.34.49s0 .1-.07.15 0 0 0 .07a1.21 1.21 0 00-.08.25.93.93 0 01-.15.47 1 1 0 00-.13.22 1.71 1.71 0 01-.09.3 1.74 1.74 0 00-.11.18.28.28 0 010 .13c0 .08-.08.15-.11.22a1.43 1.43 0 01-.15.27s-.09.09-.08.12.25 0 .19 0h.08s-.1.06-.13.07a.37.37 0 00-.17.1 1.15 1.15 0 00-.18.37.33.33 0 00-.05.16c0 .07-.06.08-.1.13a1 1 0 00-.18.39 1.28 1.28 0 00-.07.28 1.28 1.28 0 01-.05.27.37.37 0 01-.1.24c-.05 0-.14.1-.17.17a.23.23 0 01-.11.16.58.58 0 00-.12.1.58.58 0 01-.17.21.93.93 0 00-.13.15.94.94 0 01-.29.2c-.05 0 0 0 0 .07s.13.14.19.2l.22.21.52.49.29.29a1.36 1.36 0 00.12.12c1.3.08 2.21-2.2 2.64-3.07s6.06-14.69 7.08-17 3.86-9.81 6.61-16.26S69.13 3 68.9 2.2 66.93 0 65.2 0s-4.33.38-17.9 7.62l-.6.32a2.74 2.74 0 01-.48.17c-.3.11-.43.51-.68.7a1 1 0 01-.56.13 1.42 1.42 0 00-.48.19 5.45 5.45 0 00-.68.35 2.66 2.66 0 00-.53.53 1 1 0 01-.65.24.83.83 0 00-.55.37 1.35 1.35 0 01-.3.37 1.08 1.08 0 01-.64.11 1 1 0 00-.66.28 6 6 0 01-.66.35c-.15.09-.22.23-.36.34a1.91 1.91 0 00-.33.25c-.25.34 0 .66-.49.82a1.14 1.14 0 01-.58 0c-.13 0-.31-.15-.45-.09s-.08.09-.12.13a1.42 1.42 0 01-.5.38 4.17 4.17 0 00-.77.28c-.17.11-.33.24-.51.35a4.13 4.13 0 00-.79.66 3.1 3.1 0 01-.78.61 3.91 3.91 0 00-.73.46.57.57 0 01-.57.17c-.46 0-.5.39-.74.68s-.25.14-.43.16a.62.62 0 00-.47.21 2 2 0 01-.68.44 3.39 3.39 0 00-.66.33c-.55.33-1.12.61-1.66 1-.74.49-1.48 1-2.21 1.48l-.7.48 7.54-1.61C35 17.59 44.62 12 53.2 7.48s12.22-5 12.85-5-.47 4.3-1.05 5.21-.12.91-.44 1.17a1 1 0 00-.23.81c-.47.43-.3.71-.42 1a7 7 0 00-.63 1.6c-.11.65-.83 1.13-.83 1.59a3.1 3.1 0 01-.37 1.17c-.13.32.12.43-.14.67a10.56 10.56 0 00-1.26 2.76 11.7 11.7 0 01-1.2 3c-.47.82-.1.71-.31 1a5 5 0 00-.48 1c-.08.19-.16.38-.22.57a2.05 2.05 0 00-.18.58.53.53 0 010 .12 1.24 1.24 0 000 .16s-.05.06 0 .13a.76.76 0 010 .15.43.43 0 01-.07.2c0 .08 0 .15-.06.22a.76.76 0 01-.24.34.83.83 0 00-.2.32 2 2 0 00-.13.42c0 .12-.09.22-.1.34a1 1 0 01-.05.29 1.33 1.33 0 00-.15.32 1.48 1.48 0 01-.21.61c0 .06-.14.11-.19.18l-.09.17-.13.2s-.05.06-.05.08-.06.17 0 .27-.06.22-.08.26-.13.28-.19.42-.16.24-.24.36-.27.46-.4.69-.21.45-.3.69l-.06.13a.86.86 0 000 .16.43.43 0 010 .17c0 .06-.07.14 0 .2s0 0 0 .1 0 .09-.05.14a.5.5 0 010 .12zM33.45 17.16a.07.07 0 000 .07l-.11.13h-.23c-.1 0 0-.05 0-.09v-.14c0-.06 0 0 .08 0h.18c.1 0 .09 0 0 .06zm1.82-.94h-.17a.07.07 0 01.08-.07h.17zm.43-.39v-.06h.08c.08 0 0 0 0 0zm.23-.2h-.05c-.05 0 0 0 0 0H36zM46.64 10h-.06c-.06 0 0 0 0 0v-.06c0-.06 0 0 .06 0zm.45-.37h.05zm.27-.25h-.07.06c.06 0 0 0 0 0zM53 6s0 .06-.07.06 0 0-.07.06-.1-.08 0-.12S53 6 53 6zm.69-.4a.85.85 0 01-.27 0c-.15 0 0 0 0 0h.15c.15 0 .2.06.12.07z"/><path d="M4.09 36.92a1.07 1.07 0 00.3.31 4.17 4.17 0 001.06.61c1 .27 2.15-.94 2.89-1.54l2.38-1.9c2-1.6 4.14-3.14 6.24-4.66 3.49-2.51 7-4.93 10.62-7.3 0 0 9.54-1.6 14.46-2.41s16-2.13 18 .16l.49-.73a6.08 6.08 0 00-5-2.93 152.41 152.41 0 00-23.09 2.56c-11 2-20.58 4.06-23.75 4.61s-3.73.72-5.38.91-2.86.16-3.33.52c0 0 0 .18.22.33s0 .32.32.72.58.38.76.76.4.32 1.34.21a28.92 28.92 0 005.62-.76c2.86-.72 11.26-2.34 12.31-2.51 0 0-5.59 3.92-7.39 5.31-1.4 1.07-2.78 2.15-4.17 3.24l-2.63 2a10 10 0 01-2.56 1.91c.15.24.19.42.29.58zM71.28 13c0 .43-.15.37.2.5s.63 0 .7-.27a6 6 0 00.42-1.52 3.09 3.09 0 00-1.17-1.47c-.44-.18-.74-.12-1.12-.25s-.41 0-.35.42-.15 1 .07 1.2a2.38 2.38 0 01.63.58l.22.4.18.23c0 .08.2 0 .22.18zm-6.66 14.17c0 .08-.08.13-.08.21s-.06.14-.09.18a.56.56 0 00-.11.2.94.94 0 00-.07.22.41.41 0 010 .11c0 .05-.06.09-.08.14a.09.09 0 000 .07v.08a1.24 1.24 0 00-.1.2c0 .06-.13.13 0 .17a1.2 1.2 0 01-.13.31c0 .07-.14.17-.14.26v.12c0 .07-.09.11-.11.17s0 .05 0 .07-.1.15-.14.23a2.33 2.33 0 01-.2.34c0 .07-.06.15-.1.22a1 1 0 01-.17.23 1.28 1.28 0 00-.16.28s-.09.12-.07.17-.06.13-.07.17 0 .09 0 .13-.18.18-.15.26 0 .08 0 .12 0 .05-.05.08a.64.64 0 000 .07c0 .06-.06.13-.08.2v.09a1.73 1.73 0 01-.07.31 4.64 4.64 0 01-.41.8c-.07.13-.11.27-.17.4s-.18.27-.26.41a2.55 2.55 0 00-.2.48c-.05.17-.06.35-.12.52l-.12.34c-.07.16-.15.31-.22.47s-.11.27-.17.4a4.22 4.22 0 00-.32.86c-.2.79-.37 1-.4 1.35s-.3.56-.23.85a.35.35 0 00.05.13s.13 0 .13.07.12 0 .16.11a.42.42 0 000 .1 1.86 1.86 0 00.23.32 2.31 2.31 0 00.2.24c.18.2.39.38.57.57.44.47.87 0 1.09-.34s1.15-3.73 1.74-4.95 3-6.93 3.28-7.56 2-4.89 2.41-6a4.39 4.39 0 00.31-2.26c-.15-.54-1-1-1.75-1.14s-.71.08-.68.5a4.07 4.07 0 01-.39 1.31 1.68 1.68 0 00-.14.87c.07.22-.23.49-.48.89a.49.49 0 000 .68c.11.18-.3.52-.39.83s-.33.14-.4.39-.1.41-.17.61a2.51 2.51 0 01-.16.46c-.06.14-.18.25-.24.4s0 .07 0 .09.13 0 .14 0 .18 0 .18.12-.07.1 0 .09-.22.14-.28.18a.67.67 0 00-.2.21c-.1.11-.18.25-.29.35 0 .06-.05.11-.07.16a1.53 1.53 0 00-.07.29zM107 5.06c0-.32-.12-.21 0-.46s-.16-.45-.25-.58 0-.11-.08-.35-.14-.13-.34-.25 0-.18 0-.18a6.57 6.57 0 00-2.56-2 9.24 9.24 0 00-4-.09c-.4.13-1.82.31-2.2.45a12 12 0 01-1.42.37c-.32.06-1.18.54-1.72.71a28.31 28.31 0 00-2.63 1.23 6.48 6.48 0 01-1 .63c-.2 0-.25.21-.43.39s-.22.06-.36.11-.26.23.08.31-.66.55-.8.62-.15 0-.13-.19-.51.19-.77.43a18 18 0 00-1.46 1.44c-.21.3.12.56-.09.63A2.33 2.33 0 0086 9c-.1.2-.44 0-.5.27s-.34.43-.61.68-.22 0-.43.29a2.48 2.48 0 01-.6.62c-.09 0-.09.19 0 .39s-.28.32-.45.4a.49.49 0 00-.29.37c0 .12-.08.11-.34.26s-.09.32-.22.41a7.24 7.24 0 00-.93 1 9.91 9.91 0 00-.47 1 .91.91 0 01-.27.33v.16a3.8 3.8 0 00-.31.47c0 .11.27.18.17.23s-.31-.05-.35.25-.13.15-.27.23-1.61 2.14-1.84 2.46S77.19 20.73 77 21s-.44.22-.55.39.12.16 0 .36-.37.28-.49.7-.18.41-.32.53 0 .41-.14.47 0 .32 0 .45-.16 0-.3 0-.16.22-.17.35a.5.5 0 01-.15.38.52.52 0 00-.21.41c0 .16-.12.48-.22.51s-.09 0-.26.37a1.42 1.42 0 01-.28.44v.47c0 .26-.11.34-.26.27s-.21.22-.19.49a.54.54 0 01-.23.52c-.16.14-.08.57-.11.8s-.13.07-.3.14-.21.49-.24.67-.09 0-.25.09 0 .22-.11.38a1.43 1.43 0 00-.27.46 1.45 1.45 0 01-.16.42c-.08.08 0 .21-.07.35s0 0-.14.22 0 .38-.16.61a.75.75 0 00-.15.53c0 .16-.23.42-.42.58s-.28.57-.43.87 0 .32-.14.6 0 .44-.28.62-.29.73-.34.77 0 .25-.11.41a2.59 2.59 0 01-.23.7 2.56 2.56 0 00-.4 1c0 .26-.08 0-.09.24s.07.2-.19.51a1.49 1.49 0 00-.24.58c0 .1-.06.2-.08.3s0 .23 0 .35-.11.28-.15.42A.34.34 0 0168 41a.65.65 0 000 .36 2.48 2.48 0 010 .27c0 .29-.1.57-.14.86a2.84 2.84 0 01-.32 1c-.26.54.16.91.42 1.25a3.92 3.92 0 01.71 1.12c.19.51 1.42.1 1.48-.14a8.92 8.92 0 00.19-1.42c0-.17.21-.47.21-.65v-1.06c0-.41.24-1.3.33-1.93a19.42 19.42 0 01.61-2.29c.11-.38.91-2.09 1-2.39s.28-.76.3-.81.13-.31.22-.63.83-1.72.92-1.9.6-1.36.74-1.57.18-.57.45-1.13.24-.49.23-.55 0-.21 0-.29a1.72 1.72 0 00.27-.65c.1-.34 1.87-3.29 2-3.58s.19-.29.28-.5.09-.4.17-.62a4 4 0 01.66-.84c.09-.08.08-.17.13-.26a.66.66 0 00.07-.26.7.7 0 01.07-.31c.07-.18.16-.1.29-.23a3.69 3.69 0 00.43-.76c.17-.31.81-1.16 1-1.54a13.16 13.16 0 01.87-1.41 15.6 15.6 0 001.27-1.64c.44-.69 2.63-3.55 3.17-4.09a40.78 40.78 0 014-4.05 27.49 27.49 0 014.55-2.77A5 5 0 0196 5c.69-.14 3.58-1.36 5.85-1.47s2.41.15 2.53.25 0 .79-.1 1.1-.45 1.09-.48 1.21-.16.12-.15.39 0 .43-.13.51a1.2 1.2 0 00-.51.44c-.1.19 0 .43-.09.59s-.41.39-.41.56-.24.32-.35.54-.25.15-.4.16-.18.37-.26.57a2.1 2.1 0 01-.34.5h-.05c-.31 0-.46.4-.58.44s-.14.28-.27.41-.6.24-.64.54a.63.63 0 01-.45.53c-.17 0-.84.81-1 1s-1.8 1.54-2 1.7a8.1 8.1 0 00-.72.71c-.07.15-1.24.89-1.42 1.07a8.87 8.87 0 00-.85.65 14.8 14.8 0 01-1.48 1.3 3.72 3.72 0 00-.76.6 11.9 11.9 0 01-1.09.84 6.66 6.66 0 01-.93.77c-.28.14-.47.53-.78.66s-1.12.8-1.4.92-.24.17-.34.31-.2.17-.41.23a8.07 8.07 0 00-1.32 1c-.16.16-1.07 1-1.23 1.09a1.84 1.84 0 00-.49.38c-.11.15-.19 0-.26.2a.91.91 0 01-.27.38c-.1.08-.6.56-.71.66s-.58.75-.73.77-.08.27-.2.36-.36.55-.52.72-.11.24-.11.39-.09.07-.19.24-.45 1-.52 1.09a1.59 1.59 0 00-.15.42c0 .25-.1.13-.16.32s.06.21.14.24 0 .12 0 .16-.11.24 0 .32-.1.08-.18.32a2.68 2.68 0 00.17 1 2.9 2.9 0 01.18.73c0 .35.34.56.44.85a2.38 2.38 0 00.34.82c.19.25.21.54.42.69s.2.13.22.38.21.24.27.36a6.06 6.06 0 001 1.12c.16.06.17.08.22.2s.9 1.07 1.21 1.08-.06-.13.45.3a31.87 31.87 0 004.73 2.09c.67.2 1.6.3 2 .39a1.2 1.2 0 00.91-.11c.43-.16.91.27 1.51.37a14 14 0 003-.22c.2-.08.14-.64.14-.64h-.58c-.27 0-.24-.2-.76-.52a8.49 8.49 0 00-2.79-.48 17.27 17.27 0 01-5.72-1.78c-3.33-1.51-3.5-2.19-4.49-4.19S82 30.62 83 29.34a29.29 29.29 0 015.58-4.92c2.88-2.1 8.57-6.82 11.72-9.6a29.23 29.23 0 005.6-6.53 7.2 7.2 0 001.1-3.23zM94 41.23l.2-.09c.21-.08.14 0 .21 0s0 0 0 .11-.11 0-.19.1 0 .22-.1.21-.09-.09-.29-.27 0-.08.12-.1z"/></g></g></svg><svg width="90.92" height="27.42" viewBox="-1 -1 90.92 27.42" x="150" xmlns="http://www.w3.org/2000/svg"><g data-name="Layer 2"><path d="M.05 14.85h2.19l.7-2.4h3.84l.71 2.4h2.25L6 3.54H3.76L.05 14.85zM4.4 7.43c.17-.6.44-1.74.44-1.74s.25 1.14.43 1.74l1 3.26H3.44l1-3.26zm6.24 7.42h2.16V3.54h-2.16v11.31zm3.81 0h2.16v-4.54h1.74a1.86 1.86 0 012.08 1.93c.09 1.22.12 2.48.39 2.61h2.06v-.11c-.37-.17-.31-1.39-.46-3-.13-1.38-.64-2-1.62-2.28a2.59 2.59 0 001.95-2.74 3.12 3.12 0 00-3.42-3.15h-4.88v11.28zm2.16-9.46H19A1.51 1.51 0 0120.65 7c0 .9-.58 1.55-1.75 1.55h-2.29V5.39zm14.6 9.46h2V8.37c0-.92-.09-2.34-.09-2.34s.24 1.32.46 2.15l1.79 6.67h2.07l1.83-6.67c.22-.83.46-2.15.46-2.15s-.09 1.42-.09 2.34v6.48h2V3.54h-3.03L37.1 9.22c-.37 1.42-.65 3-.65 3s-.3-1.63-.67-3l-1.5-5.68h-3v11.31zm11.34 0h2.18l.7-2.4h3.84l.72 2.4h2.24L48.48 3.54h-2.23l-3.7 11.31zm4.34-7.42c.18-.6.45-1.74.45-1.74s.25 1.14.43 1.74l1 3.26h-2.83l1-3.26zm5.61 7.42H55l2.2-4.13 2.17 4.13h2.51l-3.52-5.93 3.12-5.38h-2.35l-2 3.58-2-3.58h-2.38l3.18 5.4-3.43 5.91zm20.94.24c3 0 4.08-2.34 4.08-5.81 0-3.67-1.52-5.48-4.23-5.48a3.69 3.69 0 00-3.83 3.79 3.57 3.57 0 003.64 3.81 2.9 2.9 0 002.37-1.18 4.48 4.48 0 01-.64 2.54 1.7 1.7 0 01-1.48.68 1.47 1.47 0 01-1.54-1.18h-2a3.27 3.27 0 003.57 2.83zm-.06-5.43a1.92 1.92 0 01-2-2.1 2 2 0 012-2.07 2 2 0 012 2.1 2 2 0 01-2.06 2.07zm9.28 5.44c2.65 0 4.26-2.21 4.26-5.66s-1.61-5.66-4.24-5.66S78.41 6 78.41 9.44s1.65 5.66 4.25 5.66zm0-1.83c-1.52 0-2.16-1.53-2.16-3.83s.64-3.83 2.16-3.83 2.13 1.54 2.13 3.83-.61 3.83-2.13 3.83zm-35.1 9.5h.3v-2.86s.19.33.34.56l1.52 2.3h.32v-3.31h-.29v2.87s-.16-.3-.33-.55l-1.52-2.32h-.34v3.31zm3.1 0H51v-3.31h-.31v3.31zm.92 0h.31V21.6l.59-.58 1.3 1.75h.37l-1.46-2 1.38-1.35h-.4l-1.78 1.76v-1.72h-.31v3.31zm2.88 0h2.3v-.29h-2v-1.29h1.78v-.27h-1.77v-1.19h1.94v-.27h-2.25v3.31zm4.6.06c.7 0 1.17-.38 1.17-1s-.53-.85-1.17-1-.9-.23-.9-.63.3-.6.81-.6a.78.78 0 01.86.7h.3a1 1 0 00-1.17-1c-.66 0-1.1.35-1.1.87s.43.76 1 .88 1 .26 1 .73-.36.69-.84.69a.91.91 0 01-1-.88h-.31a1.18 1.18 0 001.33 1.14zm1.63-.06H61v-1.44h.95c.69 0 1.05-.33 1.05-.94a.86.86 0 00-.23-.64 1 1 0 00-.78-.29h-1.3v3.31zm.3-1.7v-1.34h1c.47 0 .73.24.73.66s-.23.68-.76.68zm3.83 1.48c-.79 0-1.21-.64-1.21-1.44s.42-1.44 1.21-1.44 1.18.64 1.18 1.44-.43 1.44-1.22 1.44zm0 .28a1.56 1.56 0 001.54-1.72 1.54 1.54 0 10-3.07 0 1.56 1.56 0 001.53 1.72zm2-.06h.31v-1.48h1c.48 0 .68.16.71.74s0 .69.12.74h.33c-.06 0-.12-.18-.14-.71s-.14-.76-.48-.88a.75.75 0 00.55-.8.84.84 0 00-.93-.89h-1.47v3.31zm.31-1.77v-1.3h1.1c.5 0 .69.24.69.65s-.25.65-.73.65zm3.45 1.74h.31v-3H72v-.28h-2.54v.28h1.12v3zm2.86.06c.69 0 1.16-.38 1.16-1s-.53-.85-1.17-1-.9-.23-.9-.63.31-.6.81-.6a.78.78 0 01.86.7h.3a1 1 0 00-1.16-1c-.66 0-1.11.35-1.11.87s.43.76 1 .88 1 .26 1 .73-.36.69-.85.69a.91.91 0 01-1-.88h-.28a1.19 1.19 0 001.34 1.14zm2.16-.06h.33l.65-2.41.12-.54s.07.33.13.54l.63 2.41h.31l.9-3.31h-.31l-.58 2.23c-.06.24-.15.65-.15.65s-.09-.4-.15-.64l-.61-2.24h-.33l-.6 2.25c-.07.23-.16.63-.16.63s-.09-.41-.15-.65l-.57-2.23h-.32l.87 3.31zm3.43 0h2.3v-.29h-2v-1.26h1.77v-.27h-1.76v-1.19h1.94v-.27H79v3.31zm2.53 0h.31l.39-1h1.44l.38 1h.33l-1.25-3.31h-.35l-1.25 3.31zm.79-1.3l.46-1.23c.08-.2.17-.49.17-.49s.09.3.16.49l.45 1.23zm2.4 1.3h.3v-1.45h1c.48 0 .68.16.71.74s0 .69.12.74h.33c-.06 0-.12-.18-.14-.71s-.14-.76-.48-.88a.75.75 0 00.56-.8.84.84 0 00-.94-.89h-1.46v3.31zm.3-1.74v-1.3h1.1c.5 0 .69.24.69.65s-.25.65-.73.65zM.16 22.77h2.05v-.28H.5c.06-.44.46-.68.83-.9s.92-.5.92-1.13a.9.9 0 00-1-.92 1.07 1.07 0 00-.77.28 1.08 1.08 0 00-.28.8h.3A1 1 0 01.73 20a.72.72 0 01.53-.2.63.63 0 01.68.68c0 .46-.29.61-.72.87S.17 22 .16 22.77zm3.6-.2c-.57 0-.87-.54-.87-1.39s.3-1.39.87-1.39.86.54.86 1.39-.29 1.39-.86 1.39zm0 .26c.76 0 1.18-.64 1.18-1.65s-.46-1.65-1.17-1.65-1.17.63-1.17 1.65.4 1.65 1.15 1.65zm1.48-.06h2.04v-.28H5.57c.06-.44.47-.68.83-.9s.92-.5.92-1.13a.9.9 0 00-1-.92 1.07 1.07 0 00-.77.28 1.08 1.08 0 00-.28.8h.31A.93.93 0 015.8 20a.72.72 0 01.53-.2.63.63 0 01.69.68c0 .46-.3.61-.73.87s-1 .61-1.06 1.43zm3.6-.2c-.57 0-.84-.57-.84-1.39s.3-1.39.86-1.39.86.54.86 1.39-.29 1.39-.86 1.39zm0 .26c.75 0 1.17-.64 1.17-1.65s-.45-1.65-1.17-1.65-1.17.63-1.17 1.65.42 1.65 1.17 1.65zm80.08 2.1a.28.28 0 00-.17-.25.53.53 0 00-.12 0 5.1 5.1 0 00-.68 0 .33.33 0 01-.17 0 6.25 6.25 0 00-1 0h-.12a6.18 6.18 0 00-1.29 0 1.31 1.31 0 01-.28 0H74.14a2.12 2.12 0 00-.44 0 1.13 1.13 0 01-.41 0 2.75 2.75 0 00-.64 0 3.31 3.31 0 01-.77 0 .44.44 0 00-.16 0 2.69 2.69 0 01-.85 0 2.18 2.18 0 00-.57 0 1.8 1.8 0 01-.4 0h-9.64a2.18 2.18 0 01-.57 0H57a2.68 2.68 0 00-.4 0 1.08 1.08 0 01-.4 0 1.62 1.62 0 00-.49 0 1.09 1.09 0 01-.36 0 5.35 5.35 0 00-1.13 0h-.77a2.84 2.84 0 01-.77 0h-.2a6.29 6.29 0 01-1 0c-.23 0-.46-.05-.69 0s-.73 0-1.09 0a13.42 13.42 0 01-1.42 0h-7.25c-.46 0-.94-.06-1.41 0h-.73c-.48 0-1 .06-1.46 0a1.41 1.41 0 00-.2 0l-.89.05a4.81 4.81 0 00-.85 0 .12.12 0 01-.08 0 .93.93 0 00-.44 0 .65.65 0 01-.24 0 1.37 1.37 0 00-.57 0 2.11 2.11 0 01-.36 0h-2.39a4.4 4.4 0 01-.81 0 .66.66 0 00-.28 0 4.27 4.27 0 01-1 0H7.47a2.85 2.85 0 00-.41 0 1.08 1.08 0 01-.4 0 .65.65 0 00-.24 0 2.66 2.66 0 01-.89 0 4.1 4.1 0 00-1 0 1.09 1.09 0 01-.36 0 .88.88 0 00-.28 0h-.2a4.38 4.38 0 00-.81 0 1.27 1.27 0 01-.28 0 4.11 4.11 0 00-1 0 4.53 4.53 0 01-.73 0h-.4a1.85 1.85 0 00-.23 0 .14.14 0 00-.09 0v.09c0 .02-.15.18-.15.18a1.21 1.21 0 010 .19v.15h12.64l.61-.05a3.51 3.51 0 01.56 0 3.42 3.42 0 00.45 0h41.48c.5.05 1 0 1.5 0h1.54a3.62 3.62 0 01.93 0H61a4 4 0 01.69 0 1 1 0 00.24 0H68a14 14 0 011.45 0h4.87a7.24 7.24 0 01.93 0h13.14a.89.89 0 00.39-.09.31.31 0 00.14-.28zm-.25-8.12a1.17 1.17 0 00-.33 0h-.44L84 16.8c-.65 0-1.31 0-2-.06a9.5 9.5 0 00-1.6 0 5.23 5.23 0 01-.69 0c-1 0-2 0-3-.05a12.34 12.34 0 00-1.49 0 29.82 29.82 0 01-3 0H70.4a14.59 14.59 0 00-1.62 0 1.68 1.68 0 01-.45 0 2.37 2.37 0 00-.88 0 6.7 6.7 0 01-.91 0H51.55c-1.3 0-2.69-.05-4 0h-5.19a5.48 5.48 0 00-.81 0H38.1c-1.19 0-2.38.06-3.57 0H27.4a11 11 0 01-1.72 0h-3.61a11 11 0 01-1.15 0h-1a12.71 12.71 0 01-1.38 0H9.3a8.8 8.8 0 00-1 0H.57c-.41 0-.61.13-.52.31a.35.35 0 00.3.13q1 0 2.07.06h31.24a12.5 12.5 0 011.5 0 17.88 17.88 0 002.07 0c1.39-.07 2.77-.05 4.15 0h.46c1.62-.05 3.23 0 4.85 0h3.34c1.2 0 2.39.05 3.58 0h5.07a14.12 14.12 0 001.84 0 14.12 14.12 0 011.84 0 18.29 18.29 0 002 0h2.48c1.23-.05 2.46 0 3.69 0a7.12 7.12 0 00.8 0c1.34-.06 2.69-.05 4 0h2.3c1 .05 2.08 0 3.11.05a26.71 26.71 0 013.1 0 3.53 3.53 0 00.46 0h4a1.38 1.38 0 00.29 0c.26-.05.15-.21.16-.3s0-.14-.08-.19zM82 .7h-2.1a8.61 8.61 0 01-.88 0 3.86 3.86 0 00-.68 0h-3.59a6.28 6.28 0 00-1.06 0h-4.38a.54.54 0 01-.18 0 2.1 2.1 0 00-.5 0h-.5a2.06 2.06 0 00-.26 0h-.18a1.89 1.89 0 00-.67 0 1 1 0 01-.24 0h-1.97a3.17 3.17 0 00-.44 0H54.32L51 .79H34.68a1.23 1.23 0 01-.33 0 1.4 1.4 0 00-.41 0 3.13 3.13 0 01-.44 0H21.52a.48.48 0 01-.12 0 1.76 1.76 0 00-.79 0c-.27-.06-.53 0-.8-.05a.93.93 0 00-.23 0 1 1 0 01-.35 0 3 3 0 00-1 0 .5.5 0 01-.21 0 3 3 0 00-.94 0 3.65 3.65 0 01-.47 0 1 1 0 00-.17 0 1.2 1.2 0 01-.5 0 .94.94 0 00-.47 0 .94.94 0 01-.47 0h-1.29a7.06 7.06 0 01-.92 0h-.85a8.58 8.58 0 00-1.24 0 .4.4 0 01-.11 0A3.76 3.76 0 009.5.77 1.19 1.19 0 019 .76a.81.81 0 00-.38 0h-.15a5.57 5.57 0 00-1 0H3.02L1.9.74A11.12 11.12 0 01.61.78 4.78 4.78 0 01.08.72S0 .65 0 .59s0-.3.14-.31h1.53a1.64 1.64 0 00.44 0 .58.58 0 01.26 0h.91a1.48 1.48 0 01.47 0 3.31 3.31 0 00.77 0 .66.66 0 01.2 0 .83.83 0 00.35 0 .82.82 0 01.27 0 .71.71 0 00.29 0A1.4 1.4 0 016 .22a1.86 1.86 0 00.47 0 .14.14 0 01.09 0 .73.73 0 00.44 0 1.13 1.13 0 01.26 0h.34a.76.76 0 01.26 0 1.9 1.9 0 00.53 0h.23a1.09 1.09 0 01.18 0 2.78 2.78 0 00.91 0 1.14 1.14 0 01.32 0 1.32 1.32 0 00.56 0 .5.5 0 01.21 0 3.58 3.58 0 00.73 0 5.76 5.76 0 00.59 0 3 3 0 011 0 8.34 8.34 0 011 0h1.59a4.28 4.28 0 01.62 0h.61a.51.51 0 00.24 0c.08 0 .14-.07.22 0a.13.13 0 00.12 0 .94.94 0 01.41 0h.47a2 2 0 00.76 0 .81.81 0 01.38 0 3.33 3.33 0 00.77.05.47.47 0 00.17 0 .64.64 0 01.41 0 1.71 1.71 0 00.5.06h2.47a.55.55 0 00.18 0 1.4 1.4 0 01.5 0h.29a1.9 1.9 0 00.53 0 2 2 0 01.76 0h.21a3.85 3.85 0 01.59 0h.14a.74.74 0 01.21 0 .57.57 0 00.26 0 1.94 1.94 0 01.76 0 1.3 1.3 0 00.65 0 .26.26 0 01.17 0 .61.61 0 00.3 0 1.36 1.36 0 01.29 0h15.87a2.3 2.3 0 00.74 0 .66.66 0 01.2 0 1.68 1.68 0 00.59 0h1.74a1.18 1.18 0 00.26 0 .81.81 0 01.41 0 .37.37 0 00.18 0 .5.5 0 01.32 0h.06a2.49 2.49 0 01.61 0h.8c.35.06.7 0 1.05 0h.42a.37.37 0 00.11 0h1a9.37 9.37 0 011.06 0h2.89a5.94 5.94 0 00.73 0h.12a3.69 3.69 0 01.47 0 7.09 7.09 0 001 0h.79a4.23 4.23 0 01.5.05 3.37 3.37 0 00.71 0h.14a1.75 1.75 0 00.56 0h.56a3.23 3.23 0 01.82 0 .62.62 0 00.27 0 .69.69 0 01.35 0 .57.57 0 00.29 0 1.51 1.51 0 01.3 0h1.97a1.13 1.13 0 00.41 0 .55.55 0 01.18 0h6a7.12 7.12 0 01.8 0 1 1 0 00.29 0 .94.94 0 01.41 0 1.44 1.44 0 00.62 0h.12a1.7 1.7 0 00.55 0 1.47 1.47 0 01.47 0 .61.61 0 00.3 0 1.66 1.66 0 01.32 0h8.18a3.29 3.29 0 01.94 0h.09a3.28 3.28 0 01.7 0 .24.24 0 00.12 0c.17-.07.33 0 .5 0a.16.16 0 01.09 0c.06 0 .11.13.12.25a.34.34 0 01-.1.27.45.45 0 01-.29.09H82z" data-name="Layer 1" fill="#fff"/></g></svg><svg width="150" height="38.37" viewBox="-1 -1 150 38.37" xmlns="http://www.w3.org/2000/svg"><g data-name="Layer 2"><g data-name="Layer 1"><rect width="148" height="36.37" rx="16.91"/><path d="M18.13 18.74a4.32 4.32 0 014.36-4.63 4.14 4.14 0 012.53.78 3.45 3.45 0 011.32 2.44h-2.19a1.59 1.59 0 00-1.67-1.4c-1.44 0-2.12 1.2-2.12 2.81s.82 2.8 2.13 2.8a1.63 1.63 0 001.72-1.48h2.19a3.46 3.46 0 01-1.06 2.27 3.83 3.83 0 01-2.83 1 4.31 4.31 0 01-4.38-4.59zm8.95-.01a4.38 4.38 0 118.75 0 4.38 4.38 0 11-8.75 0zm6.52 0c0-1.61-.7-2.85-2.14-2.85s-2.15 1.24-2.15 2.85.73 2.83 2.15 2.83 2.14-1.22 2.14-2.83zm-2.44-6.49h2.32l-1.31 1.61h-1.54zm5.78 2.04h2.94L41 18.16c.16.55.51 2 .51 2s.35-1.47.5-2l1.09-3.88h3v8.85H44v-6.22s-.31 1.32-.41 1.64l-1.28 4.58h-1.8l-1.21-4.56c-.1-.33-.41-1.66-.41-1.66v6.22h-2zm10.58 0h4a3.38 3.38 0 012.42.82 2.91 2.91 0 01.89 2.18 2.8 2.8 0 01-3 2.9h-2.08v2.95h-2.23zm3.85 4.16a1.11 1.11 0 001.23-1.17 1.09 1.09 0 00-1.23-1.14h-1.62v2.31zm4.47-4.16h4.23c1.76 0 3.1.91 3.1 2.55A2.12 2.12 0 0161.63 19a1.76 1.76 0 011.29 1.62c.19 1.17.06 2.28.37 2.39v.11h-2.13c-.23-.12-.16-1.12-.33-2.04a1.29 1.29 0 00-1.47-1.26H58v3.31h-2.16zm3.84 3.91c.86 0 1.31-.41 1.31-1.07S60.57 16 59.73 16H58v2.18zM67 14.28h2.26l3.19 8.85h-2.3l-.52-1.59h-3.1L66 23.13h-2.2zM69.08 20l-.67-2.14c-.15-.46-.35-1.25-.35-1.25s-.21.79-.36 1.25L67 20zm4.2-5.72h2.19v7h4v1.85h-6.19zm9.81 0h2.25l3.2 8.85h-2.31l-.52-1.59h-3.09l-.51 1.59h-2.2zM85.21 20l-.67-2.14c-.15-.46-.35-1.25-.35-1.25s-.21.79-.36 1.25l-.7 2.14zm3.79.35h2.2c.1.89.68 1.26 1.73 1.26.72 0 1.43-.26 1.43-.93s-.72-.85-1.93-1.15c-1.54-.36-3.16-.83-3.16-2.69s1.54-2.72 3.52-2.72 3.4.87 3.49 2.72h-2.15c-.09-.68-.61-1.06-1.43-1.06s-1.27.33-1.27.83.68.77 2 1.06c1.65.39 3.13.9 3.13 2.79s-1.56 2.88-3.62 2.88c-2.36 0-3.94-1.04-3.94-2.99zm13.44-6.07h2.25l3.2 8.85h-2.31l-.52-1.59H102l-.51 1.59h-2.2zm2.11 5.72l-.66-2.14c-.15-.46-.35-1.25-.35-1.25s-.21.79-.35 1.25l-.72 2.14zM115 22.79a4.4 4.4 0 01-2.22.55 4.27 4.27 0 01-4.36-4.61 4.37 4.37 0 118.73 0 4.82 4.82 0 01-1 3.1l1 .94-1 1.08zm-1.42-1.38l-.8-.78 1-1.05.82.78a3.92 3.92 0 00.31-1.63c0-1.61-.7-2.85-2.13-2.85s-2.14 1.24-2.14 2.85.71 2.83 2.14 2.83a2 2 0 00.78-.15zm4.59-1.41v-5.72h2.19v5.81a1.33 1.33 0 001.52 1.45 1.36 1.36 0 001.5-1.49v-5.77h2.19V20c0 2-1.22 3.29-3.69 3.29s-3.71-1.21-3.71-3.29zm8.83-5.72h2.19v8.85H127zm.81-2h2.31l-1.31 1.61h-1.54z" fill="#fff"/></g></g></svg><svg width="28" height="19.36" viewBox="-1 -1 28 19.36" x="150" y="46.68" xmlns="http://www.w3.org/2000/svg"><g data-name="Layer 2"><path d="M7.85 6.74H6.16l.14-3-1.15 3H3.46L6 0h1.82l-.21 2.88L8.68 0h1.64L7.85 6.74zm.37 0h1.69L12.38 0h-1.64L8.22 6.74zM18.29 6L26 4.14 6.08 12.27C4.3 13 1.9 13.45.51 11.83a2.67 2.67 0 01-.36-2.5 13.07 13.07 0 013.28-5c-.69 1.39-1.25 3.35.31 4.45a2.6 2.6 0 002.14.35l9.46-2.32H13V4.36c0-.11 0-.1-.06-.08a.27.27 0 00-.07.12L12 6.75h-1.73L12.79 0h1.67l-.65 1.8L15.35 0h4.81l-.47 1.25h-1.48l-.5 1.34h1.48l-.43 1.21h-1.49l-.61 1.61h1.86l-.23.59zm-3.8.39L16.78.31l-2.45 2.85.16 3.26zM4.11 16.76l-.27.59h-.32l1.13-2.4 1.12 2.41h-.32l-.26-.58zm.54-1.19l-.42.93h.83l-.41-.93zm7.49-.57h-.29v2.31h.29V15zm7.79 2.32h-.35l-.7-1h-.12v1h-.29V15h.36a1.32 1.32 0 01.62.11.65.65 0 01-.26 1.2l.74 1zm-1.17-1.22h.1c.3 0 .62-.06.62-.43s-.35-.41-.64-.41h-.08v.84z" fill="#fff" data-name="Layer 1"/></g></svg><svg width="92.57" height="39.14" viewBox="-1 -1 92.57 39.14" y="88.76" xmlns="http://www.w3.org/2000/svg"><g data-name="Layer 2"><path d="M1.83 37H5.3l-.06-7h7.46v-2.92h-.45a.93.93 0 01-.22 0c-.12 0-.23-.05-.35-.05h-1.64c-.17 0-.26.05-.4.05h-.56a1.55 1.55 0 00-.31 0H5.19v-4.05h4.19a4 4 0 00.6 0c.16 0 .44-.21.59-.14s.11.13.23.17a2.09 2.09 0 00.5 0c.14 0 .16-.16.33-.14s.15.11.25.14C12 23.1 14 23 14 23v-2.9l-12.32.1v6.37c0 .84.15 1.62.15 2.46v.63c0 .21.11.39.12.61a2.94 2.94 0 01-.24 1 1.51 1.51 0 000 .67c0 .12.1.07.07.25a4.11 4.11 0 00-.08.6V37zm20.87.11c4.39 0 6.63-2.16 6.6-5.76v-7.12c0-.11 0-.22-.05-.33s.06-.21.07-.32-.07-.46 0-.7 0-.3 0-.45a2.22 2.22 0 000-.37V20h-3.48v3.78a6.21 6.21 0 00.07 1.43 1.08 1.08 0 01.07.31.92.92 0 01-.05.28.78.78 0 000 .21 1.49 1.49 0 000 .21 2.17 2.17 0 010 .44 2.1 2.1 0 000 .75 5.17 5.17 0 010 .68v3.3c0 1.75-1 3-3.21 3s-3.23-1.2-3.25-2.94l-.1-11.42h-3.48v5.16a6 6 0 000 .85 1.61 1.61 0 00.09.29 2.17 2.17 0 010 .88c0 .11 0 .23-.07.35a1.78 1.78 0 000 .46v3.46c0 3.65 2.37 5.68 6.81 5.64zm8.13-14.32h5.16L36 24.1a1.67 1.67 0 010 .5c0 .16 0 .33-.06.5a4.61 4.61 0 000 .52v11.13h3.48l-.12-14h.86c.25 0 .18-.07.29-.06s.3 0 .45 0h.35c.38 0 .75.05 1.13.05h2.07v-2.87L30.8 20v2.87zm22.29 14.09c4.4 0 6.63-2.16 6.6-5.76l-.1-11.42h-3.48v1.25a7.48 7.48 0 000 .82 4.19 4.19 0 010 .79 9 9 0 000 1v7.54c0 1.75-1 3-3.21 3s-3.13-1.1-3.14-2.89l-.1-11.42h-3.48v4.44a12.07 12.07 0 000 1.7v.21a5.39 5.39 0 010 .7 3.23 3.23 0 010 .44.76.76 0 000 .3v1.85a3.65 3.65 0 010 .81 1.11 1.11 0 00-.05.25v.72c0 3.65 2.38 5.67 6.81 5.64zm12.5-14.48h3.79c1.85 0 2.74 1 2.75 2.36s-.91 2.31-2.81 2.33h-3.69V22.4zm-3.36 14.12h3.48l-.06-6.76h2.81c2.16 0 3.22 1 3.38 2.85s.23 3.69.66 3.88h3.34v-.17l-.16-.11a.82.82 0 01-.12-.2 2.19 2.19 0 01-.17-.62 18.7 18.7 0 01-.2-2l-.06-.6a5.43 5.43 0 00-.09-.69 1.91 1.91 0 01-.07-.4 1.55 1.55 0 00-.07-.48c0-.08 0-.18-.06-.25l-.11-.15a.25.25 0 010-.19v-.19a.38.38 0 00-.07-.21c-.07-.09 0-.17-.08-.27a2.07 2.07 0 00-.36-.53 3 3 0 00-1-.74 5.17 5.17 0 00-.75-.27v-.07a3.87 3.87 0 003.1-4.1c0-2.8-2.25-4.67-5.56-4.64l-7.87.07v5.9a23 23 0 000 2.35v.44a4.24 4.24 0 01.1 1c0 .18-.06.36-.08.54s0 .36 0 .54v.62a7.91 7.91 0 01.06.85 6.17 6.17 0 000 .86v3.73zm15.62-.14l12.69-.11v-2.85l-9.21.08v-4.54h2.14c.23 0 .46-.05.69-.05a4.68 4.68 0 01.65 0h2.7c.15 0 1.83-.05 1.83 0v-2.8l-8 .07v-3.77h3.29a1.7 1.7 0 01.22 0h2.17c.15 0 .31.06.46.05s.23-.05.35-.07h.48a1.15 1.15 0 01.37 0 3.75 3.75 0 00.58 0h1.22v-2.87l-12.62.11v8.72c0 .23.07.3.06.46s0 .23 0 .34a8.28 8.28 0 000 1.22v.84a1.38 1.38 0 000 .2 2.09 2.09 0 000 .25v.19a.3.3 0 010 .1v.67a3.27 3.27 0 000 .54 1.36 1.36 0 000 .2c0 .14-.1.27-.09.42s0 .22 0 .34v2.14M35.27 14.29V9.75l8 .06v-2.8l-8-.07V3.18l9.14.07V.38H31.96v5.45a1.1 1.1 0 010 .16v4.11a4.24 4.24 0 000 .51v6.47l12.69.11v-2.85h-1.84a8.42 8.42 0 00-.87 0c-.18 0-.34.05-.53 0s-.64 0-1 0H37.7a.81.81 0 00-.15 0 .37.37 0 01-.14 0h-2M15.42 17h3.48l.1-7.42 6.74.06-.07 7.42h3.48L29.27.25h-3.48v2.98a2.68 2.68 0 010 .49 1.88 1.88 0 000 .41v.68a2.07 2.07 0 010 .61 3.09 3.09 0 000 .68v.71L19 6.76l.06-6.6h-3.48v4.67a2.17 2.17 0 000 .36 1.78 1.78 0 010 .4 5 5 0 000 .67v1.01M5 16.88h3.48L8.64 3h5.16V.13h-2.44a5.82 5.82 0 01-.59 0h-.41L10 .08H6.41L4.1 0H0v2.87h5.16v2.25a1.13 1.13 0 000 .18 1.2 1.2 0 010 .19 4.13 4.13 0 010 .5v4.68a1.23 1.23 0 000 .27.88.88 0 010 .28v.3a1.4 1.4 0 000 .41v4.93" data-name="Layer 1" fill="#fff"/></g></svg><svg width="21.51" height="19.52" viewBox="-1 -1 21.51 19.52" x="150" y="66.04" xmlns="http://www.w3.org/2000/svg"><g data-name="Layer 2"><path d="M12.78 17.52h.28a10.52 10.52 0 001.12-.07 8.86 8.86 0 001.05-.2 7.65 7.65 0 001-.3 6.84 6.84 0 00.86-.42 4.81 4.81 0 001.37-1.15 4.1 4.1 0 00.5-.73 4.7 4.7 0 00.35-.83 5 5 0 00.19-.93 1.65 1.65 0 000-.49.63.63 0 010-.19 1.21 1.21 0 000-.19 3.2 3.2 0 00-.07-.33v-.14a2.09 2.09 0 010-.25 1.51 1.51 0 00-.06-.36c-.06-.18-.15-.35-.22-.52s-.09-.21-.14-.31a2.12 2.12 0 01-.12-.2.59.59 0 00-.06-.14 2.6 2.6 0 00-.26-.32 1.56 1.56 0 00-.16-.2 2.27 2.27 0 00-.25-.18l-.23-.21-.34-.32a1.4 1.4 0 00-.34-.26l-.41-.2a12.74 12.74 0 00-1.7-.61c-.63-.18-1.28-.33-1.93-.47-2.61-.56-3.8-1-3.79-2.34 0-1.2 1.24-2 3.11-1.95s3.11.87 3.29 2.57h3.34C18.92 1.92 16.44 0 12.58 0a12.21 12.21 0 00-1.35.07 7.93 7.93 0 00-2.34.58 6 6 0 00-1 .55 5.29 5.29 0 00-1 .86l-.09.13a3.15 3.15 0 00-.22.29c0 .08-.06.17-.11.25a2.14 2.14 0 00-.23.54v.21c0 .07-.07.22-.1.33a.78.78 0 000 .14v.19a.85.85 0 000 .17v.51a2.14 2.14 0 00-.14.62c0 .14 0 .28.07.42a4 4 0 00.21.83A3.61 3.61 0 007 8a4.64 4.64 0 001.24.9 9.46 9.46 0 001.55.62c.57.18 1.16.33 1.74.46l.23.06c2.61.61 4.23 1 4.22 2.6s-1.58 2.15-3.36 2.14c-2.44 0-3.61-.84-3.83-2.86H5.38a5.94 5.94 0 00.26 1.67.86.86 0 00.07.21l.11.14.2.27a1.14 1.14 0 01.23.3c0 .1.07.22.12.33s.09.12.13.19a.51.51 0 00.09.16c.18.2.35.43.55.62s.15.11.22.18a.18.18 0 00.07.05s.09 0 .12.08a1 1 0 00.14.15 2.91 2.91 0 00.42.25 8.34 8.34 0 00.92.41 10.53 10.53 0 002.21.49 14.25 14.25 0 001.45.08zM0 17h3.48v-4.72a1.2 1.2 0 000-.38 1.43 1.43 0 01-.07-.42v-1.12a1.85 1.85 0 010-.41V9.4a4.43 4.43 0 000-.63V.24L.15.2 0 17z" fill="#fff" data-name="Layer 1"/></g></svg><svg width="22.11" height="19.01" viewBox="-1 -1 22.11 19.01" x="196.53" y="27.42" xmlns="http://www.w3.org/2000/svg"><g data-name="Layer 2"><path d="M6.14 16.89h3.43l.08-8.69c0-1.18-.07-2.94-.07-2.94h.05s.66 1.44 1.2 2.34L16.6 17H20v-5.01c0-.38-.08-.58-.06-.89A14.49 14.49 0 0020 8.83V6.76c0-.22.07-.29.08-.44.05-1.44 0-2.89 0-4.33V.17h-3.43L16.6 9c0 1.18.07 2.92.07 2.92h-.05s-.62-1.47-1.17-2.39L9.82.08 6.29.05v3.16a12.21 12.21 0 000 1.6 2.08 2.08 0 010 .61 5.77 5.77 0 000 .72v10.74zM0 16.84h3.48V8.05a2.64 2.64 0 000-.63v-.29a1.71 1.71 0 010-.31 2.19 2.19 0 000-.51 1.22 1.22 0 010-.38v-.62a.93.93 0 000-.24V0H.15v12.07a8.38 8.38 0 010 1.12 5.06 5.06 0 000 .55v3.07z" fill="#fff" data-name="Layer 1"/></g></svg><svg width="46.53" height="19.26" viewBox="-1 -1 46.53 19.26" x="150" y="27.42" xmlns="http://www.w3.org/2000/svg"><g data-name="Layer 2"><path d="M31.76 17.11H35a3.13 3.13 0 01.53 0c.11 0 .15 0 .27.05h.55c.35 0 .69.05 1 0 .15 0 .28 0 .42.05s.3 0 .44 0h6.23v-2.85l-9.21-.08V9.74c0-.02 1.92 0 2.1 0a1.16 1.16 0 01.32 0 3.7 3.7 0 00.47 0 4.87 4.87 0 00.66 0 2.45 2.45 0 00.37-.08 10.12 10.12 0 011.35 0l2.74.05v-2.8h-5.07a5.76 5.76 0 01-.59 0 1.93 1.93 0 00-.41.09h-1.84V3.23l9.14.08V.44h-2.32A7.61 7.61 0 0041 .36h-.8a2.06 2.06 0 00-.35 0c-.37.06-.76 0-1.14 0h-.79a7.09 7.09 0 00-1.08.02 5.54 5.54 0 01-.91 0h-4.02V6.2c0 .17-.05.32-.05.49a2.08 2.08 0 000 .25.71.71 0 01.05.22 2 2 0 000 .35.86.86 0 01.05.23v.49a5.42 5.42 0 010 .57c0 .19-.05.37-.05.56v1.12a5.61 5.61 0 010 .58 2.33 2.33 0 000 .38v5.77zm-12.84-2.18V9.59l6.74.05-.06 7.42h3.47V7.17a7.11 7.11 0 000-1.13 3.66 3.66 0 01-.05-.57 1.59 1.59 0 01.07-.38 1.88 1.88 0 000-.41V.23h-3.48l-.05 6.6L19 6.76l.05-6.59h-3.48v6.85a2.63 2.63 0 01-.06.39c0 .15.09.27.14.41s0 .4-.05.59a3.75 3.75 0 010 .47v.79c0 .16-.05.29-.05.44s.05.58.05.89v5.93h3.48s0-3.73.06-5.9M0 2.88h5.16l-.16 14h3.47v-5.1a2 2 0 010-.43 2.85 2.85 0 000-.41V9.67c0-.46-.05-.89-.05-1.35a2.09 2.09 0 010-.25c0-.1.05-.18.05-.27v-.58a3.94 3.94 0 01.09-.6 1.24 1.24 0 000-.47 2.53 2.53 0 010-.55V3h5.24V.13h-.31L11.7.1h-1.34a6.09 6.09 0 00-.74 0 1.47 1.47 0 01-.21 0 2.3 2.3 0 00-.26 0H7.09C6.74.1 6.7 0 6.5 0s-.5.07-.84.07H4.48c-.4 0-1 0-1.42-.08C2.05 0 1 0 0 0v2.84z" fill="#fff" data-name="Layer 1"/></g></svg></svg>