<svg width="204" height="194" xmlns="http://www.w3.org/2000/svg" xmlns:xlink="http://www.w3.org/1999/xlink"><svg width="159.71" height="73.32" viewBox="-1 -1 159.71 73.32" y="97.56" xmlns="http://www.w3.org/2000/svg"><g data-name="Layer 2"><g data-name="Layer 1" fill="#fff"><path d="M81.22 48s-.07.06-.09.1a2.33 2.33 0 00-.07.25 2.86 2.86 0 01-.07.28l-.06.24a1.72 1.72 0 01-.18.57c-.1.16-.22.31-.31.48s0 .15 0 .24-.07.11-.1.16a.82.82 0 00-.18.33 1.57 1.57 0 01-.09.48c0 .06-.08.08-.11.14a2.6 2.6 0 01-.21.36 1 1 0 00-.15.14s-.05.11-.09.17-.18.29-.26.43a2.4 2.4 0 01-.11.23 1.28 1.28 0 00-.07.28 10.45 10.45 0 01-.41 1.12l-.42 1.13-.36.88a7.28 7.28 0 01-.31.77c-.06.11-.1.22-.15.33s-.14.24-.22.36-.11.25-.19.37-.01.08-.01.16a.47.47 0 010 .17 1.38 1.38 0 00-.17.52.94.94 0 01-.06.3v.11a.58.58 0 000 .19 1 1 0 01-.1.38 5 5 0 01-.22.47.94.94 0 00-.19.46c0 .32-.34.47-.49.72 0 .07-.06.15-.1.23a.33.33 0 00-.06.1 1.63 1.63 0 00-.13.37 1.33 1.33 0 01-.21.69 1.69 1.69 0 00-.19.32c0 .15-.07.3-.13.44a2.71 2.71 0 00-.16.27 1.52 1.52 0 01-.06.2l-.17.31a2.32 2.32 0 01-.22.41s-.13.13-.12.17.37-.07.27 0h.12c0 .08-.13.09-.18.11a.56.56 0 00-.25.14 2 2 0 00-.28.55.43.43 0 00-.06.24h.06c.06 0-.09.13-.15.19a1.71 1.71 0 00-.27.58 2 2 0 00-.1.42c0 .14 0 .26-.07.4a.56.56 0 01-.15.34c-.08.09-.21.15-.25.27a.36.36 0 01-.16.23.65.65 0 00-.18.15.92.92 0 01-.24.31A1.39 1.39 0 0072 69a1.28 1.28 0 01-.43.3c-.06 0 0 0 0 .1s.2.21.28.29l.33.32.75.72.44.43s.14.17.18.17c1.92.12 3.25-3.24 3.89-4.52s8.93-21.65 10.44-25 5.68-14.46 9.74-24 4.35-13.36 4-14.58S98.65.06 96.1 0s-6.38.55-26.39 11.23l-.87.47c-.25.13-.47.16-.71.26-.44.16-.64.74-1 1a1.5 1.5 0 01-.83.2 1.82 1.82 0 00-.71.28c-.32.18-.7.3-1 .51a4.74 4.74 0 00-.77.78 1.4 1.4 0 01-1 .36 1.21 1.21 0 00-.81.54 2.21 2.21 0 01-.45.55 1.63 1.63 0 01-.93.16 1.6 1.6 0 00-1 .41c-.31.21-.64.35-1 .53s-.33.32-.53.49a1.92 1.92 0 00-.48.37c-.38.5 0 1-.73 1.2a1.48 1.48 0 01-.86 0c-.18-.05-.46-.22-.66-.13s-.12.14-.17.19a2.08 2.08 0 01-.75.57 5.62 5.62 0 00-1.13.4c-.25.17-.49.36-.75.52a6.29 6.29 0 00-1.16 1 4.41 4.41 0 01-1.16.9 6.67 6.67 0 00-1.07.68.86.86 0 01-.84.26c-.67-.09-.73.57-1.1 1-.19.23-.36.21-.63.23a1 1 0 00-.69.32 2.85 2.85 0 01-1 .64 6.3 6.3 0 00-1 .49c-.81.49-1.66.9-2.45 1.42-1.09.72-2.18 1.44-3.26 2.18l-1 .71 11.12-2.38c3.2-2.38 17.36-10.58 30-17.28s18-7.41 19-7.38-.7 6.34-1.56 7.68-.18 1.34-.65 1.72a1.46 1.46 0 00-.34 1.21c-.7.63-.44 1-.62 1.5a10.23 10.23 0 00-.94 2.35c-.16 1-1.22 1.67-1.22 2.35a4.64 4.64 0 01-.55 1.73c-.18.46.18.63-.21 1a15.56 15.56 0 00-1.84 4.08 17.75 17.75 0 01-1.77 4.37c-.7 1.2-.15 1-.47 1.5a8.71 8.71 0 00-.7 1.4c-.12.28-.23.56-.32.84a3 3 0 00-.27.85.53.53 0 01-.05.18v.23c0 .07-.07.1-.06.2a1.64 1.64 0 010 .23 1 1 0 01-.1.29c0 .11 0 .21-.1.32a1.17 1.17 0 01-.35.5 1.22 1.22 0 00-.3.47 2.77 2.77 0 00-.19.62c0 .18-.13.32-.15.5a1.29 1.29 0 01-.07.43 2 2 0 00-.22.47 2.15 2.15 0 01-.31.9 2.29 2.29 0 00-.27.27c0 .08-.09.17-.14.24s-.12.2-.19.3a.5.5 0 00-.08.12v.05c0 .05-.09.26-.08.41.19 0-.09.31-.12.37s-.18.42-.28.62a6.1 6.1 0 01-.34.54c-.21.33-.41.67-.59 1a7.58 7.58 0 00-.45 1 .77.77 0 00-.08.19 1 1 0 000 .25.55.55 0 01-.07.25.49.49 0 00-.06.29c0 .07.06.05 0 .14a1.31 1.31 0 00-.08.21.47.47 0 010 .17zM49.3 25.3a.1.1 0 00-.06.1l-.16.19h-.34c-.15 0-.07-.08.08-.14s0-.11 0-.11v-.09c0-.09 0 0 .12 0h.26c.14 0 .14 0 .06.09zm2.7-1.39h-.32l-.05-.06a.11.11 0 01.12-.11.39.39 0 01.17.05H52s.06 0 0 .06zm.63-.58h-.11c-.05 0 0 0 0 0a.1.1 0 010-.08h.12zM53 23l-.08.06c-.08.06-.05 0-.07 0s0 0 0-.06h.22c.1 0 0 .06-.07.05zm15.79-8.28h-.1c-.1 0 0 0 0 0v-.08c0-.08.06 0 .09 0a.36.36 0 010 .07h-.06zm.65-.54h-.05.07v.05zm.4-.38c-.06 0 0 0 0 0h-.14.08c.02 0 0 0 0 0a.12.12 0 01-.08 0zm8.3-5s0 .08-.1.09S78 9 77.89 9s-.14-.12 0-.17.2 0 .16 0zm1-.6a1.15 1.15 0 01-.4.07c-.22 0 0 0-.08-.06s0-.07.08-.06.07 0 .22-.05.3.09.18.1z"/><path d="M6 54.42a1.61 1.61 0 00.43.45 6.5 6.5 0 001.57.9c1.47.4 3.17-1.39 4.26-2.27s2.33-1.87 3.51-2.79c3-2.36 6.1-4.64 9.2-6.88 5.14-3.7 10.37-7.27 15.64-10.76 0 0 14.08-2.35 21.32-3.54s23.57-3.15 26.58.23l.71-1.08a9 9 0 00-7.37-4.31c-5 0-17.83.88-34 3.77s-30.33 6-35 6.8S7.34 36 4.91 36.27.69 36.52 0 37a.55.55 0 00.33.49c.36.21 0 .48.46 1.07s.86.56 1.12 1.11.59.49 2 .31a41.35 41.35 0 008.3-1.11c4.21-1.07 16.59-3.46 18.14-3.7 0 0-8.23 5.78-10.9 7.82-2.06 1.58-4.09 3.18-6.14 4.77l-3.87 3C8.2 51.77 7 53.08 5.6 53.56c.22.36.29.61.43.86zm99.06-35.32c0 .63-.21.54.3.74s.92.06 1-.4a8.19 8.19 0 00.62-2.25 4.66 4.66 0 00-1.7-2.19c-.65-.25-1.08-.17-1.65-.37s-.6 0-.52.63-.21 1.53.11 1.76a3.48 3.48 0 01.92.85l.33.6.27.34c.08.12.3-.05.32.26zm-9.82 20.95c0 .11-.11.19-.11.3s-.1.22-.14.27a.85.85 0 00-.15.3.94.94 0 00-.11.32.81.81 0 010 .16c0 .08-.1.13-.13.2a.25.25 0 000 .12v.06c0 .06-.06.08-.08.11a1.17 1.17 0 00-.14.3c0 .08-.19.19-.06.25a2 2 0 01-.19.45c-.06.11-.22.25-.21.38s0 .08 0 .18-.15.16-.17.26 0 .06 0 .1-.15.22-.2.33a3.25 3.25 0 01-.3.51c-.06.1-.09.22-.15.33a1.35 1.35 0 01-.26.33 1.81 1.81 0 00-.23.41c0 .06-.13.18-.11.26s.06 0 .06.06-.09.2-.1.26a1.39 1.39 0 01-.06.19c0 .1-.26.27-.21.39v.18c0 .05-.06.08-.08.13v.09c0 .1-.09.19-.12.29a.68.68 0 000 .14 2.56 2.56 0 01-.11.46 6 6 0 01-.61 1.18c-.1.19-.15.4-.24.59s-.28.4-.39.6a3.65 3.65 0 00-.29.71c-.07.25-.09.52-.18.76s-.11.34-.18.51-.22.46-.33.69a6 6 0 01-.25.58 6.52 6.52 0 00-.41 1.28c-.3 1.16-.54 1.53-.6 2s-.43.82-.33 1.24a.37.37 0 00.07.2c.06.06.19 0 .19.11a.21.21 0 01.24.15v.16a5.2 5.2 0 00.35.47 3.17 3.17 0 00.29.35c.27.29.57.56.85.85.65.68 1.27 0 1.59-.52s1.71-5.49 2.57-7.28 4.38-10.22 4.84-11.15 3-7.2 3.55-8.8a6.25 6.25 0 00.51-3.53c-.21-.79-1.49-1.42-2.57-1.67s-1.06.11-1 .74a6.64 6.64 0 01-.55 1.92 2.4 2.4 0 00-.2 1.28c.09.32-.35.72-.71 1.31s-.12.73 0 1-.45.77-.58 1.22-.48.21-.58.58-.16.6-.25.89-.14.47-.24.69-.28.37-.36.58V38a.28.28 0 00.2 0c-.07.14.26 0 .26.18s-.09.15 0 .14-.32.2-.42.26a1.42 1.42 0 00-.3.3 4.27 4.27 0 01-.41.52c0 .08-.07.16-.1.23a2.09 2.09 0 00-.11.43zM157.7 7.46c-.08-.47-.18-.31 0-.68s-.24-.67-.37-.86 0-.16-.11-.51-.21-.19-.51-.37 0-.26 0-.26c-.2-.65-2.21-2.32-3.76-3s-5.32-.32-5.9-.13-2.68.46-3.25.66a16.57 16.57 0 01-2.09.54c-.47.09-1.74.79-2.53 1.06a39.15 39.15 0 00-3.87 1.8 10.28 10.28 0 01-1.51.94c-.29 0-.38.31-.63.57s-.33.09-.54.16-.38.34.13.45-1 .81-1.19.93-.22 0-.19-.3-.74.3-1.13.65a25.41 25.41 0 00-2.25 2.11c-.31.44.18.82-.13.93a3.27 3.27 0 00-1.12 1.07c-.16.29-.66.07-.74.39s-.5.65-.91 1-.32 0-.64.43a3.4 3.4 0 01-.88.91c-.12.06-.12.29 0 .58s-.42.47-.67.59a.7.7 0 00-.42.54c0 .18-.12.16-.5.38s-.14.47-.33.62a11.32 11.32 0 00-1.37 1.52 16.23 16.23 0 00-.69 1.5 1.32 1.32 0 01-.39.48v.23a4.77 4.77 0 00-.46.69c-.06.16.39.27.25.34s-.46-.07-.52.38-.19.22-.4.34-2.37 3.15-2.7 3.62-1.62 2.78-1.86 3.21-.64.33-.8.58.18.24 0 .53-.54.41-.72 1-.27.62-.48.8 0 .6-.19.68 0 .47-.06.66-.23.06-.43.08-.24.32-.25.51a.78.78 0 01-.22.57.74.74 0 00-.32.6c0 .24-.17.71-.32.75s-.13 0-.38.54a1.94 1.94 0 01-.42.66v.69c0 .38-.17.5-.39.4s-.31.32-.28.71a.8.8 0 01-.34.78c-.23.2-.12.83-.16 1.17s-.2.1-.45.21-.3.73-.35 1-.12 0-.36.14 0 .32-.17.55a2.18 2.18 0 00-.4.68 1.7 1.7 0 01-.24.61c-.11.13 0 .32-.09.53s0 0-.21.32 0 .56-.24.9a1.09 1.09 0 00-.22.77c0 .25-.34.63-.62.87a4.55 4.55 0 00-.62 1.27c-.21.44.07.48-.21.89s-.07.65-.42.91-.43 1.09-.5 1.15-.07.36-.17.6a3.86 3.86 0 01-.33 1 3.85 3.85 0 00-.59 1.51c0 .38-.12.06-.14.35s.11.3-.27.75a2.23 2.23 0 00-.35.86c0 .15-.09.29-.12.44s0 .34-.06.51-.17.42-.22.63a.85.85 0 01-.09.22 1.08 1.08 0 00-.08.53v.39c0 .43-.14.85-.2 1.27a4.41 4.41 0 01-.48 1.5c-.38.8.24 1.35.62 1.85a6.08 6.08 0 011 1.65c.28.75 2.08.15 2.18-.2a13.6 13.6 0 00.28-2.1c0-.25.3-.69.3-1s.06-.95.06-1.56.36-1.91.49-2.85a30.1 30.1 0 01.9-3.37c.17-.55 1.34-3.07 1.48-3.53s.4-1.11.43-1.18a9.24 9.24 0 00.34-.94c.13-.49 1.22-2.54 1.35-2.8s.89-2 1.08-2.32.28-.83.67-1.65.35-.73.34-.82a.44.44 0 01.08-.43 2.38 2.38 0 00.39-.95c.15-.5 2.76-4.85 2.94-5.27s.28-.43.42-.75.12-.59.25-.91a5.84 5.84 0 011-1.23c.14-.12.12-.25.19-.4a1 1 0 00.1-.38 1.38 1.38 0 01.11-.45c.1-.27.24-.15.43-.34a5.61 5.61 0 00.63-1.11c.25-.47 1.2-1.72 1.51-2.27a16.14 16.14 0 011.28-2.08 24.33 24.33 0 001.86-2.42c.66-1 3.89-5.23 4.68-6a63.26 63.26 0 015.88-6 39.48 39.48 0 016.72-4.09 7.06 7.06 0 012.07-.92c1-.21 5.28-2 8.62-2.17s3.56.22 3.72.36 0 1.18-.14 1.63-.67 1.61-.71 1.79-.23.17-.22.57.07.63-.2.75a1.6 1.6 0 00-.73.64c-.16.28 0 .65-.14.88s-.6.57-.6.82-.36.47-.52.79-.37.22-.6.24-.26.55-.37.85a3.35 3.35 0 01-.5.73s.37 0-.07.06-.69.58-.87.64-.21.43-.39.62-.89.35-.94.79a1 1 0 01-.67.78c-.25 0-1.24 1.2-1.51 1.49s-2.64 2.27-2.87 2.51a11.68 11.68 0 00-1.06 1c-.11.22-1.82 1.32-2.1 1.58a12.25 12.25 0 00-1.24.95 23.26 23.26 0 01-2.18 1.92 5.37 5.37 0 00-1.12.88 16.14 16.14 0 01-1.62 1.25 9.45 9.45 0 01-1.36 1.12c-.42.21-.7.8-1.16 1s-1.64 1.17-2.06 1.34-.35.25-.5.47-.29.25-.6.34a12.34 12.34 0 00-1.95 1.41c-.24.23-1.57 1.46-1.81 1.61a2.65 2.65 0 00-.72.55c-.17.22-.28 0-.39.3a1.22 1.22 0 01-.39.55c-.16.14-.89.84-1 1s-.86 1.1-1.07 1.12-.13.4-.31.55-.53.8-.76 1-.16.35-.16.57-.14.11-.28.35-.66 1.43-.76 1.62a1.79 1.79 0 00-.22.61c-.09.37-.16.19-.24.47s.08.32.21.37 0 .17 0 .23-.16.35 0 .47-.15.12-.27.47a3.91 3.91 0 00.25 1.52 3.91 3.91 0 01.28 1.07c0 .52.5.82.64 1.26a3.36 3.36 0 00.5 1.2c.28.37.3.8.61 1s.31.2.33.57.31.35.39.52a9.87 9.87 0 001.45 1.66c.24.09.25.12.32.29s1.34 1.57 1.79 1.59-.09-.19.66.45a49.09 49.09 0 007 3.08c1 .29 2.36.44 2.91.57a1.8 1.8 0 001.34-.16c.64-.24 1.35.39 2.23.54a20.92 20.92 0 004.36-.32c.29-.12.21-.94.21-.94h-.85c-.4 0-.36-.29-1.13-.77a12.48 12.48 0 00-4.11-.71c-.61 0-3.51-.39-8.42-2.62s-5.16-3.22-6.62-6.17.12-5.8 1.63-7.69 4-4.13 8.23-7.24 12.63-10.07 17.27-14.15a43 43 0 008.25-9.63 10.67 10.67 0 001.57-4.76zm-19.18 53.3l.3-.12c.3-.12.2 0 .3 0s0 0 .09.16-.17.07-.29.16 0 .32-.15.3-.14-.12-.42-.39 0-.12.17-.16z"/></g></g></svg><svg width="203.18" height="32.74" viewBox="-1 -1 203.18 32.74" xmlns="http://www.w3.org/2000/svg"><g data-name="Layer 2"><g data-name="Layer 1" fill="#fff"><path d="M185.58 1h-14.8c-.34 0-.62.05-.93.05h-.73a21.18 21.18 0 00-2.39 0h-8.53l-1.4.05a2.67 2.67 0 01-.4 0 7.08 7.08 0 00-1.13 0h-1.73a2.67 2.67 0 01-.4 0 7.73 7.73 0 00-1.52 0 3.2 3.2 0 01-.53 0H78.46a4.48 4.48 0 01-.73 0 5.78 5.78 0 00-.93 0c-.33 0-.67.06-1 .06H48.68a1.11 1.11 0 01-.26 0 6.78 6.78 0 00-1.8 0c-.59-.07-1.19 0-1.79-.06a1.89 1.89 0 00-.53 0 3.57 3.57 0 01-.8 0 10 10 0 00-2.32 0 1.85 1.85 0 01-.47 0 10.11 10.11 0 00-2.13 0h-1.06a2.67 2.67 0 00-.4 0 4.28 4.28 0 01-1.13 0 3.14 3.14 0 00-1.06 0 3.76 3.76 0 01-1.06 0 1.83 1.83 0 00-.33 0h-2.6c-.69.07-1.37 0-2.06 0H27c-.93 0-1.87-.05-2.8 0a2.25 2.25 0 01-.26 0 12.83 12.83 0 00-2.4 0 4.38 4.38 0 01-1.2 0 2.48 2.48 0 00-.86 0 .77.77 0 01-.26 0c-.76-.08-1.51 0-2.27 0H12.7C10.75 1 8.79 1 6.84 1 6 1 5.15 1 4.31 1.05s-1.95.12-2.93.07C1 1.1.58 1.06.18 1A.21.21 0 010 .84C0 .59.08.41.31.4a4.7 4.7 0 01.53 0h2.93a5.54 5.54 0 001-.06 2.43 2.43 0 01.6 0h2.06a6.25 6.25 0 011.06 0 9.09 9.09 0 001.73 0 2.36 2.36 0 01.46 0 4.28 4.28 0 00.8 0 3 3 0 01.6 0 2.43 2.43 0 00.66 0 5.3 5.3 0 01.8 0 4.7 4.7 0 001.06 0 .67.67 0 01.2 0 2.75 2.75 0 001 0 4 4 0 01.6 0h.8a3 3 0 01.6 0 7.84 7.84 0 001.2.02h.53a2.71 2.71 0 01.4 0A10.14 10.14 0 0022 .35a3.56 3.56 0 01.73 0A5.4 5.4 0 0024 .34a1.42 1.42 0 01.46 0 11.53 11.53 0 001.66.07h1.34a12 12 0 012.32 0h5.86c.47 0 .94-.06 1.4 0a13 13 0 001.4 0 1.8 1.8 0 00.52 0 .57.57 0 01.51 0 .46.46 0 00.26 0 3.62 3.62 0 01.93 0h1.07a6.61 6.61 0 001.72 0 2.76 2.76 0 01.86 0A12.58 12.58 0 0046 .39a1.75 1.75 0 00.4 0 2.09 2.09 0 01.93 0 6.08 6.08 0 001.13.08h5.99a4.75 4.75 0 011.13 0h.66a9.63 9.63 0 001.2 0 7.16 7.16 0 011.73 0 3.42 3.42 0 00.46 0A11.77 11.77 0 0161 .36a1.29 1.29 0 00.33 0 2.36 2.36 0 01.46 0 1.67 1.67 0 00.59 0 7.7 7.7 0 011.73 0 4.77 4.77 0 001.46 0 1.08 1.08 0 01.4 0 2.09 2.09 0 00.66 0 3.68 3.68 0 01.66-.06h35.52a2.54 2.54 0 01.39 0 7.77 7.77 0 001.67 0 1.77 1.77 0 01.46 0 8.46 8.46 0 001.33.06h3.93a4 4 0 00.6 0 2.64 2.64 0 01.93 0 1.34 1.34 0 00.4 0 1.94 1.94 0 01.72 0h.14a8.07 8.07 0 011.39 0l1.43-.17a2 2 0 01.34 0c.79.08 1.59 0 2.39 0h.93a1.23 1.23 0 00.27 0c.77-.06 1.55.06 2.33 0s1.59 0 2.39 0h6.53c.55.1 1.11 0 1.66 0a2.43 2.43 0 00.27 0h5.19a10.88 10.88 0 011.13.07 12.06 12.06 0 001.59 0 1.3 1.3 0 01.34 0 5.31 5.31 0 001.26 0h1.26a10.52 10.52 0 011.86.06 2 2 0 00.6 0 2.68 2.68 0 01.8 0 2.09 2.09 0 00.66 0 4.86 4.86 0 01.66 0h4.47a3.62 3.62 0 00.93 0 1.76 1.76 0 01.4 0h15.45a3.71 3.71 0 00.67 0 3.62 3.62 0 01.93 0 5.39 5.39 0 001.39 0 .84.84 0 01.27 0 5.9 5.9 0 001.26 0 5.39 5.39 0 011.06.06 2.15 2.15 0 00.67 0 5.84 5.84 0 01.73 0h11.12c.58 0 1.15.06 1.73 0s1.15 0 1.73 0h1.87c.63 0 1.06 0 1.59.05a1.85 1.85 0 00.47 0 13.77 13.77 0 012.13 0h.19a12.17 12.17 0 011.6 0 .57.57 0 00.26 0 7.13 7.13 0 011.13 0 .75.75 0 01.2 0 .4.4 0 01.27.36.41.41 0 01-.22.4 1.84 1.84 0 01-.65.13h-14.73zm-47.9 24.57h.47V21s.31.52.55.89l2.42 3.65h.51V20.3h-.47v4.57s-.26-.47-.53-.87l-2.42-3.7h-.54v5.27zm4.94 0h.49V20.3h-.49v5.27zm1.46 0h.5v-1.85l.94-.93 2.09 2.78h.59l-2.34-3.12 2.2-2.15h-.64l-2.84 2.81V20.3h-.5v5.27zm4.61 0h3.66v-.45h-3.17v-2.06H152v-.43h-2.83v-1.89h3.09v-.44h-3.58v5.27zm7.34.1c1.11 0 1.86-.61 1.86-1.54 0-1.11-.85-1.36-1.87-1.56s-1.43-.37-1.43-1 .48-1 1.29-1a1.25 1.25 0 011.37 1.13h.47a1.64 1.64 0 00-1.85-1.54c-1.06 0-1.76.55-1.76 1.39s.68 1.22 1.65 1.41c1.13.23 1.63.41 1.63 1.15s-.58 1.11-1.35 1.11a1.46 1.46 0 01-1.65-1.4h-.49a1.88 1.88 0 002.1 1.85zm2.59-.1h.49v-2.29h1.51c1.11 0 1.67-.53 1.67-1.5a1.44 1.44 0 00-.36-1 1.62 1.62 0 00-1.24-.46h-2.07v5.27zm.49-2.71v-2.12h1.52c.76 0 1.16.37 1.16 1.05s-.35 1.07-1.21 1.07zm6.1 2.37c-1.26 0-1.93-1-1.93-2.3s.67-2.29 1.93-2.29 1.95 1 1.95 2.29-.68 2.3-1.95 2.3zm0 .45a2.5 2.5 0 002.46-2.75 2.47 2.47 0 10-4.9 0 2.49 2.49 0 002.44 2.75zm3.2-.11h.49v-2.35h1.61c.77 0 1.08.26 1.13 1.17s.07 1.1.19 1.18h.53c-.1-.06-.19-.28-.23-1.12s-.21-1.22-.76-1.4a1.19 1.19 0 00.89-1.26 1.35 1.35 0 00-1.5-1.43h-2.35v5.27zm.49-2.77v-2.06h1.76c.79 0 1.09.37 1.09 1s-.39 1-1.16 1zm5.5 2.77h.5v-4.82h1.77v-.45h-4v.45h1.78v4.82zm4.56.1c1.11 0 1.86-.61 1.86-1.54 0-1.11-.85-1.36-1.87-1.56s-1.43-.37-1.43-1 .48-1 1.29-1a1.25 1.25 0 011.37 1.13h.48a1.66 1.66 0 00-1.86-1.54c-1.05 0-1.76.55-1.76 1.39s.68 1.22 1.66 1.41c1.13.23 1.62.41 1.62 1.15s-.58 1.11-1.35 1.11a1.44 1.44 0 01-1.64-1.4h-.5a1.89 1.89 0 002.17 1.85zm3.46-.1h.52l1-3.84c.09-.34.2-.85.2-.85s.11.52.2.85l1 3.84h.5l1.43-5.27h-.5l-.92 3.56-.24 1s-.14-.64-.24-1l-1-3.58h-.53l-1 3.58c-.1.38-.25 1-.25 1s-.14-.64-.24-1l-.91-3.56H181l1.4 5.27zm5.47 0h3.66v-.45h-3.17v-2.06h2.83v-.43h-2.83v-1.89h3.09v-.44h-3.58v5.27zm4 0h.5l.62-1.66h2.29l.61 1.66h.53l-2-5.27h-.56l-2 5.27zm1.27-2.06l.73-2c.12-.32.26-.76.26-.76s.15.47.26.76l.72 2zm3.84 2.06h.5v-2.35h1.6c.77 0 1.09.26 1.13 1.17s.07 1.1.19 1.18h.58c-.09-.06-.19-.28-.23-1.12s-.21-1.22-.75-1.4a1.19 1.19 0 00.88-1.26 1.35 1.35 0 00-1.5-1.43H197v5.27zm.5-2.77v-2.06h1.75c.8 0 1.09.37 1.09 1s-.39 1-1.16 1zm-12.3-12.02h3.27v-.44h-2.73c.11-.7.75-1.09 1.33-1.44.74-.44 1.47-.79 1.47-1.8A1.44 1.44 0 00187 5.63a1.75 1.75 0 00-1.23.46 1.74 1.74 0 00-.44 1.27h.48a1.46 1.46 0 01.32-1A1.11 1.11 0 01187 6a1 1 0 011.09 1.07c0 .74-.47 1-1.16 1.4s-1.67 1-1.69 2.27zm5.75-.31c-.9 0-1.38-.86-1.38-2.22S190.05 6 191 6s1.37.87 1.37 2.22-.46 2.22-1.37 2.22zm0 .42c1.21 0 1.87-1 1.87-2.64s-.72-2.63-1.86-2.63-1.88 1-1.88 2.63.67 2.64 1.87 2.64zm2.35-.11h3.27v-.44h-2.73c.11-.7.75-1.09 1.33-1.44.74-.44 1.47-.79 1.47-1.8a1.44 1.44 0 00-1.55-1.47 1.71 1.71 0 00-1.22.46 1.71 1.71 0 00-.45 1.27h.48a1.46 1.46 0 01.32-1 1.12 1.12 0 01.84-.32 1 1 0 011.09 1.07c0 .74-.47 1-1.16 1.4s-1.67 1-1.69 2.27zm5.75-.31c-.9 0-1.38-.86-1.38-2.22S198.14 6 199 6s1.37.87 1.37 2.22-.37 2.25-1.37 2.25zm0 .42c1.21 0 1.87-1 1.87-2.64s-.72-2.63-1.86-2.63-1.88 1-1.88 2.63.68 2.64 1.87 2.64zM201.18 30a.46.46 0 00-.38-.38 1.24 1.24 0 00-.27 0 11.48 11.48 0 00-1.55 0 1.08 1.08 0 01-.36 0c-.73-.06-1.46-.05-2.2 0h-.27a22 22 0 00-2.93 0 3.42 3.42 0 01-.64 0c-.73 0-1.46-.06-2.19-.05h-22.64a8.43 8.43 0 00-1 .06 4 4 0 01-.91 0 9 9 0 00-1.46-.06 10.11 10.11 0 01-1.74 0 1.5 1.5 0 00-.36 0 8.8 8.8 0 01-1.92 0 6.84 6.84 0 00-1.28 0 7 7 0 01-.92 0h-21.27a5.06 5.06 0 00-.55 0 6.83 6.83 0 01-1.28 0H128a4 4 0 01-.91 0 4.42 4.42 0 00-1.09 0 3.23 3.23 0 01-.82 0 18.38 18.38 0 00-2.57-.05h-1.74a10 10 0 01-1.73 0 2.36 2.36 0 00-.46 0 17.92 17.92 0 01-2.2 0c-.51 0-1-.07-1.55-.06h-2.47c-1.07 0-2.14.09-3.21 0h-1.83c-.76-.06-1.53.06-2.29 0h-.18l-2.38.05h-9.72c-1.1 0-2.13-.08-3.2 0h-.37l-1.28.18c-1.09-.05-2.19.09-3.29 0h-.46l-2 .06c-.64 0-1.28-.1-1.92 0a.55.55 0 01-.18 0 3.42 3.42 0 00-1 0 1.63 1.63 0 01-.54 0 5.48 5.48 0 00-1.28 0 7.49 7.49 0 01-.82 0H71.1a14 14 0 01-1.83-.05 2.74 2.74 0 00-.64 0 14.59 14.59 0 01-2.29 0 5 5 0 00-.55 0c-.58 0-1.16.05-1.74.05H16.89a7 7 0 00-.91.06 4 4 0 01-.91 0 2 2 0 00-.55 0 8.92 8.92 0 01-2 0 12.62 12.62 0 00-2.38 0 2.81 2.81 0 01-.82 0 4.56 4.56 0 00-.64 0 3.64 3.64 0 01-.45.05c-.61-.07-1.22 0-1.83 0h-.64a13.52 13.52 0 00-2.38 0 12.78 12.78 0 01-1.64 0H.83a3 3 0 00-.52 0 .71.71 0 00-.21 0A.31.31 0 000 30v.13a.72.72 0 010 .29c0 .09 0 .16.1.22a.86.86 0 00.36 0h28.18c.46 0 .92 0 1.37-.06a7.94 7.94 0 011.29 0 8.37 8.37 0 001 .05h92.42c.46 0 .92-.06 1.38 0 1.13.07 2.26 0 3.39 0h2.75a5.94 5.94 0 00.73 0 12.27 12.27 0 012.1 0h.55l.82-.05H138a11.61 11.61 0 011.56 0 3.25 3.25 0 00.54 0h13.66c1.1-.06 2.2-.06 3.3 0h1l1.27-.06h2.29c2.2.06 4.4.06 6.6 0 .71 0 1.41-.05 2.11 0 .92.05 1.84 0 2.75 0H200a3 3 0 00.9-.14.4.4 0 00.3-.41zm0-14.79a.52.52 0 00-.14-.38h-.1c-.2 0-.4-.08-.59 0a.17.17 0 01-.14 0 3 3 0 00-.84 0h-.1a3.25 3.25 0 00-1.12 0 .48.48 0 01-.24 0 7.7 7.7 0 00-.83-.05h-1a6.77 6.77 0 00-.9 0h-.91a5.25 5.25 0 00-.56 0 5.76 5.76 0 01-.59 0h-4.66a1.26 1.26 0 00-.38.06.6.6 0 01-.35 0 1.3 1.3 0 00-.55-.06c-.22 0-.44.11-.66 0a.22.22 0 00-.14 0 1.39 1.39 0 01-.73 0 1 1 0 00-.49 0 1 1 0 01-.35 0 7.39 7.39 0 00-.94 0h-7.14a.75.75 0 00-.21 0 1 1 0 01-.49 0 2.45 2.45 0 00-.38 0h-1.95a1 1 0 00-.35 0 .6.6 0 01-.35 0 .64.64 0 00-.41 0 .51.51 0 01-.32 0 2.65 2.65 0 00-1-.05h-.66c-.22 0-.44.09-.66 0a.37.37 0 00-.18 0 2.56 2.56 0 01-.83 0 3 3 0 00-.59-.06h-.94a6.23 6.23 0 01-1.22 0 3.54 3.54 0 00-.56 0h-.14c-.29-.06-.58.06-.87 0h-.07l-.9.05h-2.44A8.68 8.68 0 00160 15c-.41 0-.82-.08-1.22 0h-.14l-.49-.06c-.42-.05-.83.09-1.25 0a.47.47 0 00-.17 0c-.26 0-.51.05-.77.06s-.49-.1-.73 0a.09.09 0 01-.07 0 .5.5 0 00-.38 0 .26.26 0 01-.21 0 .79.79 0 00-.48 0 1.16 1.16 0 01-.32 0h-2.05a2.07 2.07 0 01-.7-.05.39.39 0 00-.24 0 2.13 2.13 0 01-.87 0 .75.75 0 00-.21 0c-.22 0-.44.05-.66.05H133a7.37 7.37 0 00-.94 0h-.94a1 1 0 00-.34.06.6.6 0 01-.35 0 .31.31 0 00-.21 0 1.23 1.23 0 01-.76 0 2 2 0 00-.91 0 .42.42 0 01-.31 0 .65.65 0 00-.24 0c-.06 0-.12.06-.17 0a2.74 2.74 0 00-.7 0 1 1 0 01-.24 0 2 2 0 00-.9 0 1.92 1.92 0 01-.63 0h-.34a.47.47 0 00-.2 0h-.08a.57.57 0 000 .14v.42a.31.31 0 000 .22h10.79a3.07 3.07 0 00.52-.06 1.16 1.16 0 01.49 0 1.2 1.2 0 00.38.05h35.15a3.08 3.08 0 01.52 0c.43.07.86 0 1.29 0h1a.89.89 0 00.28 0 1.8 1.8 0 01.8 0 .69.69 0 00.2 0h.91a1.68 1.68 0 01.59 0 .5.5 0 00.21 0h5.19a5.82 5.82 0 011.25 0h.39l.48-.06h.87a23.39 23.39 0 002.51 0 4.29 4.29 0 01.8 0 7.36 7.36 0 001 0h10.22a.45.45 0 00.45-.55z"/><path d="M124.27 4c0 2.19.06 4.37.07 6.56v19.61h.74v-.68a12.35 12.35 0 010-1.49 12 12 0 000-1.34v-2.79c0-1.3-.06-2.58 0-3.88v-8.34c-.06-.75-.06-1.49-.06-2.24V1.64c0-.39-.2-.78-.46-.67a.42.42 0 00-.2.39c0 .89-.08 1.78-.1 2.68zM.06 23.81h3l1-3.33h5.33l1 3.33h3.11L8.3 8.12H5.2L.06 23.81zm6-10.29c.25-.83.62-2.41.62-2.41s.35 1.58.6 2.41L8.67 18h-3.9l1.32-4.52zm8.67 10.29h3V8.12h-3v15.69zm5.28 0h3v-6.29h2.42a2.58 2.58 0 012.89 2.67c.12 1.69.16 3.45.53 3.62h2.87v-.15c-.52-.24-.43-1.93-.64-4.15-.19-1.91-.89-2.74-2.25-3.16v-.06a3.59 3.59 0 002.7-3.8c0-2.61-1.89-4.37-4.74-4.37H20v15.69zm3-13.12h3.26a2.1 2.1 0 012.35 2.22c0 1.25-.8 2.15-2.43 2.15H23v-4.37zM43.3 23.81H46v-9c0-1.28-.12-3.25-.12-3.25s.33 1.84.64 3L49 23.82h3l2.53-9.26c.31-1.14.64-3 .64-3h.05s-.13 2-.13 3.25v9h2.79V8.12h-4.32L51.47 16c-.51 2-.91 4.24-.91 4.24S50.11 18 49.59 16l-2.08-7.88H43.3v15.69zm15.73 0h3l1-3.33h5.32l1 3.33h3.12L67.26 8.12h-3.1L59 23.81zm6-10.29c.25-.83.62-2.41.62-2.41s.35 1.58.6 2.41L67.63 18h-3.9l1.32-4.52zm7.78 10.29h3.43l3-5.72 3 5.72h3.48L81 15.58l4.3-7.46H82l-2.73 5-2.72-5h-3.37l4.42 7.49-4.77 8.2zm29.06.33c4.15 0 5.66-3.24 5.66-8 0-5.09-2.11-7.62-5.87-7.62a5.13 5.13 0 00-5.32 5.27 5 5 0 005.08 5.21 4 4 0 003.28-1.65 6.19 6.19 0 01-.89 3.54 2.34 2.34 0 01-2 .94 2.07 2.07 0 01-2.15-1.64h-2.72c.31 2.26 2 3.92 5 3.92zm-.08-7.52A2.68 2.68 0 0199 13.7a2.76 2.76 0 012.79-2.88 2.79 2.79 0 012.83 2.92 2.76 2.76 0 01-2.85 2.88zm12.88 7.55c3.67 0 5.9-3.08 5.9-7.86s-2.23-7.86-5.88-7.86-5.93 3.05-5.93 7.86 2.29 7.86 5.91 7.86zm0-2.55c-2.11 0-3-2.13-3-5.31s.89-5.31 3-5.31 3 2.13 3 5.31-.85 5.31-3 5.31z"/></g></g></svg><svg width="162" height="41.31" viewBox="-1 -1 162 41.31" y="56.25" xmlns="http://www.w3.org/2000/svg"><g data-name="Layer 2"><g data-name="Layer 1"><rect width="160" height="39.31" rx="18.29"/><path d="M19.6 20.26a4.67 4.67 0 014.72-5 4.42 4.42 0 012.73.85 3.72 3.72 0 011.43 2.63h-2.37a1.73 1.73 0 00-1.81-1.51c-1.55 0-2.29 1.3-2.29 3s.89 3 2.31 3a1.77 1.77 0 001.86-1.59h2.37a3.78 3.78 0 01-1.16 2.45 4.15 4.15 0 01-3.06 1.08 4.66 4.66 0 01-4.73-4.91zm9.67-.02c0-2.86 1.84-5 4.73-5a4.64 4.64 0 014.74 5c0 2.87-1.84 5-4.74 5s-4.73-2.13-4.73-5zm7.06 0c0-1.74-.77-3.07-2.32-3.07s-2.33 1.33-2.33 3.07.79 3.07 2.33 3.07 2.32-1.31 2.32-3.07zm-2.64-7h2.5L34.77 15h-1.65zm6.24 2.2h3.19l1.16 4.19c.18.6.55 2.18.55 2.18s.37-1.58.53-2.18l1.18-4.19h3.21V25h-2.13v-6.72s-.34 1.43-.44 1.78l-1.38 5h-2l-1.36-4.94c-.11-.35-.44-1.79-.44-1.79V25h-2.07zm11.44 0h4.31a3.65 3.65 0 012.61.88 3.18 3.18 0 011 2.36A3 3 0 0156 21.81h-2.22V25h-2.41zm4.16 4.5a1.21 1.21 0 001.34-1.27 1.19 1.19 0 00-1.34-1.24h-1.75v2.51zm4.84-4.5H65c1.9 0 3.34 1 3.34 2.76a2.29 2.29 0 01-1.66 2.31 1.92 1.92 0 011.32 1.8c.2 1.25.07 2.46.4 2.58V25h-2.3c-.25-.15-.21-1.27-.36-2.22a1.4 1.4 0 00-1.59-1.37h-1.41V25h-2.37zm4.15 4.23c.93 0 1.42-.44 1.42-1.17s-.46-1.19-1.37-1.19h-1.83v2.36zm7.87-4.23h2.44L78.28 25h-2.49l-.56-1.73h-3.35L71.33 25H69zm2.29 6.14L74 19.27c-.16-.5-.38-1.35-.38-1.35s-.23.85-.39 1.35l-.74 2.31zm4.54-6.14h2.37V23h4.3v2h-6.67zm10.61 0h2.43L95.72 25h-2.49l-.57-1.73h-3.34L88.77 25h-2.38zm2.29 6.14l-.73-2.31c-.16-.5-.37-1.35-.37-1.35s-.23.85-.39 1.35l-.73 2.31zm4.08.42h2.39c.1 1 .73 1.36 1.87 1.36.77 0 1.54-.28 1.54-1s-.78-.92-2.09-1.25c-1.66-.38-3.41-.89-3.41-2.9s1.66-2.94 3.8-2.94 3.68.93 3.77 2.94h-2.31a1.36 1.36 0 00-1.54-1.15c-.83 0-1.38.36-1.38.9s.74.83 2.17 1.15c1.78.41 3.38 1 3.38 3s-1.71 3.12-3.92 3.12c-2.54.01-4.21-1.12-4.27-3.23zm14.54-6.56h2.44l3.45 9.56h-2.49l-.56-1.73h-3.34l-.55 1.73h-2.39zm2.26 6.14l-.72-2.31c-.16-.5-.38-1.35-.38-1.35s-.23.85-.39 1.35l-.74 2.31zm11.31 3.05a4.82 4.82 0 01-2.41.61c-2.89 0-4.71-2.13-4.71-5s1.82-5 4.71-5 4.72 2.13 4.72 5a5.24 5.24 0 01-1.1 3.36l1.09 1-1.1 1.17zm-1.54-1.48l-.87-.84 1.1-1.14.88.84a4.21 4.21 0 00.33-1.77c0-1.74-.75-3.07-2.3-3.07s-2.31 1.33-2.31 3.07.77 3.07 2.31 3.07a2.16 2.16 0 00.86-.16zm4.98-1.51v-6.2h2.37v6.28a1.44 1.44 0 001.65 1.56 1.48 1.48 0 001.62-1.6v-6.24h2.37v6.2c0 2.21-1.33 3.54-4 3.54s-4.01-1.31-4.01-3.54zm9.54-6.2h2.37V25h-2.37zm.87-2.21h2.5L139.24 15h-1.66z" fill="#fff"/></g></g></svg><svg width="32.14" height="22.12" viewBox="-1 -1 32.14 22.12" x="162" y="56.25" xmlns="http://www.w3.org/2000/svg"><g data-name="Layer 2"><path d="M9.1 7.81h-2l.2-3.49L6 7.81H4L6.93 0h2.14l-.25 3.34L10.06 0H12L9.1 7.81zm.43 0h2L14.35 0h-1.9L9.53 7.81zM21.2 7l8.94-2.2-23.09 9.42C5 15.06 2.2 15.59.6 13.71a3 3 0 01-.43-2.89C.82 8.47 2.42 6.7 4 5c-.81 1.61-1.45 3.88.35 5.16a3 3 0 002.49.4l11-2.69h-2.78V5.05c0-.13 0-.11-.07-.09a.31.31 0 00-.09.14l-1 2.72h-2L14.82 0h1.94L16 2.09 17.79 0h5.58l-.54 1.44h-1.72L20.53 3h1.72l-.51 1.37H20l-.71 1.87h2.16L21.2 7zm-4.41.45L19.45.36l-2.84 3.3.18 3.78zm-12 12l-.31.68h-.4l1.31-2.8 1.3 2.8h-.37l-.32-.7zm.6-1.45l-.49 1.13h1L5.39 18zm8.68-.61h-.34v2.68h.34v-2.64zm9 2.69h-.41L21.89 19h-.14v1.14h-.34v-2.7h.41a1.48 1.48 0 01.72.12.74.74 0 01.36.64.73.73 0 01-.66.75l.86 1.17zm-1.35-1.41h.11c.34 0 .72-.07.72-.49s-.4-.48-.74-.48h-.09v1z" fill="#fff" data-name="Layer 1"/></g></svg><svg width="172.33" height="23.51" viewBox="-1 -1 172.33 23.51" y="32.74" xmlns="http://www.w3.org/2000/svg"><g data-name="Layer 2"><path d="M66.58 21h4.07l-.08-8.3 8.73-.07V9.15h-.53a2.38 2.38 0 01-.26.05c-.14 0-.27-.06-.41-.06h-.69c-.22 0-.43.05-.65.06s-.38 0-.57 0-.31.06-.47.06h-.36a1.22 1.22 0 01-.27 0 2.2 2.2 0 00-.36 0 7.7 7.7 0 01-.83.05h-3.36V4.49h4.9a5.45 5.45 0 00.7 0c.18 0 .51-.24.7-.15s.12.15.26.19a1.88 1.88 0 00.58 0c.17 0 .19-.18.39-.16s.18.13.29.16c.18.05 2.47-.08 2.47-.08V1L66.4.9v7.6c0 1 .17 1.93.17 2.92v.75c0 .25.14.47.14.74a3.53 3.53 0 01-.28 1.14 1.91 1.91 0 000 .79c0 .15.11.08.08.3a4.43 4.43 0 00-.09.72V21zm24.4.12c5.14 0 7.75-2.56 7.71-6.85V5.76c0-.13 0-.26-.06-.38a2.74 2.74 0 01-.02-.38c0-.28-.09-.55-.06-.83s0-.36 0-.53a3.26 3.26 0 000-.45V.62h-4.07v4.47a7.49 7.49 0 00.08 1.71 2.37 2.37 0 01.09.36 1.28 1.28 0 01-.07.34 2.21 2.21 0 00-.05.25v.26a2.15 2.15 0 010 .51 2.48 2.48 0 000 .9 7.32 7.32 0 010 .81v3.94c0 2.07-1.18 3.6-3.76 3.62s-3.77-1.43-3.79-3.5L87 .72l-4.1.04v6.11a8.66 8.66 0 000 1 2.24 2.24 0 00.11.34 2.65 2.65 0 010 1 2.84 2.84 0 00-.01.49 2 2 0 000 .54 8.63 8.63 0 010 .88v3.05a1.15 1.15 0 000 .19c0 4.35 2.78 6.77 8 6.72zm9.51-17l6-.05v1.57a2.43 2.43 0 010 .6c0 .19-.06.39-.08.59s0 .41 0 .62v13.24h4.07l-.15-16.63h.15a8.26 8.26 0 00.86 0c.13 0 .21-.08.35-.07a4.38 4.38 0 00.51 0h.42c.44 0 .88.06 1.32.06h2.42V.63l-15.9-.02v3.42zm26.06 16.74c5.13 0 7.75-2.56 7.71-6.85l-.12-13.7h-4.07v2.53a5 5 0 010 .95v10.14c0 2.07-1.17 3.6-3.75 3.62s-3.77-1.43-3.79-3.5V.41h-4.07v5.26a15.3 15.3 0 00.06 2v.25a5.78 5.78 0 01.05.83 4.73 4.73 0 010 .53.87.87 0 000 .36.81.81 0 010 .16v2a4.4 4.4 0 010 1 1.59 1.59 0 00-.06.3v.85c0 4.35 2.78 6.77 8 6.72zm14.6-17.24h4.44c2.16 0 3.2 1.17 3.22 2.8s-1.07 2.76-3.29 2.78h-4.32V3.65zm-3.92 16.81h4.07l-.07-8h3.28c2.53 0 3.77 1.2 4 3.39s.26 4.4.77 4.62h3.9V20a1.79 1.79 0 01-.18-.14.83.83 0 01-.15-.23 2.7 2.7 0 01-.2-.74 23.47 23.47 0 01-.23-2.37c0-.23 0-.47-.07-.71a7.68 7.68 0 00-.11-.82c0-.14-.06-.26-.07-.4a1.52 1.52 0 00-.08-.56c0-.1 0-.22-.06-.31l-.13-.17a.37.37 0 01-.07-.23 1.62 1.62 0 000-.22.39.39 0 00-.07-.26c-.09-.11-.05-.19-.1-.31a2 2 0 00-.42-.63A3.45 3.45 0 00150 11a7.13 7.13 0 00-.88-.32v-.08a4.62 4.62 0 003.63-4.89c0-3.33-2.63-5.56-6.5-5.52l-9.2.08v7.06c0 .89 0 1.87.07 2.8v.52a4.84 4.84 0 01.11 1.19c0 .22-.07.43-.09.64s0 .44 0 .65a6.15 6.15 0 00-.06.74 8.55 8.55 0 01.06 1 8.68 8.68 0 000 1v4.44zm18.26-.16l14.84-.13v-3.39l-10.77.09-.05-5.41h2.27a1.92 1.92 0 00.24 0h.81a6.26 6.26 0 01.75 0 4.75 4.75 0 00.53 0h2.62c.17 0 2.14-.06 2.14 0V8.09L159.45 8V3.52h3.01a5.87 5.87 0 00.84 0h2.81c.18 0 .36.07.53.06s.28-.07.41-.08.38 0 .57-.06a1.56 1.56 0 01.43 0 5.2 5.2 0 00.68 0h1.42V.02l-14.83.11v10.35c0 .19.07.36.07.55a2.93 2.93 0 010 .41 11.7 11.7 0 000 1.45v1.54a2 2 0 010 .23.45.45 0 010 .11v.8a4.74 4.74 0 000 .65v.24c0 .08-.11.33-.1.5s.06.26.06.41v2.55M41.23 18l.05-5.42 9.36.08V9.33l-9.34-.06V4.79l10.7.09V1.46h-6.11l-.34-.05h-8.21v6.52a1.06 1.06 0 000 .19v13.24l14.66.15v-3.39h-2.96c-.33 0-.41.06-.63.06h-1.95c-.38 0-.77-.05-1.15-.05h-1.17A.54.54 0 0044 18a.38.38 0 01-.16 0h-2.43M18 21.22h4.07l.07-8.83 7.89.07-.03 8.86h4.07l.15-20.02h-4.07v3.57a2.91 2.91 0 010 .59 2.66 2.66 0 000 .49v.8a3 3 0 010 .74 3.56 3.56 0 000 .8v.85l-7.95-.09.07-7.85h-4.06v5.56a3.09 3.09 0 000 .43 2.46 2.46 0 010 .47v2M5.89 21.11h4.06l.15-16.6 6 .06V1.14h-2.83a5.25 5.25 0 01-.69 0H4.79L2.45 1H0v3.43l6 .05v2.68a1.66 1.66 0 000 .22v6.34a1.84 1.84 0 000 .33 1.22 1.22 0 010 .33v.21a.3.3 0 01-.06.14 1.68 1.68 0 000 .5v5.86" data-name="Layer 1" fill="#fff"/></g></svg><svg width="24.8" height="22.87" viewBox="-1 -1 24.8 22.87" x="159.71" y="97.56" xmlns="http://www.w3.org/2000/svg"><g data-name="Layer 2"><path d="M15 20.87h.31a11.71 11.71 0 001.32-.09 10.63 10.63 0 001.23-.23 7.92 7.92 0 002.12-.85 6.73 6.73 0 00.88-.63 5.68 5.68 0 00.73-.74 5.51 5.51 0 00.57-.88 4.8 4.8 0 00.41-1 5.91 5.91 0 00.23-1.11 1.89 1.89 0 000-.58 1.66 1.66 0 010-.22 1.92 1.92 0 000-.24c0-.13-.06-.26-.08-.39s0-.1-.05-.16a1.5 1.5 0 010-.3 1.48 1.48 0 00-.07-.42 4.91 4.91 0 00-.26-.63 3 3 0 00-.16-.37c0-.08-.1-.15-.14-.24a1 1 0 00-.06-.16 2.85 2.85 0 00-.31-.38c-.07-.08-.12-.17-.19-.25s-.2-.13-.29-.21l-.28-.25-.39-.38a1.9 1.9 0 00-.39-.31c-.17-.07-.33-.16-.49-.24a14.21 14.21 0 00-2-.72c-.74-.21-1.5-.39-2.26-.56C12.4 7.67 11 7.18 11 5.55c0-1.43 1.45-2.34 3.64-2.32s3.64 1 3.84 3.06h3.9C22.12 2.28 19.22 0 14.71 0a13.82 13.82 0 00-1.58.08 10.11 10.11 0 00-1.44.26 8.65 8.65 0 00-1.3.44 6.53 6.53 0 00-1.15.65 5.8 5.8 0 00-1.13 1L8 2.6c-.08.12-.17.23-.25.36a2.55 2.55 0 01-.13.29 2.69 2.69 0 00-.26.64 2.42 2.42 0 000 .25c0 .14-.09.26-.12.4s0 .11 0 .17v.42a2.44 2.44 0 010 .27v.34a3.08 3.08 0 00-.24.74c0 .17 0 .34.08.5a4.77 4.77 0 00.24 1 4.23 4.23 0 001 1.54 5.71 5.71 0 001.45 1.08 10.58 10.58 0 001.81.74c.67.21 1.35.39 2 .55l.26.06c3.05.73 4.95 1.14 4.94 3.1s-1.85 2.57-3.92 2.55c-2.86 0-4.23-1-4.49-3.41h-4a7.49 7.49 0 00.3 2 1 1 0 00.08.25c0 .05.09.11.13.17l.23.31a1.78 1.78 0 01.27.36c.06.13.09.27.15.39a1.88 1.88 0 00.14.24.87.87 0 00.11.18c.22.25.41.51.64.74.08.08.18.14.26.22l.08.06v.05c0 .05.1.05.15.1s.09.12.15.17a3.15 3.15 0 00.5.3 8.73 8.73 0 001.08.49 11.35 11.35 0 002.58.58 13.73 13.73 0 001.7.1zm-15-.58h4.07v-5.56a1.68 1.68 0 000-.45v-.17a1.23 1.23 0 010-.33v-1.44a2.68 2.68 0 010-.49c0-.22 0-.43.07-.65a6.27 6.27 0 000-.75V2.78L4.24 1V.28L.18.24 0 20.29z" fill="#fff" data-name="Layer 1"/></g></svg><svg width="25.51" height="22.26" viewBox="-1 -1 25.51 22.26" x="172.33" y="32.74" xmlns="http://www.w3.org/2000/svg"><g data-name="Layer 2"><path d="M7.18 20.12h4l.1-10.32c0-1.4-.08-3.5-.08-3.5h.06S12 8 12.66 9.09l6.75 11.13h3.93v-5.97c0-.45-.09-.69-.07-1.06a17.5 17.5 0 00.1-2.71c-.05-.55-.06-1.1-.06-1.66a7.3 7.3 0 010-.81c0-.18.08-.34.09-.52.06-1.72 0-3.44 0-5.16V.16h-4l-.09 10.52c0 1.4.08 3.48.08 3.48h-.06s-.74-1.72-1.37-2.82L11.48.1 7.36.06v3.72a13.51 13.51 0 000 1.91 3 3 0 010 .73 6 6 0 000 .85v12.8zM0 20.05h4.07V9.58a3.74 3.74 0 000-.75 2 2 0 010-.35 1.5 1.5 0 010-.37 3 3 0 000-.6 1.36 1.36 0 010-.45v-.74a1.35 1.35 0 00.05-.29 2.8 2.8 0 000-.29V0H.18v14.38a11.82 11.82 0 010 1.33 4.85 4.85 0 000 .66v3.68z" fill="#fff" data-name="Layer 1"/></g></svg><svg width="54.29" height="22.46" viewBox="-1 -1 54.29 22.46" y="170.88" xmlns="http://www.w3.org/2000/svg"><g data-name="Layer 2"><path d="M37.45 20.19h.25c1.19 0 2.37-.05 3.56-.07a4.24 4.24 0 01.62 0 1.52 1.52 0 00.32.06h1.86c.17 0 .32 0 .49.05s.34 0 .51 0h2c.54 0 1.07 0 1.6-.06.23 0 3.59-.08 3.59-.06v-3.39l-10.77.09-.05-5.41c0-.03 2.25 0 2.46 0a2.42 2.42 0 01.38 0 3.26 3.26 0 00.54 0h.77c.25 0 .29-.08.44-.1a10.26 10.26 0 011.57 0h3.21V7.96c0-.01-2 .04-2.15.04h-4.6a2.72 2.72 0 00-.49 0h-2.15V3.51l10.69-.09L52 0h-2.69A10.25 10.25 0 0048 .05h-.42c-.17 0-.34.06-.52.06a1.35 1.35 0 00-.4 0c-.44.08-.9 0-1.34.06s-.61.06-.92.07A8.26 8.26 0 0043 .16a6.39 6.39 0 01-1-.02h-2.07a2.54 2.54 0 00-.39 0c-.75 0-1.49.05-2.23.05v6.95c0 .2-.06.38 0 .58a1.5 1.5 0 000 .3.66.66 0 01.06.25v.42a1.27 1.27 0 01.06.28v1.26a4.91 4.91 0 000 .67v2.02c0 .23-.05.29-.05.45 0 1.3.05 2.61.06 3.91v2.97zm-15.06-2.34v.1-6.5l7.88-.07.08 8.83h4.07V8.42a8.54 8.54 0 000-1.34 4 4 0 01-.06-.69 1.76 1.76 0 01.07-.45 2.64 2.64 0 000-.49V.21L30.13.2l.06 7.85-7.88.07-.07-7.85-4.06.03v8.25c0 .16-.05.3-.06.46s.11.32.16.49 0 .48 0 .7v.56a3.62 3.62 0 000 .57v.38c0 .13-.05.34 0 .52 0 .36.06.7.07 1s0 .8 0 1.2v5.85h4.07s0-4.45-.06-7M0 3.88h6l.15 16.63h4.06v-6.09a4.18 4.18 0 010-.5 2.72 2.72 0 00-.05-.49v-1.67c0-.41-.08-1-.09-1.59v-.31c0-.1.05-.21.05-.32v-.69a4.29 4.29 0 01.08-.72 1.27 1.27 0 000-.55 4.87 4.87 0 010-.66V3.79h6V.37h-4.05a8.42 8.42 0 00-.87 0 1 1 0 01-.24 0H8.33C8 .45 7.8.35 7.57.35s-.65.07-1 .08-.9.07-1.36.08S4.1.46 3.55.44C2.37.39 1.18.44 0 .46v3.42z" fill="#fff" data-name="Layer 1"/></g></svg></svg>