<svg width="193" height="143" xmlns="http://www.w3.org/2000/svg" xmlns:xlink="http://www.w3.org/1999/xlink"><svg width="113.33" height="52.34" viewBox="-1 -1 113.33 52.34" y="89.82" xmlns="http://www.w3.org/2000/svg"><g data-name="Layer 2"><g data-name="Layer 1" fill="#fff"><path d="M57.33 33.88s-.05 0-.06.07a.53.53 0 000 .18c0 .06 0 .13-.05.2a.94.94 0 000 .16 1.11 1.11 0 01-.13.4l-.22.35v.16c0 .06-.05.08-.07.12a.53.53 0 00-.13.23 1 1 0 01-.06.34s-.06.06-.08.1a1.28 1.28 0 01-.15.25s-.08.06-.11.1v.12c-.06.11-.13.2-.19.31s0 .1-.08.16a1.17 1.17 0 000 .2 7.49 7.49 0 01-.25.76c-.09.27-.19.53-.29.8l-.25.61c-.08.19-.13.38-.22.55a1 1 0 00-.11.23 2.26 2.26 0 01-.16.26c-.05.08-.07.18-.13.26a.24.24 0 000 .1.25.25 0 010 .12.9.9 0 00-.12.36.78.78 0 010 .22v.07a.7.7 0 000 .14.64.64 0 01-.07.27c-.06.11-.09.22-.15.33a.66.66 0 00-.14.32c0 .23-.24.34-.34.51s0 .11-.08.16a.43.43 0 000 .07 1.22 1.22 0 00-.09.27.93.93 0 01-.15.48 1 1 0 00-.13.23c0 .1-.05.21-.1.31s-.09.13-.11.19a.37.37 0 010 .14l-.12.22a2.64 2.64 0 01-.15.29s-.1.09-.09.12.26 0 .19 0h.09s-.1.06-.13.08a.4.4 0 00-.18.1 1.35 1.35 0 00-.19.38.41.41 0 000 .17l-.11.14a1.14 1.14 0 00-.19.4 1.63 1.63 0 00-.07.3v.28a.47.47 0 01-.11.25c-.05 0-.14.1-.17.18a.24.24 0 01-.12.16s-.09.06-.12.11a.63.63 0 01-.18.22.66.66 0 00-.14.15.9.9 0 01-.3.21c-.05 0 0 0 0 .07s.14.15.2.21l.23.22.53.51.31.3s.1.12.13.12c1.35.09 2.29-2.28 2.74-3.18S60.92 31.87 62 29.5s4-10.21 6.88-16.92 3.07-9.43 2.82-10.3S69.64.05 67.83 0s-4.5.39-18.62 7.93l-.62.33a5 5 0 01-.5.18c-.31.12-.45.53-.7.72a1.13 1.13 0 01-.59.15 1.33 1.33 0 00-.5.19 7.86 7.86 0 00-.71.36 3.24 3.24 0 00-.55.56c-.18.21-.43.2-.67.25a.82.82 0 00-.58.38 1.47 1.47 0 01-.32.38 1 1 0 01-.65.12 1.08 1.08 0 00-.69.29c-.22.14-.46.25-.68.37s-.24.23-.38.35-.25.13-.34.26c-.27.35 0 .68-.52.85a1.11 1.11 0 01-.6 0c-.13 0-.33-.16-.47-.1s-.08.1-.12.14a1.58 1.58 0 01-.53.4 3.83 3.83 0 00-.8.29c-.17.12-.34.25-.52.36a3.62 3.62 0 00-.82.69 3.32 3.32 0 01-.82.63 4.24 4.24 0 00-.76.48.59.59 0 01-.59.18c-.48-.06-.52.41-.78.71s-.25.14-.44.16a.65.65 0 00-.49.23 2.27 2.27 0 01-.7.45 4.42 4.42 0 00-.69.34c-.57.35-1.17.64-1.73 1-.77.51-1.54 1-2.3 1.54l-.72.5L34.17 20c2.26-1.67 12.26-7.47 21.18-12.19s12.71-5.26 13.37-5.24-.49 4.48-1.1 5.43-.13.94-.46 1.21a1 1 0 00-.24.85c-.49.45-.31.74-.44 1.06a7.78 7.78 0 00-.66 1.66c-.11.68-.86 1.18-.86 1.67a3.38 3.38 0 01-.38 1.21c-.13.33.12.45-.15.7a10.58 10.58 0 00-1.3 2.87 13.18 13.18 0 01-1.25 3.09c-.5.85-.11.73-.33 1.06a5.74 5.74 0 00-.5 1c-.08.19-.16.39-.23.59a3.22 3.22 0 00-.19.6.28.28 0 010 .13 1.1 1.1 0 000 .16v.3a.76.76 0 01-.08.21c0 .07 0 .15-.06.22a.84.84 0 01-.25.36.72.72 0 00-.21.33 2.25 2.25 0 00-.14.44c0 .12-.09.23-.1.35a1 1 0 01-.05.3 1.5 1.5 0 00-.16.34 1.4 1.4 0 01-.22.63c-.05.06-.14.11-.19.19s-.06.12-.1.17a2.39 2.39 0 01-.13.21s-.05.06-.05.09-.06.18-.06.29-.06.22-.08.26-.13.3-.2.44-.16.25-.24.38-.29.47-.42.72a7.65 7.65 0 00-.32.71v.14a.49.49 0 000 .17.48.48 0 010 .18.25.25 0 000 .21v.36zm-22.53-16a.07.07 0 000 .07l-.11.13h-.24c-.11 0-.06 0 .05-.09s0-.08 0-.08v-.07c0-.06 0 0 .08 0h.19c.1 0 .09 0 0 .07zm1.9-1h-.18v-.05a.07.07 0 01.08-.07.27.27 0 01.12 0h.06zm.44-.4a.11.11 0 010-.06h.08c.08 0 0 0 0 0zm.25-.21h-.06c-.06 0 0 0 0 0h.07c.07 0 0 0 0 0zm11.14-5.84h-.07c-.07 0 0 0 0 0v-.06c0-.06.05 0 .07 0a.17.17 0 010 .05zM49 10zm.28-.26h-.08.06c.06 0 0 0 0 0a.14.14 0 01-.06 0zm5.86-3.52s0 .06-.07.07 0 0-.08 0-.1-.08 0-.12a.22.22 0 01.12 0zm.72-.42a1.3 1.3 0 01-.28 0h.15c.15 0 .21.06.13.07z"/><path d="M4.26 38.41a1 1 0 00.3.32 4.77 4.77 0 001.11.64c1 .28 2.24-1 3-1.61s1.64-1.32 2.47-2c2.14-1.66 4.31-3.27 6.5-4.85 3.63-2.61 7.32-5.13 11-7.6l15-2.5c5.2-.81 16.73-2.19 18.86.19l.5-.76a6.31 6.31 0 00-5.2-3 157.37 157.37 0 00-24 2.67c-11.44 2-21.41 4.22-24.7 4.79s-3.89.75-5.61.94-3 .18-3.46.54a.38.38 0 00.23.34c.26.15 0 .35.33.76s.6.39.79.78.42.35 1.39.22a29.36 29.36 0 005.86-.78c3-.76 11.71-2.44 12.8-2.61 0 0-5.81 4.08-7.69 5.52-1.45 1.11-2.89 2.24-4.33 3.37l-2.77 2.1A10.41 10.41 0 014 37.81c.16.25.2.43.31.6zm69.9-24.93c0 .45-.15.38.21.52s.65 0 .73-.28a6.42 6.42 0 00.44-1.58 3.31 3.31 0 00-1.23-1.53c-.45-.18-.76-.12-1.16-.26s-.42 0-.36.44-.16 1.09.07 1.25a2.39 2.39 0 01.65.6l.23.42a2.83 2.83 0 01.19.24c.06.08.22 0 .23.18zm-6.93 14.79c0 .08-.08.14-.08.21s-.07.16-.1.19a1.51 1.51 0 00-.11.22.94.94 0 00-.07.22.49.49 0 010 .12c0 .05-.07.08-.09.14a.11.11 0 000 .08s0 .06-.05.08a1.36 1.36 0 00-.1.21c0 .06-.13.14 0 .18a1.2 1.2 0 01-.13.31c0 .08-.16.18-.15.28s0 .05 0 .12-.1.12-.12.18 0 0 0 .08-.11.15-.15.23a2.6 2.6 0 01-.21.36c0 .07-.06.15-.1.23a2 2 0 01-.18.23 1.05 1.05 0 00-.17.29.33.33 0 00-.08.19h.05c.05 0-.07.14-.08.18a.74.74 0 010 .14c0 .07-.18.18-.15.27s0 .09 0 .13 0 .06-.05.09 0 0 0 .06-.07.14-.09.21 0 .06 0 .1a3 3 0 01-.08.32 4.08 4.08 0 01-.43.83c-.07.14-.11.28-.17.42s-.19.28-.27.43a2.21 2.21 0 00-.21.5c0 .17-.06.36-.12.53s-.09.24-.13.36-.16.33-.23.49-.11.28-.18.41a4.23 4.23 0 00-.33.9c-.21.82-.38 1.08-.42 1.41s-.3.58-.23.87v.14c0 .03.14 0 .14.08s.12 0 .17.11a.49.49 0 000 .11 2.52 2.52 0 00.24.33 2.43 2.43 0 00.2.25c.2.21.41.39.6.6.46.48.9 0 1.13-.37s1.2-3.87 1.81-5.14 3.1-7.21 3.42-7.87 2.1-5.08 2.5-6.21a4.5 4.5 0 00.37-2.49c-.16-.56-1-1-1.82-1.18s-.74.08-.7.52a5 5 0 01-.41 1.36 1.74 1.74 0 00-.15.91c.07.22-.24.5-.5.92s-.08.52 0 .71-.32.54-.42.86-.33.15-.41.41-.11.42-.17.63a4.75 4.75 0 01-.17.49 3.45 3.45 0 00-.25.41v.09a.26.26 0 00.15 0c0 .1.18 0 .18.13s-.06.1 0 .09-.23.15-.3.19a1.39 1.39 0 00-.21.21 2.63 2.63 0 01-.29.37s0 .12-.06.17a1.11 1.11 0 00-.08.3zm44.09-23.01c-.06-.33-.13-.21 0-.47s-.17-.48-.26-.61 0-.12-.07-.36-.15-.14-.37-.26 0-.19 0-.19a6.74 6.74 0 00-2.65-2.12 9.55 9.55 0 00-4.17-.09c-.41.13-1.89.32-2.29.46A13.11 13.11 0 01100 2c-.33.06-1.23.56-1.79.74S95.84 3.81 95.46 4a8 8 0 01-1.06.67c-.21 0-.27.21-.44.4s-.24.06-.39.11-.26.24.09.32-.69.57-.84.65-.15 0-.13-.2-.52.2-.8.45a17.93 17.93 0 00-1.52 1.5c-.22.31.12.58-.09.65a2.42 2.42 0 00-.8.76c-.11.21-.46.05-.52.28s-.35.45-.64.71-.22 0-.45.3a2.46 2.46 0 01-.62.64c-.09 0-.09.21 0 .42s-.29.33-.47.41a.5.5 0 00-.3.38c0 .13-.09.12-.35.27s-.1.33-.24.44a9.19 9.19 0 00-1 1.07 10.85 10.85 0 00-.49 1.06 1 1 0 01-.28.34v.16a4.2 4.2 0 00-.32.49c0 .11.27.19.18.24s-.33-.05-.37.27-.14.15-.28.24-1.68 2.22-1.91 2.55-1.14 2-1.31 2.26-.45.24-.57.42.13.16 0 .37-.38.29-.51.72-.19.44-.33.56 0 .43-.14.49 0 .33 0 .47-.17 0-.31.05-.16.22-.17.36a.54.54 0 01-.16.4.53.53 0 00-.23.43c0 .16-.11.49-.22.52s-.09 0-.27.39a1.51 1.51 0 01-.29.46v.49c0 .27-.12.35-.28.28s-.21.22-.19.5a.56.56 0 01-.24.55c-.17.15-.09.59-.12.83s-.14.07-.31.14-.22.52-.25.71-.09 0-.25.09 0 .23-.12.39a1.57 1.57 0 00-.29.48c-.08.25-.09.34-.17.43s0 .23-.06.38 0 0-.15.22 0 .4-.17.63a.82.82 0 00-.16.55c0 .18-.23.45-.43.61a3.43 3.43 0 00-.44.9c-.15.31 0 .34-.15.63s0 .46-.29.65-.31.76-.36.8 0 .26-.12.43a2.2 2.2 0 01-.23.72 2.65 2.65 0 00-.47 1.11c0 .26-.09 0-.1.24s.08.21-.19.53a1.49 1.49 0 00-.25.61 2.8 2.8 0 00-.09.31v.36c0 .12-.12.29-.16.44a.44.44 0 01-.06.16.69.69 0 000 .38 2.48 2.48 0 000 .27c0 .3-.1.6-.15.9a2.86 2.86 0 01-.33 1c-.27.57.17 1 .44 1.31a4.28 4.28 0 01.73 1.16c.2.53 1.48.11 1.54-.14a8.42 8.42 0 00.2-1.48c0-.17.22-.49.22-.67v-1.11c0-.43.25-1.35.34-2a20.89 20.89 0 01.64-2.38c.12-.39.94-2.17 1-2.49s.29-.79.31-.84.13-.32.23-.66.87-1.79 1-2 .63-1.41.76-1.64.2-.59.48-1.17.24-.51.23-.58a.32.32 0 01.06-.3 1.75 1.75 0 00.28-.67c.1-.35 1.94-3.42 2.07-3.72s.2-.3.3-.53.08-.41.17-.64a4 4 0 01.68-.87c.1-.08.09-.18.14-.28a.67.67 0 00.07-.27 1 1 0 01.08-.32c.06-.18.16-.1.3-.24a3.63 3.63 0 00.44-.78c.18-.33.85-1.21 1.06-1.61a12.26 12.26 0 01.91-1.46 17.42 17.42 0 001.32-1.71c.46-.72 2.74-3.69 3.3-4.26a42.91 42.91 0 014.07-4.16 27.69 27.69 0 014.74-2.89 5.4 5.4 0 011.46-.65c.72-.14 3.73-1.42 6.09-1.53s2.51.16 2.63.26 0 .83-.1 1.15-.47 1.13-.5 1.26-.17.12-.16.4 0 .45-.14.53a1.19 1.19 0 00-.52.45c-.11.2 0 .46-.1.63s-.42.4-.42.57-.26.34-.37.56-.26.16-.42.17-.18.39-.26.6a2.33 2.33 0 01-.36.52s.27 0 0 0-.48.41-.61.45-.14.3-.27.44-.63.24-.67.55a.66.66 0 01-.47.55c-.18 0-.88.85-1.06 1.06s-1.87 1.6-2 1.77a7.5 7.5 0 00-.75.73c-.08.16-1.28.93-1.48 1.12a7.94 7.94 0 00-.88.67 16.18 16.18 0 01-1.54 1.36 3.67 3.67 0 00-.79.62 10.17 10.17 0 01-1.14.87 6.43 6.43 0 01-1 .8c-.3.15-.49.56-.82.69s-1.16.83-1.45 1-.25.17-.36.33-.2.17-.42.23a8.8 8.8 0 00-1.38 1c-.16.16-1.11 1-1.27 1.14a1.65 1.65 0 00-.51.39c-.12.15-.2 0-.28.2a.86.86 0 01-.28.4l-.73.69c-.11.1-.61.78-.76.8s-.09.28-.22.38-.37.57-.54.74-.11.25-.11.41-.09.07-.19.25-.47 1-.54 1.13a1.42 1.42 0 00-.16.44c-.06.26-.11.13-.17.33s.06.23.15.26 0 .12 0 .16-.12.25 0 .33-.11.09-.2.34a3.11 3.11 0 00.18 1.07 2.55 2.55 0 01.2.76c0 .36.35.58.45.89a2.62 2.62 0 00.35.84c.2.26.22.56.44.72s.21.14.23.4.22.25.28.37a6.25 6.25 0 001 1.17c.17.06.18.08.23.21s.94 1.11 1.26 1.12-.06-.14.47.32a34 34 0 004.92 2.17c.69.21 1.66.31 2.06.4a1.23 1.23 0 00.94-.11c.45-.17 1 .28 1.57.38a14.31 14.31 0 003.08-.23c.21-.08.15-.66.15-.66h-.6c-.28 0-.26-.2-.8-.55a8.83 8.83 0 00-2.9-.49 18.06 18.06 0 01-5.95-1.85c-3.5-1.55-3.66-2.28-4.7-4.28s.09-4.09 1.15-5.43a31.5 31.5 0 015.82-5.11c3-2.19 8.91-7.1 12.19-10a30.46 30.46 0 005.82-6.79 7.63 7.63 0 001.11-3.37zM97.78 42.89l.21-.08c.21-.09.14 0 .21 0s0 0 .06.12-.12 0-.2.11 0 .22-.11.21-.09-.09-.29-.27 0-.09.12-.12z"/></g></g></svg><svg width="144.01" height="23.7" viewBox="-1 -1 144.01 23.7" y="48.93" xmlns="http://www.w3.org/2000/svg"><g data-name="Layer 2"><g data-name="Layer 1" fill="#fff"><path d="M131 .7h-20.3a2.62 2.62 0 01-.28 0 4.29 4.29 0 00-.8 0h-1.5a4.88 4.88 0 00-1.08 0 2.3 2.3 0 01-.37 0h-51.8a2.91 2.91 0 00-.66 0H34.28a4.51 4.51 0 00-1.27 0c-.42-.05-.84 0-1.27 0a1.15 1.15 0 00-.37 0 2.62 2.62 0 01-.56 0 8.17 8.17 0 00-1.64 0 1.82 1.82 0 01-.33 0 6.84 6.84 0 00-1.5 0H26.2a2.62 2.62 0 01-.79 0 2.69 2.69 0 00-.75 0 2.36 2.36 0 01-.75 0h-1.08a8.18 8.18 0 01-1 0 14.2 14.2 0 01-1.46 0H19a18.5 18.5 0 00-2 0h-.19a8.68 8.68 0 00-1.69 0 3.46 3.46 0 01-.85 0 1.73 1.73 0 00-.6 0 .6.6 0 01-.19 0 14.24 14.24 0 00-1.6 0H3.07C2.47.7 1.66.82 1 .79.69.78.41.75.13.72A.14.14 0 010 .59.23.23 0 01.22.28h2.44a4.23 4.23 0 00.71 0 2 2 0 01.42 0h1.45A4.7 4.7 0 016 .22a7.11 7.11 0 001.22 0 1.82 1.82 0 01.33 0 2.1 2.1 0 00.56 0 1.94 1.94 0 01.42 0A1.85 1.85 0 009 .24a3.62 3.62 0 01.57 0 3.76 3.76 0 00.75 0 .33.33 0 01.14 0 2.06 2.06 0 00.7 0 2 2 0 01.42 0h.56a2 2 0 01.42 0 6.12 6.12 0 00.85 0h.37a1.31 1.31 0 01.28 0 7.91 7.91 0 001.46 0H16a3.39 3.39 0 00.9 0 .86.86 0 01.32 0 9.31 9.31 0 001.18 0h.94A8.17 8.17 0 0121 .27h6.14a1.14 1.14 0 00.37 0 .41.41 0 01.36 0 .28.28 0 00.18 0 2.43 2.43 0 01.66 0 1.93 1.93 0 00.24 0h.51a5 5 0 001.22 0 1.79 1.79 0 01.61 0 10 10 0 001.22 0 1.32 1.32 0 00.28 0 1.3 1.3 0 01.65 0 4.3 4.3 0 00.8 0h4.23a3.57 3.57 0 01.8 0 3.7 3.7 0 00.47 0 5.9 5.9 0 00.84 0 5 5 0 011.22 0h.33a5.89 5.89 0 01.94 0 2.08 2.08 0 00.23 0 1.14 1.14 0 01.32 0 1.19 1.19 0 00.42 0 5.06 5.06 0 011.23 0 3.17 3.17 0 001 0 1.32 1.32 0 01.28 0 1.48 1.48 0 00.47 0 2.49 2.49 0 01.47 0h14.2L69 .17h3.81A5.72 5.72 0 0074 .14a1.82 1.82 0 01.33 0 4.23 4.23 0 00.94 0H78a3.1 3.1 0 00.43 0 2 2 0 01.65 0 .88.88 0 00.28 0 1.3 1.3 0 01.52 0H80a6.4 6.4 0 011 0h1.23c.56.06 1.13 0 1.69 0h.84c.55-.05 1.1 0 1.65 0h6.3c.39.07.78 0 1.17 0h3.85a7.14 7.14 0 01.8 0 8.53 8.53 0 001.13 0 .6.6 0 01.23 0 4.41 4.41 0 00.89 0h.89a7.28 7.28 0 011.32 0 1.19 1.19 0 00.42 0 1.76 1.76 0 01.56 0 1.48 1.48 0 00.47 0 3.62 3.62 0 01.47 0h3.15a2.91 2.91 0 00.66 0 1.29 1.29 0 01.28 0h10.91a2.47 2.47 0 00.47 0 2.43 2.43 0 01.66 0 3.58 3.58 0 001 0 1.21 1.21 0 01.19 0 3.79 3.79 0 00.89 0 3.78 3.78 0 01.75 0 1.24 1.24 0 00.47 0h13.58a8.36 8.36 0 011.5 0h.14a7.11 7.11 0 011.13 0 .55.55 0 00.18 0 4.28 4.28 0 01.8 0h.14a.27.27 0 01.19.25.29.29 0 01-.16.28 1 1 0 01-.45.09H131zM97.19 18.05h.33v-3.21s.22.37.39.63l1.71 2.58h.38v-3.72h-.33v3.23s-.19-.34-.37-.62l-1.71-2.61h-.38v3.72zm3.48 0h.33v-3.72h-.35v3.72zm1 0h.35v-1.31l.66-.66 1.47 2h.42L103 15.85l1.56-1.52h-.46l-2 2v-2h-.35v3.72zm3.25 0h2.58v-.32h-2.23v-1.45h2V16h-2v-1.36h2.18v-.31H105v3.72zm5.18.07c.78 0 1.31-.43 1.31-1.09s-.6-1-1.32-1.1-1-.26-1-.7.34-.68.91-.68a.88.88 0 011 .8h.34a1.18 1.18 0 00-1.34-1.09c-.74 0-1.24.39-1.24 1s.48.86 1.17 1 1.15.28 1.15.81-.41.78-1 .78a1 1 0 01-1.16-1h-.34a1.32 1.32 0 001.5 1.28zm1.82-.07h.35v-1.62h1.07c.78 0 1.18-.37 1.18-1.06a1 1 0 00-.26-.72 1.15 1.15 0 00-.87-.32H112v3.72zm.35-1.91v-1.5h1.07c.54 0 .83.26.83.74s-.25.76-.86.76zm4.31 1.67c-.89 0-1.36-.72-1.36-1.62s.47-1.62 1.36-1.62 1.37.72 1.37 1.62-.48 1.62-1.37 1.62zm0 .31a1.76 1.76 0 001.74-1.93 1.75 1.75 0 10-3.47 0 1.75 1.75 0 001.73 1.93zm2.26-.07h.35v-1.66h1.13c.54 0 .76.18.8.83s0 .77.13.83h.38c-.07-.05-.14-.2-.17-.8s-.15-.85-.53-1a.83.83 0 00.62-.89 1 1 0 00-1-1h-1.66v3.72zm.35-1.95v-1.46h1.23c.57 0 .77.26.77.73s-.27.73-.81.73zm3.88 1.95h.35v-3.41h1.25v-.31h-2.86v.31h1.26v3.41zm3.22.07c.78 0 1.31-.43 1.31-1.09s-.6-1-1.32-1.1-1-.26-1-.7.34-.68.91-.68a.88.88 0 011 .8h.33a1.16 1.16 0 00-1.31-1.09c-.74 0-1.24.39-1.24 1s.48.86 1.17 1 1.14.28 1.14.81-.4.78-1 .78a1 1 0 01-1.16-1h-.35a1.34 1.34 0 001.51 1.28zm2.44-.07h.37l.72-2.71c.07-.24.14-.6.14-.6s.08.37.15.6l.71 2.71h.35l1-3.72h-.35l-.65 2.51c-.07.27-.17.73-.17.73s-.1-.45-.17-.72l-.68-2.52h-.38l-.68 2.53-.18.71s-.1-.46-.17-.73l-.64-2.51h-.36l1 3.72zm3.86 0h2.58v-.32H133v-1.45h2V16h-2v-1.36h2.18v-.31h-2.52v3.72zm2.84 0h.36l.43-1.17h1.62l.43 1.17h.38l-1.42-3.72h-.39l-1.41 3.72zm.9-1.46l.52-1.38c.08-.23.18-.55.18-.55s.11.34.19.55l.51 1.38zm2.69 1.46h.35v-1.66h1.13c.54 0 .77.18.8.83s0 .77.13.83h.38c-.07-.05-.14-.2-.16-.8s-.15-.85-.54-1a.84.84 0 00.63-.89 1 1 0 00-1.06-1h-1.66v3.72zm.35-1.95v-1.46h1.24c.56 0 .77.26.77.73s-.28.73-.82.73zm-8.64-8.49H133V7.3h-1.93c.08-.5.53-.77.94-1s1-.56 1-1.27A1 1 0 00132 4a1.17 1.17 0 00-.86.33 1.2 1.2 0 00-.32.89h.34a1 1 0 01.23-.7.78.78 0 01.59-.23.71.71 0 01.77.76c0 .52-.33.7-.82 1s-1.18.69-1.19 1.6zm4.05-.22c-.63 0-1-.61-1-1.56s.34-1.57 1-1.57 1 .61 1 1.57-.32 1.56-1 1.56zm0 .29c.85 0 1.32-.72 1.32-1.85S135.59 4 134.78 4s-1.32.7-1.32 1.86.48 1.85 1.32 1.85zm1.66-.07h2.31V7.3h-1.93c.08-.5.53-.77.94-1s1-.56 1-1.27a1 1 0 00-1.1-1 1.18 1.18 0 00-.86.33 1.2 1.2 0 00-.32.89h.35a1 1 0 01.22-.7.78.78 0 01.59-.23.71.71 0 01.77.76c0 .52-.33.7-.81 1s-1.19.69-1.2 1.6zm4.06-.22c-.64 0-1-.61-1-1.56s.34-1.57 1-1.57 1 .61 1 1.57-.32 1.56-1 1.56zm0 .29c.85 0 1.32-.72 1.32-1.85S141.3 4 140.5 4s-1.32.7-1.32 1.86.47 1.85 1.31 1.85zm1.5 13.5a.32.32 0 00-.27-.27 1.08 1.08 0 00-.19 0 9.91 9.91 0 00-1.09 0 .75.75 0 01-.26 0 13.32 13.32 0 00-1.55 0h-.19a17.87 17.87 0 00-2.07 0 2.26 2.26 0 01-.45 0h-17.49a5.53 5.53 0 00-.71 0 2.73 2.73 0 01-.64 0 6 6 0 00-1 0 8.27 8.27 0 01-1.22 0 1.18 1.18 0 00-.26 0 6.09 6.09 0 01-1.35 0 4.61 4.61 0 00-.91 0 4.57 4.57 0 01-.64 0H96.69a2.55 2.55 0 00-.39 0 5.41 5.41 0 01-.9 0H91a4.64 4.64 0 00-.65 0 2.74 2.74 0 01-.64 0 2.91 2.91 0 00-.78 0 2.25 2.25 0 01-.58 0 15.58 15.58 0 00-1.81 0h-1.22a7.22 7.22 0 01-1.23 0 1.77 1.77 0 00-.32 0h-1.55c-.55 0-.74-.06-1.1-.05h-1.74c-.76 0-1.51.06-2.27 0h-1a2.25 2.25 0 01-.26 0H65.54c-.77 0-1.54.14-2.27.14h-1.18c-.77 0-1.55.06-2.32 0H58a12.16 12.16 0 00-1.35 0h-.13a2.12 2.12 0 00-.71 0 1.61 1.61 0 01-.38 0 4 4 0 00-.91 0 5.52 5.52 0 01-.52 0h-3.81a8.07 8.07 0 01-1.3 0 2.27 2.27 0 00-.45 0 9.62 9.62 0 01-1.61 0 2.54 2.54 0 00-.39 0H11.28a2.74 2.74 0 01-.64 0 1.71 1.71 0 00-.39 0 6.65 6.65 0 01-1.41 0 8.57 8.57 0 00-1.68 0 2.25 2.25 0 01-.58 0 2.26 2.26 0 00-.45 0h-.32c-.43-.05-.86 0-1.29 0a3.4 3.4 0 01-.45 0 9.43 9.43 0 00-1.68 0 9 9 0 01-1.16 0H.22a.8.8 0 00-.15 0 .21.21 0 00-.06.1v.09H0a.74.74 0 010 .21c0 .06 0 .11.07.15a.69.69 0 00.25 0h19.9c.32 0 .64 0 1-.05s.6 0 .9 0h66.93c.8.05 1.6 0 2.4 0h1.94a4.26 4.26 0 00.51 0 8.24 8.24 0 011.49 0h2.06a10 10 0 011.1 0 2.54 2.54 0 00.39 0h15.18c1.55.05 3.1.05 4.66 0h22.48a2 2 0 00.64-.09.31.31 0 00.21-.29zm0-10.44a.34.34 0 00-.1-.27h-.49a.12.12 0 01-.1 0 1.94 1.94 0 00-.59 0h-.07a2.63 2.63 0 00-.79 0 .48.48 0 01-.17 0 5.68 5.68 0 00-.59 0h-2.36a2.84 2.84 0 01-.41 0H133a.84.84 0 00-.27 0 .43.43 0 01-.25 0 .86.86 0 00-.39 0c-.15 0-.31.07-.46 0a.16.16 0 00-.1 0 .92.92 0 01-.52 0 .65.65 0 00-.34 0 .69.69 0 01-.25 0 4.85 4.85 0 00-.66 0h-5.04a.39.39 0 00-.15 0 .83.83 0 01-.35 0h-1.64a.69.69 0 00-.25 0 .39.39 0 01-.24 0 .44.44 0 00-.3 0 .33.33 0 01-.22 0 2.29 2.29 0 00-.69 0h-.46a1.07 1.07 0 01-.47 0 .25.25 0 00-.12 0 2.33 2.33 0 01-.59 0 2 2 0 00-.42-.05h-.66a5 5 0 01-.86 0 2.54 2.54 0 00-.39 0h-3.08a6.46 6.46 0 00-.88 0 8.23 8.23 0 00-.86 0h-.44c-.3 0-.59.06-.89 0h-.66c-.17 0-.34-.07-.52 0a.32.32 0 00-.27 0 .26.26 0 01-.15 0 .56.56 0 00-.34 0 .86.86 0 01-.22 0h-1.45a1.21 1.21 0 01-.5 0 .33.33 0 00-.17 0 1.57 1.57 0 01-.61 0 .38.38 0 00-.15 0H93.91a4.85 4.85 0 00-.66 0h-.66a1.09 1.09 0 00-.25 0 .39.39 0 01-.24 0 .26.26 0 00-.15 0 1 1 0 01-.54 0 1.26 1.26 0 00-.64 0 .34.34 0 01-.22 0 .33.33 0 00-.17 0h-.12a2 2 0 00-.49 0 .51.51 0 01-.17 0 1.39 1.39 0 00-.64 0 1.32 1.32 0 01-.44 0h-.24a.71.71 0 00-.14 0 .09.09 0 00-.06 0 .3.3 0 000 .1.27.27 0 000 .09.74.74 0 010 .21.24.24 0 000 .15h7.65a2.35 2.35 0 00.37-.05 1.29 1.29 0 01.34 0 1.26 1.26 0 00.27 0 6.09 6.09 0 01.74 0h24.05a2.3 2.3 0 01.37 0h1.64a.65.65 0 00.2 0 1.18 1.18 0 01.56 0 .75.75 0 00.15 0h.64a1.49 1.49 0 01.42 0 .38.38 0 00.15 0h3.66a4.42 4.42 0 01.89 0h1.22a14.94 14.94 0 001.77 0 3.62 3.62 0 01.57 0 4.58 4.58 0 00.74 0h7.21a.34.34 0 00.24-.09.46.46 0 00.08-.29z"/><path d="M87.72 2.79v18.47h.52v-.49a7.36 7.36 0 010-1.05v-.94a10.59 10.59 0 010-1.26V1.09c0-.28-.15-.55-.33-.47a.31.31 0 00-.14.27c0 .63-.05 1.26-.07 1.89zM0 16.81h2.19l.68-2.35h3.76l.7 2.35h2.2L5.86 5.73H3.67L0 16.81zm4.3-7.27c.17-.58.43-1.7.43-1.7S5 9 5.19 9.54l.93 3.2H3.37l.93-3.2zm6.12 7.27h2.11V5.73h-2.11v11.08zm3.73 0h2.11v-4.45H18a1.83 1.83 0 012 1.89c.09 1.2.12 2.44.38 2.56h2v-.11c-.36-.17-.3-1.36-.45-2.93-.13-1.34-.62-1.93-1.58-2.23a2.52 2.52 0 001.9-2.68 3.05 3.05 0 00-3.35-3.09h-4.75v11.04zm2.11-9.26h2.3a1.48 1.48 0 011.66 1.56c0 .88-.57 1.52-1.72 1.52h-2.24V7.55zm14.3 9.26h1.94v-6.35c0-.9-.09-2.29-.09-2.29s.24 1.3.46 2.1l1.74 6.54h2l1.79-6.54c.22-.8.45-2.1.45-2.1s-.09 1.39-.09 2.29v6.35h2V5.73h-3l-1.43 5.57c-.36 1.39-.64 3-.64 3s-.29-1.59-.65-3l-1.5-5.57h-3v11.08zm11.1 0h2.15l.68-2.35h3.76l.7 2.35h2.2L47.48 5.73h-2.19l-3.63 11.08zm4.26-7.27c.17-.58.44-1.7.44-1.7s.25 1.12.43 1.7l.93 3.2H45l.93-3.2zm5.49 7.27h2.42l2.15-4 2.13 4h2.49L57.15 11l3.06-5.27h-2.3L56 9.23l-2-3.5h-2.34L54.78 11l-3.37 5.79zm20.51.19c2.93 0 4-2.29 4-5.68 0-3.6-1.49-5.38-4.14-5.38A3.62 3.62 0 0068 9.7a3.5 3.5 0 003.57 3.73 2.81 2.81 0 002.31-1.16 4.33 4.33 0 01-.62 2.49 1.66 1.66 0 01-1.44.67 1.46 1.46 0 01-1.52-1.16h-1.87A3.19 3.19 0 0071.92 17zm0-5.31a1.89 1.89 0 01-2-2.06 2 2 0 012-2 2 2 0 012 2.06 2 2 0 01-2 2zM81 17.06c2.59 0 4.16-2.17 4.16-5.55S83.55 6 81 6s-4.18 2.15-4.18 5.54 1.62 5.55 4.17 5.55zm0-1.8c-1.49 0-2.11-1.5-2.11-3.75s.59-3.75 2.11-3.75 2.08 1.51 2.08 3.75-.59 3.75-2.08 3.75z"/></g></g></svg><svg width="193" height="48.93" viewBox="-1 -1 193 48.93" xmlns="http://www.w3.org/2000/svg"><g data-name="Layer 2"><g data-name="Layer 1"><rect width="191" height="46.93" rx="21.83"/><path d="M23.4 24.18c0-3.4 2.22-6 5.63-6a5.36 5.36 0 013.26 1A4.53 4.53 0 0134 22.36h-2.83a2.06 2.06 0 00-2.17-1.8c-1.85 0-2.73 1.55-2.73 3.62s1 3.61 2.75 3.61a2.1 2.1 0 002.22-1.9h2.83a4.5 4.5 0 01-1.38 2.93A5 5 0 0129 30.11c-3.31 0-5.6-2.51-5.6-5.93zm11.6-.01c0-3.42 2.18-6 5.64-6s5.65 2.54 5.65 6-2.19 6-5.65 6-5.64-2.58-5.64-6zm8.42 0c0-2.08-.91-3.68-2.77-3.68s-2.78 1.6-2.78 3.68.94 3.66 2.78 3.66 2.72-1.59 2.72-3.66zm-3.15-8.38h3l-1.7 2.08h-2zm7.4 2.64h3.8l1.39 5c.21.72.66 2.61.66 2.61s.45-1.89.64-2.61l1.4-5h3.84v11.43h-2.56v-8.04s-.4 1.71-.53 2.12l-1.65 5.92h-2.31L50.72 24c-.13-.42-.53-2.14-.53-2.14s.05 1.84.05 2.3v5.74h-2.57zm13.65 0h5.15a4.32 4.32 0 013.11 1.06 3.72 3.72 0 011.15 2.81 3.61 3.61 0 01-3.86 3.7H64.2v3.82h-2.88zm5 5.37a1.45 1.45 0 001.6-1.52 1.42 1.42 0 00-1.6-1.47H64.2v3zm5.74-5.37h5.47c2.27 0 4 1.17 4 3.29a2.74 2.74 0 01-2 2.77 2.3 2.3 0 011.66 2.1c.24 1.5.08 2.94.48 3.08v.15h-2.74c-.3-.18-.25-1.52-.43-2.66a1.67 1.67 0 00-1.9-1.63h-1.71v4.29h-2.83zm5 5.05c1.12 0 1.69-.53 1.69-1.39s-.54-1.42-1.63-1.42h-2.23v2.81zm9.36-5.05h2.91l4.12 11.43h-3l-.68-2.07h-4l-.65 2.07h-2.81zm2.73 7.33L88.29 23c-.19-.59-.45-1.61-.45-1.61s-.27 1-.47 1.61l-.87 2.76zm5.42-7.33h2.83v9h5.13v2.4h-8zm12.66 0h2.91l4.12 11.43h-3l-.67-2.07h-4l-.59 2.07h-2.85zm2.77 7.33l-.9-2.76c-.19-.59-.45-1.61-.45-1.61s-.27 1-.46 1.61l-.88 2.76zm4.84.5h2.85c.12 1.15.87 1.63 2.23 1.63.93 0 1.84-.34 1.84-1.2s-.93-1.1-2.49-1.48c-2-.47-4.08-1.08-4.08-3.47s2-3.52 4.54-3.52 4.39 1.12 4.51 3.52h-2.77c-.11-.88-.78-1.38-1.84-1.38s-1.63.44-1.63 1.08.88 1 2.59 1.37c2.12.49 4 1.15 4 3.59s-2.05 3.73-4.68 3.73c-3.01 0-5-1.35-5.07-3.87zm17.36-7.83h2.91l4.12 11.43h-3l-.67-2.07h-4l-.65 2.07h-2.85zm2.73 7.33l-.86-2.76c-.19-.59-.45-1.61-.45-1.61s-.27 1-.46 1.61l-.88 2.76zm13.46 3.65a5.73 5.73 0 01-2.87.72c-3.46 0-5.63-2.54-5.63-6s2.17-6 5.63-6 5.64 2.54 5.64 6a6.31 6.31 0 01-1.31 4l1.29 1.21-1.31 1.39zm-1.84-1.78l-1-1 1.31-1.36 1 1a5.09 5.09 0 00.4-2.11c0-2.08-.9-3.68-2.75-3.68s-2.76 1.6-2.76 3.68.92 3.66 2.76 3.66a2.54 2.54 0 001.04-.19zm5.95-1.8v-7.4h2.83v7.49a1.72 1.72 0 002 1.87 1.75 1.75 0 001.93-1.91v-7.45h2.83v7.4c0 2.64-1.58 4.23-4.76 4.23s-4.83-1.56-4.83-4.23zm11.39-7.4h2.82v11.43h-2.82zm1-2.64h3l-1.69 2.08h-2z" fill="#fff"/></g></g></svg><svg width="23.27" height="16.2" viewBox="-1 -1 23.27 16.2" x="122.23" y="72.63" xmlns="http://www.w3.org/2000/svg"><g data-name="Layer 2"><path d="M6.42 5.51H5l.11-2.46-.89 2.46H2.83L4.89 0H6.4l-.18 2.36L7.1 0h1.34l-2 5.5zm.31 0h1.38l2-5.51H8.79L6.73 5.51zM15 4.94l6.3-1.55L5 10c-1.45.59-3.42 1-4.55-.36a2.16 2.16 0 01-.3-2A10.72 10.72 0 012.81 3.5c-.57 1.14-1 2.74.25 3.65a2.15 2.15 0 001.75.28l7.74-1.9h-1.92V3.57c0-.09 0-.08-.05-.07a.24.24 0 00-.06.1l-.71 1.92H8.4L10.46 0h1.37l-.53 1.47L12.56 0h3.94l-.39 1H14.9l-.41 1.1h1.22l-.36 1h-1.22l-.5 1.32h1.52l-.15.52zm-3.12.31l1.88-5-2 2.34.12 2.66zm-8.52 8.47l-.22.47h-.26l.92-2 .92 2h-.26l-.22-.47zm.44-1l-.34.76h.68l-.34-.76zm6.13-.44h-.24v1.9h.24V12.3zm6.38 1.9H16l-.57-.8h-.1v.8h-.24v-1.87h.29a1 1 0 01.51.09.52.52 0 01.25.45.52.52 0 01-.46.53l.61.82zm-1-1h.08c.24 0 .51 0 .51-.34s-.29-.34-.52-.34h-.07v.68z" fill="#fff" data-name="Layer 1"/></g></svg><svg width="122.23" height="17.19" viewBox="-1 -1 122.23 17.19" y="72.63" xmlns="http://www.w3.org/2000/svg"><g data-name="Layer 2"><path d="M47 14.79h2.87V8.93L56 8.86V6.4h-.37a.57.57 0 01-.18 0H53a1.07 1.07 0 00-.25 0 5.85 5.85 0 01-.59 0H49.8V3h3.45a4.17 4.17 0 00.5 0c.13 0 .36-.17.49-.11s.09.1.19.13a1.13 1.13 0 00.41 0c.11 0 .13-.13.27-.11s.12.09.2.11h1.75L57 .55 46.87.64V6c0 .7.12 1.36.12 2.06v.53c0 .17.1.33.1.52a2.6 2.6 0 01-.2.81 1.52 1.52 0 000 .56c0 .1.08.06.06.21a4.18 4.18 0 00-.07.51v3.33a2.35 2.35 0 010 .26zm17.22.09c3.63 0 5.47-1.81 5.45-4.84V3.8a1.17 1.17 0 010-.27c0-.21-.06-.39 0-.6s0-.25 0-.37V.44H66.8v3.18a4.89 4.89 0 00.06 1.21 2 2 0 01.06.26 1 1 0 010 .24.86.86 0 000 .17v.18a1.42 1.42 0 010 .36 1.73 1.73 0 000 .64 5.44 5.44 0 010 .57v2.8a2.39 2.39 0 01-2.66 2.56c-1.92 0-2.66-1-2.67-2.48l-.2-9.62h-2.87v4.27a5.77 5.77 0 000 .72 2.17 2.17 0 00.07.24 1.54 1.54 0 010 .74c0 .1 0 .2-.05.29a1.67 1.67 0 000 .39v2.91c0 3.07 2 4.77 5.62 4.74zm6.71-12h4.26v1.11a1.46 1.46 0 010 .42v10.17h2.87l-.1-11.74h.71c.2 0 .15-.06.24-.06a2.23 2.23 0 00.37 0 2.8 2.8 0 01.29 0h2.65V.37L70.91.43v2.41zm18.4 11.82c3.62 0 5.47-1.81 5.44-4.84L94.69.22h-2.87v1.76a3.77 3.77 0 010 .67 6.47 6.47 0 000 .88v6.28a2.39 2.39 0 01-2.65 2.56c-1.92 0-2.66-1-2.67-2.47L86.49.29h-2.87v3.76a11.33 11.33 0 000 1.43 1.1 1.1 0 000 .18 3.89 3.89 0 010 .59 2.29 2.29 0 010 .37 1.13 1.13 0 000 .26.37.37 0 010 .11v1.44a3.09 3.09 0 010 .68.71.71 0 000 .21v.6c0 3.07 2 4.78 5.63 4.74zM99.64 2.49h3.13c1.52 0 2.26.83 2.27 2s-.75 1.94-2.32 2h-3v-4zm-2.77 11.87h2.87V8.68h2.32c1.78 0 2.66.85 2.79 2.39s.19 3.11.54 3.27h2.76v-.14L108 14a.59.59 0 01-.1-.17 1.83 1.83 0 01-.15-.52c-.09-.55-.12-1.11-.16-1.67v-.5c0-.17 0-.39-.08-.58a1.51 1.51 0 010-.28 1.34 1.34 0 00-.06-.4v-.22a.94.94 0 00-.09-.12.22.22 0 010-.16v-.13a.3.3 0 00-.06-.18c-.06-.07 0-.14-.06-.22a1.68 1.68 0 00-.3-.45 2.45 2.45 0 00-.84-.62 4.62 4.62 0 00-.62-.23v-.06a3.26 3.26 0 002.56-3.44c0-2.36-1.86-3.93-4.59-3.9l-6.7.05v7.34a3.37 3.37 0 01.07.84c0 .15 0 .3-.06.45s0 .31 0 .46v.52a5.65 5.65 0 010 .71 5.93 5.93 0 000 .73v3.13zm12.89-.11l10.47-.09v-2.4l-7.6.07V8.01h1.59a1.08 1.08 0 00.18 0 5.27 5.27 0 01.57 0 4.69 4.69 0 01.53 0h3.74V5.65l-6.61.06V2.54h2.72a1 1 0 01.18 0h1.79c.12 0 .25.05.38 0s.19 0 .29 0h.39a.81.81 0 01.31 0 3.85 3.85 0 00.48 0h1V.12L109.64.09v7.72a2.64 2.64 0 010 .29 6.92 6.92 0 000 1v.71a1 1 0 000 .17 1.47 1.47 0 000 .21v.16a.24.24 0 000 .08.8.8 0 010 .15 2.82 2.82 0 010 .41 3.55 3.55 0 000 .46v.17c0 .06-.08.23-.07.35a2.89 2.89 0 010 .29v1.79M29.1 12.72V8.9l6.65.1V6.64h-6.61V3.47l7.55.06V1.12H35.4c-.2 0-.4-.12-.58-.12H30.3a8.22 8.22 0 01-.86 0 5 5 0 00-.55 0h-2.56v4.75a2.26 2.26 0 010 .26v9.08l10.47.1v-2.4h-5.64a.57.57 0 00-.13 0 .35.35 0 01-.11 0h-1.69M12.73 15h2.87l.05-6.23h5.57l-.06 6.24h2.87L24.16.92h-2.87v2.53a3 3 0 010 .42 1.29 1.29 0 000 .34v.57a1.81 1.81 0 010 .52 2.72 2.72 0 000 .57v.6l-5.57-.05V.85h-2.87v3.59a3.16 3.16 0 010 .32v.3a1.22 1.22 0 010 .33v1.42m-8.7 8.09h2.88l.1-11.74h4.25V.75H9.39a3.85 3.85 0 01-.48 0H3.38L1.73.72H0v2.4h4.26v6.57a1.94 1.94 0 000 .24.87.87 0 010 .23.75.75 0 000 .15v.1a1 1 0 000 .35v4.14" data-name="Layer 1" fill="#fff"/></g></svg><svg width="18.1" height="16.73" viewBox="-1 -1 18.1 16.73" x="113.33" y="106.12" xmlns="http://www.w3.org/2000/svg"><g data-name="Layer 2"><path d="M10.55 14.73h.22a7.26 7.26 0 00.93-.06 8.85 8.85 0 00.87-.16 5.61 5.61 0 00.79-.26 4.68 4.68 0 00.71-.35 4.37 4.37 0 00.62-.44 3.85 3.85 0 00.92-1.14 3.56 3.56 0 00.29-.7 4.15 4.15 0 00.16-.78 1.49 1.49 0 000-.42.36.36 0 010-.15v-.17a2.61 2.61 0 00-.06-.27V9.5a1 1 0 000-.3c0-.15-.13-.29-.19-.44a2 2 0 00-.11-.26l-.1-.17a.36.36 0 000-.11c-.07-.1-.15-.18-.22-.27a2.2 2.2 0 00-.14-.18c-.06 0-.14-.09-.2-.15l-.2-.17-.28-.27a1 1 0 00-.38-.18l-.34-.17a10.2 10.2 0 00-1.4-.51c-.53-.15-1.06-.27-1.6-.39-2.09-.48-3.08-.82-3.07-2s1-1.66 2.57-1.64a2.44 2.44 0 012.72 2.16h2.75C15.61 1.61 13.57 0 10.38 0a8.26 8.26 0 00-1.11.06 5.89 5.89 0 00-1 .18 5.74 5.74 0 00-.91.31 5.07 5.07 0 00-.84.45 4.21 4.21 0 00-.8.72l-.08.11a2.2 2.2 0 00-.17.25c0 .07-.06.14-.1.21a1.37 1.37 0 00-.18.45 1 1 0 000 .17 2.29 2.29 0 01-.08.28v.12a.15.15 0 010 .07.27.27 0 000 .09v.33c0 .06-.11.2-.11.25a1.84 1.84 0 000 .52v.36a3.4 3.4 0 00.17.7 3.1 3.1 0 00.67 1.09 4 4 0 001 .75A7.51 7.51 0 008.11 8c.47.15 1 .27 1.44.39h.18c2.16.51 3.5.8 3.49 2.19s-1.3 1.81-2.77 1.8c-2 0-3-.7-3.17-2.41L4.47 10a5.11 5.11 0 00.22 1.4.53.53 0 000 .18l.09.12.17.22a1.24 1.24 0 01.19.26c0 .08.06.18.1.27s.07.11.1.16a1 1 0 00.08.14c.15.17.29.36.45.52s.13.09.19.15l.1.07a1.27 1.27 0 00.11.13 3 3 0 00.35.21 6.51 6.51 0 00.76.34 8.13 8.13 0 001.82.41 9.66 9.66 0 001.2.07zM0 14.32h2.87v-3.93a.85.85 0 000-.32v-.12a.9.9 0 010-.23v-1a1.93 1.93 0 010-.34v-.47a4.52 4.52 0 000-.52v-1.6C3 5.09 3 4.4 3 3.71V.2L.12.17 0 14.32z" fill="#fff" data-name="Layer 1"/></g></svg><svg width="18.6" height="16.3" viewBox="-1 -1 18.6 16.3" x="113.33" y="89.82" xmlns="http://www.w3.org/2000/svg"><g data-name="Layer 2"><path d="M5.07 14.2H7.9L8 6.92V4.44s.54 1.22 1 2l4.76 7.87h2.77V10.1c0-.32-.06-.49-.05-.75a12.2 12.2 0 00.07-1.91 11.53 11.53 0 010-1.18 5.42 5.42 0 010-.57 2.38 2.38 0 00.06-.37V.15h-2.84l-.07 7.39c0 1 .06 2.46.06 2.46s-.53-1.21-1-2L8.1.07 5.19 0v2.7a8.55 8.55 0 000 1.3 1.51 1.51 0 010 .52 4 4 0 000 .6v9.03zM0 14.16h2.87V7.05C3 7 3 6.88 3 6.79a3.14 3.14 0 000-.53 1.94 1.94 0 010-.24 1.22 1.22 0 010-.26 2 2 0 000-.43 1.15 1.15 0 010-.32v-.52a.71.71 0 000-.2V0H.12v8.7a2 2 0 01-.07.3v1.11a7.38 7.38 0 010 .94 3.62 3.62 0 000 .47v2.6z" fill="#fff" data-name="Layer 1"/></g></svg><svg width="38.91" height="16.44" viewBox="-1 -1 38.91 16.44" x="144.01" y="48.93" xmlns="http://www.w3.org/2000/svg"><g data-name="Layer 2"><path d="M26.44 14.25h.17l2.51-.05a3.23 3.23 0 01.44 0 1.7 1.7 0 00.22 0h1.67a2.17 2.17 0 00.36 0h1.44l1.13-.05h2.53v-2.4l-7.6.07V8c0-.02 1.53 0 1.69 0h.26a2.55 2.55 0 00.39 0 4.87 4.87 0 00.54 0 1.73 1.73 0 00.3 0 8.19 8.19 0 011.11 0h2.27V5.65h-4.78a2 2 0 00-.34 0h-1.56V2.49l7.54-.07V0h-1.92a6.13 6.13 0 00-1 0h-.95c-.31.06-.63 0-.95.05s-.42 0-.64 0a5.84 5.84 0 00-.93 0 4.71 4.71 0 01-.75 0h-1.46a2.61 2.61 0 00-.28 0L26.31.1v5.3a.81.81 0 000 .22.48.48 0 010 .18 1.41 1.41 0 000 .29.65.65 0 010 .2v8.01zM15.81 12.6v.07-4.56h5.56l.06 6.24h2.87V6.01a7.53 7.53 0 000-.95 3.71 3.71 0 010-.48 1.13 1.13 0 01.06-.32 2 2 0 000-.35V.11h-2.88v5.54l-5.56.05L15.7.19h-2.87V6a3.31 3.31 0 010 .33.77.77 0 00.12.35V8.6c0 .13.05.49.06.75s0 .56 0 .84v4.19h2.87v-5M0 2.74h4.26l.1 11.74h2.87v-4.31a2.06 2.06 0 010-.35 1.39 1.39 0 000-.35V8.32c0-.29-.06-.74-.06-1.12v-.22a1.57 1.57 0 000-.23v-.48a2.84 2.84 0 01.06-.51.86.86 0 000-.39 2.44 2.44 0 010-.47V2.68h4.26V.27H8.53a4.28 4.28 0 00-.62 0 1 1 0 01-.17 0h-.21C7.25.31 7 .3 6.7.3h-.87c-.29 0-.32-.05-.49-.05h-.69c-.23 0-.65 0-1 .06s-.78 0-1.17 0C1.67.28.83.31 0 .33v2.41z" fill="#fff" data-name="Layer 1"/></g></svg></svg>