<svg width="262" height="148" xmlns="http://www.w3.org/2000/svg" xmlns:xlink="http://www.w3.org/1999/xlink"><svg width="134" height="61.69" viewBox="-1 -1 134 61.69" y="38.37" xmlns="http://www.w3.org/2000/svg"><g data-name="Layer 2"><g data-name="Layer 1" fill="#fff"><path d="M68 40.18l-.08.08a1.66 1.66 0 00-.06.21 2.1 2.1 0 01-.06.24 1.33 1.33 0 00-.05.19 1.29 1.29 0 01-.15.48c-.09.14-.18.27-.26.41s0 .12 0 .19a.39.39 0 01-.08.14.76.76 0 00-.15.28 1.87 1.87 0 01-.07.4c0 .05-.07.07-.09.11a1.49 1.49 0 01-.18.3s-.1.07-.13.12 0 .1-.07.15l-.22.36c0 .06 0 .12-.09.19a.94.94 0 00-.06.24c-.07.3-.19.6-.29.9l-.36.94c-.09.25-.2.49-.3.74a3.9 3.9 0 01-.26.64c0 .09-.08.19-.13.28a1.83 1.83 0 01-.18.3c-.06.1-.09.21-.16.31a.31.31 0 000 .12.24.24 0 010 .14 1.14 1.14 0 00-.14.43.75.75 0 010 .26v.08a.5.5 0 000 .17 1.17 1.17 0 01-.09.32c-.07.13-.11.26-.18.39a.76.76 0 00-.16.38c0 .27-.29.4-.41.6a1.76 1.76 0 00-.09.2.22.22 0 000 .08 1.24 1.24 0 00-.1.31 1.08 1.08 0 01-.19.58 1.17 1.17 0 00-.15.27c-.05.12-.06.25-.11.37s-.11.15-.14.22a1.09 1.09 0 01-.05.17c0 .09-.1.17-.13.26a1.86 1.86 0 01-.19.34s-.11.11-.11.14.32-.06.24 0h.1c0 .06-.12.08-.16.09a.63.63 0 00-.21.12 1.53 1.53 0 00-.23.46.37.37 0 00-.05.2h.05c0 .09-.08.11-.13.16a1.61 1.61 0 00-.22.48 1.11 1.11 0 00-.08.35c0 .12-.05.22-.07.34a.47.47 0 01-.12.29c-.07.07-.17.12-.21.22a.28.28 0 01-.13.19.47.47 0 00-.15.13.86.86 0 01-.21.26.59.59 0 00-.17.18 1.08 1.08 0 01-.36.24v.09c0 .09.17.17.24.24l.28.27.63.6.36.36s.12.14.15.14c1.6.1 2.72-2.71 3.25-3.78S72.23 37.79 73.49 35s4.76-12.1 8.16-20.07S85.29 3.73 85 2.71 82.57.05 80.43 0s-5.34.46-22.08 9.4l-.73.39A5.51 5.51 0 0157 10c-.37.14-.53.62-.83.85a1.24 1.24 0 01-.7.17 1.58 1.58 0 00-.59.23c-.27.15-.59.26-.85.43a4 4 0 00-.64.66 1.17 1.17 0 01-.8.3 1 1 0 00-.68.45 1.9 1.9 0 01-.38.46 1.47 1.47 0 01-.78.14A1.3 1.3 0 0050 14a9.21 9.21 0 01-.81.45c-.19.1-.28.27-.45.41a1.72 1.72 0 00-.4.31c-.31.42 0 .81-.61 1a1.26 1.26 0 01-.72 0c-.15-.05-.38-.19-.55-.12s-.1.12-.14.17a1.93 1.93 0 01-.63.47 4.69 4.69 0 00-1 .34c-.21.14-.41.3-.62.43a5 5 0 00-1 .81 3.41 3.41 0 01-1 .75 5.91 5.91 0 00-.89.58.73.73 0 01-.7.21c-.57-.07-.62.48-.92.83-.17.19-.3.18-.53.2a.79.79 0 00-.58.27 2.35 2.35 0 01-.83.53 5.23 5.23 0 00-.82.41c-.68.41-1.39.75-2.05 1.19-.91.6-1.82 1.2-2.73 1.82l-.86.6 9.31-2c2.67-2 14.53-8.86 25.1-14.47S80.7 3 81.49 3.05s-.59 5.31-1.31 6.43-.15 1.12-.54 1.45a1.18 1.18 0 00-.29 1c-.58.53-.37.87-.52 1.26a8.71 8.71 0 00-.78 2c-.13.8-1 1.4-1 2a3.88 3.88 0 01-.46 1.44c-.15.39.15.53-.18.82a13.21 13.21 0 00-1.54 3.41 14.87 14.87 0 01-1.48 3.67c-.59 1-.13.87-.39 1.25a7.12 7.12 0 00-.59 1.17 6.09 6.09 0 00-.27.71 3 3 0 00-.23.71.28.28 0 010 .15 1.48 1.48 0 000 .19c0 .07-.07.08-.06.16s0 .13 0 .2a.7.7 0 01-.09.24c0 .09 0 .18-.08.27a1 1 0 01-.29.42.85.85 0 00-.25.39 2 2 0 00-.16.52c0 .15-.11.27-.13.42a1.13 1.13 0 01-.06.36 2 2 0 00-.18.39 1.77 1.77 0 01-.26.75 2.5 2.5 0 00-.23.23c0 .07-.07.15-.11.21s-.11.16-.16.24-.06.07-.06.11-.07.21-.06.34c.16 0-.08.26-.1.31l-.24.52c-.08.16-.19.3-.28.45s-.34.56-.5.85-.26.55-.38.85a.76.76 0 00-.06.16.67.67 0 000 .2.36.36 0 010 .21c0 .07-.08.18 0 .25s0 0 0 .12S68 40 68 40a.4.4 0 010 .15zm-26.71-19a.08.08 0 000 .09l-.14.16h-.35c-.13 0-.07-.07.06-.12s0-.09 0-.09v-.08c0-.07 0 0 .1 0h.23c.13 0 .11 0 0 .07zM43.51 20h-.21s0-.1.09-.09a.39.39 0 01.15 0h.06s.06 0 0 .05zm.53-.49a.08.08 0 010-.07h.1c.05 0 0 0 0 0zm.29-.24l-.07.06c-.07.06 0 0-.06 0s0 0 0-.06h.09c.09 0 0 .05-.06 0zm13.21-6.93h-.08c-.08 0 0 0 0 0v-.07c0-.07.05 0 .08 0s0 .06 0 .06h-.05zm.55-.45H58h.07c.02 0 0 0 0 0zm.33-.32h-.08.07c.07 0 0 0 0 0a.05.05 0 00.05 0 .14.14 0 01-.07 0zm7-4.17s0 .07-.08.08-.05 0-.1.07-.12-.1 0-.15.17 0 .14 0zm.85-.49a1.16 1.16 0 01-.34 0h.19c.13 0 .25.07.15.09z"/><path d="M5.05 45.54a1.26 1.26 0 00.36.38 5.26 5.26 0 001.31.76c1.23.33 2.65-1.16 3.57-1.9s2-1.57 2.93-2.34c2.53-2 5.11-3.88 7.7-5.75 4.31-3.1 8.68-6.09 13.1-9l17.84-3c6-1 19.72-2.63 22.24.2l.6-.91a7.47 7.47 0 00-6.17-3.61A187.83 187.83 0 0040 23.55c-13.57 2.43-25.39 5-29.29 5.69s-4.61.89-6.64 1.12-3.49.2-4.07.64c0 0 0 .23.28.4s0 .41.38.9.72.46.94.93.49.4 1.65.26a35.51 35.51 0 006.94-.93c3.53-.9 13.89-2.9 15.18-3.1 0 0-6.88 4.84-9.12 6.55-1.72 1.32-3.42 2.66-5.13 4l-3.24 2.53a12.38 12.38 0 01-3.2 2.29c.19.3.25.51.37.71zM87.93 16c0 .53-.18.45.25.62s.77 0 .86-.34a7 7 0 00.52-1.88 3.83 3.83 0 00-1.45-1.81c-.54-.21-.9-.14-1.38-.31s-.49 0-.43.52-.18 1.29.09 1.48a2.7 2.7 0 01.77.72l.28.5.22.28c.07.1.26 0 .27.22zm-8.21 17.52c0 .09-.1.16-.1.25s-.08.18-.12.23a1.15 1.15 0 00-.12.25.86.86 0 00-.09.27v.13c0 .04-.08.11-.11.17a.14.14 0 000 .09v.06c0 .06 0 .07-.07.09a1.36 1.36 0 00-.11.25c0 .07-.16.16 0 .21a1.8 1.8 0 01-.16.38c0 .09-.18.21-.18.32s.05.07 0 .15-.12.13-.14.21 0 .06 0 .09-.13.18-.17.27a3 3 0 01-.25.43c0 .09-.08.19-.12.27a1.24 1.24 0 01-.22.28 2.33 2.33 0 00-.2.34c0 .06-.11.16-.08.22s0 0 .05.05-.08.17-.09.22a.75.75 0 010 .16c0 .09-.22.22-.18.32s0 .1 0 .15 0 .06-.07.1v.08c0 .09-.08.16-.1.25a.43.43 0 000 .11 2.74 2.74 0 01-.09.39 5.07 5.07 0 01-.51 1c-.09.16-.13.34-.21.5s-.22.33-.32.5a3.32 3.32 0 00-.24.59c-.06.21-.08.44-.15.64l-.15.43c-.08.2-.19.38-.28.58s-.13.33-.21.48a5.7 5.7 0 00-.39 1.07c-.25 1-.45 1.28-.49 1.66s-.37.69-.28 1a.49.49 0 000 .16c.06 0 .16 0 .17.09s.14 0 .19.13 0 .09.05.13a2.82 2.82 0 00.29.39 2.43 2.43 0 00.24.3c.23.25.48.47.71.71.55.57 1.07 0 1.34-.43s1.42-4.6 2.15-6.1 3.67-8.55 4.05-9.33 2.49-6 3-7.36a5.34 5.34 0 00.43-2.95c-.18-.67-1.25-1.2-2.15-1.41s-.89.1-.84.62a5.54 5.54 0 01-.49 1.62 1.92 1.92 0 00-.17 1.07c.08.27-.29.6-.59 1.09s-.1.62 0 .84-.38.65-.49 1-.4.17-.49.48-.13.5-.21.75a3.85 3.85 0 01-.2.57c-.08.18-.23.31-.3.49v.11c0 .03.16 0 .17 0s.22 0 .22.14-.08.13 0 .12-.27.17-.35.22a.85.85 0 00-.25.25 5.2 5.2 0 01-.35.44c0 .06-.06.13-.08.19a1.58 1.58 0 00-.09.36zM132 6.24c-.07-.39-.15-.26 0-.56s-.2-.57-.31-.73 0-.13-.09-.42-.18-.16-.43-.31 0-.22 0-.22A8.1 8.1 0 00128 1.48c-1.3-.57-4.45-.27-4.94-.11s-2.24.38-2.72.56a14.14 14.14 0 01-1.75.45c-.4.07-1.46.66-2.12.88a32.94 32.94 0 00-3.24 1.51 9.24 9.24 0 01-1.26.79c-.25 0-.32.25-.53.47s-.28.08-.45.14-.32.28.1.38-.81.67-1 .77-.18 0-.16-.24-.62.24-.94.54a21.6 21.6 0 00-1.81 1.77c-.26.37.15.69-.11.78a2.85 2.85 0 00-.94.89c-.13.25-.55.06-.62.33s-.42.54-.76.85-.26 0-.53.35a2.82 2.82 0 01-.74.77c-.1 0-.1.24 0 .49s-.35.39-.56.49a.57.57 0 00-.35.45c0 .15-.1.14-.42.32s-.11.39-.28.51a11 11 0 00-1.14 1.28 12.44 12.44 0 00-.58 1.25 1.1 1.1 0 01-.33.41v.19a3.63 3.63 0 00-.38.58c-.05.13.32.22.21.28s-.39-.06-.44.32-.16.18-.33.28-2 2.64-2.27 3-1.39 2.36-1.61 2.72-.53.28-.67.49.15.19 0 .44-.46.34-.61.86-.22.51-.4.66 0 .5-.16.57 0 .4 0 .56-.19 0-.36.06-.2.27-.21.43a.64.64 0 01-.18.48.62.62 0 00-.27.5c0 .19-.14.59-.27.62s-.11 0-.32.46a1.59 1.59 0 01-.34.55v.58c0 .32-.14.41-.33.33s-.25.27-.23.6a.68.68 0 01-.28.65c-.2.17-.11.7-.14 1s-.16.08-.37.17-.26.61-.3.83-.1 0-.3.11 0 .27-.14.47a2 2 0 00-.34.56 1.49 1.49 0 01-.19.52c-.1.11 0 .27-.09.44s0 0-.17.27 0 .47-.2.75a1 1 0 00-.19.65c0 .21-.28.53-.51.72a3.68 3.68 0 00-.52 1.07c-.18.37.06.4-.18.75s-.06.54-.35.76-.36.91-.42 1-.06.31-.14.51a3 3 0 01-.28.86A3 3 0 0085 47.4c0 .32-.1.05-.11.29s.09.25-.23.63a1.84 1.84 0 00-.3.72c0 .12-.07.24-.1.37s0 .28 0 .43-.14.34-.18.52a.64.64 0 01-.08.19.82.82 0 00-.06.44v.33c0 .35-.13.71-.17 1.06a3.53 3.53 0 01-.4 1.25c-.32.67.2 1.13.51 1.55a5 5 0 01.88 1.38c.24.63 1.75.12 1.83-.17a10.1 10.1 0 00.23-1.75c0-.21.26-.58.26-.8v-1.31c0-.51.31-1.6.41-2.38a24.62 24.62 0 01.76-2.82c.14-.47 1.12-2.58 1.23-3s.34-.93.37-1 .16-.38.28-.79 1-2.12 1.13-2.34.74-1.67.91-1.94.23-.7.56-1.38.29-.62.28-.69a.36.36 0 01.07-.36 2.23 2.23 0 00.32-.79c.13-.42 2.31-4.06 2.46-4.42s.24-.35.35-.62.11-.49.21-.76a4.8 4.8 0 01.81-1c.11-.1.1-.21.16-.34a.71.71 0 00.08-.31 1.13 1.13 0 01.09-.38c.09-.23.2-.13.37-.29a5.39 5.39 0 00.52-.93c.21-.39 1-1.43 1.26-1.9a15.38 15.38 0 011.07-1.74 18.85 18.85 0 001.56-2c.55-.86 3.26-4.38 3.92-5.06a52.89 52.89 0 014.92-5 33.62 33.62 0 015.62-3.42 6 6 0 011.74-.77c.85-.17 4.42-1.68 7.21-1.82s3 .19 3.12.31 0 1-.12 1.36-.56 1.35-.59 1.5-.2.14-.19.47.06.53-.16.63a1.41 1.41 0 00-.62.54c-.13.23 0 .54-.12.74s-.5.47-.5.68-.3.39-.43.66-.32.19-.5.2-.22.47-.32.71a2.67 2.67 0 01-.42.62h-.06c-.38 0-.57.49-.72.54s-.17.36-.32.52-.75.29-.8.66a.77.77 0 01-.56.65c-.21 0-1 1-1.26 1.25s-2.21 1.9-2.4 2.1a10.39 10.39 0 00-.88.87c-.1.18-1.53 1.1-1.76 1.32a11 11 0 00-1 .8 20.5 20.5 0 01-1.83 1.61 4.83 4.83 0 00-.94.73 11.82 11.82 0 01-1.35 1.05 8.66 8.66 0 01-1.14.94c-.35.17-.58.66-1 .82s-1.37 1-1.72 1.13-.29.21-.42.39-.25.21-.5.28a11 11 0 00-1.64 1.18c-.19.2-1.31 1.23-1.51 1.35a2.16 2.16 0 00-.61.47c-.14.18-.23 0-.32.24a1.05 1.05 0 01-.33.47c-.13.11-.75.7-.88.82s-.72.92-.89.94-.11.34-.26.46-.44.67-.64.88-.13.3-.13.48-.12.09-.23.29-.56 1.19-.64 1.35a1.63 1.63 0 00-.19.52c-.07.3-.13.16-.2.39s.07.27.18.31 0 .14 0 .19-.14.3 0 .4-.13.09-.24.39a3.71 3.71 0 00.21 1.27 3.13 3.13 0 01.24.9c0 .43.42.69.53 1a3.22 3.22 0 00.42 1c.23.31.26.66.51.85s.26.17.28.47.26.3.33.44a7.55 7.55 0 001.21 1.39c.2.07.21.1.27.25s1.12 1.31 1.49 1.32-.07-.16.56.38a40.26 40.26 0 005.84 2.58c.82.24 2 .36 2.44.47a1.46 1.46 0 001.12-.13c.54-.2 1.13.33 1.86.45a16.66 16.66 0 003.65-.27c.25-.09.18-.78.18-.78h-.71c-.34 0-.31-.25-1-.65a10.12 10.12 0 00-3.44-.59c-.51 0-2.93-.33-7.05-2.2s-4.31-2.7-5.54-5.16.11-4.86 1.37-6.44a36.31 36.31 0 016.89-6.06c3.54-2.6 10.57-8.42 14.45-11.84a36.17 36.17 0 006.91-8.06 9 9 0 001.31-4zm-16.07 44.62l.26-.11c.25-.1.17 0 .25 0s0 0 .07.13-.14.06-.24.14 0 .26-.13.25-.11-.11-.35-.33 0-.1.14-.13z"/></g></g></svg><svg width="111.69" height="33.36" viewBox="-1 -1 111.69 33.36" x="150" xmlns="http://www.w3.org/2000/svg"><g data-name="Layer 2"><g data-name="Layer 1" fill="#fff"><path d="M.06 18.32h2.7l.86-3h4.74l.88 3H12L7.39 4.37H4.63l-4.57 14zm5.36-9.15C5.64 8.43 6 7 6 7s.31 1.41.53 2.15l1.18 4H4.25l1.17-4zm7.71 9.15h2.66V4.37h-2.66v14zm4.7 0h2.66v-5.6h2.14a2.29 2.29 0 012.57 2.38c.11 1.5.15 3.07.48 3.22h2.55v-.14c-.46-.21-.38-1.71-.57-3.68-.16-1.7-.79-2.44-2-2.81v-.06a3.19 3.19 0 002.41-3.38c0-2.32-1.69-3.88-4.23-3.88h-6v14zm2.66-11.67h2.9a1.87 1.87 0 012.09 2c0 1.12-.72 1.92-2.17 1.92h-2.82V6.65zm18 11.67H41v-8c0-1.13-.11-2.89-.11-2.89s.3 1.64.57 2.66l2.21 8.23h2.53l2.25-8.23c.28-1 .57-2.66.57-2.66S49 9.19 49 10.32v8h2.48V4.37h-3.8l-1.86 7c-.46 1.76-.8 3.77-.8 3.77s-.37-2-.83-3.77l-1.85-7h-3.83v14zm14 0h2.7l.86-3h4.73l.88 3h2.77L59.81 4.37h-2.75l-4.57 14zm5.36-9.15c.22-.74.55-2.15.55-2.15s.32 1.41.54 2.15l1.17 4h-3.44l1.18-4zm6.91 9.15h3l2.72-5.09 2.68 5.09h3.1L72 11l3.86-6.63H73l-2.47 4.41-2.46-4.41h-3L69 11l-4.24 7.3zm25.84.29c3.69 0 5-2.88 5-7.16 0-4.52-1.87-6.77-5.21-6.77a4.56 4.56 0 00-4.74 4.68 4.42 4.42 0 004.5 4.71 3.56 3.56 0 002.95-1.47 5.52 5.52 0 01-.78 3.15 2.12 2.12 0 01-1.82.83 1.83 1.83 0 01-1.91-1.46H86.2c.27 2 1.78 3.49 4.4 3.49zm-.07-6.69a2.37 2.37 0 01-2.46-2.59 2.5 2.5 0 115 0 2.44 2.44 0 01-2.53 2.56zM102 18.63c3.26 0 5.25-2.73 5.25-7s-2-7-5.23-7-5.27 2.71-5.27 7 2 7 5.25 7zm0-2.26c-1.88 0-2.66-1.89-2.66-4.72s.78-4.72 2.66-4.72 2.62 1.89 2.62 4.72-.75 4.72-2.62 4.72zM58.68 28.08H59v-3.52s.24.41.43.69l1.87 2.83h.4V24h-.37v3.53s-.2-.36-.4-.67L59.09 24h-.41v4.07zm3.81 0h.39V24h-.39v4.07zm1.14 0H64v-1.43l.73-.72 1.61 2.15h.46L65 25.67 66.7 24h-.49L64 26.18V24h-.38v4.07zm3.56 0H70v-.35h-2.43v-1.59h2.19v-.33h-2.19v-1.47H70V24h-2.81v4.07zm5.67.08c.86 0 1.44-.47 1.44-1.19s-.65-1-1.45-1.2-1.1-.29-1.1-.77.37-.75 1-.75a1 1 0 011.06.87h.37a1.27 1.27 0 00-1.43-1.19c-.82 0-1.36.43-1.36 1.08s.53.94 1.28 1.09 1.25.31 1.25.89-.44.85-1 .85a1.12 1.12 0 01-1.27-1.08h-.38a1.45 1.45 0 001.64 1.4zm2-.08h.39v-1.77h1.16c.86 0 1.3-.41 1.3-1.16a1.07 1.07 0 00-.29-.79 1.2 1.2 0 00-1-.35h-1.56v4.07zm.39-2.08v-1.66h1.17c.59 0 .9.29.9.82s-.27.83-.93.83zM80 27.82c-1 0-1.49-.79-1.49-1.77S79 24.27 80 24.27s1.51.79 1.51 1.78A1.56 1.56 0 0180 27.82zm0 .34a1.93 1.93 0 001.91-2.11 1.91 1.91 0 10-3.8 0A1.92 1.92 0 0080 28.16zm2.48-.08h.38v-1.81h1.24c.59 0 .84.2.87.9s.06.85.15.91h.41c-.07 0-.15-.21-.18-.87s-.16-.94-.58-1.08a.93.93 0 00.68-1A1 1 0 0084.26 24h-1.82v4.07zm.38-2.14v-1.6h1.35c.62 0 .85.29.85.8s-.3.8-.9.8zm4.25 2.14h.38v-3.73h1.37V24h-3.17v.34h1.38v3.73zm3.53.08c.85 0 1.43-.47 1.43-1.19s-.65-1-1.44-1.2-1.11-.29-1.11-.77.38-.75 1-.75a1 1 0 011.06.87h.37a1.28 1.28 0 00-1.44-1.19c-.81 0-1.36.43-1.36 1.08s.53.94 1.28 1.09 1.26.31 1.26.89-.45.85-1.05.85a1.12 1.12 0 01-1.27-1.08H89a1.46 1.46 0 001.65 1.4zm2.67-.08h.4l.8-3c.07-.26.16-.66.16-.66s.08.4.16.66l.77 3h.4L97.06 24h-.38L96 26.76l-.19.8s-.11-.49-.19-.79L94.84 24h-.41l-.75 2.77c-.08.29-.19.78-.19.78s-.1-.5-.18-.8L92.58 24h-.39l1.08 4.07zm4.23 0h2.83v-.35h-2.49v-1.59h2.19v-.33h-2.19v-1.47h2.39V24H97.5v4.07zm3.11 0h.35l.48-1.28h1.77l.47 1.28h.41L102.59 24h-.44l-1.54 4.07zm1-1.59l.57-1.52c.09-.25.2-.6.2-.6s.12.37.21.59l.56 1.53zm3 1.59h.38v-1.81h1.24c.59 0 .84.2.87.9s.06.85.15.91h.41c-.07 0-.15-.21-.18-.87s-.16-.94-.58-1.08a.93.93 0 00.68-1 1 1 0 00-1.16-1.1h-1.81v4.07zm.38-2.14v-1.6h1.35c.62 0 .85.29.85.8s-.3.8-.9.8zM.19 28.08h2.53v-.34H.61c.08-.54.58-.84 1-1.11s1.16-.63 1.16-1.39a1.11 1.11 0 00-1.19-1.14 1.31 1.31 0 00-.95.36 1.33 1.33 0 00-.35 1h.38a1.11 1.11 0 01.24-.77.85.85 0 01.65-.25.77.77 0 01.85.83c0 .57-.37.76-.9 1.08s-1.29.73-1.31 1.73zm4.45-.23c-.7 0-1.07-.67-1.07-1.72s.37-1.72 1.07-1.72 1.06.67 1.06 1.72-.36 1.72-1.06 1.72zm0 .31c.94 0 1.45-.79 1.45-2s-.56-2-1.44-2-1.45.77-1.45 2 .52 2 1.44 2zm1.82-.08H9v-.34H6.87c.08-.54.58-.84 1-1.11S9 26 9 25.24a1.11 1.11 0 00-1.2-1.14 1.28 1.28 0 00-.94.36 1.33 1.33 0 00-.35 1h.38a1.11 1.11 0 01.24-.77.84.84 0 01.65-.25.77.77 0 01.84.83c0 .57-.36.76-.89 1.08s-1.29.75-1.31 1.75zm4.44-.23c-.69 0-1.06-.67-1.06-1.72s.37-1.72 1.06-1.72 1.1.67 1.1 1.72-.35 1.72-1.06 1.72zm0 .31c.93 0 1.44-.79 1.44-2s-.55-2-1.44-2-1.44.77-1.44 2 .51 2 1.44 2zm98.79 2.59a.33.33 0 00-.2-.3.42.42 0 00-.15 0 4 4 0 00-.85 0 .45.45 0 01-.2 0 7.85 7.85 0 00-1.19 0h-.15a7.78 7.78 0 00-1.6 0 2 2 0 01-.35 0c-.4 0-.8-.05-1.19-.05H91.46a3.51 3.51 0 00-.55.05 1.35 1.35 0 01-.49 0 3.58 3.58 0 00-.8 0 3.78 3.78 0 01-1 0 .41.41 0 00-.19 0 3.36 3.36 0 01-1 0 2.73 2.73 0 00-.7 0 2.8 2.8 0 01-.5 0h-11.6a1.51 1.51 0 00-.3 0 2.28 2.28 0 01-.69 0h-3.35a4.1 4.1 0 00-.5 0 1.2 1.2 0 01-.5 0 1.52 1.52 0 00-.6 0 1.3 1.3 0 01-.44 0 6.58 6.58 0 00-1.4 0h-.95a3.36 3.36 0 01-1 0 .72.72 0 00-.25 0 7.86 7.86 0 01-1.19 0 8.24 8.24 0 00-.85 0h-1.35a17 17 0 01-1.75 0h-1c-.41 0-.83.05-1.24 0a.16.16 0 00-.1 0H50.6c-.6 0-1.16-.07-1.75 0h-.19l-.66.05c-.6 0-1.2.07-1.8 0a1.13 1.13 0 00-.25 0h-1.1a6 6 0 00-1 0 .17.17 0 01-.1 0 1.28 1.28 0 00-.55 0 .76.76 0 01-.3 0 2 2 0 00-.69 0 2.27 2.27 0 01-.45 0h-3a5.59 5.59 0 01-1 0 1 1 0 00-.35 0 5.14 5.14 0 01-1.24 0 1.51 1.51 0 00-.3 0H9.21a4.21 4.21 0 00-.5 0 1.35 1.35 0 01-.49 0 .77.77 0 00-.3 0 3.13 3.13 0 01-1.1 0 5.06 5.06 0 00-1.29 0 1.14 1.14 0 01-.45 0 1.37 1.37 0 00-.35 0 1 1 0 01-.24 0 6.66 6.66 0 00-1 0 2.07 2.07 0 01-.35 0 4.65 4.65 0 00-1.29 0 5.43 5.43 0 01-.9.05h-.5a1.32 1.32 0 00-.28 0H.06a.24.24 0 00-.06.11v.11a.65.65 0 010 .24c0 .07 0 .13.05.17a.24.24 0 00.2 0H15.6c.25 0 .5 0 .74-.05a3.27 3.27 0 01.7 0 2.59 2.59 0 00.55 0h50.42a6.32 6.32 0 01.75 0c.62.06 1.24 0 1.85 0h1.5a2.61 2.61 0 00.4 0 4.42 4.42 0 011.15 0h1.64a4 4 0 01.85 0 1 1 0 00.3 0h7.4a15.31 15.31 0 011.79 0 5.21 5.21 0 00.55 0h1.95c1.2.06 2.4.05 3.6 0a8.83 8.83 0 011.15 0H109a1.06 1.06 0 00.49-.11.38.38 0 00.16-.35z"/><path d="M34.24 23.74v7.37h.31v-.19a2 2 0 010-.42 2.44 2.44 0 000-.38 2.78 2.78 0 010-.5v-.3a7.93 7.93 0 010-1.09 5 5 0 000-.67v-1.3a2.42 2.42 0 000-.38 4.43 4.43 0 010-.63v-2.19c0-.14-.09-.22-.2-.18a.12.12 0 00-.08.1v.76zm75.15-3a1.37 1.37 0 00-.41 0h-5.37c-.81 0-1.61 0-2.41-.06a10.08 10.08 0 00-2 0h-.85c-1.24 0-2.47 0-3.7-.06a14.12 14.12 0 00-1.84 0c-1.24.1-2.46 0-3.69 0h-2.28a18.68 18.68 0 00-2 0 2.58 2.58 0 01-.56 0 3.07 3.07 0 00-1.09 0 8.25 8.25 0 01-1.12.05H63.54c-1.61 0-3.31-.06-5 0h-2.85c-1.19 0-2.37 0-3.56-.05a8.2 8.2 0 00-1 0c-.9.05-1.8.05-2.7 0h-1.56c-1.47 0-2.94.07-4.4 0h-1.99c-.85 0-1.7 0-2.56-.05h-4.19a13.77 13.77 0 01-2.13 0H10.16c-.71.05-1.42.05-2.13.05H.62c-.5 0-.74.17-.63.38s.17.15.36.16c.85 0 1.71.07 2.56.09 2.09 0 4.17-.05 6.25-.06h31.79a3.62 3.62 0 00.57 0 14.28 14.28 0 011.85 0 24.11 24.11 0 002.55 0c1.71-.09 3.41-.07 5.12 0h.57c2-.07 4 0 6 0h4.12c1.47 0 2.94.06 4.41 0 1 .05 2 0 3 0h3.27a17.2 17.2 0 002.27 0 17.19 17.19 0 012.27 0 21.71 21.71 0 002.42 0h3.12c1.52-.05 3-.05 4.55 0h1c1.66-.08 3.31-.07 5 0h1.7a10.89 10.89 0 011.14 0c1.27.06 2.56 0 3.83.05a32.62 32.62 0 013.83 0h5.45a2.16 2.16 0 00.36 0c.32-.07.18-.27.19-.38s0-.17-.09-.23zM101.19.86h-2.62a7.93 7.93 0 01-1.09 0 5.72 5.72 0 00-.83 0h-4.43a8.19 8.19 0 00-1.31 0h-5.63a2.51 2.51 0 00-.61 0h-1.16a2.37 2.37 0 00-.84 0 .92.92 0 01-.29 0h-1.09C80.92.86 80.4 1 80 1a4.89 4.89 0 00-.54 0H42.78a1.81 1.81 0 01-.4 0 1.46 1.46 0 00-.51 0 4.93 4.93 0 01-.54 0H31a10.44 10.44 0 00-1.12 0h-3.34a.66.66 0 01-.14 0 2.31 2.31 0 00-1 0c-.32-.06-.65 0-1 0a.72.72 0 00-.29 0 1.24 1.24 0 01-.43 0 3.87 3.87 0 00-1.27 0 .53.53 0 01-.25 0A3.48 3.48 0 0021 .93h-.8a1.4 1.4 0 01-.61 0 1.26 1.26 0 00-.58 0 1.14 1.14 0 01-.58 0 .55.55 0 00-.18 0h-.66a6.43 6.43 0 01-.76 0 8.37 8.37 0 01-1.12 0h-1.06a9.65 9.65 0 00-1.52 0H13a4.36 4.36 0 00-1.3 0 1.63 1.63 0 01-.66 0 .83.83 0 00-.47 0h-.14A8.42 8.42 0 009.22.9H2.35c-.46 0-1.07.1-1.6.1C.53 1 .32.92.1.88.05.88 0 .81 0 .72S0 .36.17.34a1.41 1.41 0 01.29 0h1.6A2 2 0 002.6.29a.93.93 0 01.33 0h1.12a2.25 2.25 0 01.58 0 3.29 3.29 0 00.94 0 1.13 1.13 0 01.26 0 1 1 0 00.43 0 1.12 1.12 0 01.32 0A1.15 1.15 0 007 .3a1.56 1.56 0 01.43 0A1.88 1.88 0 008 .28a.14.14 0 01.11 0 1.1 1.1 0 00.54 0 1.22 1.22 0 01.33 0h.43a1.82 1.82 0 01.33 0 2.35 2.35 0 00.65 0h.29a.55.55 0 01.22 0A3.51 3.51 0 0012 .3a1.78 1.78 0 01.4 0 1.78 1.78 0 00.69 0 .53.53 0 01.25 0 3.46 3.46 0 00.91 0 5.77 5.77 0 00.72 0 4.16 4.16 0 011.27 0h3.23a4.83 4.83 0 01.76 0 4.83 4.83 0 00.76 0 .58.58 0 00.29 0 .23.23 0 01.28 0h.14a1.21 1.21 0 01.5 0 1.28 1.28 0 00.19 0h.39a2.29 2.29 0 00.94 0 .83.83 0 01.47 0 5 5 0 00.95 0 .51.51 0 00.21 0 .81.81 0 01.51 0 2.14 2.14 0 00.62.06h3.26a1.62 1.62 0 01.62 0h.36a2.38 2.38 0 00.65 0 2.69 2.69 0 01.94 0h.26a3.47 3.47 0 01.72 0h.18a.7.7 0 01.25 0 .74.74 0 00.33 0 2.48 2.48 0 01.94 0 1.67 1.67 0 00.8 0H36a.63.63 0 00.36 0 2.23 2.23 0 01.36 0h4.17L43 .23h13.18a2.53 2.53 0 00.91 0 .53.53 0 01.25 0 2.58 2.58 0 00.73 0h2.14a.92.92 0 00.33 0 .94.94 0 01.5 0 .41.41 0 00.22 0 .68.68 0 01.4 0 .09.09 0 00.07 0 3.86 3.86 0 01.76 0h.8a1.1 1.1 0 01.18 0c.44.07.87-.05 1.31 0h.5a.39.39 0 00.15 0c.42-.05.84 0 1.27 0h4.86c.3.08.61 0 .91 0a.65.65 0 00.14 0 3.77 3.77 0 01.58 0 7.67 7.67 0 001.27 0h1a4.34 4.34 0 01.62.06 4.22 4.22 0 00.87 0 .37.37 0 01.18 0 2 2 0 00.69 0h.69a3.79 3.79 0 011 0 .62.62 0 00.33 0 .89.89 0 01.43 0 .87.87 0 00.36 0 1.54 1.54 0 01.37 0h2.4a1.46 1.46 0 00.51 0 .78.78 0 01.22 0h7.44a8 8 0 011 0 1.54 1.54 0 00.37 0 1.2 1.2 0 01.5 0 1.77 1.77 0 00.76 0 .39.39 0 01.15 0 2 2 0 00.69 0 1.84 1.84 0 01.57.05.67.67 0 00.37 0 1.72 1.72 0 01.39 0h9.88a1.13 1.13 0 00.26 0 4.09 4.09 0 011.16 0 .37.37 0 00.11 0 4.23 4.23 0 01.87 0 .23.23 0 00.14 0c.21-.08.41 0 .62 0h.1c.08 0 .14.17.15.31a.38.38 0 01-.12.34.58.58 0 01-.35.11h-8.04z"/></g></g></svg><svg width="150" height="38.37" viewBox="-1 -1 150 38.37" xmlns="http://www.w3.org/2000/svg"><g data-name="Layer 2"><g data-name="Layer 1"><rect width="148" height="36.37" rx="16.91"/><path d="M18.13 18.74a4.32 4.32 0 014.36-4.63 4.14 4.14 0 012.53.78 3.45 3.45 0 011.32 2.44h-2.19a1.59 1.59 0 00-1.67-1.4c-1.44 0-2.12 1.2-2.12 2.81s.82 2.8 2.13 2.8a1.63 1.63 0 001.72-1.48h2.19a3.46 3.46 0 01-1.06 2.27 3.83 3.83 0 01-2.83 1 4.31 4.31 0 01-4.38-4.59zm8.95-.01a4.38 4.38 0 118.75 0 4.38 4.38 0 11-8.75 0zm6.52 0c0-1.61-.7-2.85-2.14-2.85s-2.15 1.24-2.15 2.85.73 2.83 2.15 2.83 2.14-1.22 2.14-2.83zm-2.44-6.49h2.32l-1.31 1.61h-1.54zm5.78 2.04h2.94L41 18.16c.16.55.51 2 .51 2s.35-1.47.5-2l1.09-3.88h3v8.85H44v-6.22s-.31 1.32-.41 1.64l-1.28 4.58h-1.8l-1.21-4.56c-.1-.33-.41-1.66-.41-1.66v6.22h-2zm10.58 0h4a3.38 3.38 0 012.42.82 2.91 2.91 0 01.89 2.18 2.8 2.8 0 01-3 2.9h-2.08v2.95h-2.23zm3.85 4.16a1.11 1.11 0 001.23-1.17 1.09 1.09 0 00-1.23-1.14h-1.62v2.31zm4.47-4.16h4.23c1.76 0 3.1.91 3.1 2.55A2.12 2.12 0 0161.63 19a1.76 1.76 0 011.29 1.62c.19 1.17.06 2.28.37 2.39v.11h-2.13c-.23-.12-.16-1.12-.33-2.04a1.29 1.29 0 00-1.47-1.26H58v3.31h-2.16zm3.84 3.91c.86 0 1.31-.41 1.31-1.07S60.57 16 59.73 16H58v2.18zM67 14.28h2.26l3.19 8.85h-2.3l-.52-1.59h-3.1L66 23.13h-2.2zM69.08 20l-.67-2.14c-.15-.46-.35-1.25-.35-1.25s-.21.79-.36 1.25L67 20zm4.2-5.72h2.19v7h4v1.85h-6.19zm9.81 0h2.25l3.2 8.85h-2.31l-.52-1.59h-3.09l-.51 1.59h-2.2zM85.21 20l-.67-2.14c-.15-.46-.35-1.25-.35-1.25s-.21.79-.36 1.25l-.7 2.14zm3.79.35h2.2c.1.89.68 1.26 1.73 1.26.72 0 1.43-.26 1.43-.93s-.72-.85-1.93-1.15c-1.54-.36-3.16-.83-3.16-2.69s1.54-2.72 3.52-2.72 3.4.87 3.49 2.72h-2.15c-.09-.68-.61-1.06-1.43-1.06s-1.27.33-1.27.83.68.77 2 1.06c1.65.39 3.13.9 3.13 2.79s-1.56 2.88-3.62 2.88c-2.36 0-3.94-1.04-3.94-2.99zm13.44-6.07h2.25l3.2 8.85h-2.31l-.52-1.59H102l-.51 1.59h-2.2zm2.11 5.72l-.66-2.14c-.15-.46-.35-1.25-.35-1.25s-.21.79-.35 1.25l-.72 2.14zM115 22.79a4.4 4.4 0 01-2.22.55 4.27 4.27 0 01-4.36-4.61 4.37 4.37 0 118.73 0 4.82 4.82 0 01-1 3.1l1 .94-1 1.08zm-1.42-1.38l-.8-.78 1-1.05.82.78a3.92 3.92 0 00.31-1.63c0-1.61-.7-2.85-2.13-2.85s-2.14 1.24-2.14 2.85.71 2.83 2.14 2.83a2 2 0 00.78-.15zm4.59-1.41v-5.72h2.19v5.81a1.33 1.33 0 001.52 1.45 1.36 1.36 0 001.5-1.49v-5.77h2.19V20c0 2-1.22 3.29-3.69 3.29s-3.71-1.21-3.71-3.29zm8.83-5.72h2.19v8.85H127zm.81-2h2.31l-1.31 1.61h-1.54z" fill="#fff"/></g></g></svg><svg width="34.08" height="23.41" viewBox="-1 -1 34.08 23.41" x="150" y="56.65" xmlns="http://www.w3.org/2000/svg"><g data-name="Layer 2"><path d="M9.69 8.31H7.6l.17-3.71-1.41 3.71H4.27L7.38 0h2.27l-.27 3.55L10.71 0h2l-3 8.3zm.46 0h2.08l3-8.3h-2l-3.1 8.3zm12.42-.87l9.51-2.34L7.5 15.13c-2.2.9-5.16 1.46-6.87-.54a3.27 3.27 0 01-.45-3.08C.87 9 2.58 7.13 4.23 5.27c-.85 1.72-1.54 4.14.38 5.5a3.23 3.23 0 002.64.43l11.67-2.86H16V5.38c0-.14-.05-.12-.08-.1a.31.31 0 00-.09.14l-1.05 2.91h-2.12L15.77 0h2.07L17 2.22 18.94 0h5.93l-.58 1.54h-1.82l-.62 1.66h1.83l-.54 1.45H21.3l-.75 2h2.3l-.28.76zm-4.7.48L20.7.38l-3 3.52.19 4zM5.07 20.68l-.34.72h-.38l1.38-3 1.39 3h-.39l-.33-.72zm.66-1.48l-.51 1.16h1l-.49-1.16zm9.27-.65h-.36v2.85H15v-2.85zm9.61 2.86h-.44l-.87-1.21h-.15v1.21h-.37v-2.85h.44a1.53 1.53 0 01.76.13.8.8 0 01-.32 1.48l.92 1.24zm-1.44-1.5h.11c.37 0 .77-.07.77-.52s-.43-.51-.79-.51h-.09v1z" fill="#fff" data-name="Layer 1"/></g></svg><svg width="113.74" height="47.81" viewBox="-1 -1 113.74 47.81" y="100.06" xmlns="http://www.w3.org/2000/svg"><g data-name="Layer 2"><path d="M2.25 45.69h4.29l-.07-8.6 9.2-.08v-3.6h-.56a1.17 1.17 0 01-.27 0c-.14 0-.28-.06-.43-.06h-.73c-.23 0-.45 0-.68.06h-.6c-.17 0-.33.06-.5.05h-.7a1.65 1.65 0 00-.38-.05 8.65 8.65 0 01-.88.05h-3.5l-.05-5h5.17a6.09 6.09 0 00.74 0c.19 0 .54-.25.73-.17s.13.16.29.2a1.78 1.78 0 00.61 0c.17 0 .2-.19.41-.16s.18.14.3.16c.2 0 2.61-.08 2.61-.08v-3.57l-15.15.13v2.32c0 1.85 0 3.69.05 5.54 0 1 .18 2 .18 3v.78c0 .26.14.48.15.76a3.72 3.72 0 01-.3 1.18 1.89 1.89 0 000 .82c0 .15.12.09.09.31a3.86 3.86 0 00-.1.74v5.29zm25.75.12c5.41 0 8.17-2.65 8.13-7.1v-8.73c0-.14-.05-.27-.06-.4a1.79 1.79 0 01.09-.4c0-.29-.09-.57-.06-.87s0-.36 0-.54a2.4 2.4 0 000-.46v-2.65h-4.29v4.63a7.57 7.57 0 00.08 1.78 1.18 1.18 0 01.09.37 1.35 1.35 0 01-.06.35 1.19 1.19 0 00-.05.26 2.28 2.28 0 000 .26 1.62 1.62 0 010 .54 2.64 2.64 0 000 .93 7.75 7.75 0 010 .84v4.07c0 2.15-1.24 3.73-4 3.76-2.87 0-4-1.48-4-3.63l-.13-14.09h-4.29v6.33a9.17 9.17 0 000 1 2.47 2.47 0 00.11.36 2.46 2.46 0 010 1.08c0 .14-.06.29-.08.43a2.16 2.16 0 000 .57v4.07a1.27 1.27 0 010 .2c0 4.5 2.93 7 8.41 7zm10-17.66h6.37v1.62a2.25 2.25 0 01.06.63c0 .2-.07.4-.09.61s0 .42 0 .64v13.68h4.29l-.15-17.23h1.06c.13 0 .22-.08.36-.08a4.93 4.93 0 00.55 0h.44c.46 0 .93.06 1.39.06h2.56v-3.55l-17 .15v3.54zm27.54 17.34c5.41 0 8.17-2.65 8.13-7.1l-.12-14.09h-4.29v2.55a4.57 4.57 0 010 1v10.5c0 2.15-1.24 3.73-4 3.75-2.87 0-4-1.47-4-3.62l-.13-14.09h-4.29v5.47a16.47 16.47 0 00.28 2.14v.25a6.2 6.2 0 01.05.86 5 5 0 010 .55 1 1 0 000 .38.86.86 0 010 .16v2.12a4.68 4.68 0 010 1 1.7 1.7 0 00-.06.31v.88c0 4.51 2.93 7 8.41 7zM81 27.64h4.67c2.28 0 3.39 1.22 3.41 2.9s-1.13 2.86-3.47 2.88h-4.56v-.2c0-.79 0-1.58-.06-2.38v-3.2zm-4.19 17.41h4.29l-.1-8.38h3.46c2.67 0 4 1.25 4.18 3.51s.27 4.56.81 4.79h4.11v-.2l-.19-.14a1.2 1.2 0 01-.15-.24 2.93 2.93 0 01-.21-.77c-.15-.81-.18-1.63-.25-2.45 0-.24-.05-.48-.07-.73a8.43 8.43 0 00-.11-.86 2.7 2.7 0 01-.08-.41 1.66 1.66 0 00-.08-.58c0-.1 0-.22-.07-.32s-.1-.12-.14-.17a.35.35 0 01-.06-.25v-.22a.48.48 0 00-.08-.27c-.1-.11 0-.2-.1-.33a2.9 2.9 0 00-.45-.65 3.7 3.7 0 00-1.26-.92 7.32 7.32 0 00-.93-.33V35a4.78 4.78 0 003.83-5.06c0-3.46-2.77-5.76-6.86-5.73l-9.7.09v7.32a28.08 28.08 0 00.07 2.9v.54a5.17 5.17 0 01.12 1.24c0 .22-.07.44-.09.66s0 .45 0 .67-.06.51-.06.76a9.26 9.26 0 01.07 1 7.49 7.49 0 000 1.06v4.6zm19.27-.17l15.66-.13v-3.52l-11.37.1v-5.61h2.65c.28 0 .56-.05.85-.05a7.12 7.12 0 01.8 0 4.87 4.87 0 00.55.06h2.77c.19 0 2.27-.06 2.27 0v-3.46l-9.88.09v-4.65h3.17a6.61 6.61 0 00.89 0 2.74 2.74 0 01.28 0h2.51a5.62 5.62 0 00.56.06c.15 0 .29-.07.44-.08l.59-.06a1.78 1.78 0 01.46 0 5.77 5.77 0 00.72 0h1.49v-3.54l-15.57.13v10.62c0 .28.08.37.08.56a3 3 0 010 .42 10.88 10.88 0 000 1.51v1a1.9 1.9 0 000 .25v1.49a3.71 3.71 0 000 .67 1.06 1.06 0 000 .25c0 .17-.12.33-.11.51s.06.28.06.43v2.64M43.51 17.63l.05-5.63 9.88.09V8.63l-9.88-.08V3.9l11.35.1V.46h-4.78A11 11 0 0149 .45h-9.63v5.77a10.25 10.25 0 000 1.11 1.29 1.29 0 000 .19v13.69l15.66.13v-3.51h-3.12c-.35 0-.44.06-.66.06h-2.06l-1.21-.06h-1.24a.61.61 0 00-.19 0 .47.47 0 01-.17 0H43.7M19 20.93h4.29l.08-9.15 8.32.07-.05 9.15h4.29L36.11.31h-4.29v3.67a4.12 4.12 0 010 .61 2.16 2.16 0 000 .51v.84a2.69 2.69 0 010 .75 3.37 3.37 0 000 .84v.88l-8.32-.08V.2h-4.29v5.25c0 .15 0 .31.05.47s0 .29 0 .44a2 2 0 010 .49 7.67 7.67 0 000 .83v1.25m-13 11.94h4.29l.16-17.22h6.36V.11h-2.13L14 .18a6 6 0 01-.73 0h-2.53L7.9.07 5.05 0H0v3.54l6.36.06v2.77a1.57 1.57 0 000 .23v6.58a1.87 1.87 0 000 .34 1 1 0 010 .34v.22c0 .07 0 .09-.06.15a1.75 1.75 0 000 .51v6.03" data-name="Layer 1" fill="#fff"/></g></svg><svg width="26.06" height="23.62" viewBox="-1 -1 26.06 23.62" x="150" y="80.06" xmlns="http://www.w3.org/2000/svg"><g data-name="Layer 2"><path d="M15.77 21.62h.34a12.81 12.81 0 001.38-.1 11 11 0 001.3-.23 9.55 9.55 0 001.21-.38 6.89 6.89 0 001-.51 6.08 6.08 0 00.92-.65 5.17 5.17 0 00.78-.77 6.18 6.18 0 00.61-.9 6.6 6.6 0 00.43-1A6.35 6.35 0 0024 15.9a2.07 2.07 0 000-.61.53.53 0 010-.22 2.09 2.09 0 000-.25c0-.13-.06-.27-.09-.4s0-.1-.05-.17a1.61 1.61 0 010-.31 2.13 2.13 0 00-.07-.44 6.06 6.06 0 00-.28-.65c-.05-.13-.1-.26-.16-.38a2.07 2.07 0 01-.15-.25 1.22 1.22 0 00-.07-.17 3.89 3.89 0 00-.32-.39c-.08-.08-.13-.18-.21-.25a3.3 3.3 0 00-.3-.22l-.3-.26-.42-.39a1.86 1.86 0 00-.41-.33c-.18-.07-.34-.17-.52-.25a14.79 14.79 0 00-2.09-.74c-.75-.22-1.56-.41-2.35-.59-3.13-.69-4.6-1.2-4.59-2.88 0-1.48 1.53-2.43 3.84-2.41s3.84 1.08 4.06 3.17h4.11C23.34 2.36 20.29 0 15.52 0a15.25 15.25 0 00-1.66.08 11.13 11.13 0 00-1.53.27A9.46 9.46 0 0011 .81a6.87 6.87 0 00-1.22.67 5.75 5.75 0 00-1.22 1.06 1 1 0 00-.13.16c-.09.12-.18.23-.26.36s-.08.21-.14.31a2.73 2.73 0 00-.28.63v.26c0 .09-.09.27-.12.41s0 .12 0 .18 0 .06-.05.09 0 .09 0 .13v.21a2.62 2.62 0 010 .28v.35a2.87 2.87 0 00-.07.77l.09.52a5.07 5.07 0 00.25 1 4.51 4.51 0 001 1.6 6 6 0 001.36 1.2 12.06 12.06 0 001.91.76c.71.22 1.43.4 2.15.57l.28.07c3.22.75 5.23 1.18 5.21 3.21s-2 2.66-4.14 2.64c-3 0-4.46-1-4.73-3.53h-4.2A7.15 7.15 0 007 16.71a1.12 1.12 0 00.08.26l.13.18a4 4 0 00.26.32 2.07 2.07 0 01.28.38c.06.13.09.27.15.4a1.94 1.94 0 00.15.24 1.06 1.06 0 00.12.2c.23.25.43.53.68.76.08.08.19.14.27.22l.08.07s.11.06.15.1.1.13.16.19a4.6 4.6 0 00.53.31 8.94 8.94 0 001.14.5 11.9 11.9 0 002.72.6 17.91 17.91 0 001.79.11zM0 21h4.29v-5.81a1.83 1.83 0 000-.47.61.61 0 010-.18.78.78 0 010-.34v-1.42a2.9 2.9 0 010-.51c0-.22 0-.45.08-.67s0-.52 0-.78V.29L.18.25 0 21z" fill="#fff" data-name="Layer 1"/></g></svg><svg width="26.81" height="22.98" viewBox="-1 -1 26.81 22.98" x="206.94" y="33.36" xmlns="http://www.w3.org/2000/svg"><g data-name="Layer 2"><path d="M7.58 20.83h4.23l.1-10.72c0-1.45-.09-3.63-.09-3.63h.06s.81 1.78 1.48 2.89L20.48 21h4.15v-6.18c0-.47-.09-.71-.07-1.1a17.48 17.48 0 00.1-2.8c-.05-.57-.06-1.15-.06-1.72a8 8 0 010-.85 4.51 4.51 0 00.09-.53c.07-1.78 0-3.57.05-5.35V.23h-4.23l-.1 10.9c0 1.45.09 3.6.09 3.6h-.06s-.79-1.78-1.46-2.92L12.11.1 7.76.06v1.08L7.73 4a12.94 12.94 0 000 2 2.42 2.42 0 010 .76 6.46 6.46 0 000 .88v7.56L7.6 18v2.86zM0 20.77h4.29V9.92a3.32 3.32 0 000-.77 2.19 2.19 0 010-.36 1.73 1.73 0 010-.38 3.35 3.35 0 000-.63 1.49 1.49 0 010-.47v-.76c0-.24 0-.19.06-.3s0-.2 0-.31V0H.18v12.81a4.19 4.19 0 010 .5v1.63a12.71 12.71 0 010 1.38 5.23 5.23 0 000 .69v1.9C0 19.4 0 20 0 20.5v.27z" fill="#fff" data-name="Layer 1"/></g></svg><svg width="56.94" height="23.29" viewBox="-1 -1 56.94 23.29" x="150" y="33.36" xmlns="http://www.w3.org/2000/svg"><g data-name="Layer 2"><path d="M39.18 21.11h4.02a4.73 4.73 0 01.65 0 3.4 3.4 0 00.34.07h.68c.43 0 .85.07 1.28.06.19 0 .34.05.52.06a4.86 4.86 0 00.54 0h7.63v-3.52l-11.36-.1.05-5.6c0-.03 2.37 0 2.59 0a1.35 1.35 0 01.4 0 3.63 3.63 0 00.57 0 7.49 7.49 0 00.81.05c.17 0 .31-.08.47-.1a11.49 11.49 0 011.66 0h3.38V8.58h-7.05a2.84 2.84 0 00-.51-.06h-2.26V3.87L54.91 4V.46h-2.87a11.53 11.53 0 00-1.44 0h-.44c-.18 0-.36.06-.55 0a2.09 2.09 0 00-.43 0c-.46.08-.94 0-1.41 0s-.64.05-1 .05a9.2 9.2 0 00-1.32-.04 7.16 7.16 0 01-1.13 0h-1.79c-.13 0-.26 0-.39-.06s-.28 0-.42 0h-2.35V7.6c0 .21-.06.39-.06.6a1.61 1.61 0 000 .31.76.76 0 01.06.27 3.09 3.09 0 000 .43 1.36 1.36 0 01.06.29v.6a5.45 5.45 0 010 .7c0 .24-.06.46-.06.7v2.02c0 .24-.06.3-.06.46v7.13zm-15.84-2.69v-6.59l8.32.07-.08 9.15h4.29V8.85a9.35 9.35 0 000-1.4 4.17 4.17 0 01.13-.71 1.79 1.79 0 010-.46 2.18 2.18 0 000-.51V.31h-4.29l-.07 8.13-8.32-.07.18-8.16h-4.29v8.5c0 .17-.06.31-.07.47s.1.34.16.52-.05.5-.05.72-.05.39-.07.58 0 .4 0 .59V12a5 5 0 00-.06.54c0 .37.06.72.06 1.09v1.25c0 .36 0 .71-.05 1.06v5.02h4.29s0-4.61.06-7.29M0 3.55l6.37.05-.16 17.23h4.29v-6.26a3.14 3.14 0 010-.53 3 3 0 000-.51v-1.61c0-.56-.06-1.09-.06-1.65v-.32a3.23 3.23 0 00.06-.33V8.9a3.15 3.15 0 01.11-.74 1.56 1.56 0 000-.57 4 4 0 010-.69V3.64h6.36V.1H12.7a7.06 7.06 0 00-.92 0h-.25a2 2 0 00-.33 0H8.66C8.49.14 8.27 0 8 0s-.67.09-1 .09c-.5 0-1 .06-1.47.06S4.36.08 3.77.05C2.53 0 1.28 0 0 0v3.55z" fill="#fff" data-name="Layer 1"/></g></svg></svg>