<svg width="573" height="299" xmlns="http://www.w3.org/2000/svg" xmlns:xlink="http://www.w3.org/1999/xlink"><svg width="259" height="118.22" viewBox="-1 -1 259 118.22" y="89.23" xmlns="http://www.w3.org/2000/svg"><g data-name="Layer 2"><g data-name="Layer 1" fill="#fff"><path d="M132.35 78.22v.06c-.05.06-.12.1-.15.17a1.82 1.82 0 00-.11.4c-.05.16-.07.31-.12.47s-.07.24-.1.38a2.49 2.49 0 01-.3.92c-.16.27-.34.52-.5.79s0 .24-.05.39a.76.76 0 01-.16.26 1.29 1.29 0 00-.29.54 3 3 0 01-.15.79c0 .09-.12.13-.18.22a3 3 0 01-.34.58c-.08.09-.19.13-.25.23a2.55 2.55 0 00-.13.29c-.14.24-.3.46-.44.7s-.09.24-.17.37a1.47 1.47 0 00-.11.46 17.93 17.93 0 01-.58 1.75c-.22.62-.45 1.24-.69 1.85s-.39 1-.58 1.43a11.45 11.45 0 01-.51 1.26c-.09.17-.16.35-.25.53s-.23.39-.35.6-.18.41-.31.6a.37.37 0 00-.1.23.63.63 0 01-.06.27 2 2 0 00-.27.84 2 2 0 01-.1.5 1.3 1.3 0 01-.08.17 1.07 1.07 0 000 .32 1.43 1.43 0 01-.17.61 6.61 6.61 0 01-.36.76 1.74 1.74 0 00-.3.76c0 .53-.56.77-.8 1.17-.07.11-.1.25-.17.37a1.4 1.4 0 00-.1.16 2.56 2.56 0 00-.2.61 2.18 2.18 0 01-.35 1.12 2.54 2.54 0 00-.31.53 6.59 6.59 0 01-.22.72c-.06.15-.21.29-.26.44a1.28 1.28 0 01-.09.32c-.09.17-.2.34-.27.51a3.58 3.58 0 01-.37.66c0 .06-.21.21-.2.28s.61-.12.45.08a.66.66 0 00.2 0c0 .13-.22.15-.3.18a1 1 0 00-.41.23 3 3 0 00-.45.89.81.81 0 00-.1.39h.1c0 .17-.15.2-.25.31a2.6 2.6 0 00-.43.94 3.22 3.22 0 00-.17.68 4.66 4.66 0 01-.12.65.89.89 0 01-.24.56c-.13.14-.33.25-.4.43a.59.59 0 01-.27.38.94.94 0 00-.28.24 1.59 1.59 0 01-.41.51 1.37 1.37 0 00-.33.35 2.24 2.24 0 01-.7.48c-.1.06-.09 0 0 .16s.33.35.46.48l.54.52 1.23 1.18.71.69s.22.27.29.28c3.12.2 5.3-5.27 6.33-7.36s14.56-35.29 17-40.76S152.35 44.54 159 29s7.09-21.77 6.52-23.76S160.76.1 156.6 0s-10.4.89-43 18.29l-1.42.76a8.25 8.25 0 01-1.17.42c-.71.27-1 1.22-1.62 1.67a2.45 2.45 0 01-1.36.33 3 3 0 00-1.14.45 16 16 0 00-1.65.84A6.89 6.89 0 00104 24a2.28 2.28 0 01-1.56.59 1.88 1.88 0 00-1.32.87 3.43 3.43 0 01-.74.9 2.61 2.61 0 01-1.52.26 2.61 2.61 0 00-1.59.66 17.18 17.18 0 01-1.57.86c-.38.21-.54.54-.88.81a3.19 3.19 0 00-.78.6c-.61.82 0 1.57-1.19 2a2.44 2.44 0 01-1.39 0c-.31-.08-.75-.35-1.08-.21-.13.05-.19.22-.28.31a3.67 3.67 0 01-1.22.93 8.09 8.09 0 00-1.84.66c-.41.27-.8.58-1.22.84a9.45 9.45 0 00-1.89 1.57A7.13 7.13 0 0182 37.1a12.2 12.2 0 00-1.74 1.11 1.37 1.37 0 01-1.37.42c-1.1-.14-1.19.93-1.79 1.62-.32.37-.58.34-1 .38a1.5 1.5 0 00-1.12.52 4.87 4.87 0 01-1.63 1 9.62 9.62 0 00-1.6.81c-1.31.78-2.69 1.46-4 2.3q-2.67 1.76-5.31 3.55L60.77 50l18.11-3.87c5.21-3.88 28.3-17.25 48.89-28.17s29.36-12.07 30.88-12-1.14 10.34-2.54 12.52-.3 2.19-1.06 2.81a2.36 2.36 0 00-.55 2c-1.15 1-.72 1.69-1 2.45a16.8 16.8 0 00-1.5 3.77c-.26 1.56-2 2.72-2 3.84a7.51 7.51 0 01-.89 2.8c-.3.76.29 1-.34 1.61s-3.05 5.84-3 6.64-1.74 5.17-2.88 7.13-.25 1.69-.76 2.45a17 17 0 00-1.67 3.65A5.37 5.37 0 00140 59a.73.73 0 01-.07.3 3.25 3.25 0 00-.08.38c0 .13-.12.15-.11.32a2.21 2.21 0 010 .37 1.52 1.52 0 01-.17.48c-.08.18-.07.35-.15.52a2.06 2.06 0 01-.57.82 1.87 1.87 0 00-.5.76 5.19 5.19 0 00-.3 1 7.53 7.53 0 00-.24.81 2.38 2.38 0 01-.12.69 3.89 3.89 0 00-.37.77 3.22 3.22 0 01-.5 1.46 4.7 4.7 0 00-.44.45c-.08.12-.15.28-.23.4l-.3.48s-.13.13-.13.2.07 0 .07.08c0 .24-.14.42-.12.66.31 0-.15.51-.2.61-.15.34-.29.68-.46 1a10 10 0 01-.55.88q-.51.81-1 1.65a14.33 14.33 0 00-.74 1.65c0 .11-.1.21-.13.32a1.36 1.36 0 000 .4.88.88 0 01-.11.4c-.06.13-.16.34-.1.48s.1.09.06.23a3.21 3.21 0 00-.12.33.88.88 0 010 .29zm-52-37c-.12.08-.09.17-.09.17l-.26.31h-.55c-.24 0-.12-.13.12-.23s0-.17 0-.17l.07-.15c.07-.16 0 0 .19 0H80c.2 0 0 0 .25-.07s.21.07.09.14zM84.72 39c-.1.06-.14 0-.28 0s0-.07-.13 0l-.1.08-.08-.1s0-.2.18-.18a1 1 0 01.29.09h.12s.1 0 0 .09zm1-1h-.09s0 .05-.09 0 0 0-.07-.06a.21.21 0 010-.14h.25zm.57-.47c-.06 0 0 .05-.14.11s-.07 0-.11 0 0 0 0-.11a.16.16 0 00.09 0h.27c.1 0 0 .09-.11.07zM112 24.05c-.11.07 0 0-.16 0s0-.07 0-.14.1 0 .15 0 .06.1.06.1l-.1.07zm1.06-.88h-.13c-.05 0 .05-.07.05-.07a.09.09 0 01.12 0v.08zm.65-.62h-.16c-.09 0 0 0 0-.05s.09 0 .14-.06a.12.12 0 00.09 0 .22.22 0 01-.13.06zm13.54-8.12c-.06 0-.07.14-.17.15s-.09.09-.18.13-.23-.18.07-.28a.43.43 0 01.28 0zm1.65-1a2.61 2.61 0 01-.66.1c-.35 0 0-.05-.11-.09s0-.11.11-.1.12-.07.37-.08.48.14.29.17z"/><path d="M9.83 88.67a2.38 2.38 0 00.7.74 10 10 0 002.56 1.47c2.39.65 5.16-2.26 6.94-3.7s3.8-3.05 5.72-4.55q7.38-5.76 15-11.2c8.38-6 16.9-11.85 25.49-17.54 0 0 22.94-3.83 34.73-5.77s38.41-5.13 43.32.37l1.17-1.76s-3.93-7-12-7-29.08 1.41-55.46 6.13-49.43 9.74-57 11.08-9 1.72-13 2.17-6.86.39-8 1.24c0 0 0 .45.54.79s0 .79.75 1.75 1.39.9 1.82 1.8 1 .79 3.22.51 6.65 0 13.52-1.8 27-5.65 29.55-6c0 0-13.41 9.42-17.75 12.75-3.35 2.57-6.67 5.17-10 7.77l-6.32 4.94c-2 1.54-3.89 3.67-6.21 4.46.37.58.47 1 .71 1.39zM171.2 31.12c.08 1-.35.89.49 1.21s1.5.09 1.67-.65 1.19-2.87 1-3.66-1.77-3.11-2.82-3.53-1.77-.27-2.69-.6-1-.05-.84 1-.35 2.51.18 2.88a5.65 5.65 0 011.5 1.39l.52 1s.31.37.45.56.49-.1.52.41zm-15.99 34.15c0 .18-.18.31-.2.48s-.15.36-.22.44a1.89 1.89 0 00-.25.49 2 2 0 00-.17.53 1.14 1.14 0 010 .26c0 .13-.16.2-.21.32a.31.31 0 000 .19s.06.06.07.1-.09.14-.13.19a2.37 2.37 0 00-.23.48c-.07.14-.3.31-.09.41a2.92 2.92 0 01-.31.73c-.09.17-.36.42-.34.63s.08.13 0 .29-.24.26-.28.41 0 .11 0 .18-.25.35-.33.53a8.61 8.61 0 01-.49.83c-.1.17-.15.36-.24.53a3.2 3.2 0 01-.42.55 3.59 3.59 0 00-.39.66c-.05.1-.21.3-.17.43s.09 0 .1.09-.14.33-.17.42a1.68 1.68 0 01-.09.32c-.08.17-.43.43-.35.63v.3c0 .09-.1.13-.13.2a.83.83 0 000 .15c0 .17-.15.32-.2.48a1.85 1.85 0 000 .23 4.79 4.79 0 01-.17.75 10 10 0 01-1 1.92c-.17.31-.26.64-.41 1s-.44.64-.62 1a6.81 6.81 0 00-.48 1.15c-.12.41-.15.85-.28 1.24s-.19.56-.3.83-.36.75-.54 1.14-.25.63-.4.94a9.52 9.52 0 00-.76 2.07c-.49 1.9-.88 2.51-1 3.25s-.7 1.34-.54 2a.67.67 0 00.1.31c.11.11.32 0 .33.19a.33.33 0 01.38.24c0 .09.05.17.09.26a5.32 5.32 0 00.56.76 6.61 6.61 0 00.47.58c.45.48.94.91 1.39 1.38 1.05 1.11 2.07 0 2.6-.84s2.77-9 4.18-11.87 7.14-16.64 7.89-18.17 4.85-11.73 5.78-14.33 1.19-4.45.84-5.75-2.43-2.32-4.19-2.74-1.72.19-1.63 1.21a10.76 10.76 0 01-.95 3.15 3.84 3.84 0 00-.33 2.08c.15.53-.57 1.18-1.15 2.14s-.2 1.19 0 1.63-.73 1.26-.95 2-.78.34-1 1-.26 1-.41 1.45a7 7 0 01-.38 1.12c-.16.34-.45.6-.59 1 0 .06-.07.16 0 .22s.32 0 .33 0c-.12.23.43.06.43.29-.12 0-.15.24 0 .22 0 .22-.52.34-.68.44a2.07 2.07 0 00-.49.49 9.28 9.28 0 01-.67.85c0 .14-.1.26-.14.38a2.85 2.85 0 00-.18.71zM257 12.15c-.14-.76-.3-.5-.1-1.09s-.38-1.1-.59-1.41 0-.27-.18-.84-.34-.31-.84-.6 0-.43 0-.43c-.34-1-3.61-3.77-6.13-4.89s-8.67-.53-9.62-.22-4.36.74-5.29 1.08a28.2 28.2 0 01-3.41.88c-.77.15-2.83 1.29-4.13 1.72a69.46 69.46 0 00-6.31 2.94 16 16 0 01-2.45 1.53c-.47 0-.61.5-1 .93s-.54.14-.89.26-.61.55.21.74-1.59 1.31-1.93 1.5-.36 0-.32-.47-1.2.47-1.84 1.05a39.52 39.52 0 00-3.51 3.46c-.5.72.29 1.34-.21 1.5a5.49 5.49 0 00-1.84 1.75c-.25.47-1.06.12-1.2.64s-.82 1.05-1.48 1.65-.52-.07-1 .69a5.49 5.49 0 01-1.52 1.48c-.2.1-.2.48 0 1s-.68.76-1.09.95a1.14 1.14 0 00-.68.89c0 .28-.21.26-.82.62s-.23.76-.55 1A20 20 0 00196 32.9a25.78 25.78 0 00-1.13 2.44 2.22 2.22 0 01-.64.79v.38a8.49 8.49 0 00-.75 1.12c-.09.26.64.43.41.55s-.75-.12-.84.62-.32.36-.66.55-3.86 5.13-4.4 5.9-2.64 4.53-3 5.23-1 .55-1.32 1 .3.38 0 .86-.89.67-1.18 1.67-.43 1-.77 1.29 0 1-.32 1.12 0 .77-.09 1.08-.39.09-.7.12-.39.52-.41.83a1.26 1.26 0 01-.37.93 1.27 1.27 0 00-.52 1c0 .39-.27 1.15-.52 1.22s-.2 0-.61.88a3.41 3.41 0 01-.68 1.08s-.05.5-.09 1.12-.28.81-.64.65-.5.52-.45 1.17a1.31 1.31 0 01-.55 1.26c-.38.34-.2 1.36-.27 1.91s-.32.17-.73.34-.5 1.19-.57 1.62-.2 0-.59.21 0 .53-.27.91a3.68 3.68 0 00-.66 1.1c-.18.57-.2.79-.38 1s-.09.53-.16.86 0 0-.34.53-.05.9-.39 1.45a1.91 1.91 0 00-.36 1.27c0 .41-.55 1-1 1.41a7.2 7.2 0 00-1 2.08c-.34.71.11.78-.34 1.45s-.11 1-.68 1.48-.71 1.77-.82 1.86-.11.6-.27 1a5.75 5.75 0 01-.55 1.68 6.14 6.14 0 00-1 2.45c0 .62-.2.1-.23.58s.18.47-.44 1.22a3.47 3.47 0 00-.57 1.39c-.06.25-.15.48-.2.72s0 .56-.09.84-.28.67-.36 1a1.44 1.44 0 01-.15.36 1.72 1.72 0 00-.13.87c0 .21-.05.42-.06.63-.05.69-.24 1.38-.34 2.07a6.77 6.77 0 01-.77 2.44c-.62 1.31.39 2.2 1 3a9.94 9.94 0 011.7 2.69c.46 1.22 3.4.24 3.56-.33a21.37 21.37 0 00.46-3.41c0-.41.49-1.13.49-1.56s.09-1.55.09-2.55.59-3.11.8-4.64a47 47 0 011.47-5.49c.27-.91 2.18-5 2.41-5.75s.66-1.82.7-1.94a13.84 13.84 0 00.55-1.53c.22-.78 2-4.13 2.2-4.56s1.45-3.24 1.77-3.77.45-1.36 1.09-2.7.57-1.19.54-1.33-.09-.5.14-.7a3.93 3.93 0 00.63-1.55c.25-.81 4.5-7.9 4.79-8.59s.46-.7.69-1.22.2-1 .4-1.48a9.62 9.62 0 011.57-2c.23-.19.2-.4.32-.64a1.82 1.82 0 00.16-.62 2.16 2.16 0 01.18-.74c.16-.43.38-.24.7-.55a9.69 9.69 0 001-1.82c.41-.76 2-2.79 2.45-3.7a31 31 0 012.09-3.39 35.61 35.61 0 003-3.94c1.07-1.67 6.34-8.52 7.63-9.84s5.7-6.63 9.58-9.71a64.25 64.25 0 0110.94-6.66c1.57-.72 1.73-1.17 3.38-1.51s8.61-3.27 14.05-3.53 5.79.36 6.06.59 0 1.91-.22 2.65-1.09 2.63-1.16 2.92-.39.28-.36.93.11 1-.32 1.22a2.64 2.64 0 00-1.2 1c-.25.45 0 1.05-.23 1.43s-1 .93-1 1.34-.59.76-.84 1.29-.61.35-1 .38-.44.9-.62 1.38a5.49 5.49 0 01-.81 1.2s.61 0-.12.09-1.11 1-1.4 1.05-.35.7-.64 1-1.45.57-1.54 1.28a1.52 1.52 0 01-1.09 1.27c-.41.07-2 2-2.46 2.44s-4.31 3.7-4.67 4.08a20 20 0 00-1.73 1.69c-.18.36-3 2.15-3.42 2.58a19.09 19.09 0 00-2 1.55 36.13 36.13 0 01-3.57 3.13 9 9 0 00-1.81 1.44 24.85 24.85 0 01-2.64 2 16.16 16.16 0 01-2.22 1.84c-.68.34-1.14 1.29-1.88 1.6s-2.68 1.91-3.36 2.2-.57.41-.82.76-.48.41-1 .55a19.36 19.36 0 00-3.17 2.3c-.39.38-2.57 2.38-3 2.62a4.77 4.77 0 00-1.18.91c-.27.36-.45 0-.63.48a2 2 0 01-.64.9c-.25.22-1.45 1.37-1.7 1.6s-1.19 1.8-1.56 1.88-.2.65-.5.89-.86 1.31-1.24 1.71-.25.58-.25.94-.23.16-.46.57-1.09 2.32-1.25 2.63a3.13 3.13 0 00-.36 1c-.14.59-.25.31-.39.76s.14.53.34.6 0 .29 0 .38-.27.57 0 .77-.25.19-.45.76a6.64 6.64 0 00.41 2.48 6.13 6.13 0 01.45 1.75c0 .83.82 1.33 1.05 2.05a5.85 5.85 0 00.81 2c.46.59.5 1.29 1 1.64s.5.34.55.94.49.57.63.86a15.7 15.7 0 002.36 2.69c.39.15.41.19.52.48s2.18 2.56 2.91 2.58-.14-.31 1.09.74 9.78 4.54 11.37 5 3.84.72 4.74.94a2.92 2.92 0 002.18-.27c1-.38 2.21.65 3.64.89a34.29 34.29 0 007.1-.53c.48-.19.34-1.53.34-1.53s-.73 0-1.38.07-.59-.47-1.84-1.26-5.7-1.17-6.7-1.15-5.72-.64-13.73-4.27-8.4-5.25-10.78-10 .2-9.46 2.65-12.54 6.52-6.73 13.42-11.79S233.42 42.26 241 35.6a69.73 69.73 0 0013.44-15.69c1.88-3 2.7-7 2.57-7.76zM225.72 99l.49-.2c.5-.2.33-.06.5.08s0 0 .13.26-.27.12-.46.26-.06.52-.25.49-.22-.2-.69-.63 0-.2.28-.26z"/></g></g></svg><svg width="215.57" height="63.06" viewBox="-1 -1 215.57 63.06" x="357" xmlns="http://www.w3.org/2000/svg"><g data-name="Layer 2"><g data-name="Layer 1" fill="#fff"><path d="M.13 35.67h5.25l1.68-5.77h9.21L18 35.67h5.39l-9-27.16H9L.13 35.67zm10.43-17.82c.43-1.44 1.07-4.18 1.07-4.18h.07s.61 2.74 1 4.18l2.3 7.83H8.27l2.29-7.83zm15 17.82h5.18V8.51h-5.18v27.16zm9.15 0h5.18v-10.9h4.18c3.21 0 4.78 1.67 5 4.63s.28 6 .93 6.27h5v-.27c-.89-.41-.75-3.34-1.1-7.18-.33-3.3-1.54-4.74-3.9-5.47v-.11c3.29-.95 4.68-3.38 4.68-6.57 0-4.52-3.28-7.56-8.22-7.56H34.71v27.16zM39.89 13h5.64c2.75 0 4.07 1.64 4.07 3.84s-1.39 3.72-4.21 3.72h-5.5V13zM75 35.67h4.75V20.09c0-2.2-.21-5.62-.21-5.62h.07s.57 3.19 1.11 5.17l4.29 16h5l4.4-16c.53-2 1.1-5.17 1.1-5.17h.07s-.21 3.42-.21 5.62v15.58h4.82V8.51h-7.46l-3.61 13.64c-.89 3.42-1.57 7.33-1.57 7.33h-.07s-.72-3.91-1.61-7.33L82.26 8.51H75v27.16zm27.23 0h5.25l1.68-5.77h9.21l1.72 5.77h5.39l-9-27.16h-5.36l-8.92 27.16zm10.43-17.82c.43-1.44 1.07-4.18 1.07-4.18h.07s.61 2.74 1 4.18l2.28 7.83h-6.75l2.29-7.83zm13.46 17.82H132l5.29-9.91h.07l5.22 9.91h6l-8.47-14.25 7.5-12.91H142l-4.72 8.58h-.07l-4.71-8.58h-5.8l7.65 13-8.26 14.21zm50.31.57c7.18 0 9.79-5.62 9.79-13.94 0-8.82-3.65-13.18-10.15-13.18a8.87 8.87 0 00-9.21 9.11c0 5.55 3.78 9.16 8.75 9.16a6.92 6.92 0 005.68-2.85h.07c0 2.7-.57 4.82-1.54 6.12a4.06 4.06 0 01-3.53 1.63 3.57 3.57 0 01-3.72-2.85h-4.71c.53 3.91 3.46 6.8 8.57 6.8zm-.14-13c-3 0-4.79-2.09-4.79-5.05a4.77 4.77 0 014.82-5 4.82 4.82 0 014.9 5.05 4.77 4.77 0 01-4.93 5zm22.29 13.07c6.36 0 10.22-5.32 10.22-13.6s-3.86-13.6-10.19-13.6-10.25 5.28-10.25 13.6 4 13.6 10.22 13.6zm0-4.41c-3.64 0-5.18-3.68-5.18-9.19s1.54-9.2 5.18-9.2 5.11 3.69 5.11 9.2-1.46 9.19-5.11 9.19zm-84.34 22.78h.76v-6.86s.47.79.83 1.35l3.65 5.51h.77v-7.94h-.71v6.89s-.39-.71-.79-1.31l-3.65-5.58h-.81v7.94zm7.44 0h.74v-7.94h-.74v7.94zm2.2 0h.74v-2.8l1.42-1.4 3.14 4.2h.89L126.55 50l3.32-3.23h-1L124.62 51v-4.26h-.74v7.94zm6.94 0h5.51V54h-4.77v-3.1h4.26v-.64h-4.26v-2.87h4.65v-.65h-5.39v7.94zm11.05.14c1.66 0 2.79-.9 2.79-2.31 0-1.67-1.27-2-2.82-2.34s-2.15-.56-2.15-1.5.73-1.46 1.94-1.46a1.88 1.88 0 012.07 1.7h.72a2.5 2.5 0 00-2.8-2.32c-1.59 0-2.65.84-2.65 2.1s1 1.83 2.5 2.12c1.69.34 2.44.61 2.44 1.73s-.87 1.67-2 1.67a2.18 2.18 0 01-2.48-2.1h-.74c.09 1.54 1.12 2.71 3.21 2.71zm3.89-.14h.74v-3.45h2.28c1.66 0 2.51-.8 2.51-2.27a2.15 2.15 0 00-.55-1.53 2.37 2.37 0 00-1.86-.69h-3.12v7.94zm.74-4.08v-3.21h2.29c1.14 0 1.75.57 1.75 1.6s-.53 1.61-1.82 1.61zm9.19 3.57c-1.9 0-2.91-1.54-2.91-3.46s1-3.46 2.91-3.46 2.93 1.54 2.93 3.46-1 3.46-2.93 3.46zm0 .67c2.25 0 3.7-1.77 3.7-4.13s-1.45-4.13-3.7-4.13-3.69 1.77-3.69 4.13 1.44 4.13 3.68 4.13zm4.81-.16h.74v-3.54h2.42c1.16 0 1.64.39 1.7 1.77s.11 1.65.29 1.77h.8c-.15-.1-.29-.43-.35-1.7s-.32-1.83-1.14-2.11a1.8 1.8 0 001.33-1.92 2 2 0 00-2.29-2.21h-3.5v7.94zm.74-4.17v-3.12h2.65c1.19 0 1.64.57 1.64 1.56s-.59 1.56-1.74 1.56zm8.28 4.17h.74V47.4h2.68v-.66h-6.1v.66h2.68v7.28zm6.87.14c1.66 0 2.79-.9 2.79-2.31 0-1.67-1.27-2-2.81-2.34s-2.16-.56-2.16-1.5.74-1.46 1.95-1.46a1.87 1.87 0 012.06 1.7h.72a2.49 2.49 0 00-2.8-2.32c-1.58 0-2.65.84-2.65 2.1s1 1.83 2.5 2.12c1.7.34 2.44.61 2.44 1.73s-.86 1.67-2 1.67a2.17 2.17 0 01-2.47-2.1h-.75c.09 1.54 1.12 2.71 3.21 2.71zm5.2-.14h.79l1.55-5.79c.14-.51.3-1.29.3-1.29s.17.79.32 1.29l1.5 5.79h.76l2.19-7.94h-.74l-1.39 5.35-.37 1.57s-.22-1-.36-1.53l-1.46-5.39h-.8l-1.45 5.4c-.15.57-.38 1.52-.38 1.52s-.21-1-.36-1.56l-1.38-5.36h-.77l2.11 7.94zm8.23 0h5.52V54h-4.77v-3.1h4.26v-.64h-4.26v-2.87h4.64v-.65h-5.39v7.94zm6.07 0h.76l.93-2.5H201l.92 2.5h.8l-3-7.94h-.84l-3 7.94zm1.91-3.1l1.11-3c.18-.48.39-1.16.39-1.16s.23.71.4 1.15l1.09 3zm5.75 3.1h.74v-3.54h2.42c1.15 0 1.63.39 1.7 1.77s.11 1.65.28 1.77h.8c-.14-.1-.29-.43-.34-1.7s-.32-1.83-1.14-2.11a1.8 1.8 0 001.33-1.92 2 2 0 00-2.25-2.14h-3.54v7.94zm.74-4.17v-3.12h2.64c1.2 0 1.64.57 1.64 1.56s-.58 1.56-1.74 1.56zM.37 54.68H5.3V54H1.19c.16-1.06 1.12-1.65 2-2.17 1.12-.66 2.21-1.2 2.21-2.72a2.16 2.16 0 00-2.33-2.2 2.58 2.58 0 00-1.84.68 2.61 2.61 0 00-.68 1.91h.73a2.19 2.19 0 01.48-1.5A1.67 1.67 0 013 47.54a1.51 1.51 0 011.64 1.62c0 1.11-.71 1.48-1.74 2.1C1.73 52 .41 52.73.37 54.68zM9 54.22c-1.33 0-2-1.3-2-3.34s.67-3.35 2-3.35 2.06 1.3 2.06 3.35-.66 3.34-2.06 3.34zm0 .62c1.82 0 2.81-1.54 2.81-4s-1.08-4-2.8-4-2.82 1.49-2.82 4 1 4 2.81 4zm3.54-.16h4.92V54h-4.1c.15-1.06 1.12-1.65 2-2.17 1.12-.66 2.21-1.2 2.21-2.72a2.16 2.16 0 00-2.33-2.2 2.58 2.58 0 00-1.84.68 2.61 2.61 0 00-.68 1.91h.73a2.24 2.24 0 01.48-1.5 1.67 1.67 0 011.27-.48 1.51 1.51 0 011.64 1.62c0 1.11-.71 1.48-1.74 2.1-1.2.73-2.52 1.47-2.55 3.42zm8.65-.46c-1.36 0-2.08-1.3-2.08-3.34s.72-3.35 2.08-3.35 2.06 1.3 2.06 3.35-.69 3.34-2.06 3.34zm0 .62c1.82 0 2.81-1.54 2.81-4s-1.08-4-2.8-4-2.82 1.49-2.82 4 1 4 2.81 4zm192.37 5.04a.64.64 0 00-.4-.6.71.71 0 00-.28-.06 8.28 8.28 0 00-1.65 0 .81.81 0 01-.38 0 14 14 0 00-2.33-.06 2.54 2.54 0 01-.29 0 15.39 15.39 0 00-3.11.06 3.88 3.88 0 01-.68 0c-.78 0-1.56-.09-2.33-.09h-10.99c-.55 0-1.23-.07-1.85-.08h-11.2a7.58 7.58 0 00-1.06.09 2.64 2.64 0 01-1 0 5.8 5.8 0 00-1.55-.09 7.56 7.56 0 01-1.84 0 1.29 1.29 0 00-.39 0 6.35 6.35 0 01-2 0 4.77 4.77 0 00-1.36 0 5.27 5.27 0 01-1 .06c-.88-.05-1.75 0-2.62 0h-19.96a2.79 2.79 0 00-.58 0 4.78 4.78 0 01-1.36 0c-.36 0-.72-.06-1.07-.06h-5.45a6.37 6.37 0 00-1 .06 2.58 2.58 0 01-1 0 3.29 3.29 0 00-1.17 0 2.31 2.31 0 01-.87 0 14.53 14.53 0 00-2.72-.09h-1.85a7.09 7.09 0 01-1.84 0 1.57 1.57 0 00-.48 0 14.07 14.07 0 01-2.34 0 15.22 15.22 0 00-1.65-.1h-2.62a32.1 32.1 0 01-3.4.06H114c-.81-.09-1.62.09-2.43-.07a1.28 1.28 0 00-.19 0c-.84 0-1.69.06-2.53.07H98.54c-1.17 0-2.27-.13-3.4 0a1.71 1.71 0 01-.39 0l-1.36-.1c-1.17-.08-2.33.14-3.5 0a2.59 2.59 0 00-.48 0c-.71 0-1.43.08-2.14.1a11.59 11.59 0 00-2 0 .42.42 0 01-.19 0 2.42 2.42 0 00-1.07 0 1.62 1.62 0 01-.58 0 3.23 3.23 0 00-1.35 0 5.08 5.08 0 01-.87.05c-1.92 0-3.83-.05-5.75 0a9.74 9.74 0 01-1.94-.09 2.23 2.23 0 00-.68 0 9.88 9.88 0 01-2.43 0 5.52 5.52 0 00-.58 0c-.61 0-1.23.07-1.85.08H47.32c-1.91 0-3.82-.07-5.74 0h-6.62L29 59.6h-5.84c-.87 0-1.75-.07-2.63 0s-1.74 0-2.62 0a8 8 0 00-1 .09 2.58 2.58 0 01-1 0 1.44 1.44 0 00-.58 0 6.1 6.1 0 01-2.13 0 9.74 9.74 0 00-2.53 0 2.32 2.32 0 01-.87 0 2.51 2.51 0 00-.67 0c-.17 0-.33.1-.48.07a12.7 12.7 0 00-1.95 0 5.08 5.08 0 01-.67-.07 9.75 9.75 0 00-2.53-.06 9.24 9.24 0 01-1.74.1c-.33 0-.65 0-1-.06a2 2 0 00-.55 0 .44.44 0 00-.22.07.6.6 0 00-.1.23.35.35 0 000 .2H0a1.84 1.84 0 010 .47c0 .13 0 .26.1.34.13.08.25 0 .39 0h29.84a14.13 14.13 0 001.45-.1 6.18 6.18 0 011.36 0 5.51 5.51 0 001.07.08h98.16c.49 0 1-.09 1.46-.05 1.2.12 2.4 0 3.6 0 1 .05 2 0 2.92 0a4.09 4.09 0 00.78-.05 9.24 9.24 0 012.23 0 3.77 3.77 0 00.58 0c.29 0 .58-.06.87-.06h1.66a9.12 9.12 0 011.65.07 2.8 2.8 0 00.58 0l2-.08h12.46a29.2 29.2 0 013.5-.05c.35 0 .71.07 1.07.06s.9-.08 1.36-.09 1 0 1.45 0h1c2.34.11 4.67.1 7 .06a21 21 0 012.24 0c1 .09 2 0 2.92 0h28.51a2.09 2.09 0 001-.21.7.7 0 00.32-.67z"/><path d="M66.67 46.22c0 1.2 0 2.4.06 3.6v10.75h.59v-.38a5.48 5.48 0 010-.81 4.58 4.58 0 000-.74 6.41 6.41 0 010-1 3.62 3.62 0 000-.57 16.66 16.66 0 010-2.12v-3.84a4.54 4.54 0 000-.74 8.3 8.3 0 010-1.22v-4.27c0-.22-.17-.42-.37-.36a.22.22 0 00-.16.21c0 .49-.07 1-.08 1.47zM213 40.38a2.94 2.94 0 00-.8 0h-10.42c-1.57 0-3.15 0-4.7-.12a22.62 22.62 0 00-3.86 0c-.53 0-1.1.07-1.65.07-2.4 0-4.8 0-7.2-.12a28.68 28.68 0 00-3.59 0 71.67 71.67 0 01-7.18 0h-4.39a35.69 35.69 0 00-3.87 0 4.77 4.77 0 01-1.08 0 5.81 5.81 0 00-2.12 0 17.34 17.34 0 01-2.19.09h-26.62c-3.14 0-6.28-.09-9.41 0-3.23-.18-6.45-.11-9.68 0-1.84.05-3.7 0-5.55 0-2.31 0-4.62 0-6.92-.11a15.54 15.54 0 00-1.93 0 51.28 51.28 0 01-5.26 0c-1-.05-2 0-3 0-2.85.07-5.72.14-8.58 0h-3.86c-1.66 0-3.32 0-5-.1-.81-.05-1.65 0-2.48 0h-5.94a27.11 27.11 0 01-4.13 0 7.66 7.66 0 00-.83 0c-1.48.09-2.95 0-4.43 0h-3.31c-.93 0-1.84.05-2.76 0s-1.67-.07-2.49 0c-1.11 0-2.2.06-3.31 0h-1.94c-2.4.06-4.79.09-7.19 0-1.46-.06-3 0-4.43 0h-3.59c-1.67 0-3.32 0-5-.06-.83 0-1.67 0-2.49.07-1.38.1-2.76.11-4.14.1H1.26c-1 0-1.45.33-1.24.74a.82.82 0 00.72.32c1.65.07 3.31.13 5 .16 4.06.08 8.12-.09 12.18-.12h52.41c3.14 0 6.29-.08 9.42.06a10.25 10.25 0 001.11 0 28.66 28.66 0 013.59 0 43.56 43.56 0 005 0c3.32-.17 6.64-.13 10-.06h1.11c3.88-.13 7.76-.07 11.64-.05h8.03c2.87 0 5.73.11 8.59 0 1.94.09 3.88 0 5.82 0h6.38a34.31 34.31 0 004.42 0 36.38 36.38 0 014.43 0 40.76 40.76 0 004.69 0h6.09c3-.12 5.9-.11 8.85 0h1.93c3.23-.15 6.45-.13 9.68 0h3.32c.73 0 1.48-.07 2.2 0 2.49.12 5 0 7.47.11a66.12 66.12 0 017.45 0h10.61a4.18 4.18 0 00.71 0c.61-.12.35-.52.37-.73s.09-.34-.19-.45zM197 1.67h-5.1a16.71 16.71 0 01-2.12 0 11 11 0 00-1.62 0c-1.7 0-3.4.05-5.1-.06h-1.76c-.35 0-.66.08-1 .09s-.52 0-.78-.06a16.6 16.6 0 00-2.54 0 2 2 0 01-.35 0h-8.74l-1.49.08a1.48 1.48 0 01-.42 0 4.4 4.4 0 00-1.2-.06h-1.2c-.21 0-.42.05-.63.06a1.56 1.56 0 01-.43 0 4.9 4.9 0 00-1.62 0 2.09 2.09 0 01-.56 0h-2.12c-.88-.07-1.75.08-2.62 0a9.4 9.4 0 00-1.06 0H83.29a2.84 2.84 0 01-.77-.08 3.65 3.65 0 00-1 0 7.75 7.75 0 01-1.06.1H60.3c-.7 0-1.46-.07-2.19 0s-1.42 0-2.13 0h-4.31a2.61 2.61 0 01-.28 0 4.21 4.21 0 00-1.9 0c-.64-.13-1.28 0-1.91-.1a1.32 1.32 0 00-.56 0 2.7 2.7 0 01-.85 0 7.07 7.07 0 00-2.47 0 1.35 1.35 0 01-.49 0A6.86 6.86 0 0041 1.8a7.09 7.09 0 01-1.13 0 2 2 0 00-.42 0 2.7 2.7 0 01-1.2 0 2.28 2.28 0 00-1.13 0 2.27 2.27 0 01-1.13 0 2 2 0 00-.35 0h-1.27a9.14 9.14 0 01-1.48 0 17.78 17.78 0 01-2.19 0h-2.05a19.64 19.64 0 00-3 .05 1.27 1.27 0 01-.28 0 9.08 9.08 0 00-2.55.06 3 3 0 01-1.27 0 1.76 1.76 0 00-.91 0 .68.68 0 01-.28 0 14.94 14.94 0 00-2.41-.07H4.57c-.9 0-2.07.16-3.11.04C1 1.85.62 1.79.2 1.72c-.1-.01-.2-.15-.2-.31C0 1 .08.7.33.67a3.6 3.6 0 01.56 0H4a3.74 3.74 0 001-.1A2 2 0 015.7.5c.42 0 .84.07 1.27.05s.61 0 .91 0A4.27 4.27 0 019 .53a6.67 6.67 0 001.84 0 1.61 1.61 0 01.49 0 2.21 2.21 0 00.85 0 1.92 1.92 0 01.63 0 1.83 1.83 0 00.7 0 3.06 3.06 0 01.85 0 3.89 3.89 0 001.13 0 .3.3 0 01.21 0 1.91 1.91 0 001.06 0 2.65 2.65 0 01.63 0h.85a2.66 2.66 0 01.63 0 5 5 0 001.27.1h.56a1.55 1.55 0 01.43 0 6.65 6.65 0 002.18 0 3.39 3.39 0 01.78 0 3.19 3.19 0 001.34 0 1.35 1.35 0 01.49 0 8.1 8.1 0 001.78.02 13.27 13.27 0 001.41 0 7.58 7.58 0 012.47 0 21.35 21.35 0 012.4 0h3.82a12.39 12.39 0 011.49 0 10.46 10.46 0 001.48.05 1.21 1.21 0 00.56-.1c.19-.1.35-.16.54 0a.35.35 0 00.28 0 2.49 2.49 0 011 0 2.17 2.17 0 00.36 0h.77a4.52 4.52 0 001.83 0 1.79 1.79 0 01.92 0 8.71 8.71 0 001.84.11 1.22 1.22 0 00.42-.06 1.44 1.44 0 011 0 4.09 4.09 0 001.2.13h5.94a3 3 0 00.42 0 3.46 3.46 0 011.2 0c.24 0 .47 0 .71.06A4.88 4.88 0 0061 .51a5.18 5.18 0 011.84.06 2.76 2.76 0 00.49.07 6.65 6.65 0 011.41 0c.11 0 .23-.06.35-.07a1.35 1.35 0 01.49 0 1.23 1.23 0 00.63 0A5 5 0 0168 .55a3.38 3.38 0 001.55 0 .76.76 0 01.42 0 1.28 1.28 0 00.7 0 4.19 4.19 0 01.7-.09c.64 0 1.27.06 1.91 0a17.4 17.4 0 011.91 0h32.56c.45 0 .9-.06 1.34-.08a3.1 3.1 0 01.43 0 5.2 5.2 0 001.76 0 1.16 1.16 0 01.49 0 5.23 5.23 0 001.42.1h4.17a2.64 2.64 0 00.63 0 1.85 1.85 0 011 0 .86.86 0 00.42 0 1.19 1.19 0 01.77 0 .36.36 0 00.14 0 6.1 6.1 0 011.48 0c.52 0 1-.06 1.56-.1a1.45 1.45 0 01.35 0c.85.14 1.69-.09 2.54 0l1 .1a1.35 1.35 0 00.28 0c.83-.11 1.65.08 2.47 0s1.7 0 2.55 0h4.95c.61 0 1.22 0 1.83-.07a.76.76 0 01.15 0 14.72 14.72 0 001.76.07 2.62 2.62 0 00.28 0 8.58 8.58 0 011.13 0 17.12 17.12 0 002.48-.06h1.9a8.09 8.09 0 011.2.1 6.92 6.92 0 001.7 0c.11 0 .24-.07.35 0a3.77 3.77 0 001.34 0h1.34a7.74 7.74 0 012 .09 1.35 1.35 0 00.63 0 1.64 1.64 0 01.85 0 1.38 1.38 0 00.7 0 4.17 4.17 0 01.71-.06h4a6.48 6.48 0 01.77.06 2.54 2.54 0 001 0 1.53 1.53 0 01.43 0h14.5a17.21 17.21 0 011.9 0 2.8 2.8 0 00.71-.06 2.54 2.54 0 011 0 3.36 3.36 0 001.48 0 .68.68 0 01.28 0 3.77 3.77 0 001.34 0A3.11 3.11 0 01186.3.1a1.28 1.28 0 00.7 0 4.14 4.14 0 01.77-.09h8.14c.45 0 .9.07 1.34.08s.8 0 1.2 0 .76-.06 1.13 0c.62 0 1.23.1 1.84.05s1.23-.06 1.84 0 1.32 0 2 0 1.13 0 1.69.08a1.68 1.68 0 00.5 0 8.15 8.15 0 012.26-.06 1.55 1.55 0 00.21 0 6.84 6.84 0 011.69.07.54.54 0 00.28 0c.4-.16.8 0 1.2 0a.39.39 0 01.2.06.67.67 0 01.29.6.79.79 0 01-.23.67 1.12 1.12 0 01-.69.21H197z"/></g></g></svg><svg width="357" height="89.23" viewBox="-1 -1 357 89.23" xmlns="http://www.w3.org/2000/svg"><g data-name="Layer 2"><g data-name="Layer 1"><rect width="355" height="87.23" rx="40.57"/><path d="M43.5 45c0-6.33 4.13-11.11 10.45-11.11A9.87 9.87 0 0160 35.71a8.36 8.36 0 013.18 5.85h-5.25a3.84 3.84 0 00-4-3.35c-3.44 0-5.08 2.88-5.08 6.74s2 6.71 5.11 6.71a3.91 3.91 0 004.13-3.54h5.26a8.38 8.38 0 01-2.56 5.44A9.26 9.26 0 0154 56c-6.25 0-10.5-4.7-10.5-11zm21.5-.08c0-6.36 4-11.08 10.43-11.08S86 38.56 86 44.92 81.88 56 75.43 56 65 51.27 65 44.92zm15.65 0c0-3.86-1.69-6.83-5.14-6.83s-5.16 3-5.16 6.83 1.75 6.8 5.16 6.8 5.09-2.94 5.09-6.8zm-5.9-15.56h5.55l-3.14 3.86h-3.69zm13.85 4.9h7.07l2.58 9.29c.39 1.34 1.22 4.84 1.22 4.84h.06s.83-3.5 1.19-4.84l2.61-9.29h7.13v21.23h-4.81V44.8c0-.86.09-4.25.09-4.25h-.06s-.75 3.18-1 4l-3.06 11H97.3l-3-11c-.23-.77-1-4-1-4h-.06s.09 3.42.09 4.28v10.66H88.6zm25.4 0h9.56a8.06 8.06 0 015.79 2 7 7 0 012.14 5.22c0 4.07-2.83 7-7.19 7h-5v7.1H114zm9.23 10a2.67 2.67 0 003-2.82c0-1.69-1.1-2.73-3-2.73h-3.89v5.55zm10.71-10h10.16c4.21 0 7.42 2.16 7.42 6.11a5.08 5.08 0 01-3.68 5.14v.09a4.25 4.25 0 013.09 3.89c.44 2.79.15 5.47.89 5.73v.27h-5.11c-.56-.33-.48-2.82-.8-4.93s-1.28-3-3.54-3h-3.17v8h-5.26zm9.21 9.38c2.07 0 3.14-1 3.14-2.58s-1-2.65-3-2.65h-4.09v5.23zm17.47-9.38H166l7.66 21.23h-5.52l-1.25-3.83h-7.42l-1.22 3.83H153zm5.08 13.63l-1.61-5.14c-.35-1.1-.83-3-.83-3h-.06s-.5 1.9-.86 3l-1.63 5.14zm10.08-13.63H181V51h9.53v4.45h-14.75zm23.52 0h5.41l7.66 21.23h-5.52l-1.25-3.83h-7.42L197 55.49h-5.29zm5.08 13.63l-1.6-5.14c-.36-1.1-.83-3-.83-3h-.06s-.51 1.9-.86 3l-1.64 5.14zm9.07.92h5.29c.23 2.14 1.63 3 4.15 3 1.73 0 3.42-.63 3.42-2.23s-1.73-2-4.64-2.76c-3.68-.86-7.57-2-7.57-6.45s3.69-6.53 8.44-6.53c4.6 0 8.16 2.08 8.37 6.53h-5.14c-.2-1.63-1.45-2.55-3.41-2.55s-3.06.8-3.06 2c0 1.49 1.63 1.84 4.81 2.55 3.95.93 7.51 2.14 7.51 6.68s-3.8 6.93-8.7 6.93c-5.64.02-9.35-2.48-9.47-7.17zm32.26-14.55h5.41l7.66 21.23h-5.53L252 51.66h-7.43l-1.21 3.83h-5.29zm5.08 13.63l-1.6-5.14c-.36-1.1-.84-3-.84-3s-.51 1.9-.87 3l-1.63 5.14zm25.02 6.77a10.69 10.69 0 01-5.35 1.34C264.05 56 260 51.27 260 44.92s4-11.08 10.45-11.08 10.48 4.72 10.48 11.08a11.65 11.65 0 01-2.43 7.45l2.4 2.26-2.43 2.58zm-3.42-3.3l-1.93-1.87L272.9 47l2 1.87a9.52 9.52 0 00.74-3.92c0-3.86-1.67-6.83-5.11-6.83s-5.14 3-5.14 6.83 1.73 6.8 5.14 6.8a4.77 4.77 0 001.86-.39zM283.45 48V34.26h5.26v13.92c0 2.08 1.07 3.48 3.65 3.48A3.27 3.27 0 00296 48.1V34.26h5.26V48c0 4.9-2.94 7.87-8.85 7.87S283.45 53 283.45 48zm21.15-13.74h5.26v21.23h-5.26zm1.94-4.9h5.55l-3.15 3.86h-3.68z" fill="#fff"/></g></g></svg><svg width="64.45" height="43.69" viewBox="-1 -1 64.45 43.69" x="357" y="106.51" xmlns="http://www.w3.org/2000/svg"><g data-name="Layer 2"><path d="M18.86 16.19H14.8L15.13 9l-2.75 7.21H8.31L14.37 0h4.42l-.52 6.91L20.85 0h3.93l-5.92 16.19zm.89 0h4.06L29.73 0H25.8l-6.05 16.19zm24.18-1.7l18.52-4.55L14.6 29.46c-4.28 1.74-10 2.85-13.37-1.05-1.43-1.68-1.45-3.9-.87-6C1.7 17.55 5 13.88 8.24 10.27c-1.66 3.34-3 8.05.74 10.7a6.28 6.28 0 005.14.84l22.72-5.58H31.2v-5.76c0-.27-.09-.23-.15-.19a.68.68 0 00-.18.28l-2.1 5.65h-4.11L30.71 0h4l-1.55 4.33L36.87.05h11.56l-1.13 3h-3.55l-1.21 3.24h3.56l-1.05 2.84h-3.58L40 13h4.47l-.55 1.49zm-9.14.93L40.3.74l-5.87 6.85.36 7.83zM9.86 40.27l-.64 1.39h-.76l2.7-5.79 2.7 5.79h-.76l-.64-1.39zm1.3-2.88l-1 2.24h2l-1-2.25zm18-1.27h-.7v5.55h.71v-5.55zm18.71 5.57H47l-1.66-2.35h-.29v2.35h-.7v-5.56h.85a3 3 0 011.49.26 1.56 1.56 0 01-.62 2.88l1.78 2.42zm-2.8-2.93h.22c.72 0 1.5-.13 1.5-1s-.84-1-1.54-1h-.18v2z" fill="#fff" data-name="Layer 1"/></g></svg><svg width="219.55" height="91.2" viewBox="-1 -1 219.55 91.2" y="207.45" xmlns="http://www.w3.org/2000/svg"><g data-name="Layer 2"><path d="M4.39 89l8.35-.07-.15-16.74L30.51 72l-.06-7h-1.08a3.29 3.29 0 01-.53.1c-.28 0-.55-.11-.84-.12-.48 0-.95-.06-1.43-.06s-.88.1-1.32.12-.79 0-1.17 0-.64.12-1 .11h-.75a3.35 3.35 0 01-.55 0 3.11 3.11 0 00-.74-.08c-.58 0-1.13.09-1.71.09h-1.14c-.32 0-.6-.06-.92-.06h-4.74l-.09-9.72 10.07-.09a8.66 8.66 0 001.44 0c.37-.06 1.05-.48 1.43-.31s.25.31.54.39a4 4 0 001.19 0c.34-.08.4-.37.8-.32.22 0 .36.26.59.32.38.09 5.09-.16 5.09-.16l-.06-7-29.53.3v4.53l.09 10.78c0 2 .35 3.89.35 5.9v1.52c0 .52.28.94.3 1.47A7 7 0 014.22 75a3.65 3.65 0 00.07 1.61c.06.29.22.16.16.6a10.31 10.31 0 00-.2 1.45c0 .56 0 1.14.06 1.71V89zm50.14.25c10.54-.14 15.91-5.25 15.84-13.87v-16.1c0-.39-.09-.64-.1-1 0-.27-.1-.52-.12-.78a6.6 6.6 0 01.17-.77c.07-.58-.17-1.11-.1-1.69v-1.07a6.39 6.39 0 00.09-.89v-5.17l-8.54.09v9.01a14.72 14.72 0 00.23 3.47 3.85 3.85 0 01.17.73 2.34 2.34 0 01-.13.69 4.42 4.42 0 00-.1.5c0 .17.06.34.06.51a4 4 0 01-.08 1 4.85 4.85 0 00-.09 1.82 12.62 12.62 0 01.09 1.63c0 1.88 0 3.76.05 5.64v2.29c0 4.19-2.41 7.26-7.71 7.31-5.59 0-7.75-2.87-7.79-7.06l-.24-27.43-8.36.07v3l.06 7v2.32a20 20 0 000 2.05 4.59 4.59 0 00.22.69 4.85 4.85 0 010 2.11 7.78 7.78 0 00-.16.84 4 4 0 00.06 1.1 17.25 17.25 0 01-.06 1.76v6.55c.08 8.77 5.72 13.64 16.38 13.55zm19.52-34.44l12.39-.1v3.16a4.17 4.17 0 01.1 1.22c0 .38-.12.79-.16 1.19s0 .82 0 1.24c0 .78 0 1.58.06 2.36v2.85c0 .56-.06 1.12-.06 1.67v1c0 .43.06.85.07 1.28s0 .88 0 1.32v16.2l8.36-.07-.3-33.54h2.07c.26 0 .44-.16.71-.15a9.61 9.61 0 001.07-.07 7.85 7.85 0 01.84 0c.91 0 1.81.11 2.73.11h4.97l-.06-6.9-32.84.33.07 6.9zm53.55 33.76c10.54-.09 15.92-5.17 15.84-13.82l-.24-27.43-8.36.07v5.01a8.75 8.75 0 01.1 1.91 23.13 23.13 0 000 2.5c0 .46-.06.91-.06 1.37v3.55c0 .81.06 1.46.09 2.18.08 2.52 0 5 .06 7.57v3.23c0 4.18-2.41 7.26-7.71 7.3-5.59 0-7.75-2.87-7.79-7.06l-.24-27.43-8.29.08v10.66a32.76 32.76 0 00.12 4.09c0 .17 0 .34.07.51a11.69 11.69 0 01.09 1.67 7.48 7.48 0 010 1.06 2.3 2.3 0 000 .74 1.72 1.72 0 010 .32v4.11a8.38 8.38 0 010 1.94 2.54 2.54 0 00-.12.61v1.72c.07 8.76 5.71 13.63 16.37 13.54zm30-34.76l9.11-.07c4.44 0 6.59 2.37 6.62 5.65s-2.2 5.56-6.75 5.6l-8.88.08v-.39c0-1.55-.08-3.08-.11-4.63v-1.14c0-.38.07-.57.07-.87v-4.23zm-8 33.9l8.35-.08-.14-16.23 6.74-.05c5.19 0 7.75 2.42 8.13 6.83s.54 8.87 1.58 9.31l8-.06V87s-.34-.23-.37-.27a1.84 1.84 0 01-.3-.48 5.81 5.81 0 01-.41-1.48 48 48 0 01-.47-4.78c0-.47-.1-.94-.14-1.42a13.41 13.41 0 00-.23-1.67 4.32 4.32 0 01-.14-.8 3.19 3.19 0 00-.2-1.1c-.07-.19 0-.43-.13-.61s-.19-.23-.27-.34a.79.79 0 01-.13-.48 3.23 3.23 0 000-.44.86.86 0 00-.15-.52c-.19-.22-.1-.39-.2-.63a4.83 4.83 0 00-.87-1.28 7.22 7.22 0 00-2.45-1.78 10.52 10.52 0 00-1.81-.64v-.18c5.29-1.46 7.51-5.1 7.46-9.85-.06-6.73-5.4-11.21-13.35-11.14l-18.9.16v14.18a56 56 0 00.14 5.65v1.06a9.71 9.71 0 01.22 2.4c0 .43-.14.86-.18 1.29s0 .87-.05 1.3-.13 1-.12 1.49a15.42 15.42 0 01.13 2 14.16 14.16 0 000 2.06l.06 6.45v2.51zm37.51-.32l30.49-.27-.06-6.84-22.13.19-.1-10.92h3.59c.36 0 .69-.06 1.06-.06h.5a15.61 15.61 0 011.67-.11 13.36 13.36 0 011.55 0 9.45 9.45 0 001.07.1c1.11 0 2.22-.07 3.33 0h2.07c.36 0 4.41-.12 4.41-.08l-.06-6.73-19.25.16-.08-9h1l5.22-.05a12.49 12.49 0 001.73 0c.19 0 .34-.09.54-.1h.87c1.17 0 2.35-.06 3.52 0h.81c.27 0 .75.15 1.1.12s.56-.13.84-.17.77 0 1.16-.1a3.34 3.34 0 01.89.06 13 13 0 001.4 0h2.92l-.06-6.9-30.41.31v9.95l.06 6.14v4.86c0 .39.16.73.15 1.11a7.54 7.54 0 01-.06.82 19 19 0 00.07 2.92c0 .67.06 1.34.06 2a4 4 0 00.06.5v1.05a1.55 1.55 0 01.05.23 3.27 3.27 0 01-.06.42 11.87 11.87 0 01-.07 1.19 11.36 11.36 0 00-.09 1.3 4 4 0 000 .49c0 .34-.24.65-.21 1s.12.53.12.83v5.14M84.71 34.32l.09-10.91 19.25.16.06-6.73-19.25-.16.08-9 22 .19.06-6.95h-3.99c-.58 0-1.08.06-1.63.05s-1.38-.1-2.11-.1-1.11.07-1.67.06c-.75 0-1.5 0-2.24-.05h-1.09l-.72-.11c-.31-.05-.64 0-1 0h-2.73c-.54 0-1.08 0-1.62.05h-4.11L81.22.7h-4.57v11.19c0 .68-.07 1.45 0 2.16 0 .13.06.25.08.38s0 .52 0 .75v1.58c0 .53-.06 1.33-.06 2v.84c0 .28-.06.56-.06.85v3.89c0 .44-.06.81-.06 1.23v15.55l30.48.27.06-6.85h-6.08c-.44 0-.84.12-1.29.11h-2.3l-1.71-.06c-.78 0-1.57-.1-2.35-.12h-2.44a1.15 1.15 0 00-.37 0 .84.84 0 01-.32.08h-5.15M37 40.76l8.36.07.2-17.83 16.19.14L61.59 41H70L70.31.6 62 .53v7.22a6.74 6.74 0 010 1.19 5.44 5.44 0 000 1v1.63a5.17 5.17 0 010 1.47 6.83 6.83 0 000 1.63v1.71l-16.19-.14L45.76.39 37.4.32v2c0 1.67 0 3.34-.06 5v3.27c0 .31.08.61.09.92a8.42 8.42 0 000 .87 3.78 3.78 0 010 1c0 .54.05 1.08.05 1.62 0 .37-.06.72-.06 1.09s0 .88-.06 1.33v-.05M12.09 40.54l8.36.08.3-33.54 12.39.1.06-6.9c0-.05-3.87 0-4.15 0h-1.71a11.17 11.17 0 01-1.42 0l-1-.07-.79-.03h-3.19c-1.84 0-3.68 0-5.52-.06L9.84.08 5 0H.06L0 6.9l12.39.1v5.4c0 .17.06.28.07.44s0 .3 0 .45v5.97c0 .3-.06.59-.06.89v3.8c0 .29-.06.56-.06.85v.82a3 3 0 00.06.66 2.91 2.91 0 010 .66v.43c0 .14-.06.17-.11.29a3 3 0 000 1v11.78" data-name="Layer 1" fill="#fff"/></g></svg><svg width="48.85" height="44.09" viewBox="-1 -1 48.85 44.09" x="357" y="150.2" xmlns="http://www.w3.org/2000/svg"><g data-name="Layer 2"><path d="M30.71 42.09h.65a24.32 24.32 0 002.7-.18 19.74 19.74 0 002.53-.46 17.06 17.06 0 002.3-.73 14.49 14.49 0 002.06-1 11.71 11.71 0 001.79-1.25A11.34 11.34 0 0044.25 37a10.82 10.82 0 001.18-1.76 11 11 0 00.85-2 12.81 12.81 0 00.47-2.24 3.93 3.93 0 00.07-1.18 2.12 2.12 0 01-.06-.44 3.85 3.85 0 000-.48c0-.26-.12-.53-.17-.79s-.09-.2-.11-.32a4.28 4.28 0 010-.62 4.06 4.06 0 00-.13-.85c-.14-.43-.36-.84-.54-1.26-.11-.25-.2-.5-.33-.73s-.2-.32-.28-.5-.08-.22-.14-.32a5.87 5.87 0 00-.63-.77c-.14-.16-.24-.34-.39-.49s-.41-.27-.59-.43-.39-.33-.57-.51l-.82-.76a3.19 3.19 0 00-.8-.62c-.34-.15-.66-.34-1-.49A29 29 0 0036.2 18c-1.53-.43-3.08-.79-4.63-1.14-6.1-1.35-9-2.34-8.95-5.62 0-2.88 3-4.72 7.48-4.69 4.27 0 7.47 2.1 7.9 6.18l8 .07C45.45 4.6 39.49.08 30.22 0A26.94 26.94 0 0027 .16a23.07 23.07 0 00-3 .52 17.19 17.19 0 00-2.65.89A13.48 13.48 0 0019 2.89 11.38 11.38 0 0016.66 5l-.24.3c-.17.24-.36.46-.51.72s-.16.4-.27.59a5.07 5.07 0 00-.55 1.29c0 .17 0 .33-.06.5s-.17.53-.24.8v.35c0 .12-.08.12-.09.17a1.23 1.23 0 000 .27c0 .13-.09.26-.11.4s0 .36 0 .54 0 .46-.09.69a5.82 5.82 0 00-.13 1.49c.05.34.12.68.17 1a10.34 10.34 0 00.49 2 8.93 8.93 0 001.95 3.12 11.77 11.77 0 003 2.16 22.67 22.67 0 003.73 1.49c1.37.43 2.78.78 4.18 1.11l.54.13c6.27 1.47 10.18 2.29 10.15 6.25 0 3.73-3.8 5.17-8.06 5.14-5.88 0-8.68-2-9.22-6.87l-8.3-.11a14.71 14.71 0 00.62 4 2.11 2.11 0 00.17.5 2.78 2.78 0 00.26.34 7.62 7.62 0 00.48.64 3 3 0 01.55.73c.12.25.19.53.3.79s.2.3.3.47a2 2 0 00.22.37c.45.5.85 1 1.32 1.49.17.15.37.28.54.43a.4.4 0 00.16.13h.09v.09c0 .02.21.11.3.2s.19.25.32.36a7.38 7.38 0 001 .6 16.09 16.09 0 002.21 1 23.59 23.59 0 005.31 1.19c1.16.12 2.32.19 3.49.2zM0 40.92l8.36.08V29.72a3.06 3.06 0 000-.91c0-.12-.06-.23-.1-.35a2.08 2.08 0 01-.05-.66v-2.9a5.33 5.33 0 010-1c.08-.44.08-.88.14-1.32a10.9 10.9 0 00.06-1.51c0-.48 0-1 .05-1.45v-3.11l.06-5.91V.56L.36.48 0 40.92z" fill="#fff" data-name="Layer 1"/></g></svg><svg width="50.31" height="42.85" viewBox="-1 -1 50.31 42.85" x="465.96" y="63.06" xmlns="http://www.w3.org/2000/svg"><g data-name="Layer 2"><path d="M14.75 40.56l8.24.08.19-20.87c0-2.83-.17-7.08-.17-7.08h.12s1.58 3.46 2.89 5.62l13.86 22.47 8.07.07v-1.39q0-4 .07-7.93v-2.71c0-.73-.18-1.39-.13-2.14a35.61 35.61 0 00.2-5.46C48 20.1 48 19 48 17.86a12.67 12.67 0 010-1.63c0-.36.16-.68.17-1.05.13-3.46.07-6.94.1-10.4V.41L40.06.34l-.18 21.21c0 2.83.16 7 .16 7h-.11s-1.53-3.45-2.83-5.67L23.58.2 15.11.13v2.09c0 1.83 0 3.66-.05 5.48a27.27 27.27 0 00.07 3.84 5.24 5.24 0 010 1.48 12.34 12.34 0 000 1.72v.95c0 .29 0 .55-.06.83-.07 1.11-.07 2.22-.07 3.33S14.92 22 14.91 23l-.06 6.44v11.09zM0 40.44l8.36.07V26.08c0-1.86-.05-4 .08-5.95v-.73a6.93 6.93 0 00-.08-1.51 5.53 5.53 0 01-.07-.7 3.19 3.19 0 01-.08-.75 5.49 5.49 0 00.08-1.22 3.08 3.08 0 010-.91c.09-.48 0-1 .09-1.48a4 4 0 00.11-.58v-.6c0-2.23 0-4.46.06-6.69V.07L.36 0v10.69l-.15 6.44c0 2.27-.1 4.55 0 6.81v.91c0 .32 0 .64-.06 1 0 1.06.06 2.12.06 3.18a23.81 23.81 0 01-.07 2.67A8.54 8.54 0 00.1 33v7.43z" fill="#fff" data-name="Layer 1"/></g></svg><svg width="108.96" height="43.45" viewBox="-1 -1 108.96 43.45" x="357" y="63.06" xmlns="http://www.w3.org/2000/svg"><g data-name="Layer 2"><path d="M76.29 41.1h7.82a9 9 0 011.27 0 6 6 0 00.66.12h1.31c.85 0 1.67.12 2.51.11a8.44 8.44 0 011 .12h5.2c1.09 0 2.19 0 3.28-.08h7.38l.06-6.85-22.13-.19.09-10.91c0-.05 4.61 0 5 0a3.42 3.42 0 01.78.06 8.32 8.32 0 001.12.07c.52 0 1.06.11 1.58.09.31 0 .59-.15.9-.2a23.2 23.2 0 013.23 0c.44 0 6.59.09 6.59.11l.06-6.73c0-.02-4.06 0-4.37 0h-5.24c-.9 0-1.81-.06-2.7-.06h-1.42a5.71 5.71 0 00-1-.13h-4.41l.09-9 22 .19.05-6.89s-5.29-.07-5.58-.09a20.27 20.27 0 00-2.81 0 8 8 0 01-.85 0c-.36 0-.71.12-1.07.1a4.73 4.73 0 00-.87-.04c-.91.15-1.84 0-2.76.08-.64.05-1.24.1-1.88.1a16.39 16.39 0 00-2.7-.17A12.29 12.29 0 0186.3.84c-1.17 0-2.32 0-3.49-.1-.26 0-.51-.1-.77-.12s-.54 0-.81 0c-1.53 0-3 .06-4.58.05V3.3l-.08 6.7c0 1.55-.09 3.11-.09 4.65 0 .4-.12.76-.11 1.17a3 3 0 000 .6 1.72 1.72 0 01.12.52 4.71 4.71 0 000 .84 3.38 3.38 0 01.12.57v2.53a12.27 12.27 0 00-.12 1.36v4.07c0 .46-.12.59-.11.91v13.87zm-30.85-5.24V32.1c0-.88 0-1.77.06-2.65 0-.43.08-6.43.06-6.43l16.19.14L61.6 41l8.35.07v-1.14l.05-6.7c0-3.13.09-6.28.09-9.41v-6.59a17.64 17.64 0 000-2.72 9.07 9.07 0 01-.09-1.38 3.56 3.56 0 01.17-.91 5.32 5.32 0 000-1V9.06q0-3.06.05-6.12V.59L62 .54l-.14 15.84-16.2-.14.1-15.84-8.35-.07v1.29c0 2.43 0 4.87-.07 7.3v8.03a9 9 0 01-.14.93c0 .38.21.66.32 1s-.09 1-.11 1.41-.08.75-.11 1.13a10.84 10.84 0 000 1.14v.77c0 .25-.12.68-.12 1.05 0 .72.12 1.4.12 2.13v2.42c0 .7-.06 1.38-.09 2.07-.07 2.34 0 4.68-.06 7v2.76l8.35.07s.08-9 .13-14.18M0 6.91L12.39 7l-.3 33.53 8.36.08v-2.83l.06-7v-2.42a6.9 6.9 0 01.06-1 5.51 5.51 0 00-.08-1v-3.14c0-1.1-.12-2.14-.12-3.23v-.61c0-.2.11-.42.12-.66v-1.39a7.82 7.82 0 01.21-1.44 3 3 0 000-1.12 8.42 8.42 0 010-1.33V7.09l12.39.1.11-6.9h-8.32a15.11 15.11 0 00-1.78 0 2.09 2.09 0 01-.5 0 4.52 4.52 0 00-.6 0h-4.95c-.49 0-.92-.23-1.4-.24-.68 0-1.34.12-2 .12-.95 0-1.89.11-2.84.11C9.62.28 8.48.16 7.35.1 4.93 0 2.48 0 .06 0v4.43H0v2.48z" fill="#fff" data-name="Layer 1"/></g></svg></svg>