<svg width="262" height="172" xmlns="http://www.w3.org/2000/svg" xmlns:xlink="http://www.w3.org/1999/xlink"><svg width="137" height="63.05" viewBox="-1 -1 137 63.05" y="37.14" xmlns="http://www.w3.org/2000/svg"><g data-name="Layer 2"><g data-name="Layer 1" fill="#fff"><path d="M69.52 41.09s-.06.05-.08.09a1.66 1.66 0 00-.06.21 2.1 2.1 0 01-.06.24 1.94 1.94 0 000 .2 1.41 1.41 0 01-.16.49c-.08.14-.18.27-.26.42s0 .12 0 .2a.39.39 0 01-.08.14.64.64 0 00-.15.28 1.42 1.42 0 01-.08.41c0 .05-.07.07-.09.12a2 2 0 01-.19.31s-.09.06-.13.12a1.07 1.07 0 00-.07.15l-.23.37a1.07 1.07 0 01-.09.19.94.94 0 00-.06.24 7.6 7.6 0 01-.3.92c-.11.33-.24.65-.36 1l-.3.75c-.09.22-.16.45-.27.66s-.09.19-.13.28a3.37 3.37 0 01-.19.32c-.06.1-.09.21-.16.31a.16.16 0 000 .12.66.66 0 010 .15 1 1 0 00-.15.44.75.75 0 010 .26v.09a.74.74 0 000 .17.73.73 0 01-.09.32 3.52 3.52 0 01-.18.4.71.71 0 00-.16.4c0 .27-.3.4-.43.61s0 .13-.08.2a.35.35 0 000 .08 1 1 0 00-.11.32 1.12 1.12 0 01-.19.59 1.56 1.56 0 00-.16.28c0 .12-.06.25-.11.38s-.11.15-.14.23a1.42 1.42 0 010 .16c0 .09-.1.18-.14.27a2.37 2.37 0 01-.19.35s-.12.11-.11.15.32-.07.24 0h.1c0 .07-.11.08-.16.1a.5.5 0 00-.21.12 1.37 1.37 0 00-.23.47.31.31 0 00-.06.2c0 .1-.08.11-.13.17a1.37 1.37 0 00-.22.49 1.58 1.58 0 00-.09.36c0 .12 0 .22-.06.34a.54.54 0 01-.13.3c-.07.07-.18.12-.21.22a.35.35 0 01-.14.2.38.38 0 00-.15.13c-.07.1-.11.2-.22.26a.77.77 0 00-.17.19 1.05 1.05 0 01-.37.25v.09c0 .09.17.18.24.25l.29.27.64.62.38.36s.11.15.15.15c1.64.1 2.78-2.77 3.33-3.87s7.64-18.53 8.93-21.41S80 23.4 83.5 15.25s3.72-11.43 3.43-12.48S84.44.06 82.26 0 76.8.47 59.67 9.61l-.74.4a4.18 4.18 0 01-.61.23c-.38.14-.55.63-.86.87a1.34 1.34 0 01-.71.18 1.47 1.47 0 00-.6.23 8.86 8.86 0 00-.87.44 4.19 4.19 0 00-.66.67 1.28 1.28 0 01-.82.31 1 1 0 00-.69.46 2.22 2.22 0 01-.39.47 1.43 1.43 0 01-.8.14 1.39 1.39 0 00-.84.34 6.53 6.53 0 01-.82.45c-.2.11-.29.29-.46.43s-.3.16-.41.32c-.32.43 0 .82-.63 1a1.21 1.21 0 01-.73 0c-.16 0-.39-.18-.57-.11s-.09.12-.14.17a1.86 1.86 0 01-.64.48 4.68 4.68 0 00-1 .35c-.22.14-.42.31-.64.44a4.9 4.9 0 00-1 .83 3.76 3.76 0 01-1 .77 5.92 5.92 0 00-.92.58.69.69 0 01-.71.22c-.58-.07-.63.49-.94.85-.17.2-.31.18-.54.2a.81.81 0 00-.59.28 2.5 2.5 0 01-.86.54 4.67 4.67 0 00-.83.43c-.7.41-1.42.76-2.1 1.21q-1.4.91-2.79 1.86l-.88.61 9.52-2c2.73-2 14.86-9 25.68-14.79S82.54 3.1 83.34 3.12 82.74 8.55 82 9.7s-.15 1.15-.55 1.47a1.24 1.24 0 00-.29 1c-.6.54-.38.89-.54 1.29a9.34 9.34 0 00-.8 2c-.13.82-1 1.43-1 2a4 4 0 01-.51 1.54c-.16.4.15.54-.18.84a13.5 13.5 0 00-1.58 3.49A15.41 15.41 0 0175 27.07c-.6 1-.14.89-.4 1.28a6.77 6.77 0 00-.61 1.2 6.24 6.24 0 00-.27.72 2.87 2.87 0 00-.23.72.75.75 0 010 .16 1.42 1.42 0 000 .2c0 .07-.06.08-.06.16v.2a.68.68 0 01-.09.25c0 .1 0 .19-.08.28a1.08 1.08 0 01-.3.43 1 1 0 00-.26.4 3 3 0 00-.16.53c0 .15-.11.28-.13.43a1.13 1.13 0 01-.06.36 1.92 1.92 0 00-.19.41 1.81 1.81 0 01-.26.76c-.07.08-.17.15-.24.24s-.07.14-.11.21l-.17.25s-.06.07-.06.1-.07.22-.06.35c.17 0-.08.26-.1.32l-.24.53c-.08.16-.2.3-.29.46s-.35.57-.51.87a8.36 8.36 0 00-.39.86 1.15 1.15 0 00-.06.17.74.74 0 000 .21.46.46 0 01-.05.21c0 .07-.08.18 0 .25s0 0 0 .12a1 1 0 00-.07.18.39.39 0 010 .15zM42.2 21.65a.09.09 0 00-.05.09l-.14.17h-.29c-.12 0-.06-.07.07-.12s0-.1 0-.1v-.08c0-.08 0 0 .1 0h.23c.12 0 .12 0 .05.07zm2.3-1.19h-.21l-.06.05v-.06a.09.09 0 01.1-.09.37.37 0 01.15.05h.06s.06 0 0 0zM45 20a.08.08 0 010-.07h.1c.05 0 0 0 0 0zm.3-.25l-.07.06c-.07.06 0 0-.06 0s0 0 0-.06 0 0 .05 0h.08c.08 0 0 .05 0 0zm13.51-7.09h-.09c-.09 0 0 0 0 0v-.07c0-.07 0 0 .08 0a.33.33 0 010 .06zm.56-.46h.07c.07 0 0 0 0 0zm.34-.32h.07c.07 0 0 0 0 0a.14.14 0 01-.07 0zm7.11-4.27s0 .07-.09.08 0 0-.09.07-.13-.1 0-.15.18 0 .15 0zm.87-.51a1 1 0 01-.35.06h-.06c-.06 0 0-.06.06 0s.06 0 .19 0 .26.07.16.08z"/><path d="M5.16 46.58a1.46 1.46 0 00.37.39 5.66 5.66 0 001.34.77c1.26.34 2.72-1.19 3.65-2s2-1.6 3-2.38q3.89-3 7.88-5.89c4.4-3.17 8.88-6.22 13.39-9.21l18.25-3c6.19-1 20.17-2.7 22.75.19l.61-.92a7.65 7.65 0 00-6.31-3.69A191.44 191.44 0 0041 24.09c-13.88 2.48-26 5.12-30 5.82s-4.71.9-6.79 1.14-3.61.21-4.2.65a.46.46 0 00.28.42c.31.17 0 .41.4.92s.73.47.95.94.51.42 1.7.27a36.21 36.21 0 007.1-1c3.6-.92 14.2-3 15.52-3.17 0 0-7 4.95-9.33 6.7-1.76 1.35-3.5 2.72-5.25 4.08l-3.31 2.6A12.85 12.85 0 014.8 45.8c.19.3.25.52.37.73zm84.77-30.23c0 .54-.18.46.26.63s.78.05.88-.34a7.43 7.43 0 00.53-1.92 4 4 0 00-1.48-1.85c-.56-.22-.93-.15-1.42-.32s-.5 0-.43.54-.19 1.31.09 1.51a3 3 0 01.79.73c.11.22.27.51.27.51s.16.19.23.29.26-.05.28.22zm-8.4 17.93c0 .1-.1.17-.1.26s-.08.19-.12.23a.91.91 0 00-.13.26.86.86 0 00-.09.27.66.66 0 010 .14c0 .07-.08.11-.11.17a.17.17 0 000 .1s0 .07-.07.1a1.92 1.92 0 00-.12.25c0 .08-.16.17 0 .22a1.84 1.84 0 01-.17.38c0 .09-.19.22-.18.33s0 .07 0 .15-.13.14-.15.22 0 .06 0 .09-.13.19-.17.28a3.14 3.14 0 01-.25.44c-.06.09-.08.19-.13.28a2 2 0 01-.22.29 1.45 1.45 0 00-.2.34c0 .06-.12.16-.09.23s-.08.17-.09.22a1.09 1.09 0 01-.05.17c0 .08-.23.22-.18.33a.29.29 0 010 .16s0 .06-.07.1v.08c0 .09-.08.16-.1.25a.5.5 0 000 .12 2.46 2.46 0 01-.09.39 5.36 5.36 0 01-.52 1c-.09.16-.14.34-.22.51s-.23.34-.32.52a2.63 2.63 0 00-.25.6c-.07.21-.08.44-.16.65l-.15.43c-.08.21-.19.4-.28.6s-.13.33-.22.5a5 5 0 00-.39 1.09c-.26 1-.47 1.31-.51 1.7s-.37.7-.29 1.07c0 0 0 .13.06.16s.16 0 .17.1a.18.18 0 01.2.13.69.69 0 000 .13 2.92 2.92 0 00.29.4 3.76 3.76 0 00.25.31c.23.25.49.47.72.72.56.58 1.09 0 1.37-.44s1.46-4.7 2.2-6.23 3.75-8.75 4.15-9.55 2.54-6.16 3-7.53a5.5 5.5 0 00.44-3c-.19-.68-1.28-1.21-2.2-1.43s-.91.1-.86.63a5.64 5.64 0 01-.49 1.65 2.05 2.05 0 00-.18 1.1c.08.27-.3.61-.6 1.12s-.11.63 0 .86-.38.66-.49 1.05-.42.17-.5.49-.14.51-.22.76a3.72 3.72 0 01-.2.59c-.09.18-.24.32-.31.5s0 .09 0 .12a.34.34 0 00.17 0c-.06.12.23 0 .23.15s-.08.12 0 .12-.27.17-.35.22a1.28 1.28 0 00-.26.26c-.12.14-.22.32-.35.45s0 .13-.08.19a1.54 1.54 0 00-.09.37zM135 6.38c-.07-.4-.15-.26-.05-.57s-.2-.58-.31-.74 0-.14-.09-.44-.18-.16-.44-.32 0-.22 0-.22a8.23 8.23 0 00-3.22-2.57c-1.33-.59-4.56-.28-5.06-.12s-2.29.39-2.78.57a14.79 14.79 0 01-1.79.46c-.4.08-1.49.68-2.17.91s-2.84 1.28-3.31 1.54-1 .78-1.29.8-.32.27-.53.49-.29.08-.47.14-.32.29.11.39-.84.69-1 .79-.19 0-.16-.25-.63.25-1 .55a22.67 22.67 0 00-1.85 1.82c-.26.37.16.7-.1.79a2.82 2.82 0 00-1 .91c-.13.25-.56.07-.63.34s-.43.55-.78.87-.27 0-.54.36a3 3 0 01-.76.78c-.1.05-.1.25 0 .5s-.36.4-.57.5a.62.62 0 00-.36.47c0 .15-.1.13-.43.32s-.12.4-.28.53a9.88 9.88 0 00-1.17 1.3c-.13.24-.54 1.08-.6 1.28a1.17 1.17 0 01-.33.42v.2a4.46 4.46 0 00-.4.59c0 .13.34.22.22.29s-.39-.07-.44.32-.17.19-.35.29-2 2.7-2.31 3.1-1.38 2.38-1.59 2.74-.54.29-.69.51.16.2 0 .45-.46.35-.62.88-.23.52-.41.67 0 .52-.16.59 0 .4-.05.57-.2.05-.37.06-.2.28-.21.44a.71.71 0 01-.19.49.63.63 0 00-.28.51c0 .2-.14.6-.27.64s-.11 0-.33.47a1.67 1.67 0 01-.35.56v.59c0 .33-.14.43-.33.34s-.27.27-.24.61a.72.72 0 01-.29.67c-.2.17-.11.71-.14 1s-.17.09-.38.18-.27.62-.3.85-.11 0-.31.11 0 .28-.15.48a1.68 1.68 0 00-.34.58 1.67 1.67 0 01-.2.52c-.1.12-.05.28-.09.45s0 0-.18.28 0 .48-.2.77a1 1 0 00-.19.66c0 .21-.29.54-.52.74a3.69 3.69 0 00-.54 1.09c-.18.38.06.42-.18.77s-.06.55-.36.77-.37.93-.43 1-.06.32-.14.52a2.69 2.69 0 01-.29.87 3.45 3.45 0 00-.5 1.3c0 .32-.1.05-.12.3s.1.25-.23.64a1.88 1.88 0 00-.3.73c0 .13-.08.25-.1.38s0 .29 0 .44-.15.35-.19.54a.49.49 0 01-.08.18 1 1 0 00-.07.46v.33c0 .37-.12.73-.17 1.09a3.55 3.55 0 01-.41 1.28c-.32.69.2 1.16.53 1.58a5.17 5.17 0 01.89 1.41c.25.65 1.79.13 1.87-.17a11.49 11.49 0 00.25-1.79c0-.21.25-.59.25-.82v-1.34c0-.53.31-1.63.42-2.43a26 26 0 01.77-2.89c.15-.48 1.15-2.63 1.27-3s.34-1 .37-1 .16-.39.28-.8 1-2.17 1.16-2.4.76-1.7.93-2 .24-.71.57-1.41.3-.63.29-.71-.05-.26.07-.36a2.15 2.15 0 00.33-.82c.13-.42 2.36-4.15 2.52-4.51s.24-.37.36-.64.1-.5.21-.78a5.25 5.25 0 01.82-1.05c.12-.1.11-.22.17-.34a.8.8 0 00.08-.33 1.71 1.71 0 01.1-.39c.08-.22.2-.12.37-.28a5.72 5.72 0 00.54-1c.21-.4 1-1.47 1.28-1.94a16.1 16.1 0 011.1-1.78 19 19 0 001.6-2.07c.56-.88 3.32-4.48 4-5.17a52 52 0 015-5.1 33.32 33.32 0 015.7-3.54 6.11 6.11 0 011.78-.79c.87-.18 4.52-1.72 7.38-1.86s3 .19 3.18.31 0 1-.12 1.4-.59 1.42-.59 1.57-.21.15-.19.49.06.53-.17.63a1.48 1.48 0 00-.63.56c-.13.23 0 .55-.12.75s-.52.49-.52.7-.31.4-.44.68-.32.19-.51.2-.23.48-.32.73a3 3 0 01-.43.62h-.06c-.38 0-.58.51-.74.56s-.18.36-.33.52-.77.3-.81.68a.77.77 0 01-.58.66 7.72 7.72 0 00-1.28 1.28c-.23.26-2.27 2-2.46 2.15a9.68 9.68 0 00-.91.89c-.09.19-1.56 1.13-1.8 1.35a11.15 11.15 0 00-1.06.82 19.75 19.75 0 01-1.87 1.64 4.69 4.69 0 00-1 .75 13 13 0 01-1.39 1.07 9.11 9.11 0 01-1.17 1c-.35.17-.59.67-1 .84s-1.41 1-1.77 1.15-.3.21-.43.4-.25.22-.51.29a10.67 10.67 0 00-1.67 1.2c-.2.21-1.35 1.26-1.55 1.38a2.45 2.45 0 00-.62.48c-.14.19-.24 0-.33.25a1.1 1.1 0 01-.34.48c-.13.11-.76.71-.89.84s-.74.94-.92 1-.11.34-.26.47-.46.69-.66.9-.13.3-.13.49-.12.09-.24.3-.57 1.22-.65 1.38a1.58 1.58 0 00-.2.53c-.07.31-.13.16-.2.4s.07.28.18.31 0 .15 0 .2-.14.3 0 .41-.13.1-.24.4a3.4 3.4 0 00.22 1.3 3.3 3.3 0 01.23.92c0 .44.43.7.55 1.08a3.08 3.08 0 00.43 1c.24.32.26.68.53.87s.26.17.28.49.26.3.34.45a7.85 7.85 0 001.29 1.43c.2.07.21.1.27.25s1.15 1.34 1.53 1.35-.08-.16.57.39a41.58 41.58 0 006 2.64c.84.25 2 .37 2.49.48a1.49 1.49 0 001.15-.13c.55-.2 1.16.33 1.91.46a17.37 17.37 0 003.73-.28c.25-.1.18-.8.18-.8h-.73c-.35 0-.31-.25-1-.67a10.83 10.83 0 00-3.51-.6c-.53 0-3-.34-7.22-2.24s-4.41-2.76-5.66-5.28.11-5 1.4-6.59a37 37 0 017-6.19c3.63-2.66 10.82-8.62 14.79-12.12a36.79 36.79 0 007.06-8.24A9.24 9.24 0 00135 6.38zM118.57 52l.26-.1c.26-.11.17 0 .26 0s0 0 .07.14-.15.06-.25.14 0 .27-.13.25-.11-.1-.36-.33 0-.11.15-.14z"/></g></g></svg><svg width="114.18" height="34.08" viewBox="-1 -1 114.18 34.08" x="145" y="48.86" xmlns="http://www.w3.org/2000/svg"><g data-name="Layer 2"><g data-name="Layer 1" fill="#fff"><path d="M.07 18.74h2.75l.89-3h4.84l.9 3h2.83L7.55 4.47H4.74L.07 18.74zm5.48-9.36c.22-.76.56-2.2.56-2.2s.32 1.44.54 2.2l1.2 4.11H4.34l1.21-4.11zm7.88 9.36h2.72V4.47h-2.72v14.27zm4.8 0H21V13h2.2a2.35 2.35 0 012.63 2.43c.11 1.54.15 3.14.48 3.3h2.61v-.13c-.47-.22-.39-1.76-.58-3.77-.17-1.74-.81-2.5-2.05-2.88v-.06a3.25 3.25 0 002.41-3.45c0-2.37-1.72-4-4.31-4h-6.16v14.3zM21 6.8h3a1.92 1.92 0 012.14 2c0 1.14-.73 2-2.22 2H21v-4zm18.38 11.94h2.5v-8.18c0-1.16-.11-3-.11-3s.3 1.68.59 2.72l2.25 8.42h2.61l2.3-8.42c.29-1 .59-2.72.59-2.72s-.11 1.8-.11 3v8.18h2.53V4.47h-3.82l-1.9 7.16c-.47 1.8-.82 3.85-.82 3.85s-.37-2.05-.84-3.85l-1.9-7.16h-3.87v14.27zm14.3 0h2.76l.88-3h4.84l.91 3h2.83L61.17 4.47h-2.81l-4.68 14.27zm5.48-9.36c.23-.76.56-2.2.56-2.2s.32 1.44.55 2.2l1.2 4.11H58l1.2-4.11zm7.08 9.36h3.11l2.78-5.21 2.74 5.21h3.17l-4.45-7.49 3.94-6.78h-3L72.13 9l-2.52-4.53h-3l4 6.8-4.33 7.47zm26.42.3c3.77 0 5.14-3 5.14-7.33 0-4.63-1.91-6.92-5.33-6.92a4.66 4.66 0 00-4.84 4.79 4.52 4.52 0 004.6 4.81 3.62 3.62 0 003-1.5 5.59 5.59 0 01-.81 3.21 2.13 2.13 0 01-1.85.86 1.88 1.88 0 01-2-1.5h-2.41C88.44 17.52 90 19 92.66 19zm-.07-6.85a2.43 2.43 0 01-2.52-2.65 2.51 2.51 0 012.53-2.62 2.54 2.54 0 012.58 2.66 2.5 2.5 0 01-2.59 2.61zm11.71 6.87c3.34 0 5.36-2.8 5.36-7.15s-2-7.14-5.35-7.14-5.38 2.77-5.38 7.14 2.08 7.15 5.37 7.15zm0-2.32c-1.91 0-2.72-1.93-2.72-4.83s.81-4.83 2.72-4.83S107 9 107 11.91s-.77 4.83-2.69 4.83zM60 28.72h.37v-3.6s.25.42.44.71l1.91 2.89h.41v-4.17h-.37v3.62s-.21-.37-.42-.69l-1.91-2.93H60v4.17zm3.9 0h.39v-4.17h-.39v4.17zm1.16 0h.39v-1.47l.75-.73 1.65 2.2h.47l-1.85-2.47 1.74-1.7h-.51l-2.25 2.22v-2.22h-.39v4.17zm3.65 0h2.89v-.36h-2.5v-1.62h2.23v-.34h-2.22v-1.51h2.44v-.34h-2.83v4.17zm5.8.08c.87 0 1.47-.48 1.47-1.22s-.67-1.07-1.48-1.23-1.13-.29-1.13-.78.38-.77 1-.77a1 1 0 011.08.89h.38a1.3 1.3 0 00-1.47-1.21c-.83 0-1.39.43-1.39 1.1s.54 1 1.31 1.11 1.28.32 1.28.91-.45.87-1.06.87a1.14 1.14 0 01-1.3-1.1h-.39a1.48 1.48 0 001.68 1.43zm2-.08H77v-1.81h1.19c.88 0 1.32-.42 1.32-1.19a1.11 1.11 0 00-.29-.81 1.26 1.26 0 00-1-.36h-1.65v4.17zm.49-2.14v-1.69h1.2c.6 0 .92.3.92.84s-.28.85-1 .85zm4.82 1.88c-1 0-1.53-.81-1.53-1.82s.53-1.82 1.53-1.82 1.54.81 1.54 1.82-.54 1.82-1.54 1.82zm0 .34a2 2 0 002-2.16 2 2 0 10-3.88 0 2 2 0 001.93 2.16zm2.53-.08h.39v-1.86H86c.61 0 .86.21.89.93s.06.87.15.93h.42c-.07-.05-.15-.22-.18-.89s-.17-1-.6-1.11a.94.94 0 00.7-1 1.06 1.06 0 00-1.18-1.13h-1.89v4.17zm.39-2.19v-1.64h1.39c.63 0 .86.3.86.82s-.31.82-.91.82zm4.35 2.19h.39V24.9h1.4v-.35h-3.2v.35h1.41v3.82zm3.61.08c.87 0 1.46-.48 1.46-1.22s-.67-1.07-1.48-1.23-1.13-.29-1.13-.78.39-.77 1-.77a1 1 0 011.09.89H94a1.31 1.31 0 00-1.47-1.21c-.84 0-1.39.43-1.39 1.1s.54 1 1.31 1.11 1.28.32 1.28.91-.46.87-1.07.87a1.14 1.14 0 01-1.3-1.1H91a1.5 1.5 0 001.69 1.43zm2.73-.08h.41l.82-3c.07-.27.16-.67.16-.67s.08.41.16.67l.79 3h.4l1.13-4.17h-.39l-.73 2.81-.19.83s-.12-.51-.2-.81L97 24.55h-.42l-.76 2.84c-.08.3-.2.8-.2.8s-.11-.52-.19-.82l-.73-2.82h-.4l1.11 4.17zm4.32 0h2.9v-.36h-2.55v-1.62h2.24v-.34h-2.24v-1.51h2.44v-.34h-2.83v4.17zm3.19 0h.4l.49-1.31h1.81l.48 1.31h.42l-1.58-4.17h-.45l-1.57 4.17zm1-1.63l.59-1.56c.09-.25.2-.61.2-.61s.12.38.21.61l.57 1.56zm3 1.63h.39v-1.86h1.27c.61 0 .86.21.89.93s.06.87.16.93h.35c-.07-.05-.15-.22-.18-.89s-.16-1-.6-1.11a.94.94 0 00.7-1 1.06 1.06 0 00-1.18-1.13h-1.86v4.17zm.39-2.19v-1.64h1.39c.63 0 .86.3.86.82s-.31.82-.91.82zM.2 28.72h2.58v-.35H.63c.08-.55.59-.86 1-1.13s1.16-.63 1.16-1.43a1.14 1.14 0 00-1.23-1.16 1.35 1.35 0 00-1 .36 1.39 1.39 0 00-.35 1h.46a1.19 1.19 0 01.25-.78.89.89 0 01.67-.23.8.8 0 01.86.85c0 .58-.37.78-.91 1.11S.21 27.7.2 28.72zm4.54-.24c-.71 0-1.09-.68-1.09-1.76S4 25 4.74 25s1.09.69 1.09 1.76-.37 1.76-1.09 1.76zm0 .32c1 0 1.48-.8 1.48-2.08s-.57-2.08-1.48-2.08-1.48.79-1.48 2.08.53 2.08 1.48 2.08zm1.86-.08h2.58v-.35H7c.08-.55.58-.86 1-1.13s1.15-.63 1.15-1.43A1.13 1.13 0 008 24.65 1.35 1.35 0 007 25a1.39 1.39 0 00-.35 1h.38a1.19 1.19 0 01.25-.78A.89.89 0 018 25a.8.8 0 01.86.85c0 .58-.37.78-.91 1.11s-1.33.77-1.34 1.79zm4.54-.24c-.71 0-1.09-.68-1.09-1.76S10.43 25 11.14 25s1.08.69 1.08 1.76-.36 1.76-1.08 1.76zm0 .32c1 0 1.48-.8 1.48-2.08s-.57-2.08-1.47-2.08-1.48.79-1.48 2.08.53 2.08 1.47 2.08zm101.04 2.65a.33.33 0 00-.21-.31.27.27 0 00-.15 0 4.14 4.14 0 00-.86 0 .46.46 0 01-.2 0 7.23 7.23 0 00-1.23 0h-.15a8.06 8.06 0 00-1.63 0 2.17 2.17 0 01-.36 0c-.41 0-.82-.05-1.23-.05H93.54a3.53 3.53 0 00-.56.05 1.46 1.46 0 01-.51 0 3.16 3.16 0 00-.81-.05 4 4 0 01-1 0 .44.44 0 00-.2 0 3.2 3.2 0 01-1.07 0 2.89 2.89 0 00-.72 0 2.19 2.19 0 01-.51 0H76.25a1.61 1.61 0 00-.31 0 2.82 2.82 0 01-.71 0 5.25 5.25 0 00-.56 0h-2.79a2.91 2.91 0 00-.51 0 1.68 1.68 0 01-.5 0 1.84 1.84 0 00-.62 0 1.36 1.36 0 01-.45 0 7.63 7.63 0 00-1.43-.05h-1a3.5 3.5 0 01-1 0 .78.78 0 00-.26 0 7.09 7.09 0 01-1.22 0 8.46 8.46 0 00-.87-.05h-1.38a13.22 13.22 0 01-1.78 0h-.82a1.33 1.33 0 01-.2 0c-.43-.05-.86.05-1.28 0h-6.85c-.61 0-1.19-.07-1.78 0a.75.75 0 01-.21 0h-.71c-.61 0-1.23.08-1.84 0a1.06 1.06 0 00-.25 0l-1.13.05a6.36 6.36 0 00-1.07 0 .17.17 0 01-.1 0 1.18 1.18 0 00-.56 0 .76.76 0 01-.3 0 1.94 1.94 0 00-.72 0 1.7 1.7 0 01-.45 0h-3a4.37 4.37 0 01-1-.05 1.45 1.45 0 00-.36 0 4.91 4.91 0 01-1.27 0H9.42a4.4 4.4 0 00-.51.05 1.46 1.46 0 01-.51 0 .62.62 0 00-.3 0 3.24 3.24 0 01-1.12 0 4.94 4.94 0 00-1.33 0 1.14 1.14 0 01-.45 0 1.45 1.45 0 00-.36 0c-.08 0-.17.05-.25 0a7 7 0 00-1 0 2.2 2.2 0 01-.36 0 4.87 4.87 0 00-1.32 0 4.73 4.73 0 01-.92.05H.48a1.31 1.31 0 00-.28 0 .17.17 0 00-.12 0 .24.24 0 00-.06.11v.11H0a1 1 0 010 .25c0 .07 0 .13.06.18h15.9a6.64 6.64 0 00.77 0 3.37 3.37 0 01.71 0 2.69 2.69 0 00.56 0h51.56a6.6 6.6 0 01.77 0c.63.06 1.26 0 1.89 0h1.53a2.82 2.82 0 00.41 0 4.58 4.58 0 011.17 0H77a4.22 4.22 0 01.87 0 1.58 1.58 0 00.31 0h7.64a16.18 16.18 0 011.84 0 5.4 5.4 0 00.56 0h1.99c1.23.06 2.46.05 3.68 0a9.31 9.31 0 011.18 0h16.52a1.11 1.11 0 00.5-.12.36.36 0 00.16-.35z"/><path d="M35 24.28v7.54h.31a1.27 1.27 0 000-.2 3.09 3.09 0 010-.43v-.39a2.17 2.17 0 010-.51v-.3a10.48 10.48 0 010-1.12v-2.01a2.54 2.54 0 000-.39 4.57 4.57 0 010-.64v-2.24c0-.11-.09-.23-.19-.19a.12.12 0 00-.09.11v.77zm76.87-3.07a1.41 1.41 0 00-.42 0h-5.53c-.82 0-1.65 0-2.46-.06a10.59 10.59 0 00-2 0h-.87c-1.26 0-2.52 0-3.78-.06a14.74 14.74 0 00-1.88 0c-1.27.1-2.52 0-3.78 0h-2.32a17.36 17.36 0 00-2 0 2.58 2.58 0 01-.56 0 3.24 3.24 0 00-1.12 0 8.62 8.62 0 01-1.15.05H65.08c-1.7 0-3.38-.06-5.08 0h-2.91c-1.22 0-2.43 0-3.64-.05a8.51 8.51 0 00-1 0c-.93.05-1.85.05-2.76 0h-1.6c-1.5 0-3 .07-4.51 0h-9.06a14.28 14.28 0 01-2.17 0 3.09 3.09 0 00-.43 0H26.4a11.46 11.46 0 00-1.31 0h-2.74c-1.26 0-2.52.05-3.78 0h-8.13c-.73.05-1.45.05-2.18.05H.69c-.51 0-.76.17-.65.39s.17.16.37.17l2.59.12c2.14 0 4.27-.05 6.4-.06h33.12a13.24 13.24 0 011.89 0 22.9 22.9 0 002.62 0c1.74-.09 3.48-.07 5.23 0a5.61 5.61 0 00.58 0c2-.07 4.08 0 6.12 0h4.22c1.5 0 3 .06 4.51 0h6.35a18 18 0 002.32 0 20 20 0 012.32 0 20.34 20.34 0 002.47 0h3.17c1.56-.06 3.1-.06 4.65 0h1c1.7-.07 3.39-.06 5.08 0a17 17 0 001.75 0 11 11 0 011.15 0c1.31.06 2.62 0 3.93.05a36.41 36.41 0 013.91 0h5.58a2.29 2.29 0 00.37 0c.32-.06.18-.27.19-.38s0-.18-.1-.24zM103.49.88h-2.68a8.23 8.23 0 01-1.11 0 6.18 6.18 0 00-.86 0h-3.6l-.52.05h-.41A8.44 8.44 0 0093 .87h-5.56a.81.81 0 01-.22 0 2.67 2.67 0 00-.63 0H85.4a2.43 2.43 0 00-.85 0 1 1 0 01-.29 0h-2.49a5.25 5.25 0 00-.56 0H68.54L64.3 1H43.75a2 2 0 01-.41 0 1.46 1.46 0 00-.51 0 5.54 5.54 0 01-.56.05h-5.65L36 1h-4.27a11 11 0 00-1.15 0H27a2.41 2.41 0 00-1 0c-.33-.06-.67 0-1-.05a.76.76 0 00-.3 0 1.09 1.09 0 01-.44 0A4.05 4.05 0 0023 1a.75.75 0 01-.26 0 3.34 3.34 0 00-1.18 0h-.6a1.62 1.62 0 00-.22 0 1.34 1.34 0 01-.63 0 1.31 1.31 0 00-.59 0 1.18 1.18 0 01-.59 0 .61.61 0 00-.19 0L18 .92a6.77 6.77 0 01-.78 0 8.83 8.83 0 01-1.15 0H15a10.16 10.16 0 00-1.56 0 .38.38 0 01-.15 0A4.63 4.63 0 0012 1a1.47 1.47 0 01-.66 0 .9.9 0 00-.49 0h-.14a7.67 7.67 0 00-1.27 0H7.08C6 .91 4.9.92 3.81.91H2.4C1.93.91 1.31 1 .77 1 .55 1 .32.94.1.9.05.9 0 .83 0 .74S0 .37.17.35H2.1a2.09 2.09 0 00.56 0A1.24 1.24 0 013 .26h1.15a2.32 2.32 0 01.59 0 3.5 3.5 0 001 0A.76.76 0 016 .28a1.3 1.3 0 00.44 0 .92.92 0 01.33 0A.92.92 0 007.1.3a1.7 1.7 0 01.45 0 2 2 0 00.59 0h.11a1 1 0 00.56 0 1.82 1.82 0 01.33 0h.44a1.29 1.29 0 01.34 0 2.45 2.45 0 00.66 0h.3a1.62 1.62 0 01.22 0 3.7 3.7 0 001.15 0 1.13 1.13 0 01.41 0 1.83 1.83 0 00.7 0 .58.58 0 01.26 0 4.84 4.84 0 00.93.05 6.06 6.06 0 00.74 0 3.78 3.78 0 011.3 0h3.26a6.77 6.77 0 01.78 0 5.09 5.09 0 00.78 0A.59.59 0 0021.7.3c.1 0 .19-.08.28 0a.19.19 0 00.15 0 1.14 1.14 0 01.52 0h.59a2.58 2.58 0 001 0 1 1 0 01.48 0 4.52 4.52 0 001 .06.83.83 0 00.22 0 .77.77 0 01.52 0 1.94 1.94 0 00.54 0h3.12a.82.82 0 00.22 0 1.9 1.9 0 01.63 0h.37a2.94 2.94 0 00.66 0 2.64 2.64 0 011 0 1.09 1.09 0 00.26 0 4.56 4.56 0 01.74 0h.18a.57.57 0 01.26 0 .62.62 0 00.33 0 2.58 2.58 0 011 0 1.89 1.89 0 00.82 0 .42.42 0 01.22 0 .92.92 0 00.37 0 1.5 1.5 0 01.37 0h19.97a2.9 2.9 0 00.93 0 .58.58 0 01.26 0 3.07 3.07 0 00.74 0h2.19A1.31 1.31 0 0062 .2a1 1 0 01.51 0 .41.41 0 00.22 0 .71.71 0 01.41 0h.07a3.38 3.38 0 01.78 0l.81-.04a1.1 1.1 0 01.18 0c.45.07.89-.05 1.34 0h.67c.43-.06.86 0 1.29 0h4.94a.09.09 0 01.07 0 7.23 7.23 0 00.93 0 .38.38 0 00.15 0 5.76 5.76 0 01.59 0 9.41 9.41 0 001.3 0h1a4.48 4.48 0 01.63.06 3.79 3.79 0 00.89 0h.19a2.06 2.06 0 00.7 0h.7a4 4 0 011 0 .73.73 0 00.33 0 .86.86 0 01.45 0 .66.66 0 00.37 0 1.54 1.54 0 01.37 0h2.52a1.3 1.3 0 00.52 0 .82.82 0 01.22 0h7.62a8.34 8.34 0 011 0 1.54 1.54 0 00.37 0 1.3 1.3 0 01.52 0 1.71 1.71 0 00.78 0 .36.36 0 01.14 0 2.12 2.12 0 00.71 0 2 2 0 01.59.05.67.67 0 00.37 0 1.84 1.84 0 01.41 0h10.09a.76.76 0 00.26 0 4.31 4.31 0 011.19 0h.11a3.81 3.81 0 01.89 0 .22.22 0 00.14 0c.21-.08.42 0 .63 0a.35.35 0 01.11 0 .37.37 0 01.15.32.42.42 0 01-.12.35.61.61 0 01-.36.11h-8.21z"/></g></g></svg><svg width="145" height="37.14" viewBox="-1 -1 145 37.14" xmlns="http://www.w3.org/2000/svg"><g data-name="Layer 2"><g data-name="Layer 1"><rect width="143" height="35.14" rx="16.34"/><path d="M17.52 18.11a4.17 4.17 0 014.21-4.48 3.94 3.94 0 012.44.76 3.29 3.29 0 011.28 2.35h-2.11a1.56 1.56 0 00-1.62-1.35c-1.39 0-2 1.16-2 2.72s.78 2.7 2.05 2.7a1.58 1.58 0 001.67-1.42h2.11a3.37 3.37 0 01-1 2.19 3.72 3.72 0 01-2.73 1 4.16 4.16 0 01-4.3-4.47zm8.64-.02a4.24 4.24 0 118.46 0 4.24 4.24 0 11-8.46 0zm6.31 0c0-1.55-.68-2.75-2.07-2.75s-2.08 1.2-2.08 2.75.7 2.74 2.08 2.74 2.07-1.18 2.07-2.74zm-2.36-6.26h2.24l-1.27 1.55H29.6zm5.58 1.97h2.85l1 3.74c.15.54.49 1.95.49 1.95s.34-1.41.48-1.95l1-3.74h2.99v8.55h-1.94v-6.01s-.3 1.28-.4 1.59l-1.23 4.42H39.2L38 17.94c-.1-.31-.4-1.6-.4-1.6v6.01h-1.9zm10.22 0h3.85a3.28 3.28 0 012.34.79 2.79 2.79 0 01.86 2.1 2.7 2.7 0 01-2.9 2.8h-2v2.86h-2.15zm3.72 4a1.08 1.08 0 001.2-1.14 1.06 1.06 0 00-1.2-1.1h-1.57v2.24zm4.37-4h4.1c1.69 0 3 .87 3 2.46a2 2 0 01-1.49 2.07 1.71 1.71 0 011.25 1.57c.18 1.12.06 2.2.36 2.31v.1H59.1c-.23-.13-.19-1.13-.32-2a1.26 1.26 0 00-1.43-1.22h-1.28v3.2H54zm3.71 3.78c.84 0 1.27-.39 1.27-1s-.41-1.07-1.22-1.07h-1.69v2.11zm6.99-3.78h2.18L70 22.35h-2.26l-.5-1.54h-3l-.49 1.54h-2.12zm2 5.49l-.65-2.07c-.05-.44-.28-1.22-.28-1.22s-.2.77-.35 1.21l-.65 2.07zm4.11-5.49h2.11v6.76h3.84v1.79h-6zm9.47 0h2.18l3.09 8.55h-2.23l-.5-1.54h-3l-.49 1.54h-2.12zm2 5.49l-.65-2.07c-.14-.44-.33-1.21-.33-1.21s-.2.77-.34 1.21l-.66 2.07zm3.72.37h2.13c.1.86.66 1.22 1.68 1.22.69 0 1.37-.25 1.37-.9s-.69-.82-1.86-1.11c-1.49-.35-3-.8-3-2.59s1.48-2.64 3.39-2.64 3.29.84 3.38 2.64H91a1.22 1.22 0 00-1.38-1c-.74 0-1.23.32-1.23.8s.66.74 1.94 1c1.59.37 3 .86 3 2.69s-1.53 2.79-3.5 2.79c-2.3 0-3.83-1.01-3.83-2.9zm13-5.86h2.18l3.08 8.55H102l-.51-1.54h-3L98 22.35h-2.1zm2 5.49l-.64-2.07L100 16s-.2.77-.35 1.21L99 19.29zM111.1 22a4.36 4.36 0 01-2.15.54 4.13 4.13 0 01-4.21-4.47 4.22 4.22 0 118.43 0 4.73 4.73 0 01-1 3l1 .91-1 1zm-1.38-1.33l-.77-.75 1-1 .79.75a3.84 3.84 0 00.3-1.58c0-1.55-.67-2.75-2.06-2.75s-2.07 1.2-2.07 2.75.69 2.74 2.07 2.74a1.81 1.81 0 00.74-.14zm4.46-1.33V13.8h2.12v5.61a1.28 1.28 0 001.47 1.4 1.32 1.32 0 001.45-1.44V13.8h2.11v5.54c0 2-1.18 3.17-3.56 3.17s-3.59-1.17-3.59-3.17zm8.52-5.54h2.12v8.55h-2.12zm.78-2h2.24l-1.27 1.55H123z" fill="#fff"/></g></g></svg><svg width="34.8" height="23.9" viewBox="-1 -1 34.8 23.9" y="123.96" xmlns="http://www.w3.org/2000/svg"><g data-name="Layer 2"><path d="M9.91 8.5H7.78L8 4.7 6.5 8.5H4.36L7.55 0h2.32L9.6 3.63 11 0h2L9.91 8.5zm.47 0h2.13L15.62 0h-2.07l-3.17 8.5zm12.7-.89l9.72-2.39L7.67 15.48c-2.25.91-5.27 1.49-7-.56a3.3 3.3 0 01-.46-3.15c.7-2.55 2.45-4.48 4.14-6.38-.9 1.76-1.6 4.23.37 5.61a3.32 3.32 0 002.7.44l11.93-2.92h-3v-3c0-.14-.06-.12-.09-.1a.43.43 0 00-.09.15l-1.1 3H13L16.13 0h2.12l-.83 2.24L19.37 0h6.07l-.59 1.57H23l-.63 1.7h1.87l-.57 1.53h-1.88l-.77 2h2.35l-.29.78zm-4.8.49L21.17.39 18.08 4l.2 4.11zM5.18 21.15l-.34.74h-.39l1.41-3 1.42 3.05h-.4l-.34-.74zm.68-1.51l-.53 1.18h1.06l-.53-1.18zm9.46-.64H15v2.92h.37V19zm9.83 2.93h-.45l-.87-1.24h-.16v1.21h-.37V19h.45a1.53 1.53 0 01.79.14.81.81 0 01.39.69.81.81 0 01-.72.82l.94 1.27zm-1.48-1.54h.12c.38 0 .79-.07.79-.53s-.44-.53-.81-.53h-.1v1.06z" fill="#fff" data-name="Layer 1"/></g></svg><svg width="116.28" height="48.86" viewBox="-1 -1 116.28 48.86" x="145" xmlns="http://www.w3.org/2000/svg"><g data-name="Layer 2"><path d="M2.3 46.72h4.39l-.08-8.8 9.39-.11v-3.68h-.57a1.37 1.37 0 01-.28 0c-.15 0-.29-.06-.44-.06h-.75c-.24 0-.46 0-.7.06s-.41 0-.61 0-.34.06-.51.05h-.68a1.81 1.81 0 00-.39-.05c-.31 0-.6.05-.9.05H6.58v-5.11l5.28-.05a4.82 4.82 0 00.76 0c.2 0 .55-.25.75-.17s.13.17.29.21a2.15 2.15 0 00.62 0c.18 0 .21-.19.42-.17s.19.14.31.17c.2.05 2.68-.09 2.68-.09v-3.65l-15.5.13v8.04c0 1.06.18 2 .18 3.1v.8c0 .27.14.49.16.77a3.6 3.6 0 01-.32 1.21 2.21 2.21 0 000 .85c0 .15.12.08.09.31a4 4 0 00-.1.76v5.4zm26.34.14c5.54 0 8.36-2.72 8.32-7.27v-8.91c0-.14-.05-.28-.06-.41a2 2 0 01.09-.41c0-.3-.09-.58-.06-.88s0-.38 0-.56a3.75 3.75 0 000-.47v-2.74h-4.39v4.74a7.29 7.29 0 00.09 1.81 2.46 2.46 0 01.09.39 1 1 0 01-.07.35 1.28 1.28 0 00-.05.27 2.48 2.48 0 000 .27 1.94 1.94 0 010 .54 2.82 2.82 0 000 1 8 8 0 010 .86v4.2c0 2.2-1.26 3.82-4.05 3.84-2.94 0-4.07-1.51-4.09-3.71l-.16-14.48h-4.39v6.48a9.55 9.55 0 000 1.07c0 .12.09.24.12.37a2.55 2.55 0 010 1.1 3.82 3.82 0 00-.09.44 2.24 2.24 0 000 .58v4.37c0 4.6 3 7.16 8.6 7.12zM38.9 28.79l6.5-.05v1.66a2.28 2.28 0 01.06.64c0 .2-.07.41-.09.62s0 .44 0 .66v14.03h4.39l.03-17.65h1.14c.14 0 .23-.08.37-.08a3.52 3.52 0 00.56 0h.45c.48 0 1 .06 1.43.05h2.61v-3.62l-17.41.15v3.62zM67 46.53c5.54-.05 8.36-2.72 8.32-7.26l-.13-14.41H70.8v2.58a4.79 4.79 0 01.05 1 11.59 11.59 0 000 1.32v9.44c0 2.2-1.27 3.82-4.06 3.84s-4.07-1.51-4.08-3.71L62.69 25H58.3v5.6a17.05 17.05 0 00.06 2.15 2.51 2.51 0 010 .27 6.4 6.4 0 010 .88 5 5 0 010 .55 1 1 0 000 .39 1 1 0 010 .17v2.16a5 5 0 010 1 1.65 1.65 0 00-.06.32v.95c0 4.61 3 7.16 8.6 7.12zm15.79-18.26h4.78c2.33 0 3.46 1.24 3.48 3s-1.16 2.92-3.55 2.94h-4.66V34c0-.82 0-1.62-.06-2.44v-3.27zm-4.23 17.8L83 46l-.08-8.52h3.54c2.73 0 4.07 1.27 4.27 3.59s.29 4.66.83 4.89h4.21v-.2l-.2-.15a1 1 0 01-.15-.25 2.91 2.91 0 01-.22-.78c-.2-.86-.2-1.71-.3-2.58 0-.26-.05-.5-.07-.75a6.42 6.42 0 00-.12-.88 2.84 2.84 0 01-.08-.42 1.55 1.55 0 00-.08-.6c0-.1 0-.22-.07-.32l-.14-.18a.35.35 0 01-.07-.25 1.76 1.76 0 000-.23.5.5 0 00-.08-.27c-.1-.12 0-.21-.1-.34a2.76 2.76 0 00-.46-.67 3.74 3.74 0 00-1.29-.93 5.94 5.94 0 00-1-.34v-.09a4.9 4.9 0 003.92-5.17c0-3.54-2.84-5.89-7-5.86l-9.93.09v7.44a29.37 29.37 0 00.08 3v.56a5.33 5.33 0 01.12 1.26c0 .23-.08.45-.1.68s0 .46 0 .68-.07.52-.07.78a7.69 7.69 0 01.07 1.07 9.91 9.91 0 000 1.09v4.7zm19.7-.17l16-.13v-3.6l-11.62.1-.05-5.73h3.58a7.3 7.3 0 01.81 0 5.51 5.51 0 00.57.06h2.84c.19 0 2.31-.06 2.31 0v-3.54L102.54 33v-4.75h3.24a6.89 6.89 0 00.91 0 2.74 2.74 0 01.28-.05h2.74c.19 0 .39.08.57.06s.3-.07.45-.09l.6-.05a1.83 1.83 0 01.47 0 6 6 0 00.74 0H114v-3.63l-15.93.14v11.01c0 .29.08.38.08.58v.43a9.9 9.9 0 000 1.54v1.05a2.3 2.3 0 000 .26v.56a.45.45 0 010 .11 1.43 1.43 0 010 .22v.63a5.34 5.34 0 000 .69v.25c0 .09-.12.35-.11.53s.07.28.07.43v2.7M44.5 18v-5.73l10.11.08V8.82l-10.03-.06V4.01l11.53.1V.48h-4.84a11.55 11.55 0 01-1.18 0h-9.78v21.09l16 .13v-3.59h-.77L54 18.1h-1.09c-.36 0-.44.06-.67.06h-2.11c-.41 0-.82-.05-1.24-.06h-1.26a.61.61 0 00-.19 0 .48.48 0 01-.18 0h-2.57m-25.23 3.31h4.39l.08-9.36 8.51.07-.09 9.36h4.39L36.93.32h-4.39v3.72a3.32 3.32 0 010 .63 2.86 2.86 0 000 .51v.86a3.29 3.29 0 010 .77 3.54 3.54 0 000 .86v.93L24 8.52V.21h-4.39v5.35c0 .16 0 .32.05.48s0 .3 0 .46a1.68 1.68 0 010 .5 8.14 8.14 0 000 .85v1.27M6.35 21.3h4.39l.16-17.58h6.51V.1h-3.08a6 6 0 01-.74 0h-5.5L5.17 0H0v3.62l6.51.06v2.84a1.57 1.57 0 000 .23v6.73a2 2 0 000 .35 1.36 1.36 0 010 .35v.22a.23.23 0 01-.06.15 1.88 1.88 0 000 .53v6.24" data-name="Layer 1" fill="#fff"/></g></svg><svg width="26.61" height="24.11" viewBox="-1 -1 26.61 24.11" y="147.86" xmlns="http://www.w3.org/2000/svg"><g data-name="Layer 2"><path d="M16.13 22.11h.34a13.36 13.36 0 001.42-.1 10 10 0 001.33-.24 9 9 0 001.21-.39 7.65 7.65 0 001.08-.52 6.11 6.11 0 00.94-.66 5.36 5.36 0 00.79-.79 6.25 6.25 0 00.63-.92 6 6 0 00.44-1 6.89 6.89 0 00.25-1.18 2.56 2.56 0 000-.62.85.85 0 010-.23 2.09 2.09 0 000-.25c0-.14-.07-.28-.09-.41a1.77 1.77 0 01-.06-.17v-.33a1.62 1.62 0 00-.07-.44c-.07-.23-.19-.45-.28-.67s-.1-.26-.17-.38-.11-.17-.15-.26 0-.12-.07-.17a4.35 4.35 0 00-.34-.41c-.07-.08-.12-.18-.2-.26s-.22-.14-.31-.22l-.3-.27-.43-.39a1.46 1.46 0 00-.42-.33l-.53-.26A15.86 15.86 0 0019 9.43c-.81-.23-1.62-.42-2.44-.6-3.2-.71-4.71-1.23-4.7-2.95 0-1.52 1.57-2.48 3.93-2.46s3.95 1.1 4.21 3.24h4.21C23.87 2.42 20.75 0 15.87 0a16.12 16.12 0 00-1.7.08 12.17 12.17 0 00-1.56.28 8.75 8.75 0 00-1.39.47 6.62 6.62 0 00-1.22.69A6 6 0 008.75 2.6l-.12.16a3.18 3.18 0 00-.27.37c-.07.11-.09.22-.15.32a2.27 2.27 0 00-.28.68 2.3 2.3 0 000 .26c0 .14-.1.27-.13.41s0 .13 0 .19v.44a2.81 2.81 0 010 .29v.36a2.58 2.58 0 00-.07.78c0 .18.06.36.08.54a5.49 5.49 0 00.27 1 4.53 4.53 0 001 1.64 6.1 6.1 0 001.57 1.13 11.38 11.38 0 002 .79c.72.23 1.46.41 2.2.58l.28.07c3.29.77 5.35 1.2 5.33 3.28s-2 2.72-4.23 2.7c-3.09 0-4.56-1.05-4.84-3.61h-4.3a7.87 7.87 0 00.33 2.1 1.2 1.2 0 00.08.27l.14.18a2.69 2.69 0 00.26.33 1.69 1.69 0 01.28.38c.07.14.1.28.16.42a2 2 0 00.16.24.64.64 0 00.11.2c.24.26.45.54.7.78.08.08.19.15.28.23l.08.07h.05v.05c0 .05.11.06.16.11a1.37 1.37 0 00.16.18 3.65 3.65 0 00.54.32 8 8 0 001.16.51 12.11 12.11 0 002.56.65c.61.07 1.22.1 1.83.11zM0 21.49h4.39V15.6a1.54 1.54 0 000-.48v-.18a1.34 1.34 0 010-.35v-1.52a3 3 0 010-.52c0-.23 0-.46.07-.69a5.22 5.22 0 000-.79V.3L.19.25 0 21.49z" fill="#fff" data-name="Layer 1"/></g></svg><svg width="27.37" height="23.46" viewBox="-1 -1 27.37 23.46" x="58.19" y="100.19" xmlns="http://www.w3.org/2000/svg"><g data-name="Layer 2"><path d="M7.75 21.31h4.33l.1-11c0-1.48-.09-3.71-.09-3.71h.06s.85 1.89 1.52 3.02L21 21.42h4.24V15.1c0-.47-.09-.73-.07-1.12a18.41 18.41 0 00.1-2.87c-.05-.59-.06-1.18-.06-1.77a8.22 8.22 0 010-.86 4.86 4.86 0 00.1-.55c.06-1.81 0-3.64 0-5.46V.18h-4.32L21 11.32c0 1.49.08 3.68.08 3.68H21s-.8-1.82-1.48-3L12.39.1 7.94.07v3.98a15 15 0 000 2 2.55 2.55 0 010 .78 6.76 6.76 0 000 .9v13.56zM0 21.24h4.39V10.15a3.46 3.46 0 000-.79v-.37a2.58 2.58 0 010-.39 2.72 2.72 0 000-.64 1.93 1.93 0 010-.48V6.7c0-.25 0-.2.06-.31s0-.21 0-.31V0H.19v5.62L.11 9v4.05a4.36 4.36 0 010 .51v1.67a11.06 11.06 0 010 1.41 5.47 5.47 0 000 .7v1.95C0 19.84 0 20.4 0 21v.28z" fill="#fff" data-name="Layer 1"/></g></svg><svg width="58.19" height="23.77" viewBox="-1 -1 58.19 23.77" y="100.19" xmlns="http://www.w3.org/2000/svg"><g data-name="Layer 2"><path d="M40.08 21.59h4.1a5 5 0 01.67 0 3.4 3.4 0 00.34.07h.7c.44 0 .87.06 1.31.05a5 5 0 01.54.07h8.35v-3.6L44.5 18v-5.73c0-.03 2.42 0 2.65 0a1.89 1.89 0 01.41 0 3.69 3.69 0 00.58 0 7.86 7.86 0 00.83 0 2.73 2.73 0 00.48-.1 12 12 0 011.7 0l3.46.06V8.69h-7.19a3.07 3.07 0 00-.53-.07h-2.31V3.86l11.53.1V.34h-2.94a12 12 0 00-1.47 0h-.45c-.19 0-.37.06-.56 0a1.63 1.63 0 00-.44 0c-.47.07-1 0-1.44 0s-.66.06-1 .06a8.42 8.42 0 00-1.33.08 6.35 6.35 0 01-1.15 0H43.5c-.14 0-.27 0-.4-.06s-.29 0-.43 0h-2.41v7.35c0 .21-.06.4-.06.61v.32a.76.76 0 01.06.27 3.38 3.38 0 000 .45 1.37 1.37 0 01.07.29v1.34c0 .24-.07.46-.07.71v2.14a2.42 2.42 0 00-.06.47v7.29zm-16.21-2.75v-6.77l8.51.08-.08 9.36h4.39V9.05a9.75 9.75 0 000-1.43 4.37 4.37 0 01-.06-.72 1.94 1.94 0 01.09-.48 2.24 2.24 0 000-.52V.32h-4.39l.14 8.28L24 8.53V.21h-4.39v8.7c0 .17-.06.32-.07.48s.11.35.17.53a2.32 2.32 0 01-.06.74 5.9 5.9 0 01-.06.59v1.01c0 .14-.06.35-.06.55 0 .38.06.73.06 1.11v7.49h4.39s0-4.71.07-7.45M0 3.63l6.51.06-.16 17.61h4.39v-6.4a3.2 3.2 0 010-.54 3 3 0 000-.52v-1.65c0-.57-.06-1.11-.06-1.69v-.32c0-.1.06-.22.06-.34V9.1a3.88 3.88 0 01.11-.75 1.67 1.67 0 000-.59 4.08 4.08 0 010-.7V3.72l6.51.06V.15h-4.37a5.9 5.9 0 00-.94 0H8.86C8.68.14 8.45 0 8.2 0s-.7.06-1 .06c-.51 0-1 .06-1.5.06S4.46.09 3.86.05C2.59 0 1.31 0 0 0v3.63z" fill="#fff" data-name="Layer 1"/></g></svg></svg>